<svg version="1.2" xmlns="http://www.w3.org/2000/svg" viewBox="0 0 751 286" fill="#58A9E5">
	<g>
		<path d="m142.9 94.7c0-0.2-0.4-0.4-0.5-0.3-0.6 0.5-1.2 1.4-2.1 0.9-0.2-0.1-0.5-0.1-0.2 0.2q0.4 0.3 0.9 0.4-0.5 0.3-1 0.6 0-0.1 0-0.1 0-0.1 0-0.2c0-0.1-0.4-0.3-0.4-0.2q0 0.1 0 0.2-0.1 0-0.1 0-0.2 0.3-0.5 0.6 0.1-0.1 0.1-0.3 0 0 0-0.1 0 0 0 0-0.1 0-0.1-0.1 0 0 0.1-0.1 0.3-0.1 0.5-0.3 0.1 0 0.1-0.1 0 0 0 0 0 0-0.1 0 0 0 0 0 0-0.1 0-0.1 0 0 0 0-0.1 0-0.1-0.1 0 0 0 0 0 0-0.1 0-0.1-0.1-0.2-0.1 0.1-0.1 0.1-0.2c0.1 0-0.4-0.4-0.5-0.3q-0.1 0.2-0.3 0.3-0.1-0.1-0.2-0.1 0-0.2 0-0.3 0-0.1 0-0.3 0 0-0.1-0.1 0 0 0 0 0 0-0.1-0.1 0 0 0 0-0.1-0.1-0.3-0.1 0 0 0 0 0.1-0.2 0.2-0.5 0.1-0.2 0.2-0.5c0-0.1-0.5-0.4-0.6-0.3q-0.1 0.4-0.3 0.7 0 0-0.1 0.1-0.2 0.3-0.4 0.6 0-0.1-0.1-0.1 0 0-0.1 0-0.2 0.1-0.4 0.2-0.2 0.1-0.3 0.2-0.1 0-0.1 0 0 0 0 0 0 0-0.1 0 0 0 0 0.1-0.1 0-0.1 0-0.3 0-0.5-0.1 0 0-0.1 0 0 0 0 0 0 0 0 0 0.1-0.1 0.1-0.1 0.3-0.3 0.4-0.7c0.1-0.2-0.4-0.5-0.5-0.4q-0.1 0.2-0.3 0.4 0 0 0 0 0.1-0.1 0.2-0.3c0.1-0.1-0.4-0.4-0.5-0.3q-0.2 0.1-0.4 0.3 0 0 0 0-0.3 0.1-0.5 0.2 0 0-0.1 0c-0.1-0.1-0.2-0.2-0.3-0.1q0 0 0 0 0 0 0 0-0.2 0.1-0.4 0.2-0.2 0-0.3 0.1 0 0-0.1 0-0.1 0-0.3 0.1 0 0 0 0-0.2 0-0.4 0 0 0 0 0 0.3-0.1 0.5-0.3 0 0 0-0.1 0 0 0 0 0 0 0-0.1 0 0 0 0 0 0-0.1 0 0-0.1 0-0.1-0.1 0-0.1 0 0 0 0 0 0 0 0 0 0 0 0 0 0.2 0 0.5 0 0 0 0 0 0.5 0 1-0.1 0 0 0-0.1 0.3 0 0.5-0.1 0 0 0 0 0.4 0.1 0.7 0 0 0 0.1 0 0.1-0.1 0.3-0.2 0 0 0 0 0.2-0.1 0.3-0.2c0.1-0.1-0.5-0.4-0.6-0.4q-0.2 0.1-0.4 0.1-0.1 0-0.1 0-0.1 0-0.1 0 0-0.1-0.1 0-0.3 0-0.6 0.1-0.1 0-0.2 0 0 0-0.1 0-0.1 0-0.2 0-0.1-0.1-0.2-0.1c-0.4-0.2-0.3 0.1-0.1 0.2q0.1 0.1 0.1 0.1 0 0 0 0-0.1 0-0.2 0-0.2 0.1-0.4 0.1-0.3 0-0.6 0 0 0-0.1 0-0.6 0.1-1.2 0.1 0 0 0 0 0.2 0 0.4 0c0.1-0.1-0.3-0.4-0.4-0.4-0.5 0-1 0-1.4-0.1q-0.1-0.1-0.2-0.1 0.1-0.1 0.2-0.2c0.4 0.2 1 0.4 1.5 0.4q0.1 0.1 0.1 0.1c0.3 0.1 0.5 0.2 0.8 0.1 0 0-0.1-0.1-0.1-0.1q-0.1-0.1-0.2-0.2-0.1 0-0.2 0 0.2-0.1 0.4-0.3c0.1-0.1-0.3-0.3-0.5-0.4q0.1 0 0.1-0.1 0.1 0 0.1 0 0.2 0 0.3 0 0.2 0 0.3 0 0.1 0 0.1-0.1 0.3 0 0.6-0.2 0 0 0 0 0.3 0.2 0.6 0.3 0 0 0 0 0.3 0.1 0.6 0.2c0.1 0 0.2 0 0.1-0.2-0.1-0.1-0.3-0.2-0.4-0.3-0.4-0.2-0.8-0.3-1.2-0.6q0.3-0.1 0.6-0.2 0.3 0.1 0.5 0.1c0.7 0.2 2.3 0.2 2.6-0.6 0.1-0.2-0.4-0.4-0.5-0.4q-0.3 0.1-0.6 0.2-0.1 0.1-0.2 0.1-0.2 0-0.3 0.1-0.3 0-0.5 0.1 0 0 0 0 0.1-0.1 0.2-0.1 0.1-0.1 0.3-0.3c0 0-0.4-0.3-0.5-0.3q-0.3 0.2-0.6 0.3 0 0 0 0-0.1-0.1-0.3-0.2 0 0 0 0-0.1 0-0.1-0.1 0 0-0.1 0 0 0-0.1 0-0.2 0.2-0.5 0.3-0.1-0.1-0.2-0.2c0 0-0.2-0.1-0.3-0.1q0.1 0 0.2-0.1 0 0 0 0 0.1 0 0.2-0.1 0 0 0.1 0 0-0.1 0-0.1 0.1 0 0.1-0.1 0 0 0-0.1 0 0 0 0 0 0 0 0 0 0 0 0 0-0.1-0.1-0.1c-0.1 0-0.2-0.1-0.3-0.1q0 0 0 0 0.1 0 0.2-0.1 0.2 0 0.4-0.1c0.1 0-0.4-0.3-0.5-0.3q0 0 0 0 0.1-0.2 0.1-0.3c0-0.1-0.4-0.4-0.4-0.3q-0.4 0.3-0.7 0.6-0.1 0-0.1 0 0-0.1 0.1-0.1c0.2-0.2-0.1-0.1-0.2 0q-0.1 0-0.2 0.1 0 0 0 0-0.2 0-0.5-0.1 0.1 0 0.2-0.1 0.1 0 0.2 0 0-0.1 0.1-0.1 0.1-0.1 0.2-0.1 0.1-0.1 0.2-0.1 0.1-0.1 0.3-0.2c0.1-0.1 0.1-0.3-0.1-0.2-0.2 0.2-0.5 0.3-0.8 0.3q0.3-0.4 0.5-0.9 0.1-0.1 0.2-0.3c0.1-0.1 0-0.1-0.1 0q0.1-0.1 0.1-0.2c0-0.1-0.3 0.1-0.3 0.2q-0.1 0.1-0.2 0.3-0.2 0.1-0.4 0.2 0-0.1 0.1-0.2c0.5-0.3 0.8-0.8 0.6-1.5 0 0-0.3 0.2-0.3 0.2 0 0.3 0 0.6-0.2 0.7q0.2-0.6 0.1-1.3 0.1-0.3-0.1-0.7c0-0.1-0.2 0.1-0.2 0.2-0.2 0.7-0.3 1.1-1 1.1q0 0 0 0 0.1-0.1 0.2-0.2c0.5-0.4 0.8-1 0.7-1.7q0.1-0.3 0.1-0.6 0.2-0.2 0.2-0.5c0.1-0.2-0.3 0.1-0.3 0.2-0.2 0.2-0.4 0.4-0.7 0.4q-0.1 0-0.1 0 0 0-0.1 0.1-0.3 0-0.5 0c0.3-0.2 0.6-0.5 0.8-0.8q0.1-0.1 0.3-0.3c0.1-0.1 0-0.1-0.1 0 0-0.2-0.4 0.1-0.4 0.2-0.5 0.2-1 0.1-1.5 0q0 0 0 0c0.5-0.2 1.1-0.5 1.4-1q0.1 0 0.1 0c0-0.1 0.3-0.4 0.1-0.3-0.6 0.2-1.3 0.2-1.9 0.1q-0.1-0.1-0.3-0.1 0.5-0.3 0.8-0.7c0.1-0.2 0-0.2 0-0.2 0-0.1-0.3 0.1-0.3 0.2-0.3 0.3-0.9 0.3-1.3 0.2 0.3-0.2 0.7-0.6 0.8-1 0.1-0.2-0.3 0.1-0.4 0.2-0.2 0.4-0.5 0.6-0.9 0.6q0 0-0.1 0 0.4-0.3 0.6-0.7c0.1-0.2-0.3 0.1-0.4 0.1-0.1 0.3-0.3 0.4-0.5 0.4q-0.1-0.1-0.1-0.1c0.4-0.2 0.6-0.5 0.6-0.9 0-0.1-0.2 0.1-0.3 0.2q-0.3 0.4-0.8 0.6-0.2 0-0.4 0 0.4-0.3 0.4-0.8c0-0.1-0.3 0.2-0.3 0.2q-0.1 0.2-0.2 0.3 0 0-0.1 0-0.1 0.1-0.1 0.1-0.1 0.1-0.1 0.1-0.1 0-0.2 0-0.1 0.1-0.1 0.1-0.1 0-0.2 0-0.1 0-0.1 0-0.1 0-0.2 0-0.1 0-0.1 0-0.1 0-0.2 0-0.2 0-0.4 0 0 0 0 0 0 0-0.1 0-0.2-0.1-0.3-0.1c0.1-0.1 0.1-0.1 0-0.2q-0.1 0-0.3 0.1-0.1 0-0.2-0.1 0.5-0.2 1-0.5c0.1 0 0.4-0.3 0.1-0.2q-0.7 0.3-1.4 0.4 0.5-0.2 1.1-0.4c0.1-0.1 0.4-0.4 0.2-0.3q-0.3 0-0.5 0.1 0.3-0.2 0.6-0.4c0.2-0.2 0.1-0.3-0.1-0.1-0.7 0.6-2 0.6-2.8 0.5q-0.1-0.1-0.2-0.1 0.4-0.2 0.7-0.5c0.2-0.2 0.1-0.3-0.1-0.1q-0.5 0.3-0.9 0.5-0.1 0-0.2 0 0.3-0.2 0.6-0.4c0.1 0 0.3-0.3 0.1-0.2q-0.5 0.3-1 0.4-0.1 0-0.2-0.1-0.1-0.1-0.2-0.2 0.1 0 0.1-0.1 0 0 0.1 0 0.1-0.1 0.2-0.2 0.2-0.1 0.3-0.2c0.2-0.2 0.2-0.4 0-0.2q-0.2 0.1-0.4 0.2-0.1 0-0.1 0 0 0 0.1-0.1 0-0.1-0.1-0.1 0.2-0.1 0.3-0.2c0.1-0.2-0.3 0-0.3 0.1q-0.1 0-0.2 0.1 0-0.1 0.1-0.1 0 0 0 0 0.1-0.2 0.2-0.4 0 0 0 0c0.1-0.2 0-0.2-0.1-0.1q0 0-0.1 0.1 0-0.2 0-0.4c-0.1-0.1-0.3 0.2-0.3 0.2q0 0.2 0 0.4-0.1 0-0.1 0 0 0-0.1 0 0 0 0 0 0.1-0.2 0.1-0.5 0-0.2-0.1-0.5 0.1-0.3 0-0.7c0-0.1-0.2 0.1-0.2 0.2-0.2 0.7-0.3 1.1-1 1.1q0 0-0.1 0 0.2-0.1 0.3-0.2c0.5-0.4 0.8-1.1 0.7-1.7q0.1-0.4 0.1-0.7 0.1-0.2 0.2-0.4c0.1-0.2-0.3 0.1-0.4 0.2-0.1 0.2-0.3 0.4-0.6 0.4q-0.1 0-0.1 0-0.1 0-0.2 0.1-0.2 0-0.5 0c0.4-0.2 0.7-0.5 0.9-0.8q0.1-0.1 0.3-0.3c0.1-0.1 0-0.2-0.1-0.1 0-0.1-0.4 0.2-0.5 0.3-0.4 0.1-1 0.1-1.4 0q0 0 0 0c0.5-0.2 1.1-0.5 1.4-1q0 0 0.1-0.1c0 0 0.3-0.3 0.1-0.2-0.6 0.2-1.3 0.2-1.9 0.1q-0.1-0.1-0.1-0.1 0-0.1 0-0.2 0 0 0 0 0.2-0.1 0.3-0.2 0.1-0.2 0.3-0.3c0.1-0.2 0-0.2-0.1-0.2 0.1-0.1-0.2 0.1-0.3 0.2q-0.1 0.1-0.2 0.1-0.1 0.1-0.2 0.1 0 0 0 0-0.1 0-0.2-0.1 0 0 0 0-0.1 0-0.2 0 0 0.1-0.1 0.1 0 0 0 0-0.2 0-0.4 0c0.4-0.3 0.7-0.6 0.9-1.1 0-0.1-0.4 0.2-0.4 0.3-0.2 0.3-0.6 0.6-0.9 0.6q-0.1 0-0.1 0 0.4-0.3 0.6-0.7c0.1-0.2-0.3 0.1-0.4 0.1-0.2 0.3-0.3 0.3-0.6 0.3q0 0 0 0c0.3-0.2 0.6-0.5 0.6-0.9-0.1-0.1-0.3 0.1-0.3 0.1q-0.4 0.5-0.9 0.7-0.1 0-0.3 0 0.3-0.3 0.4-0.8c0-0.1-0.3 0.1-0.4 0.2q0 0.1-0.1 0.2-0.1 0.1-0.1 0.1-0.1 0.1-0.2 0.1 0 0-0.1 0.1 0 0-0.1 0-0.1 0-0.2 0.1 0 0-0.1 0-0.1 0-0.2 0 0 0-0.1 0-0.4 0-0.7 0 0 0 0 0 0 0 0 0-0.1-0.1-0.1 0 0 0 0 0-0.2-0.1-0.3-0.1c0-0.1 0.1-0.1 0-0.2q-0.1 0-0.3 0.1-0.1-0.1-0.2-0.1 0.5-0.2 1-0.5c0.1 0 0.3-0.4 0.1-0.2q-0.7 0.3-1.5 0.4 0.6-0.2 1.2-0.4c0-0.1 0.4-0.4 0.2-0.4q-0.3 0.1-0.5 0.2 0.3-0.2 0.6-0.4c0.2-0.2 0.1-0.4-0.1-0.2-0.8 0.6-2 0.7-2.9 0.5q0 0-0.1 0 0.4-0.3 0.7-0.5c0.2-0.2 0.1-0.3-0.1-0.1q-0.5 0.3-1 0.5-0.1 0-0.1 0 0.3-0.2 0.6-0.4c0.1-0.1 0.3-0.3 0-0.2q-0.4 0.3-0.9 0.4-0.1 0-0.2-0.1-0.1-0.1-0.2-0.2 0.4-0.3 0.7-0.6c0.2-0.1 0.2-0.3 0-0.1q-0.4 0.2-0.9 0.4 0.4-0.3 0.6-0.6c0.2-0.3-0.2 0-0.3 0q-0.1 0.2-0.2 0.3 0.2-0.2 0.4-0.6 0 0 0 0c0.1-0.2 0-0.2-0.1-0.1q-0.2 0.1-0.3 0.2c0-0.1-0.1 0-0.2 0.1-0.6 0.2-1.4 0.2-1.9 0.2-0.4-0.1-0.7-0.3-1-0.4q0.2-0.3 0.2-0.6c0-0.1-0.3 0.1-0.3 0.2q-0.1 0.2-0.3 0.4 0 0-0.1 0c-0.1 0-0.3 0.1-0.3 0.3q0 0 0 0-0.3 0.2-0.5 0.4-0.3 0.1-0.5 0.2-0.1 0-0.1 0 0-0.1 0-0.2 0 0-0.1 0 0 0 0 0 0 0 0 0-0.1 0-0.1 0 0 0-0.1 0.1 0 0 0 0 0 0-0.1 0 0 0.1 0 0.1 0 0-0.1 0 0 0.1 0 0.1 0 0-0.1 0.1-0.2 0-0.4 0-0.2 0.1-0.5 0.1 0 0 0 0 0-0.1-0.1-0.1 0 0 0 0.1 0-0.1-0.1-0.1c0.8-0.1 1.5-0.6 2.1-1.1 0.2-0.1 0.1-0.3-0.1-0.1q-0.2 0.2-0.4 0.3 0 0 0 0-0.6 0.3-1.3 0.4 0.1-0.1 0.2-0.3c0.2-0.3-0.6 0.2-0.7 0.2q0 0.1-0.1 0.2-0.2 0-0.4 0 0.3-0.4 0.5-0.9c0.1-0.1-0.3 0.1-0.3 0.2q-0.2 0.4-0.5 0.6-0.1 0-0.1 0c-0.1 0-0.4 0.3-0.4 0.4q-0.2 0.1-0.4 0.1-0.1 0-0.1 0.1 0-0.1 0-0.1 0.2-0.2 0.5-0.4 0.1-0.1 0.2-0.2 0.1-0.2 0.3-0.4 0.1-0.1 0.1-0.2 0.3-0.3 0.4-0.6c0.3-0.4-0.5 0.1-0.6 0.2q-0.1 0.2-0.2 0.3c-0.4 0.6-0.9 1-1.5 1.2 0.7-0.6 1.3-1.2 1.7-2 0.1-0.2-0.2 0-0.2 0.1q-0.2 0.3-0.4 0.5-0.2 0.2-0.3 0.4-0.1 0.1-0.2 0.2-0.2 0.2-0.4 0.4 0 0 0 0-0.3 0.3-0.5 0.5-0.1 0-0.1 0-0.1-0.1-0.3-0.2c0.4-0.2 0.7-0.5 0.9-0.8 0.3-0.3 0-0.2-0.2-0.1q-0.1 0.1-0.2 0.3 0-0.1 0.1-0.2 0.1-0.2 0.2-0.5c0-0.1-0.4 0.1-0.4 0.2q-0.1 0.2-0.1 0.3 0 0 0 0-0.3 0.4-0.7 0.7 0-0.1 0-0.1-0.1 0-0.2 0.1 0 0 0 0-0.1 0-0.1 0 0 0.1-0.1 0.1 0 0-0.1 0.1-0.2 0.1-0.5 0.1c0.6-0.3 1.1-0.9 1.4-1.6 0.1-0.3-0.6 0.2-0.6 0.3-0.7 0.8-1.8 1-2.7 1q-0.2 0-0.3 0c0.6-0.5 1.2-1.1 1.5-1.7 0.2-0.3-0.3 0-0.3 0.1q-0.6 0.9-1.4 1.4 0.6-0.5 0.9-1.2c0.1-0.2-0.4 0.1-0.4 0.2q-0.4 0.8-1.1 1.1-0.3-0.1-0.6-0.1c1.2-0.6 2.1-1.8 2.6-3.2 0.1-0.3-0.6 0.2-0.7 0.3-0.4 0.9-0.8 1.9-1.7 2.4q-0.5 0.2-1.1 0.3 0.6-0.4 1-0.9c0.2-0.3-0.2-0.1-0.3 0q-0.5 0.6-1.2 0.9-0.5 0-1 0c-0.1 0-0.5 0.3-0.4 0.4q0.1 0 0.2 0-0.2 0-0.4 0.1-0.2-0.1-0.3-0.2c-0.1 0-0.3 0.1-0.4 0.2q0 0-0.1 0 0.2-0.1 0.3-0.2 1.1-0.3 2.1-0.8c0.1-0.1 0.4-0.5 0.1-0.4q-0.6 0.3-1.3 0.6 0.1-0.1 0.2-0.2c0.2-0.3-0.1-0.2-0.3-0.1q-0.2 0.3-0.5 0.4-0.5 0.2-1 0.3c-1.1 0.1-1.9-0.1-2.9-0.6-0.2 0-0.5 0.3-0.5 0.5 0.1 0.3 0.4 0.6 0.8 0.7q0.1 0.1 0.3 0.2c-0.6 0-1.1 0-1.7-0.2-0.4-0.1-0.8-0.4-1.2-0.7-0.1-0.1-0.5 0.3-0.5 0.5 0.2 0.9 1.4 1.1 2.4 1.1q0.7 0.1 1.4 0.1 0 0 0 0-0.2 0.1-0.3 0.2-0.1 0-0.2 0.1-0.3-0.2-0.6-0.4c-0.1 0-0.4 0.2-0.4 0.3q-0.2-0.1-0.4-0.2c-0.2 0-0.5 0.3-0.4 0.4q0 0 0 0-0.1 0-0.3 0.2-0.5-0.4-0.9-0.9c-0.1-0.1-0.7 0.4-0.6 0.6q0 0.2 0.1 0.4 0 0.1-0.1 0.2 0 0 0 0-0.1 0.1-0.1 0.1-0.1-0.1-0.2-0.2c0-0.1-0.4-0.4-0.5-0.2-0.1 0.2 0 0.5 0.3 0.8q0 0 0 0-0.1 0-0.2 0-0.2-0.1-0.3-0.2c-0.2-0.3-0.3-0.6-0.4-0.9-0.1 0-0.5-0.4-0.7-0.3-0.2-0.1-0.4-0.2-0.4-0.1q0.2 0.5 0.5 0.9 0.1 0.2 0.2 0.3 0 0 0 0 0 0 0 0-0.3-0.1-0.7-0.1 0 0 0 0-0.1 0-0.1 0 0 0-0.1 0.1 0 0 0 0-0.2-0.1-0.4-0.1 0 0 0 0-0.1-0.1-0.1-0.2 0 0-0.1 0 0 0-0.1-0.1c-0.2-0.4-0.1-0.9-0.3-1.3 0-0.2-0.6-0.7-0.7-0.4-0.3 0.4-0.2 0.9 0.1 1.4q0 0.5 0.3 0.9c-0.7-0.3-1.2-1-1.6-1.5-0.1-0.1-0.5-0.3-0.4-0.1 0.4 0.9 1.4 1.9 2.5 2.3q0.3 0.3 0.6 0.5 0.2 0.2 0.3 0.3 0 0-0.1 0.1 0 0 0 0c0-0.1-0.2-0.1-0.3-0.2q0 0 0 0-0.1 0-0.1 0 0 0 0 0 0 0-0.1 0 0 0 0 0 0 0 0 0 0 0 0 0.1 0.1 0.1 0.2 0.2-0.1 0-0.3-0.1c0 0-0.2-0.1-0.3-0.1q-0.1-0.1-0.1-0.2c-0.1 0-0.2-0.1-0.3-0.1 0-0.1-0.1-0.2-0.2-0.2q0 0 0 0-0.1-0.1-0.1-0.1 0 0-0.1 0 0 0-0.1 0c-0.1 0.1 0 0.3 0.3 0.5-0.4-0.3-0.8-0.6-1.2-1.2 0-0.1-0.6-0.4-0.5-0.2q0.1 0.3 0.3 0.6c-0.5 1.1 1.6 1.9 2.3 2q0.2 0.1 0.4 0.1 0 0 0 0 0.1 0.1 0.1 0.1 0 0 0 0.1 0 0 0 0 0 0 0.1 0.1-0.2 0-0.5 0 0 0 0 0 0 0 0 0 0 0 0 0-0.2 0-0.4-0.1-0.1 0-0.2 0-0.1 0-0.1-0.1-0.1 0-0.1 0-0.1 0-0.2 0-0.2-0.2-0.3-0.4 0 0 0 0-0.2-0.1-0.3-0.3c-0.1-0.1-0.4-0.2-0.4-0.1q0.2 0.2 0.4 0.5 0 0 0 0-0.1-0.1-0.2-0.1 0 0 0 0 0 0 0 0.1 0 0 0 0 0 0 0 0 0 0 0 0 0 0 0 0 0 0.1 0 0.1 0 0 0 0 0.1 0 0.1 0.1 0.1 0.1 0.2 0.1 0 0 0 0-0.2-0.1-0.4-0.2-0.1 0-0.1 0-0.2-0.1-0.4-0.3c-0.1-0.1-0.9-0.5-0.7-0.2q0.1 0.3 0.4 0.6 0 0 0 0 0.2 0.2 0.4 0.4 0 0 0 0 0 0 0 0 0.3 0.3 0.7 0.5-0.1 0-0.1 0 0 0 0 0-0.1 0-0.3 0 0-0.1-0.1-0.1 0 0 0 0-0.1-0.1-0.1-0.1-0.1 0-0.1 0 0 0-0.1 0 0 0 0 0-0.1 0-0.1 0 0 0-0.1 0 0 0 0 0-0.1 0-0.2-0.1-0.1 0-0.1 0-0.1-0.1-0.2-0.2 0 0 0 0-0.1-0.1-0.2-0.2-0.1 0-0.1-0.1-0.1-0.1-0.2-0.3c0-0.1-0.5-0.3-0.4-0.1q0.1 0.3 0.3 0.5 0.1 0.1 0.1 0.1-0.1-0.1-0.3-0.2c-0.2-0.1-0.5-0.1-0.2 0.1 0.3 0.3 0.7 0.6 1.1 0.8q-0.1 0.1-0.3 0.2-0.3-0.2-0.6-0.4-0.1 0-0.1 0-0.3-0.2-0.5-0.4-0.1-0.1-0.2-0.1-0.2-0.2-0.4-0.4-0.3-0.2-0.6-0.5c0-0.1-0.3-0.2-0.2-0.1 0.6 0.8 1.4 1.4 2.2 1.9-0.7-0.1-1.4-0.5-1.9-1q-0.1-0.1-0.2-0.3c-0.2-0.1-1.1-0.5-0.8-0.1q0.3 0.3 0.6 0.6 0.2 0.2 0.5 0.5 0.1 0 0.1 0-0.2 0.1-0.5 0.2 0-0.1 0-0.1-0.1-0.1-0.2-0.2-0.2-0.1-0.3-0.3c-0.1 0-0.5-0.2-0.4-0.1q0.1 0.2 0.3 0.4 0.1 0.1 0.2 0.3-0.3 0-0.7-0.2c-0.3-0.3-0.6-0.7-0.9-1.1-0.1 0-0.8-0.5-0.7-0.2q0 0.1 0.1 0.2 0 0.1 0 0.1 0 0.1 0.1 0.2 0 0 0 0 0.1 0.1 0.2 0.2 0 0.1 0.1 0.1 0 0.1 0.1 0.1 0.1 0.1 0.1 0.1 0.1 0.1 0.1 0.1 0.2 0.1 0.3 0.2 0 0 0 0-0.1 0.1 0 0.2 0.2 0.2 0.3 0.3-0.2 0-0.5 0 0 0 0 0-0.2 0-0.4-0.1-0.1 0-0.2 0-0.1 0-0.3-0.1-0.1 0-0.1 0-0.3-0.1-0.5-0.3c-0.2-0.1-0.3 0.1-0.1 0.2q0.3 0.2 0.7 0.3 0 0.1 0 0.1 0.4 0.1 0.7 0.2-0.1 0-0.3 0 0 0 0 0-0.2 0-0.3 0-0.1 0-0.1 0-0.1-0.1-0.2-0.1 0 0-0.1 0-0.1-0.1-0.2-0.1 0 0 0-0.1-0.2 0-0.2-0.1-0.1 0-0.1-0.1-0.1-0.1-0.1-0.1 0-0.1-0.1-0.1 0-0.1 0-0.2 0-0.1 0-0.1-0.1-0.2-0.1-0.4c0-0.1-0.5-0.4-0.6-0.3-0.3 0.8 0.1 1.4 0.9 1.8q-0.2-0.1-0.3-0.2-0.2 0-0.3-0.1 0 0 0 0 0-0.1-0.1-0.2 0 0-0.1 0 0 0 0 0 0 0 0 0-0.1-0.1-0.1-0.1-0.1-0.1-0.2-0.2-0.2-0.1-0.2-0.3c-0.1-0.1-0.6-0.3-0.5-0.1q0.1 0.1 0.1 0.1 0 0-0.1 0 0 0 0 0 0 0.4 0.3 0.7 0 0 0 0c-0.1-0.1-0.3-0.2-0.4-0.3q0 0 0 0-0.1 0-0.1 0-0.7 0.2-1.3 0.3c-0.2-0.2-0.5-0.4-0.6-0.3-0.2 0.2-0.3 0.2-0.2 0.4q-0.2-0.2-0.4-0.6c0-0.1-0.5-0.4-0.5-0.2q0 0.1 0.1 0.3 0 0 0 0.1 0.1 0.1 0.1 0.2 0 0 0.1 0.1 0 0.1 0.1 0.2 0 0 0 0 0.2 0.1 0.3 0.2-0.1 0-0.1 0c-0.9-0.1-1.7-0.5-1.8-1.5 0-0.2-0.5-0.4-0.5-0.3-0.1 0.9 0.6 1.5 1.3 1.9q-0.1 0 0 0c-0.5 0.1-1 0-1.3-0.5 0-0.1-0.5-0.3-0.5-0.2q0.2 0.4 0.5 0.7c-0.5-0.2-0.9-0.5-1.2-1-0.1-0.1-0.5-0.3-0.4-0.2 0.3 0.5 0.7 0.9 1.2 1.2q-0.1 0-0.1 0-0.1 0-0.2 0 0-0.1 0-0.1c0-0.1-0.5-0.4-0.5-0.3q0 0.1 0 0.2c-0.4-0.3-0.8-0.6-0.8-1.2 0-0.1-0.4-0.3-0.4-0.2-0.1 0.8 0.5 1.4 1.2 1.7q0.1 0 0.1 0.1-0.1 0-0.2 0-0.2 0-0.5 0-0.1 0-0.2 0 0 0 0 0c0-0.1-0.4-0.4-0.5-0.3q-0.1 0.3 0 0.4 0 0 0 0.1 0 0 0.1 0.1c-0.8 0.1-1.8 0.1-1.7-0.7 0.1-0.1-0.4-0.4-0.4-0.3-0.3 0.7 0.1 1.1 0.8 1.3q0 0.1 0.1 0.2 0.1 0.1 0.2 0.2 0.1 0 0.1 0 0.1 0.1 0.3 0.2 0 0 0 0 0.1 0.1 0.3 0.1 0 0 0.1 0 0.1 0.1 0.3 0.1 0 0 0 0-0.1 0 0 0.1 0 0 0 0-0.1 0-0.2 0 0 0-0.1 0-0.1 0-0.3 0 0 0 0 0-0.1 0.1-0.3 0.1 0 0 0-0.1-0.1 0-0.2 0-0.1 0-0.1 0-0.1 0-0.2-0.1-0.1 0-0.1 0-0.1 0-0.2-0.1 0 0 0-0.1-0.2-0.1-0.3-0.2c0-0.1-0.3-0.2-0.3-0.1q0.1 0.2 0.2 0.3 0.1 0.1 0.1 0.1 0.1 0.2 0.2 0.3 0.1 0 0.2 0 0.1 0.1 0.2 0.2 0.1 0 0.1 0 0.2 0.1 0.3 0.1 0.1 0 0.2 0.1 0.1 0 0.2 0 0.1 0 0.2 0 0.1 0 0.3 0 0.1 0 0.1 0 0.2 0 0.3-0.1 0.1 0 0.1 0 0.6 0.4 1.3 0.6-0.6 0-1.1 0-0.1 0-0.1 0-0.2 0-0.4-0.1-0.1 0-0.1 0-0.3-0.1-0.5-0.2c-0.2-0.2-0.3 0 0 0.2q0.3 0.2 0.7 0.3-0.3 0-0.6-0.1c-0.3 0 0.2 0.3 0.3 0.4q0.6 0.1 1.3 0.2c-0.6 0.1-1.2 0-1.7-0.2-0.3-0.1 0.1 0.2 0.2 0.3q0.5 0.2 1.1 0.3-0.1 0.1-0.2 0.2-0.2-0.1-0.3-0.1c-0.1 0.1-0.1 0.2 0 0.2q-0.1 0.1-0.3 0.2 0 0 0 0-0.1 0-0.1 0-0.4 0.1-0.8 0.2-0.1 0-0.1 0-0.1 0-0.2 0-0.1 0-0.2 0-0.1 0-0.1 0-0.1 0-0.2 0-0.1-0.1-0.2-0.1-0.1 0-0.1-0.1-0.1 0-0.1 0-0.1-0.1-0.2-0.2c-0.1-0.1-0.5-0.4-0.5-0.2q0.2 0.5 0.6 0.8-0.2 0-0.4 0.1-0.6-0.2-1.1-0.6c0 0-0.3-0.2-0.2-0.1 0 0.4 0.3 0.7 0.7 0.9q0 0 0 0c-0.3 0.1-0.5 0-0.7-0.2-0.1-0.1-0.6-0.3-0.5-0.1q0.3 0.4 0.8 0.7 0 0-0.1 0c-0.4 0-0.8-0.1-1.1-0.5-0.1-0.1-0.5-0.4-0.5-0.2 0.3 0.5 0.7 0.8 1.1 1-0.4 0.2-1.1 0.3-1.4 0-0.1 0-0.5-0.2-0.4-0.1-0.1 0-0.1 0 0 0.2q0.4 0.4 0.9 0.6-0.1 0.1-0.3 0.2c-0.6 0.2-1.4 0.4-2 0.3-0.3-0.1 0.1 0.2 0.1 0.2q0.1 0 0.1 0.1c0.5 0.4 1.1 0.7 1.7 0.7q0 0 0 0c-0.5 0.3-1.1 0.5-1.6 0.3-0.1 0-0.5-0.3-0.5-0.1-0.1-0.1-0.3-0.1-0.1 0.1q0.2 0.1 0.4 0.2c0.2 0.4 0.6 0.6 1 0.7q-0.2 0.1-0.5 0.1-0.2 0-0.2 0 0 0-0.1 0c-0.3 0-0.6-0.1-0.8-0.3-0.1-0.1-0.5-0.4-0.4-0.2q0.1 0.3 0.3 0.5 0.1 0.3 0.2 0.6c0 0.8 0.4 1.5 1.1 1.9q0.1 0 0.2 0.1 0 0 0 0c-0.8 0.1-1-0.3-1.3-1.1 0 0-0.3-0.2-0.3-0.1q-0.1 0.4 0.1 0.8 0 0.7 0.2 1.4c-0.1-0.1-0.2-0.4-0.3-0.7 0-0.1-0.3-0.2-0.3-0.2-0.1 0.9 0.3 1.3 0.9 1.5q0.1 0.1 0.1 0.3-0.3-0.1-0.5-0.2-0.1-0.2-0.2-0.3c0-0.1-0.4-0.3-0.4-0.2q0 0.1 0.1 0.2c-0.1 0-0.2 0-0.1 0.1q0.1 0.2 0.3 0.3 0.3 0.5 0.7 0.9c-0.3 0-0.7 0-1-0.2-0.2-0.1-0.1 0.1 0 0.2 0.6 0.3 1.2 0.5 1.8 0.5q0.2 0.1 0.4 0.2 0.3 0.1 0.8 0.2c-0.8 0.2-1.7 0.1-2.4-0.4-0.1 0-0.4-0.1-0.2 0.1 0.6 0.5 1.3 0.8 2 0.9q-0.7 0.2-1.4 0.1c-0.2 0 0.1 0.3 0.2 0.3 1 0.3 2 0.1 2.9-0.3q0.2-0.1 0.4-0.2 0 0 0 0 0.2 0 0.3 0 0.1 0 0.1 0 0.1 0 0.2 0 0.1 0 0.1 0 0.2 0 0.3-0.1 0 0 0.1 0 0.1 0 0.2-0.1 0.1 0 0.1 0c-0.6 0.4-1.3 0.7-2 0.7-0.1 0 0.2 0.3 0.3 0.3q0.2 0 0.4 0 0.1 0 0.3 0 0 0 0.1 0 0.1-0.1 0.3-0.1 0 0 0 0c0.6-0.1 1.2-0.4 1.7-0.7q0.8 0.2 1.7-0.1 0 0 0 0 0 0 0 0-0.2 0.1-0.3 0.1-0.2 0.2-0.4 0.3c-0.1 0 0.1 0.2 0.2 0.2q0.3-0.1 0.6-0.2 0.9-0.4 1.6-1.2 0.3 0.3 0.5 0.6 0.1 0.1 0.1 0.1 0.2 0.2 0.4 0.4 0.1 0.1 0.2 0.2 0.1 0.1 0.4 0.3 0 0.1 0.1 0.1 0.3 0.2 0.6 0.4 0.2 0.1 0.4 0.1 0.1 0.1 0.1 0.1 0.1 0 0.3 0.1 0 0 0.1 0 0.1 0 0.2 0 0.1 0.1 0.2 0.1 0.1 0 0.3 0 0 0-0.1 0-0.2 0-0.4 0-0.1 0-0.1 0-0.2 0-0.3 0-0.1 0-0.1 0-0.2 0-0.4-0.1-0.1 0-0.1 0-0.4-0.1-0.9-0.5c0 0-0.6-0.3-0.4 0q0.2 0.1 0.3 0.3c-0.1-0.1-0.4-0.2-0.3 0q0.1 0 0.1 0c-0.2-0.1-0.3-0.1-0.4-0.1q-0.5-0.1-1.1-0.1-0.2-0.3-0.3-0.5c-0.1-0.1-0.6-0.3-0.5-0.1q0.2 0.2 0.4 0.5-0.7-0.1-1.4-0.4c-0.3-0.1 0 0.3 0.1 0.3q0.2 0.1 0.5 0.2 0.1 0.1 0.3 0.2 0 0 0 0 0 0 0 0.1 0 0 0 0 0 0 0 0 0-0.1 0-0.1-0.1 0-0.1 0-0.2 0.1-0.4 0.1-0.3 0-0.6 0 0 0 0 0-0.1-0.1-0.2-0.1 0 0-0.1 0-0.1-0.1-0.2-0.2c-0.1-0.1-0.7-0.3-0.4 0q0.1 0.1 0.3 0.3-0.2-0.1-0.4-0.3c-0.1-0.1-0.7-0.4-0.5-0.1q0.2 0.2 0.4 0.4 0 0 0 0 0.1 0 0.1 0.1 0.1 0 0.1 0 0.1 0.1 0.2 0.2 0-0.1-0.1-0.1c-0.1 0-0.3 0-0.1 0.1q0 0 0 0c-0.3 0.1-0.7 0.2-1.1 0.1q0 0 0 0c0 0-0.1-0.1-0.2-0.1q-0.2 0-0.3-0.1c-0.2-0.1-0.4-0.1-0.2 0.1 0.3 0.2 0.6 0.4 1 0.5q-0.2 0.1-0.4 0.1c-0.4 0-0.8-0.1-1.1-0.3q-0.1-0.1-0.3-0.2c0 0-0.3-0.2-0.2-0.1q0 0 0 0.1-0.2-0.1-0.3-0.2c-0.1 0-0.3 0-0.3 0.1 0.1 0.5 1 0.8 1.6 1q0.2 0.1 0.5 0.2-0.1 0.1-0.2 0.1-0.4 0-0.9-0.1-0.2-0.1-0.3-0.2-0.2-0.2-0.3-0.3c-0.1-0.1-0.6-0.3-0.4-0.1q0 0.1 0.1 0.1 0 0-0.1 0c-0.1-0.1-0.6-0.3-0.4-0.1q0.5 0.6 1.2 0.8c-0.7 0-1.4-0.1-1.8-0.6 0 0-0.3-0.2-0.3-0.1 0.2 0.6 0.9 1 1.6 1.1q-0.4 0.1-0.9 0.2-0.1 0 0 0.1c-0.8 0-1.6-0.1-2.1-0.8-0.1 0-0.4-0.2-0.3-0.1 0.3 0.8 1.1 1.2 1.8 1.3q0.1 0.1 0.3 0.1c-0.6 0.2-1.5 0.3-2.1-0.1-0.1 0-0.3-0.1-0.2 0 0.2 0.3 0.6 0.5 0.9 0.6 0.4 0.5 0.9 0.8 1.5 0.9-0.5 0.1-0.9 0-1.3-0.2-0.1-0.1-0.3-0.1-0.2 0.1 0.9 0.6 2.1 0.8 3.1 0.5 0.6 0.6 1.7 0.7 2.4 0.6q0.2 0 0.4-0.1 0.1 0 0.2 0.1c-1.4 0.6-2.7 0.4-4.2 0.5-0.1 0.1 0.2 0.3 0.3 0.3 1.5 0.2 3.2 0.6 4.6-0.5 0-0.1-0.1-0.2-0.2-0.2 0.5 0 1-0.1 1.4-0.4q0.2 0 0.4 0 0 0 0 0 0.6 0.1 1.1-0.1 0.5 0.3 0.9 0.5c0.7 0.3 1.3 0.4 2 0.4-1.5 0.3-3.1 0.3-4.6-0.5q0 0 0 0c1.2 0.7 2.2 1.1 3.6 0.9 0.7-0.1 1.3-0.3 2.1-0.4 0.8-0.1 1.7-0.2 2.5-0.6q0 0 0 0c0.9-0.2 1.7-0.3 2.5-0.1 1.7 0.4 1.8 3.7 2.1 5.2q0.1 0.5 0.2 1 0 0 0 0.1 0.3 1.5 0.8 2.9c0.3 0.9 0.6 1.8 1.2 2.7q0.2 0.3 0.5 0.7c1.1 1.8 2.2 3.8 2.6 6q0.2 1.1 0.2 2.3c0.2 2.2 1.4 4 1.4 6.2 0 1.1 0.1 2.1 0.1 3.2 0 1-0.3 1.9-0.4 2.8q-0.1 0.9 0.1 1.8c-0.1 0.7-0.4 1.7-0.4 2.5q0 0.4 0 0.7 0 0.1 0 0.2-0.1 0.4-0.1 0.9 0 0 0 0 0 0.1 0 0.3-0.1 0.4-0.1 0.8c-0.1 1 0.3 2 0.7 2.9q0.1 0.3 0.3 0.6c0 0.7 0.2 1.6 0.4 2.4 0.1 1.1 0.1 2.2 0.2 3.4q0.1 1.1 0 2.1c-0.1 0.9-0.4 1.5-0.7 2.2q-0.2 0.1-0.3 0.3c0 0.2 0 0.3 0 0.5q0 0.1 0 0.1 0 0 0 0 0 0.1 0 0.1 0 0 0 0.1 0 0 0.1 0 0 0 0 0 0 0 0 0 0.1 0.1 0.2 0.1 0 0 0 0 0.1 0.1 0.2 0.1 0.1 0 0.2 0 0-0.1 0.1-0.1 0.1 0 0.1-0.1 0.2-0.2 0.4-0.4-0.1 0.2-0.1 0.4c-0.1 0.2 0.1 0.4 0.3 0.2q0-0.1 0.1-0.2 0 0.1 0.1 0.1 0.1 0 0.2-0.1 0 0 0 0 0 0 0.1-0.1 0.1 0.2 0.3 0.2 0.1 0 0.2 0 0 0 0-0.1 0.1 0.1 0.2 0.1 0.2 0 0.3-0.2c0 0.1 0.1 0.3 0.2 0.3 0.1 0.1 0.3 0 0.3-0.2q0-0.1 0.1-0.2 0 0 0 0 0.1 0.1 0.2 0.1 0 0 0 0 0 0 0 0 0 0.1 0.1 0.2c0.1 0.2 0.4 0.1 0.4-0.2q0 0 0-0.1 0 0 0.1 0 0 0 0 0 0.1 0.1 0.2 0.1c0.1 0.1 0.2 0.2 0.4 0.1q0 0.1 0.1 0.1 0 0.1 0.1 0 0 0 0 0 0.1 0.1 0.2 0.1 0 0 0 0c0.2 0 0.4-0.1 0.6-0.2q0.1 0 0.1 0 0 0 0 0c0 0.3 0.4 0.4 0.4 0.1q0-0.2 0-0.4 0 0 0 0 0.1 0 0.1 0 0.1 0.2 0.2 0.3 0 0.1 0.1 0.1 0.1 0.1 0.2 0.2 0 0 0 0c0.2 0.4 0.9 0.4 1-0.1q0 0 0-0.1 0.1 0 0.1 0c0.1 0.3 0.3 0.5 0.6 0.6 0.1 0 0.2-0.2 0.1-0.3-0.2-0.3-0.4-0.5-0.6-0.8q-0.1-0.2-0.2-0.5-0.1-0.9-0.3-1.8c-0.3-1.3-0.4-2.6-0.9-3.7-0.7-1.8-2.3-3.5-2.5-5.6q0 0 0-0.1 0-0.1 0-0.1c0.1-0.8 0.1-1.7 0.4-2.5q0.1-0.3 0.2-0.5 0 0 0 0 0.1-0.2 0.2-0.4 0 0 0 0c0.4-0.5 0.7-1.1 1-1.8 0-0.1-0.1-0.2-0.2-0.1q-0.2 0.2-0.4 0.5c0.2-0.7 0.4-1.4 0.5-2.2 0-0.1-0.2-0.1-0.2 0q-0.1 0.3-0.2 0.7-0.1-0.1-0.1 0-0.1 0.2-0.3 0.5-0.1 0.1-0.1 0.2-0.1 0.1-0.2 0.3-0.4 0.5-0.8 1.1 0 0.1 0 0.1-0.1 0.2-0.3 0.5 0 0 0 0.1-0.2 0.3-0.3 0.6 0-0.1 0-0.1 0-0.4-0.1-0.7 0-0.1 0-0.2-0.1-0.3-0.1-0.7 0-1 0.1-1.9 0-0.2 0-0.5 0.4-0.8 0.7-1.7 0-0.1 0-0.2 0.2-0.3 0.3-0.8c0.3-0.8 0.6-1.7 0.9-2.5q0.2-0.3 0.4-0.5 0-0.1 0.1-0.1 0.1-0.2 0.3-0.4 0.1-0.3 0.3-0.5 0.2-0.3 0.4-0.5 0 0 0 0 0.5-0.4 1-0.8 1-0.8 2-1.6 0.8-0.5 1.6-1.1c0.5-0.2 0.9-0.6 1.4-1.1q0 0 0.1-0.1 0.1-0.2 0.3-0.4 0.5-0.5 1.1-1 0.5-0.6 1-1.2c0.8-0.8 1.4-1.7 2-2.6q1.1-1.8 2.2-3.6 0.3-0.7 0.7-1.4 0.3-0.3 0.5-0.6 0.2-0.3 0.4-0.6 0 0 0 0 0.1-0.1 0.1-0.1 0.1-0.1 0.1-0.1 0-0.1 0-0.2 0 0 0 0 0 0 0 0 0.3-0.4 0.6-0.7c0.7-1 1.4-2.2 2-3.3q0.3-0.3 0.6-0.6 0.8-1.1 1.8-1.9 0.4-0.3 0.8-0.6 0.4-0.2 0.7-0.5 0.1 0 0.1-0.1 0 0 0 0c0.8-0.1 1.5-0.6 2.3-0.6 0.7 0 1.5 0 2.2-0.1q0.3 0 0.6-0.1 0.1 0 0.2 0 0.2-0.1 0.4-0.1 0.1 0 0.3-0.1 0.1 0 0.3-0.1 0.1 0 0.3-0.1 0.1-0.1 0.3-0.1 0.1-0.1 0.3-0.2 0.1 0 0.2 0 0.2-0.1 0.4-0.2 0.1-0.1 0.2-0.1 0.2-0.1 0.4-0.2 0 0 0.1-0.1 0.2-0.1 0.4-0.2 0 0 0.1 0 0.2-0.1 0.4-0.2 0.1 0 0.1-0.1 0.3 0 0.5-0.1 0.1 0 0.3 0 0 0 0 0 0.2 0 0.4 0 0.1 0 0.2-0.1 0.1 0 0.2 0 0.1 0 0.2 0 0.1 0 0.2 0 0.1 0 0.2 0 0.1 0 0.2 0 0.1 0 0.2 0 0.1 0 0.2 0 0.1 0 0.2 0 0.2 0.1 0.4 0.1 0.7 0.2 1.4 0.5 1 0.6 2 1.1 0.4 0.2 0.9 0.5 0 0 0.1 0c0.9 0.5 1.9 1 2.8 1.4q0.1 0 0.1 0 0.2 0.1 0.5 0.2 0 0.1 0.1 0.1 0.2 0.1 0.5 0.1 0.1 0.1 0.1 0.1 0.3 0.1 0.7 0.1c0.1 0 0.1-0.1 0-0.2q-0.4-0.2-0.9-0.3 0.1 0 0.1 0 0.1 0 0.2 0 0.1 0 0.3 0 0.1 0.1 0.2 0.1 0.2 0 0.3 0 0.1 0 0.2 0 0.2 0 0.5 0 0-0.1 0.1-0.1 0.2 0 0.3 0 0.1-0.1 0.2-0.1 0.2-0.1 0.3-0.1 0.1-0.1 0.2-0.1 0.2-0.1 0.4-0.3 0.8-0.3 1.5-0.7 0.1 0 0.3 0 0 0 0 0 0.2 0.1 0.3 0.1 0.1 0 0.1 0 0.1 0 0.2-0.1 0.1 0 0.1 0 0.1 0 0.2-0.1 0.1 0 0.1 0 0 0 0 0 0-0.1-0.1-0.1 0 0 0 0 0 0 0-0.1 0 0 0 0-0.1 0-0.1 0 0 0 0 0-0.2-0.2-0.3-0.2 0 0 0 0 0.4-0.3 0.8-0.6 0 0 0.1 0 0 0 0 0 0.2 0 0.3 0 0.1 0 0.1 0 0.1 0 0.3 0 0.1 0 0.1-0.1 0.1 0 0.3 0 0.1-0.1 0.3-0.2 0 0 0 0 0 0 0-0.1 0 0 0 0 0 0 0 0 0-0.1-0.1-0.1 0 0 0 0 0 0-0.1-0.1 0 0 0 0 0 0 0 0-0.1-0.1-0.2-0.1 0.2-0.2 0.4-0.3 0.2 0 0.3 0 0.1 0 0.1-0.1 0 0 0 0 0 0-0.1 0 0-0.1 0-0.1 0.4-0.2 0.9-0.5 0.4-0.1 0.7-0.4 0.4-0.1 0.9-0.3 0 0 0.1-0.1 0 0 0 0 0 0 0.1-0.1 0 0 0 0 0-0.1 0-0.1 0 0 0-0.1 0 0 0 0c0-0.2-0.2-0.3-0.3-0.3q0 0 0 0 0.2-0.1 0.5-0.3 0.2-0.2 0.4-0.5c0.5 0 1-0.1 1.4-0.3q0 0 0 0 0.1-0.1 0.2-0.2 0.1 0 0.1 0 0.1-0.1 0.2-0.2 0 0 0.1-0.1 0-0.1 0.1-0.2 0 0 0.1 0 0.1-0.2 0.1-0.3 0.1-0.1 0-0.1c0.5-0.2 0.9-0.5 1-1.2zm-15.2-13q0.2-0.1 0.4-0.1-0.2 0.1-0.5 0.2 0.1-0.1 0.1-0.1zm-12.3-8.9q0.2-0.1 0.3-0.1-0.2 0.1-0.4 0.1 0.1 0 0.1 0zm-63.2 10.5q0.2 0 0.4 0 0 0 0.1 0-0.3 0-0.5 0zm0 13.5q0.3 0 0.6 0 0.2 0 0.6-0.1 0 0 0 0-0.1 0.2 0 0.3c-0.4 0-0.8-0.1-1.2-0.2zm9.8-4.7q-0.1-0.2-0.3-0.4-0.3-0.3-0.5-0.6-0.2-0.2-0.4-0.5 0.1-0.1 0.1-0.2 0 0 0 0 0 0 0 0 0.2 0.1 0.3 0.1 0.2 0.1 0.4 0.2 0.2 0 0.3 0 0.2 0.1 0.4 0.1 0.2 0 0.3 0 0.3 0 0.7 0 0.1 0 0.3 0 0 0 0.1-0.1 0.1 0 0.2 0 0 0 0.1 0 0.1-0.1 0.2-0.1 0.3-0.1 0.6-0.3 0 0 0.1-0.1 0.1 0 0.1-0.1 0.1-0.1 0.1-0.1 0.1-0.1 0.1-0.2 1 0.1 1.8-0.5 0.3-0.2 0.5-0.5c0.2-0.2 0.5-0.6 0.7-1q0 0 0.1 0 0 0.1 0 0.1 0 0 0.1 0 0.2-0.1 0.4-0.2 0.1 0 0.2 0 0.1 0 0.2 0.1-0.5 0.4-1 0.7c-0.1 0 0.3 0.3 0.4 0.3q0.1 0 0.3-0.1 0.1 0 0.2 0 0-0.1 0.1-0.1 0.2-0.1 0.5-0.2c0.4 0.5 0.8 1.1 1.3 1.5q0 0 0 0-0.2 0-0.4 0.1c0 0 0.2 0.2 0.3 0.2q0.3 0 0.5-0.1 0 0 0 0c0.6 0.3 1.2 0.4 1.7 0.6 0.9 0.4 1.4 1.3 1.9 2.2 0.5 1.1 1.2 2 1.8 3 0.1 0.8 0.3 1.5 0.8 1.8 0.1 0.7 0.1 1.4 0.1 2 0.1 1 0.2 2 0.4 3 0.4 1.5 0.7 3.2 1.5 4.5 0.4 0.7 0.8 1.4 1.2 2.1 0 0.6 0 1.2 0.1 1.7 0.2 1 0.5 2 0.6 3 0.1 0.8 0.2 1.5 0.6 2.2q0.1 0.2 0.3 0.4 0.1 0.2 0.3 0.3 0.3 0.5 0.7 0.9 0 0.1 0.1 0.1 0 0.1 0.1 0.2 0.1 0.2 0.2 0.4 0.2 0.2 0.3 0.5 0.3 0.5 0.6 1.1 0.1 0.1 0.1 0.1 0.1 0.3 0.2 0.6 0 0 0 0 0 0.2 0.1 0.4 0 0.1 0 0.1 0 0.2 0.1 0.4 0.1 0.1 0.1 0.3 0 0 0 0.1 0 0.1 0 0.1 0 0.1 0 0.2-0.1 0.1-0.1 0.1 0 0.1 0 0.2 0 0 0 0 0 0-0.1 0 0 0 0 0-0.1 0.5-0.3 0.8-0.2 0.4-0.5 0.7 0 0 0 0.1 0 0 0 0-0.3 0.3-0.6 0.5 0 0.1 0 0.1-0.3 0.3-0.6 0.6 0 0.1-0.1 0.2-0.2 0.2-0.4 0.5-0.3 0.3-0.5 0.7-0.1 0.1-0.1 0.3-0.3 0.3-0.5 0.6-0.1 0.1-0.1 0.2-0.3 0.4-0.5 0.8 0-0.8-0.1-1.7 0-0.1-0.1-0.1 0-0.4-0.1-0.8 0 0 0.1 0 0-0.2 0-0.3 0-0.3 0-0.5 0-0.2 0-0.3 0-0.3-0.1-0.5 0-0.2 0-0.3 0-0.4-0.1-0.8-0.1-0.4-0.2-0.8 0-0.1-0.1-0.3-0.1-0.2-0.2-0.4-0.1-0.2-0.2-0.3-0.1-0.2-0.1-0.4-0.2-0.3-0.4-0.6-0.1-0.3-0.2-0.7c-0.2-1.3-0.1-2.6-0.4-3.9q-0.1-0.4-0.2-0.7-0.1-0.2-0.1-0.4 0 0 0 0 0 0 0 0-0.1-0.4-0.2-0.8 0 0 0 0-0.1-0.3-0.3-0.7-0.1-0.4-0.3-0.8-0.1-0.1-0.1-0.2-0.2-0.3-0.3-0.6-0.1-0.1-0.1-0.2-0.2-0.2-0.4-0.5 0-0.1-0.1-0.2-0.1-0.2-0.3-0.5-0.1-0.1-0.1-0.2-0.2-0.2-0.4-0.5 0 0 0-0.1-0.7-0.8-1.3-1.7 0 0 0-0.1 0 0 0 0-0.3-0.4-0.5-0.9 0-0.1-0.1-0.2-0.2-0.5-0.3-1.1c-0.4-1.2-0.4-2.6-0.5-3.9q-0.1-0.4-0.1-0.7-0.1-0.2-0.1-0.3-0.1-0.2-0.1-0.4-0.1-0.4-0.3-0.8 0 0 0-0.1 0-0.1-0.1-0.2 0 0 0 0-0.5-1.5-1.4-2.6 0-0.1 0-0.1-0.2-0.2-0.4-0.4-0.1-0.2-0.2-0.3-0.1-0.2-0.3-0.3-0.2-0.2-0.3-0.3-0.2-0.1-0.3-0.3-0.3-0.2-0.7-0.5c-0.8-0.5-1.8-1-2.8-1.2q-0.3-0.1-0.5-0.1-0.1 0-0.2 0-0.2-0.1-0.4-0.1-0.7-0.1-1.3-0.3 0 0 0 0-0.2 0-0.4-0.1 0 0 0 0-0.2-0.1-0.4-0.2 0 0 0 0-0.2-0.1-0.4-0.2 0 0 0 0-0.2-0.1-0.4-0.2zm3.8 3.1q0 0 0 0-0.2-0.1-0.4-0.1 0-0.1 0-0.1c0.1 0 0-0.1-0.2-0.2q0.5-0.2 1-0.5 0.1 0.1 0.3 0.2 0.6 0.1 1.2 0.3 0 0 0.1 0.1 0.4 0.3 0.7 0.6c-0.7-0.1-1.5 0-2.3-0.2q-0.2-0.1-0.4-0.1zm-6.1 2.1q0.2-0.1 0.3-0.1 0.2 0.1 0.4 0.3-0.2 0.1-0.5 0.1 0 0 0 0c0-0.1-0.1-0.2-0.2-0.3zm1.8-3.1q0.1 0 0.2 0 0.1 0 0.2 0-0.2 0.1-0.3 0.1-0.2 0-0.4 0 0 0 0-0.1 0 0 0-0.1 0 0 0 0 0.2 0.1 0.3 0.1zm1.2 0.7q0.2 0 0.4-0.1-0.1 0.1-0.3 0.2-0.5 0-0.9-0.1 0 0 0.1 0 0 0 0.1 0 0.1 0 0.2 0 0.1 0 0.3 0 0 0 0.1 0zm6 2.3q-0.2 0.1-0.5 0.1 0 0-0.1 0.1-0.2 0-0.4 0.1-0.1 0-0.2 0-0.2 0.1-0.3 0.2-0.3 0.1-0.7 0.2-0.1 0.1-0.3 0.1 0 0 0 0 0 0 0.1 0-0.1 0.1-0.2 0.1c-1.1 0.4-2.3 0.5-3.4 0.4q-0.2-0.1-0.4-0.1-0.1 0-0.2-0.1-0.1 0-0.2 0-0.1-0.1-0.2-0.1 0-0.1-0.1-0.1-0.1-0.1-0.2-0.1 0 0 0 0 0.1-0.1 0.3-0.2c0.5 0 0.9-0.1 1.3-0.4 0.2-0.2-0.5-0.6-0.7-0.6q-0.3 0.1-0.7 0.1 0 0-0.1 0 0.5-0.2 1.1-0.5 0.5 0 0.9-0.1 0.2 0 0.3-0.1 0.1 0 0.1 0 0 0 0 0 0 0-0.1 0c0-0.1-0.1-0.2-0.2-0.3q0 0 0 0-0.1 0-0.1 0 0 0-0.1-0.1 0 0 0 0 0.1-0.1 0.2-0.2 0.1 0 0.1-0.1c0.4 0.1 0.9 0 1.2-0.1q0.3 0 0.6 0.1c1.2 0.2 2.4 0.4 3.6 0.5 0.5 0.4 1 0.9 1.4 1.4-0.6-0.1-1.2-0.2-1.8-0.2zm-12.1-15.7q0.1-0.1 0.1-0.1 0-0.1 0-0.1 0.2 0.1 0.3 0.1-0.2 0.1-0.4 0.1zm44.4-12.4q0.1 0.2 0.3 0.2-0.4 0-0.9 0 0.1 0 0.1 0 0.2-0.1 0.4-0.3 0 0 0.1 0-0.1 0.1 0 0.1zm4.3 2.1q0 0 0 0 0 0 0 0 0 0 0 0 0 0 0 0zm18.3 9.5q0.1 0 0.2-0.1 0 0 0.1 0 0 0.1 0 0.1-0.1 0-0.3 0 0 0 0 0zm6.1 7.9q0 0 0 0-0.1 0-0.2 0.1c-0.1-0.1-0.3-0.2-0.4-0.3q0 0 0.1-0.1 0 0 0 0 0.3 0.2 0.5 0.3zm4.2 11.9q-0.1 0-0.1 0-0.1 0-0.2 0 0 0-0.1 0-0.1 0-0.2-0.1 0 0-0.1 0-0.2-0.1-0.3-0.1c-0.5-0.2-0.4 0.1-0.1 0.3q0.4 0.2 0.8 0.3 0 0 0 0.1-0.3 0.1-0.5 0.3-0.1 0-0.2 0.1 0-0.1 0-0.1 0 0 0 0 0 0 0 0 0 0 0 0 0 0-0.1 0-0.2 0.2-0.5 0.3-0.4 0-0.7-0.2 0 0 0 0-0.1 0-0.3-0.1-0.2-0.1-0.3-0.2-0.1 0-0.1-0.1 0 0 0 0 0.4-0.3 0.7-0.7 0.4 0 0.7-0.2 0.1 0 0.1 0-0.1-0.1-0.1-0.1 0 0 0 0 0-0.1 0-0.1-0.1 0-0.1-0.1 0 0-0.1 0 0 0-0.1-0.1 0 0 0 0 0 0 0.1-0.1 0 0 0 0 0.1 0 0.3 0 0.2 0.1 0.5 0.1 0 0 0.1 0 0.2-0.1 0.4-0.1c0.1 0.1 0.3 0.2 0.4 0.2q0.5 0.2 0.9 0.3-0.3 0.2-0.6 0.5-0.1 0-0.2-0.1zm-55 19.4q0-0.1 0-0.2-0.1-0.4-0.1-0.8-0.1-0.1-0.1-0.2 0-0.7-0.1-1.4 0.2 1.2 0.4 2.4 0 0.2 0 0.4 0-0.1-0.1-0.2zm1-14.7q-0.1-0.2-0.2-0.4-0.1-0.4-0.3-0.8 0-0.2-0.1-0.4-0.2-0.6-0.3-1.1 0-0.1 0-0.1-0.1-0.7-0.2-1.4-0.1-0.9-0.2-1.9 0-0.3-0.1-0.6 0 0 0-0.1 0-0.3-0.1-0.7 0 0 0 0-0.1-0.7-0.4-1.4-0.1-0.2-0.1-0.5-0.1-0.2-0.1-0.4 0-0.1 0-0.1-0.2-0.5-0.2-1 0 0 0 0 0-0.7 0-1.3-0.1-0.5-0.1-1 0-0.3-0.1-0.5 0-0.1 0-0.1 0-0.2-0.1-0.4 0 0 0-0.1-0.1-0.2-0.2-0.3 0-0.1 0-0.1-0.1-0.2-0.2-0.4 0 0 0-0.1-0.1-0.1-0.2-0.3 0 0 0-0.1-0.3-0.4-0.5-0.9 0.1-0.1 0.3-0.2 0 0 0.1 0 0.1-0.2 0.3-0.4 0 0 0 0 0.1 0 0.3 0 0.1 0 0.2 0 0.1 0 0.2-0.1 0.1 0 0.3-0.1 0 0 0.1 0 0.2-0.2 0.4-0.3 0 0 0-0.1 0 0 0 0 0.1 0 0.2 0c0.9-0.2 2.1-1.1 2.6-2.3q0.3 0 0.6 0 0.1 0 0.1 0 0 0.1 0.1 0.3 0 0 0 0-0.1-0.1-0.2-0.1c-0.4-0.2-0.4 0-0.1 0.2q0.2 0.1 0.3 0.2 0.2 0.7 0.2 1.3 0 0 0 0-0.1 0.1-0.1 0.1c-0.5 0.3-1.1 0.2-1.6 0-0.3-0.1 0 0.3 0.1 0.3 0.5 0.2 1.1 0.3 1.7 0.3q0 0 0 0 0 0.5 0 1 0 0.1 0 0.3 0.1 0.3 0.1 0.6 0 0.3 0.1 0.5 0 0.2 0 0.4 0.1 0.5 0.2 0.9c0.8 2.6 1.9 4.9 0.5 7.5q-0.2 0.5-0.5 0.9-0.2 0.2-0.3 0.5-0.1 0-0.1 0.1-0.1 0.2-0.2 0.3 0.2-0.6 0.4-1.2c0 0 0 0 0 0-0.5 1.1-1.2 2-1.6 3.1q-0.1 0.3-0.2 0.5 0 0 0 0-0.2 0.7-0.2 1.4 0 0.1-0.1 0.2-0.1 0.7 0 1.5-0.3-0.5-0.5-1.1zm-4.7-13.6c-0.4-0.6-0.8-1.2-1.4-1.6q-0.3-0.1-0.5-0.2-0.3-0.2-0.6-0.2 0.3-0.2 0.5-0.4c0.3-0.2 0.6-0.5 0.8-0.9q0.5-0.1 1-0.3 0 0 0.1-0.1 0.1 0 0.1 0 0.1 0 0.1 0 0 0 0 0 0.1 0.2 0.2 0.5-0.2 0.2-0.4 0.4c-0.1 0.1 0.3 0.3 0.4 0.3q0.1-0.1 0.2-0.1 0.3 0.7 0.6 1.3 0 0.1 0 0.1 0.1 0.2 0.1 0.4 0 0.1 0.1 0.1 0 0.2 0 0.4 0.1 0 0.1 0.1 0 0.2 0.1 0.4 0 0 0 0.1 0 0.2 0 0.5c0.1 0.4 0 1.1 0 1.9q-0.1-0.2-0.2-0.3c-0.5-0.8-0.8-1.6-1.3-2.4zm-4.1-2.6q0-0.1 0-0.1-0.2-0.1-0.3-0.2 0 0 0 0-0.2-0.1-0.3-0.3-0.1 0-0.1 0-0.1-0.2-0.3-0.3 0 0 0 0 0.3-0.2 0.5-0.4 0 0 0 0 0.2-0.1 0.4-0.3 0-0.1 0-0.1 0.2-0.2 0.3-0.3 0-0.1 0.1-0.1 0.1-0.3 0.2-0.5 0.1 0 0.3 0 0.1 0 0.2 0.1-0.1 0.1-0.2 0.1-0.2 0.1-0.4 0.2c-0.1 0 0.2 0.2 0.3 0.2q0.5 0 1-0.3 0.4 0.1 0.8 0-0.2 0.1-0.4 0.1-0.3 0.1-0.7 0.2c-0.2 0 0.3 0.3 0.4 0.3q0.2 0 0.7 0 0 0.2-0.1 0.4c-0.4 0.2-0.9 0.2-1.3 0.2-0.1 0 0.3 0.3 0.4 0.3q0.3 0.1 0.6 0.1-0.2 0.4-0.6 0.7-0.2 0.2-0.5 0.4-0.3-0.1-0.6-0.3-0.2 0-0.4-0.1zm-6.7 0.4c-0.3 0.4-0.7 0.6-1.1 0.8q-0.2 0.1-0.5 0.1-0.1 0-0.1 0-0.3 0.1-0.5 0.1 0 0 0 0-0.3 0-0.5 0-0.1 0-0.2 0-0.2 0-0.5-0.1 0 0 0 0 0.1-0.1 0.1-0.1 0 0 0 0 0.2 0 0.3 0 0.2 0 0.4 0 0 0 0 0 0 0 0 0 0.2 0 0.3 0 0 0 0 0 0.2-0.1 0.3-0.1 0.2-0.1 0.3-0.1c0.2-0.2 0.8-0.6 1.3-1q0 0 0 0 0 0 0 0 0.1-0.1 0.2-0.1 0 0 0 0 0.1 0 0.1 0 0 0 0 0-0.2 0.1-0.4 0.2c-0.1 0 0.3 0.3 0.5 0.3q0 0 0 0 0 0 0 0zm-9.7 0.7q-0.1 0-0.1 0-0.1 0.1-0.2 0.1 0 0 0 0 0.1-0.1 0.1-0.2 0 0 0 0 0.1 0.1 0.2 0.1zm50.1-18.9q0 0-0.1 0.1 0 0 0 0-0.1 0-0.2 0-0.1 0-0.1 0-0.1 0-0.1 0 0 0.1-0.1 0.1 0 0 0 0-0.1 0.1-0.1 0.1 0 0 0 0-0.1 0.1-0.2 0.1 0 0 0 0-0.2 0.1-0.3 0.1 0.1-0.1 0.3-0.2 0 0 0 0 0.1-0.1 0.2-0.1 0.2-0.1 0.3-0.2 0 0 0 0 0.2 0 0.4 0zm2 0.1q0.1 0.1 0.2 0.2-0.1 0-0.1 0-0.3-0.1-0.5-0.2 0.2-0.1 0.3-0.3 0 0.2 0.1 0.3zm12.4 8.9q0 0.1 0.2 0.2-0.1 0-0.2 0-0.2 0-0.5-0.2 0.2-0.1 0.3-0.3 0.1 0.2 0.2 0.3zm10.6 8.6q0 0 0 0 0.1-0.1 0.2-0.1 0 0 0 0-0.1 0.1-0.2 0.1zm1.3 0.7q0.1 0.3 0.3 0.5 0 0 0 0-0.1-0.1-0.2-0.1-0.1-0.1-0.2-0.2 0 0 0 0-0.1 0-0.1 0 0 0 0 0-0.1 0-0.1 0 0 0 0 0 0 0 0-0.1 0.1 0 0 0 0.1 0 0.1 0 0.1 0 0.2-0.1zm0.2 1.4q-0.2 0.1-0.4 0.1-0.1 0-0.2 0 0.1-0.1 0.1-0.1 0.3 0 0.5 0zm3.7 8.5q0.3 0.1 0.5 0.2 0 0-0.1 0.1-0.8-0.1-1.5-0.3 0 0 0 0 0 0 0 0 0 0 0-0.1 0 0-0.1 0 0 0 0 0 0.3 0 0.6-0.1 0.3 0.1 0.5 0.2 0.1 0 0.1 0zm-3.6 2.2q0.2 0.2 0.5 0.3 0 0 0 0-0.2 0.1-0.4 0.2-0.2 0.1-0.4 0.1-0.1 0.1-0.2 0.1-0.3 0.1-0.6 0.2-0.1 0-0.3 0 0 0-0.1 0-0.1 0-0.3 0 0 0 0 0c-0.6 0-1.2-0.2-1.9-0.2q0-0.1-0.1-0.1 0.6-0.2 1.1-0.3c0.7-0.2 1.4-0.4 2-0.7q0 0 0 0 0 0 0 0 0 0 0 0 0.1 0 0.1 0.1 0.3 0.2 0.6 0.3zm-3.1-0.4q0 0 0 0-0.2 0-0.4 0.1-0.1 0-0.1 0-0.2 0.1-0.4 0.2-0.3 0.1-0.6 0.2-0.5 0-0.9-0.1-0.5-0.3-1.2-0.5-0.5-0.3-1.1-0.7c-0.7-0.5-1.3-1-1.9-1.4q-0.2-0.1-0.3-0.1-0.1 0-0.1 0-0.1 0-0.3-0.1 0 0-0.1 0-0.1 0-0.2 0-0.1 0-0.2 0 0.4-0.2 0.8-0.5 0.1-0.2 0.3-0.3 0.2-0.2 0.3-0.4 0.1 0 0.1 0 0.1 0.1 0.2 0.2 0.1 0.1 0.1 0.1 0.1 0.1 0.3 0.2 0 0 0 0 0.2 0.1 0.4 0.2 0 0 0 0 0.2 0.1 0.4 0.1 0 0 0 0 0.2 0.1 0.4 0.1 0 0 0.1 0.1 0.1 0 0.3 0 0.1 0 0.1 0 0.2 0 0.3 0 0.2-0.1 0.4-0.1 0 0 0-0.1 0 0 0 0 0 0 0 0 0 0 0 0 0-0.1-0.1-0.1 0 0 0 0 0 0-0.1-0.1 0 0 0 0 0 0-0.1 0 0-0.1-0.1-0.1 0 0 0 0 0.4 0 0.9 0 0 0.1 0.1 0.1 0.2 0.3 0.4 0.5 0.2 0.2 0.5 0.4c0.3 0.2 1 0.6 1.4 0.4q0.1 0.1 0.1 0.1 0.2 0.1 0.5 0.1 0.2 0.1 0.3 0.1 0.1 0 0.1 0 0.4 0.1 0.9 0.1 0.2 0 0.5 0 0.3 0.2 0.7 0.3 0 0 0 0-0.4 0.2-0.8 0.3-0.1 0.1-0.2 0.1-0.4 0.2-0.8 0.3-0.5 0.2-0.9 0.3zm-29.1 7.2c-0.5 1.1-1.4 2.1-2.1 3.1-1.6 2.1-3.1 4.4-4.8 6.4q-0.3 0.3-0.6 0.7c-0.6 0.6-1.3 1.3-2 1.8q-0.4 0.2-0.8 0.4-0.3 0.1-0.6 0.3-0.1 0.1-0.2 0.1 0 0 0 0 0 0 0 0c0.1 0 0.2-0.2 0.2-0.3-0.2-0.3-0.4-0.5-0.5-0.8-0.1-0.3-0.1-0.5-0.2-0.8-0.1-0.5-0.4-0.9-0.6-1.2-0.3-0.7-0.5-1.4-0.7-2.1q-0.1-0.2-0.1-0.5 0-0.1-0.1-0.1 0-0.3 0-0.5 0 0 0-0.1 0-0.5 0.2-1.1 0 0 0.1-0.1 0.2-0.3 0.4-0.6 0.2-0.2 0.4-0.5 0 0 0.1 0c0.5-0.6 1.1-1.1 1.5-1.8q0.3-0.2 0.5-0.5 0 0 0-0.1 0.2-0.3 0.4-0.6 0.1-0.3 0.3-0.6 0.2-0.5 0.3-1c0.7-1 1.5-1.9 2.1-3q0.5-0.5 0.8-1.2 0 0 0 0 0.1-0.4 0.2-0.7 0 0 0.1-0.1 0.1-0.3 0.2-0.6 0.1-0.3 0.1-0.5 0.1-0.1 0.2-0.3 0 0 0 0 0.4-0.5 0.7-1.1 0.5-0.6 1.1-1c0.6-0.1 1.1-0.4 1.7-0.5q0.3-0.1 0.6-0.2 0.6-0.1 1.1-0.3 0.8 0 1.5 0.1 0.5 0 0.9 0 0.4 0 0.8 0 0.1 0 0.1 0 0.4-0.1 0.7-0.2 0 0 0 0 0.4-0.1 0.7-0.2 0 0 0.1 0 0.3-0.2 0.6-0.3 0.3-0.1 0.5-0.1 0 0 0 0 0.3-0.1 0.5-0.2 0.1 0 0.2 0 0.2 0.1 0.3 0.1 0.2 0 0.4 0 0 0 0 0 0.6-0.1 1.1-0.4 0.1 0 0.1 0c0.2 0.1 0.6 0.1 0.8 0q0-0.1 0.1-0.1 0 0 0 0 0.1 0 0.1-0.1 0 0 0.1-0.1 0 0 0-0.1 0 0 0 0-0.1 0-0.1 0 0-0.1 0-0.1 0 0 0 0 0 0-0.1 0 0-0.1 0-0.1 0 0-0.1 0 0 0 0 0-0.1-0.1-0.2-0.1 0 0 0-0.1 0 0 0.1 0 0 0 0 0 0.1 0 0.2 0 0.1-0.1 0.2-0.1 0.4 0.2 0.8 0.3 1.1 0.4 2.3 0.5 0.1 0 0.1 0.1 0.4 0 0.8 0c0.2 0-0.4-0.4-0.5-0.5-0.6-0.1-1.3-0.1-1.9-0.3q0 0 0 0-0.1 0-0.2-0.1 0 0 0 0c0.4 0.2 0.9 0.2 1.2 0.2q0.1 0 0.1 0 0.2-0.1 0.4-0.1c0.1-0.1-0.3-0.4-0.4-0.4-0.4 0-0.8 0-1.2-0.1q-0.2 0-0.3 0 0.2-0.2 0.4-0.3 0.1 0 0.1 0 0 0 0-0.1 0.2 0 0.4 0 0 0 0 0 0 0 0.1 0 0.2 0.1 0.4 0.2 0 0 0 0 0 0 0 0c0.5 0.3 1 0.5 1.6 0.6q0 0 0 0 0.2 0 0.4 0 0.1 0 0.1 0 0.2-0.1 0.3-0.1 0.1 0 0.3 0 0.1-0.1 0.1-0.1 0.2 0 0.4-0.1c0.2-0.1-0.4-0.5-0.5-0.5q-0.2 0.1-0.4 0.1 0 0 0 0-0.2 0.1-0.4 0.1 0 0 0 0-0.2 0-0.4 0 0 0 0 0-0.2 0-0.4 0 0 0 0 0 0 0-0.1-0.1c-0.1-0.1-0.3-0.2-0.4-0.3q-0.3 0-0.6 0 0.1-0.1 0.1-0.2 0.2 0 0.4 0.1c0.7 0 1.9 0 2.3-0.8 0.1-0.1-0.4-0.3-0.5-0.3-0.5 0.2-1 0.4-1.6 0.5q0 0 0 0-0.1 0-0.3 0 0 0 0 0-0.2 0-0.3 0 0 0-0.1 0-0.1 0-0.2 0 0 0-0.1 0 0 0-0.1 0 0 0 0 0-0.1 0-0.1 0 0-0.1 0.1-0.1c1.1 0.1 2.2-0.3 2.4-1.3q0 0-0.1-0.1 0 0 0 0 0 0 0 0 0 0-0.1-0.1 0 0 0 0c-0.1-0.1-0.3-0.2-0.4-0.2q-0.2 0-0.4 0 0 0 0 0 0.4-0.2 0.7-0.5 0.3 0 0.6 0 0.1 0 0.2-0.1 0.2 0 0.4 0 0-0.1 0.1-0.1 0.2-0.1 0.4-0.2 0.1 0 0.2 0 0.2-0.1 0.5-0.3 0 0 0 0 0.3 0.5 0.8 0.8 0 0 0 0 0.1 0.3 0.2 0.6 0 0 0 0-0.1 0-0.2-0.1 0 0 0 0-0.1 0-0.1 0 0 0 0 0 0 0 0 0 0 0 0 0 0 0 0 0.1 0 0 0 0 0 0 0 0 0 0.1 0 0.1 0 0 0 0c-0.1 0.2-0.2 0.2-0.4 0.2q0 0 0 0 0 0-0.1 0c-0.1 0.1 0.3 0.3 0.3 0.3q0.2 0 0.3 0 0 0 0 0-0.2 0.3-0.3 0.6-0.1 0.4-0.2 0.8 0 0.5-0.1 0.9 0 0 0 0 0 0.1-0.1 0.2-0.1 0.2-0.2 0.4-0.1 0.2-0.2 0.4 0 0.1-0.1 0.2-0.1 0.3-0.3 0.5c-0.4 0.8-1.1 1.3-1.6 2q-0.1 0.1-0.3 0.1-0.3 0.1-0.5 0.2c-1.9 0.1-3.7-0.3-5.5 0.5-0.9 0.3-1.7 1-2.5 1.5-0.4 0.3-0.8 0.6-1.1 1-1.1 0.6-2.1 1.3-2.8 2.4-0.6 1-0.9 2.1-1.3 3.1zm2-10.6q-0.1 0-0.1 0c-0.7-0.1-1.3-0.2-2-0.2q0 0 0 0 1 0 1.9 0 0 0 0-0.1c-2.1-0.1-4.7-0.4-6.6 1.1-0.8 0.6-1.3 1.7-1.7 2.7-0.3 0.8-0.6 1.6-1 2.4q-0.3 0.3-0.5 0.6-0.3 0.3-0.5 0.7 0 0 0 0 0-0.5 0-1.1c-0.1-0.7-0.3-1.4-0.4-2.1q0-0.3 0-0.7 0.1-0.1 0.1-0.1 0.1-0.2 0.2-0.5 0.2-0.2 0.2-0.5 0 0 0-0.1c0.3-0.9 0.3-1.9 0.8-2.8 0.3-0.5 0.9-1 1.3-1.4 0.5-0.4 0.8-1 1.1-1.7q0 0 0 0 0.1 0 0.1-0.1 0.1-0.2 0.2-0.5c0.3-0.5 0.7-0.9 1.1-1.4 0.3-0.5 0.2-1.2 0.6-1.7 0.4-0.4 0.8-0.5 1.1-1q0.1-0.1 0.1-0.3 0.1-0.1 0.1-0.1 0-0.1 0-0.2 0.2-0.4 0.3-0.8c0.3 0.3 0.7 0.6 1.1 0.8q0.2 0 0.3 0.1 0 0 0.1 0 0.1 0 0.2 0.1 0.1 0 0.2 0 0.1 0 0.2 0 0.1 0.1 0.3 0.1c0.5 0 2.2 0.1 2.9-0.5 0.5 0.9 1.6 1.6 2.5 1.4 0.1 0 0-0.2-0.1-0.2q-0.1-0.1-0.3-0.2 0 0 0 0 0.2 0 0.3 0c0.1 0 0.3-0.2 0.2-0.2q-0.1-0.1-0.3-0.2-0.2-0.1-0.4-0.2 0.2 0 0.3 0 0 0 0 0 0.2 0 0.3-0.1 0.2 0.1 0.3 0.1 0.1 0.1 0.2 0.1c0.8 0.8 1.7 1.4 2.3 1.4 0.1 0 0.4-0.2 0.3-0.3q-0.4-0.3-0.8-0.6 0.1 0.1 0.2 0.1 0.2 0 0.5 0 0.3-0.1 0.5-0.2 0.3 0.1 0.6 0.1 0.1 0.1 0.3 0.3 0.1 0.1 0.2 0.2-0.1 0.6-0.3 1.1 0 0 0 0-0.1 0.2-0.2 0.4-0.1 0.1-0.1 0.1-0.1 0.3-0.3 0.5-0.1 0.1-0.1 0.2 0 0 0 0-0.5 0-0.9-0.1c-0.2 0 0.3 0.4 0.4 0.4q0.1 0 0.2 0.1-0.1 0.1-0.2 0.2-0.4 0.1-0.8 0.1c-0.5-0.1-1-0.3-1.3-0.7 0-0.1-0.6-0.4-0.5-0.2q0.2 0.2 0.3 0.4 0.1 0 0.1 0.1 0 0 0 0-0.4-0.2-0.8-0.6c0-0.1-0.6-0.3-0.4 0q0.4 0.4 0.8 0.7 0 0-0.1 0c-0.2-0.1-0.4-0.2-0.5-0.2q-0.2 0.1-0.4 0.2-0.3 0-0.5-0.1c-0.2 0-0.1 0.1 0 0.3q-0.1 0-0.2 0-0.2 0-0.2 0-0.1 0-0.1 0 0-0.1 0 0 0 0 0 0 0 0 0 0 0 0 0 0 0 0 0 0-0.1 0-0.2 0 0 0 0 0-0.1 0-0.2 0 0 0-0.1 0-0.1 0-0.2-0.1-0.1 0-0.2-0.1 0 0-0.1 0 0-0.1-0.1-0.1-0.1-0.1-0.1-0.1-0.1-0.1-0.1-0.2-0.1 0-0.1-0.1-0.1-0.1-0.2-0.3c-0.1-0.1-0.7-0.3-0.6-0.1q0.1 0.2 0.3 0.3 0 0.1 0 0.1 0.1 0.2 0.3 0.3 0 0.1 0 0.1c0.6 0.6 1.5 1 2.4 0.9q0.1 0.1 0.2 0.1-0.6 0-1.1 0-0.1 0-0.1 0 0 0 0 0 0 0-0.1 0 0 0 0 0 0 0 0 0-0.1 0-0.1 0 0 0 0 0 0 0 0 0 0 0 0 0 0 0 0 0-0.2 0-0.3 0-0.3-0.1-0.5-0.1c-0.4-0.1 0 0.2 0.1 0.3q0.4 0.1 0.8 0.2-0.6 0-1.2-0.3c-0.1-0.1-0.3-0.2-0.4-0.2q0 0 0 0-0.2-0.1-0.2 0 0 0 0 0-0.1 0.1-0.2 0.2c-0.1 0 0.1 0.2 0.2 0.3q-0.7-0.2-1.4-1c0 0-0.5-0.2-0.4-0.1q0.2 0.2 0.3 0.4 0.1 0.1 0.1 0.2 0.2 0.1 0.3 0.2 0.1 0.1 0.2 0.2 0.1 0 0.2 0.1 0.1 0.1 0.3 0.2 0.1 0 0.1 0.1 0.2 0.1 0.4 0.1 0 0 0.1 0.1 0.2 0 0.4 0.1 0 0 0.1 0 0.2 0 0.4 0 0 0 0.1 0 0.2 0.1 0.4 0 0 0 0 0 0 0 0 0.1 0.1 0 0.1 0.1-0.2 0-0.4 0-0.2 0-0.4 0c-1-0.2-2-0.5-2.9-0.8-0.4-0.1-0.3 0.1 0 0.3q0.2 0.2 0.5 0.3 0.2 0.1 0.5 0.2 0 0 0 0 0 0.1 0 0.1 0.1 0.1 0.2 0.2 0 0 0 0 0.1 0.1 0.3 0.1 0 0.1 0 0.1 0.1 0 0.2 0.1 0.2 0.1 0.3 0.1 0 0.1 0.1 0.1 0 0 0.1 0.1 0.1 0.1 0.3 0.2 0.1 0 0.2 0.1 0 0 0 0c-0.4-0.2 0 0.2 0.1 0.3 0.6 0.3 1.2 0.4 1.9 0.4 0.2 0 0.6 0 0.9-0.2q0 0 0 0 0 0 0 0-0.1 0.1-0.2 0.2-0.6 0.3-1.1 0.5-0.1 0.1-0.2 0.1 0 0 0 0-0.1 0-0.2 0.1-0.1 0-0.2 0-0.1 0-0.1 0-0.1 0-0.2 0 0 0-0.1 0-0.1 0-0.2 0 0 0 0 0-0.1 0-0.2 0 0 0-0.1 0-0.1-0.1-0.2-0.1c-0.1-0.1-0.5-0.2-0.2 0q0.2 0.1 0.3 0.2 0.2 0.1 0.4 0.2 0 0 0 0-0.3 0.1-0.5 0.1-0.1 0-0.2 0-0.2 0-0.4 0-0.1 0-0.2 0-0.2 0-0.4 0zm-23-10.5q0 0 0 0 0 0 0 0-0.1 0-0.1-0.1 0 0 0 0-0.1 0-0.2 0-0.1 0.1-0.3 0.2 0.1-0.2 0.2-0.3 0.1-0.1 0.2-0.2 0.3-0.1 0.5-0.3 0.4 0 0.7 0-0.4 0.4-1 0.7zm-11.2 1q0 0 0 0 0 0 0 0 0 0 0 0 0 0 0 0zm-8.7-3.9q0 0 0 0 0.1 0 0.2 0.1 0 0 0 0-0.1 0-0.1 0-0.1-0.1-0.1-0.1zm1.2-1.5q0 0-0.1 0 0 0-0.1 0 0 0 0 0-0.1 0-0.2 0 0 0 0 0 0.1-0.1 0.1-0.1 0.2 0 0.3 0.1zm51.8-9.1q-0.1 0.1-0.2 0.2 0 0 0 0 0-0.1 0.1-0.2 0 0 0.1 0zm16.5 15.9q0.2 0.1 0.4 0.1-0.6 0-1.2-0.2 0 0 0-0.1 0.2 0.1 0.3 0.1 0.3 0.1 0.5 0.1zm3.9 5c-0.6 0.3-1.2 0.4-1.6 0.1-0.1 0-0.7-0.3-0.5 0q0.2 0.3 0.5 0.4 0 0 0 0-0.1 0-0.1 0-0.2 0-0.3 0-0.1 0-0.2-0.1 0 0 0 0-0.1 0-0.1 0-0.2 0.1-0.4 0.1 0 0 0 0 0 0 0 0-0.2 0-0.3-0.1-0.2 0-0.4-0.1 0 0 0 0 0.3-0.1 0.6-0.2 0.3-0.1 0.6-0.3 0.2 0 0.5 0 0.1 0.1 0.2 0.1 0 0 0 0.1 0.1 0 0.1 0 0 0 0.1 0 0 0 0 0 0.2-0.1 0.5-0.2 0.1 0.1 0.4 0.1 0.2 0.1 0.4 0.1zm4 3q0.1 0 0.2 0.1-0.2 0-0.3 0 0.1 0 0.1-0.1 0 0 0 0 0 0 0 0 0 0 0-0.1 0 0 0 0-0.1 0-0.1-0.1 0 0 0 0 0 0-0.1 0 0 0 0 0 0.1-0.1 0.1-0.1-0.1 0.1 0.1 0.3zm-4.3 1.9q0 0-0.1 0 0.1 0 0.1-0.1 0 0 0.1 0 0 0.1-0.1 0.1zm-8.8-1.9q-0.2-0.1-0.4-0.2 0.2 0 0.3-0.1 0 0 0 0 0.3 0.2 0.6 0.3 0 0.1 0 0.1 0.4 0.1 0.7 0.2 0 0 0 0c-0.4-0.1-0.8-0.1-1.2-0.3q0 0 0 0zm-1.9-2.6q0 0-0.1 0 0 0 0 0 0 0 0 0 0 0 0 0 0 0 0 0.1 0 0 0 0 0 0 0 0 0 0 0 0.1 0 0 0 0 0.1 0 0.1 0 0 0.1 0 0.1 0 0 0 0-0.5-0.2-1-0.4 0.3-0.1 0.6-0.4 0 0 0 0 0.1 0.1 0.1 0.1 0.2 0.1 0.4 0.2 0.2 0.1 0.4 0.2 0 0 0 0 0 0 0 0 0.3 0.2 0.6 0.4-0.1 0-0.1 0-0.2-0.1-0.4-0.2-0.3 0-0.5-0.1-0.1-0.1-0.1-0.1zm-7.2-4.2q0 0 0 0 0.1 0.2 0.3 0.3 0 0 0 0-1 0.7-2.2 1.2-0.1-0.1-0.2-0.1 0 0 0 0-0.1-0.1-0.1-0.1-0.4 0-0.9 0-0.4 0.1-0.9 0.1 0.2-0.4 0.4-0.7 0.3-0.7 0.5-1.4 0 0 0 0 0.2 0.2 0.4 0.2 0 0 0 0 0.3 0.1 0.5 0.2 0.1 0 0.1 0 0.2 0.1 0.4 0.1 0.3 0 0.6 0c0.1 0 0.3-0.3 0.2-0.3-0.6 0-1.3-0.2-1.9-0.6q-0.1 0-0.2-0.1 0-0.2 0-0.4 0.1-0.1 0.2-0.1 0 0 0 0 0 0 0 0 0.2 0.1 0.4 0.2 0 0 0 0 0.2 0 0.4 0.1 0 0 0 0 0.2 0.1 0.3 0.1 0.1 0 0.1 0 0.2 0 0.4 0c0.1 0.1 0.3 0.1 0.6 0q0.3 0.4 0.7 0.6 0 0 0 0-0.2 0-0.2-0.1-0.1 0-0.1 0 0 0 0 0 0 0-0.1 0 0 0 0 0.1 0 0 0 0 0 0 0 0-0.2 0-0.3-0.1-0.1 0-0.2 0 0-0.1-0.1-0.1-0.1 0-0.2-0.1c-0.1-0.1-0.3-0.2-0.4-0.2q0 0-0.1 0c0-0.1-0.4-0.2-0.2 0q0.2 0.1 0.4 0.3 0.4 0.4 0.9 0.6 0.1 0 0.2 0.1 0.1 0.1 0.3 0.2zm-6.3 5.6q0-0.1 0-0.1 0 0 0 0 0.1 0 0.2 0 0 0 0 0-0.1 0-0.2 0.1zm-1.4-0.1q-0.1 0-0.1-0.1 0.1 0 0.2 0 0.1 0 0.1 0 0 0 0 0-0.1 0.1-0.2 0.1zm1.3-2.7q0 0 0 0 0.1 0 0.1 0 0 0 0 0 0 0-0.1 0 0 0 0 0.1 0-0.1 0-0.1zm-2.1 1.1q-0.3 0-0.5 0.1 0-0.1-0.1-0.1 0.3 0 0.6 0zm-1.2-0.1q-0.1 0-0.1 0 0.1 0 0.2 0-0.1 0-0.1 0zm0 0.8q-0.2 0.1-0.5 0.2 0 0 0 0-0.3 0-0.6 0 0 0 0 0 0.3 0 0.5-0.1 0 0 0 0 0-0.1 0-0.1 0 0 0 0 0 0-0.1 0 0 0 0-0.1 0 0 0 0 0 0 0 0 0.4 0.1 0.7 0.1zm-3.7-7.1q-0.1 0-0.1 0-0.3 0-0.5 0 0 0 0 0-0.4 0-0.8-0.2 0.7 0.2 1.5 0.1 0 0 0.1 0 0.1 0 0.2 0-0.2 0.1-0.4 0.1zm-3.1 0.1c-0.2 0.3-0.3 0.6-0.6 0.9q0 0-0.1 0.1 0 0-0.1 0-0.1 0.1-0.2 0.1c0.4-0.3 0.7-0.7 1-1.2q0 0 0 0 0.1-0.3 0.2-0.5c0-0.1-0.1-0.2-0.1-0.1-0.2 0.4-0.5 0.8-0.8 1.2-0.2 0.3-0.5 0.5-0.8 0.9q0 0 0 0 0.1 0 0.1 0c-0.4 0.3-0.4 0.7-0.5 1.3-0.1 0.3-0.3 0.5-0.5 0.8q0-0.4 0-0.9 0-0.1 0-0.2c0.1-1.4-0.1-2.8-0.1-4.2q0.1 0 0.2 0.1 0.6 0.1 1.2 0.1c0.3 0.2 0.8 0.3 1.1 0.3q0 0 0.1 0 0.1 0.2 0.3 0.4 0 0 0 0.1 0 0 0 0-0.2 0.4-0.4 0.8zm-5.8 7.6q-0.1 0.1-0.1 0.1c0.1-0.3 0.2-0.7 0.2-1.1 0-0.4-0.1-0.8-0.4-1.2-0.4-0.5-1.1-1.7-0.9-2.5 0.1-0.5 0.3-0.8 0.2-1.4q0-0.2-0.1-0.4c-0.4-0.7 0.1-1.6 0.4-2.1q0.1-0.1 0.1-0.3 0.1-0.1 0.1-0.2 0.1 0 0.1 0 0.1-0.3 0.2-0.5 0.1 0 0.3 0-0.1 0.1-0.2 0.2 0 0 0 0 0 0 0 0 0 0.1 0 0.1c0.9 0.1 2 0.4 2.8 0q0.1 0 0.3-0.1c-0.1 1-0.1 2-0.1 3q0 0.6 0 1.2 0 0 0 0.1 0 0.6-0.1 1.3 0 0 0 0 0 0 0 0-0.1 0.3-0.2 0.6-0.1 0-0.1 0 0 0.1-0.1 0.2 0 0 0 0-0.2 0.3-0.4 0.6c-0.7 0.9-1.4 1.6-2 2.4zm-9.2 13q-0.1-0.4-0.1-0.8-0.1-0.4-0.2-0.7 0-0.1 0-0.2-0.1-0.6-0.1-1.1 0-0.3 0-0.6 0-0.1 0-0.2 0-0.2 0.1-0.4 0-0.1 0-0.1 0-0.3 0.1-0.5 0 0 0-0.1c0.2-0.6 0.4-1.3 0.5-2q0.1 0 0 0 0.1 0 0.1 0c0.6-1.1 1.4-2.1 1.9-3.3q0-0.1 0.1-0.2 0.1-0.3 0.2-0.7c0.7-2.3-0.2-4.6-1-6.7-0.5-1.2-0.7-2.4-0.9-3.7q0-0.1 0-0.1c0.4-0.2 0.7-0.4 0.8-0.8q0 0 0.1 0 0-0.2 0.1-0.4c0-0.1-0.1-0.2-0.2-0.3q0.1 0.1 0.3 0.1c0.6 0 1.4-0.2 1.9-0.7q0.8-0.1 1.6-0.5 0.1 0 0.3-0.1 0 0 0 0 0 0.5 0 1 0 0 0 0 0 0 0 0 0 0 0 0 0 0 0 0.1 0 0 0.1 0 0 0.2 0 0.5 0.1 0.2 0.2 0.5 0.1 0.2 0.2 0.5 0 0 0.1 0.1 0.3 0.6 0.6 1.1 0 0 0 0-0.1-0.1-0.2-0.3-0.2-0.3-0.4-0.7c-0.4-0.7-0.5-1.6-0.9-2.3 0-0.1 0 0 0 0 0.3 0.7 0.3 1.5 0.6 2.1 0.3 0.8 0.9 1.4 1.1 2.3 0.1 0.6 0 1.3 0.1 2q0.1 0.2 0.1 0.4 0.1 0.1 0.2 0.3c0.1 0.4 0.3 0.8 0.5 1.2q0 0.1 0.1 0.1 0 0.1 0.1 0.3 0 0.1 0 0.2 0.1 0 0.1 0.1 0 0.1 0 0.2 0 0 0 0c-0.4 1.2-0.9 2.4-0.9 3.8 0.1 0.7 0 1.4-0.2 2.1-0.2 0.6-0.3 1.1-0.3 1.7 0.1 0.7 0.2 1.4 0.3 2.1 0.1 1-0.2 1.8-0.6 2.7q-0.1 0.2-0.1 0.5 0 0.1 0 0.2 0 0 0 0 0 0 0 0-0.1 0.3-0.2 0.5-0.1 0.2-0.2 0.5 0 0.1 0 0.1-0.1 0.3-0.3 0.5-0.1 0.1-0.2 0.2-0.3 0.3-0.6 0.6-0.1 0-0.1 0-0.3 0.3-0.6 0.6 0 0.1 0 0.1-0.7 0.6-1.2 1.4 0 0 0 0 0 0 0 0-0.1 0.1-0.3 0.3-0.1 0-0.1 0.1-0.1 0.1-0.2 0.3-0.1 0.1-0.2 0.2 0 0.1-0.1 0.2-0.1 0.3-0.1 0.5-0.1 0.2-0.1 0.3 0 0.1 0 0.1 0 0.1 0 0.2 0 0.1 0 0.2 0 0 0 0.1 0 0.1 0 0.2 0 0.1 0.1 0.1 0 0.1 0 0.2 0 0.1 0 0.2 0 0 0 0.1 0.1 0.1 0.1 0.2 0 0.1 0 0.1 0 0.1 0.1 0.3 0 0 0 0-0.1-0.1-0.2-0.1-0.2-0.2-0.3-0.4-0.1-0.1-0.1-0.1-0.1-0.2-0.2-0.3-0.2-0.3-0.3-0.7-0.1-0.4-0.1-0.8-0.1-0.3-0.2-0.7 0 0 0-0.1 0-0.4-0.1-0.9 0-0.4 0-0.8-0.2-1.2-0.7-2.2zm1.2-22.9q-0.3 0.3-0.6 0.7 0 0 0 0-0.2-0.5-0.3-1 0 0 0 0 0.4 0.2 0.9 0.3zm-7.4 1.9q0-0.1-0.1-0.2 0 0 0 0 0 0 0.1 0 0 0 0 0 0.1 0 0.2 0-0.1 0.1-0.2 0.2 0 0 0 0zm-8.2-3.2q-0.2 0-0.3 0 0 0-0.1 0 0.3-0.2 0.4-0.4 0.2 0.1 0.4 0.2 0 0 0 0.1-0.2 0-0.4 0.1zm-1.8 3.2q-0.3 0.1-0.5 0.2 0.3-0.3 0.4-0.7 0.1 0 0.3 0.1 0.1 0 0.3 0-0.3 0.2-0.5 0.3 0 0 0 0.1zm-9-2.5q0 0 0-0.1 0-0.1-0.2-0.2 0.1 0 0.1 0 0.2 0.1 0.4 0.2-0.1 0.1-0.3 0.1zm2.2-2.7q0.1 0 0.1 0 0 0 0 0 0 0 0 0 0 0-0.1 0 0 0 0 0zm58.1-2.8q0 0 0 0 0 0 0 0 0 0.1 0 0.1-0.1 0-0.1 0 0 0-0.1 0 0.1 0 0.2-0.1zm11.1 15q0 0 0 0.1 0 0 0 0 0 0-0.1 0 0-0.1-0.1-0.1 0.1 0 0.1-0.1 0 0.1 0.1 0.1zm-16.6-6q0 0-0.1 0-0.1-0.1-0.3-0.1 0-0.1-0.1-0.1-0.1 0-0.3-0.1 0 0-0.1-0.1 0 0 0 0 0.2 0.1 0.4 0.1 0.1 0 0.2 0 0.4 0.2 0.8 0.3-0.3 0-0.5 0zm-22.3 16.8q-0.1 0.1-0.1 0.2 0 0.1 0 0.2-0.1 0.2-0.2 0.3 0 0.1-0.1 0.2 0 0 0 0 0.1-0.3 0.2-0.6 0.1-0.1 0.1-0.1 0.1-0.3 0.1-0.6 0 0 0 0 0 0 0 0 0 0.2 0 0.4zm-0.2-3.2q0 0 0 0 0-0.2-0.1-0.5 0-0.3 0-0.6 0-0.1 0-0.3 0.1 0 0.1-0.1 0-0.1 0-0.2 0.1-0.1 0.1-0.1 0-0.1 0.1-0.2 0-0.2 0.1-0.4 0 0.1 0 0.1c-0.2 0.8-0.3 1.5-0.3 2.3zm0.6-3q0 0 0 0 0-0.1 0-0.1 0 0 0 0 0 0.1 0 0.1zm2.5-4.3q-0.1 0.1-0.2 0.2 0 0 0 0 0 0 0 0 0.6-0.7 1.1-1.3 0-0.1 0-0.1c-0.2 0.4-0.3 0.7-0.6 1q-0.1 0.1-0.3 0.2zm-3.8-7.7q-0.1-0.1-0.1-0.1-0.1-0.1-0.1-0.3-0.1-0.1-0.1-0.1 0-0.2-0.1-0.3 0-0.1-0.1-0.2 0-0.1 0-0.2-0.1-0.1-0.1-0.2 0-0.1 0-0.2 0-0.1-0.1-0.2 0-0.1 0-0.2 0-0.1 0-0.3 0 0 0 0-0.1-0.2-0.1-0.4 0 0 0 0 0.3-0.2 0.6-0.4 0.2 0.2 0.4 0.3 0 0 0.1 0 0.2 0.1 0.4 0.2 0.1 0 0.1 0 0.2 0.1 0.5 0.1 0 0 0 0 0.3 0 0.6 0 0 0 0 0 0 0 0 0.1 0 0 0 0 0 0 0 0 0 0 0 0c-0.1 0-0.4 0.2-0.4 0.3q-0.4 0-0.8-0.1c-0.1 0-0.3 0.3-0.3 0.3q0.3 0.1 0.5 0.1 0.2 0.1 0.4 0.1 0 0 0 0 0 0 0 0 0 0 0 0.1 0.1 0 0.1 0 0 0 0 0.1 0.4 0.1 0.7 0.2c-0.1 0.6-0.5 1.2-0.8 1.7q0 0.1 0 0.1-0.1 0.1-0.2 0.3-0.1 0.4-0.1 0.8-0.3-0.7-0.8-1.2-0.1-0.2-0.2-0.4zm-1.2-3.4q-0.1 0.2-0.3 0.3-0.4 0.3-0.9 0.5 0 0 0 0 0-0.1-0.1-0.1c0.5-0.2 0.9-0.6 1.2-1q0.2 0 0.4-0.1 0 0 0 0.1 0 0 0 0 0 0 0 0-0.1 0 0 0.1 0 0 0 0-0.1 0-0.1 0-0.1 0.1-0.2 0.2zm-18.1 2.6q-0.1 0-0.1 0 0 0 0.1 0 0 0 0 0 0 0 0 0zm-6.3 1.4q-0.1 0-0.1 0-0.2 0.1-0.4 0.2 0 0 0 0 0 0 0 0-0.2-0.1-0.3-0.1 0 0 0 0 0.6-0.1 1.2-0.3 0 0 0 0-0.2 0.1-0.4 0.2zm-4.7-1.3q0 0 0 0 0.1 0 0.2-0.1 0.2 0 0.4-0.1 0.1 0 0.1 0 0.3-0.2 0.5-0.3 0.1 0.1 0.2 0.1 0 0 0.1 0 0 0.1 0.1 0.1 0 0 0 0 0 0.1 0 0.1 0.3 0.1 0.5 0.2-0.3 0.1-0.6 0.2-0.8 0-1.6 0-0.1 0-0.2-0.1 0 0 0 0 0.1-0.1 0.3-0.1zm10.7-4.6q0 0 0 0 0 0 0 0-0.5-0.2-0.8-0.4 0.6 0.1 1.2 0.2 0.1 0 0.1 0 0 0 0.1 0 0 0 0 0-0.3 0.1-0.6 0.2zm-1.2-1.1q0.1 0 0.3 0.1 0 0 0 0 0 0 0 0-0.1 0-0.2 0 0-0.1-0.1-0.1zm-1.5-2.1q0.1 0 0.1 0-0.2 0-0.4 0 0 0 0 0-0.1 0-0.1 0 0.2 0 0.4 0zm-0.9 6.3q-0.1 0-0.1 0 0.1 0 0.1 0 0 0 0 0zm0.2-0.4q0 0-0.1 0 0.3-0.2 0.4-0.4 0 0 0 0 0.1 0 0.1 0 0 0 0 0 0 0 0 0 0 0 0 0 0 0.1 0 0.1 0 0 0 0 0 0 0 0 0 0 0.1 0.1 0 0 0 0-0.1 0.1-0.3 0.1-0.1 0-0.2 0.1zm0.5-0.4q-0.1 0-0.1 0 0 0 0 0 0 0 0.1 0 0 0 0 0 0 0 0 0zm-5.4 1.9q-0.2 0-0.4-0.1-0.3 0-0.5-0.1 0.2 0 0.5 0 0 0 0.1 0 0.2 0 0.5-0.1 0.2 0.1 0.4 0.2-0.2 0.1-0.4 0.1-0.1 0-0.2 0zm-0.1-1.2q0.3 0 0.5 0c-0.3 0.2-0.6 0.4-1.1 0.5q0.1-0.1 0.1-0.1 0.3-0.2 0.5-0.4zm0.6 0.8q0 0 0 0 0.2-0.1 0.4-0.1 0 0 0-0.1 0.1 0 0.3-0.1 0 0 0.1 0-0.1 0.2-0.3 0.3-0.2 0.1-0.5 0zm3.8-0.8q0 0 0 0 0 0 0 0 0 0 0 0 0 0 0 0zm-3 3.2q0-0.1 0-0.1 0 0 0 0.1 0 0 0 0 0 0 0 0zm-0.2 0.4q0.1 0.1 0.3 0.1 0.1 0 0.3 0 0 0 0 0-0.1 0-0.1 0-0.2 0.3-0.6 0.4 0 0.1-0.1 0.1 0.1-0.3 0.2-0.6zm3.9-2.9q0.1 0 0.1-0.1 0.2 0.1 0.3 0.1 0.1 0.1 0.2 0.1-0.1 0-0.3 0.1-0.1-0.1-0.3-0.2zm0.1-0.5q0 0 0-0.1 0 0 0.1 0 0 0.1 0.1 0.1-0.1 0-0.2 0zm1-0.3q0 0 0 0 0 0 0.1-0.1 0 0 0 0 0.2 0.1 0.5 0.1-0.3 0-0.6 0zm2.4-2.1q0.3 0.1 0.5 0.2 0 0 0 0-0.4 0-0.7-0.1 0-0.1-0.1-0.1 0-0.1-0.1-0.1 0.2 0.1 0.4 0.1zm26.3-8.2q0 0-0.1 0 0 0-0.1 0-0.2 0.1-0.5 0.1 0 0 0 0 0 0 0 0 0.2-0.1 0.3-0.2 0.1 0 0.1 0 0.1 0 0.3 0.1zm16.4 0.5q0 0 0 0 0.2-0.2 0.3-0.3 0 0 0.1 0-0.1 0.1-0.2 0.2 0 0.1 0 0.1-0.1 0-0.2 0zm10 9.2q0 0.1 0 0.2 0 0 0 0 0.1 0.1 0.2 0.2-0.1 0-0.1 0-0.2 0-0.3 0-0.1 0-0.2 0-0.1 0-0.2-0.1-0.1 0-0.2 0 0 0-0.1-0.1-0.1 0-0.2-0.1 0 0 0 0 0 0 0.1 0 0.2 0 0.4 0 0.3 0 0.6-0.1zm1 0.9q0.1 0.1 0.3 0.1 0.3 0.1 0.6 0.2 0 0 0 0-0.1 0.1-0.2 0.1-0.7 0.1-1.4 0.2-0.3 0-0.6 0 0.2-0.1 0.4-0.3c0.1 0 0.1-0.1 0.2-0.2q0.1-0.1 0.3-0.2 0.2 0.1 0.3 0.1 0 0 0.1 0zm4.6 5.3c-0.2-0.1-0.5-0.2-0.5-0.2q-0.1 0.1-0.2 0.1-0.1 0-0.1-0.1 0.4 0.1 0.8-0.1 0 0 0 0 0.1 0.1 0.1 0.2c-0.2-0.1-0.2 0-0.1 0.1zm-10.1 1.5q0 0 0 0 0.1-0.1 0-0.1 0.1 0.1 0.2 0.2-0.1-0.1-0.2-0.1zm-7.8-4.4q0 0-0.1 0-0.1-0.1-0.2-0.1 0 0 0 0c0.1-0.1 0.3-0.3 0.3-0.4q0.2 0.2 0.5 0.3 0 0 0 0 0.3 0.1 0.5 0.1 0 0.1 0 0.1 0 0 0 0-0.1 0-0.1 0-0.1 0-0.1 0 0 0 0 0 0 0 0 0-0.1 0-0.1 0 0 0 0.1 0.1-0.1 0-0.1 0-0.2 0-0.4 0c-0.2-0.1-0.3-0.2-0.3-0.1zm-0.9 0.5q0.1 0 0.3 0 0 0.1-0.1 0.1-0.1 0-0.2-0.1zm-31.6-4.7q-0.1 0-0.3 0.1 0 0 0 0 0.1 0 0.2-0.1c0.1-0.1-0.3-0.3-0.3-0.2q-0.5 0.1-1 0.2 0 0 0-0.1 0 0 0 0 0.2 0 0.4-0.1 0 0 0 0 0 0 0 0 0.3 0 0.6 0 0.3-0.1 0.7-0.2 0 0.1 0.1 0.1-0.2 0.2-0.4 0.3zm32.4-8.1q0.1 0.2 0.1 0.3 0 0 0 0 0.1 0.1 0.1 0.2 0 0 0 0-0.2 0-0.4 0-0.1 0-0.1-0.1-0.1 0-0.2 0-0.1 0-0.2 0 0-0.1-0.1-0.1-0.1 0-0.2-0.1 0 0 0 0 0 0 0 0 0.5 0 1-0.2zm1.9 1.3q0 0-0.1 0.1-0.1 0-0.3 0 0.1-0.1 0.1-0.2 0.2 0 0.3 0.1 0 0 0 0zm10.2 8.6q0 0 0.1 0 0.2 0 0.4-0.1-0.2 0.1-0.4 0.2-0.3 0.1-0.5 0.2-0.2 0-0.4 0 0.2-0.1 0.3-0.3 0 0 0 0 0.3 0 0.5 0zm4.1 8.3q0 0 0.1 0.1-0.1 0-0.2 0-0.2-0.1-0.3-0.2 0 0 0 0 0.2 0.1 0.4 0.1zm3.6 4.6q0.2 0 0.5 0 0 0 0 0 0 0 0 0 0 0 0 0.1 0 0 0 0 0 0 0 0 0 0 0 0.1 0 0 0.1 0 0 0 0 0-0.5 0.1-0.9 0 0 0 0.1 0 0 0 0-0.1 0 0 0 0 0 0-0.1 0 0 0 0-0.1 0 0-0.1 0 0 0 0 0 0.2 0 0.4 0zm-10.9-5.9q-0.1 0-0.1 0-0.1 0-0.1-0.1 0 0-0.1-0.1 0.5 0.1 0.9 0.1 0.2 0 0.3 0-0.1 0.1-0.3 0.1 0 0 0 0 0 0 0 0c-0.2-0.1-0.4-0.1-0.3 0q-0.1 0-0.2 0-0.1 0-0.1 0 0 0 0 0zm-3.8-4.4q0-0.1 0-0.1 0 0 0.1 0 0.2 0.4 0.4 0.6 0 0-0.1-0.1 0 0 0 0-0.1-0.1-0.2-0.1 0 0 0-0.1-0.1-0.1-0.2-0.2zm-3.3-0.1q-0.2 0.1-0.5 0.1 0-0.1 0-0.1 0 0 0 0 0 0 0-0.1 0 0 0 0 0.1 0 0.3 0 0.1 0 0.3 0c0.1 0 0.3-0.2 0.2-0.3q0 0-0.1 0 0.1 0 0.1 0 0.1 0 0.1 0 0.1 0.1 0.2 0.3 0.1 0 0.1 0-0.2 0-0.4-0.1 0 0-0.1 0.1 0 0 0 0 0 0 0 0 0.1 0 0.1 0 0 0 0 0.1 0 0 0 0 0 0 0 0-0.1 0-0.3 0zm-31.9-5.7q-0.2 0.1-0.4 0.2 0 0 0 0 0.1-0.1 0.2-0.2 0.1 0 0.2 0zm16.5-6.3q0 0 0 0 0.2-0.1 0.3-0.2 0 0 0 0 0.1 0 0.2 0.1-0.4 0.2-0.8 0.2 0.2 0 0.3-0.1zm25 13.1q0.2 0 0.3-0.1 0.3 0.3 0.5 0.5-0.3-0.1-0.6-0.1c-0.1-0.1-0.3-0.2-0.3-0.2q-0.1 0-0.1 0 0 0-0.1 0-0.1 0-0.2 0 0.1 0 0.2 0 0.1 0 0.3-0.1 0 0 0 0zm-0.6 4q0 0 0 0 0.1-0.1 0.3-0.1 0 0 0.1 0 0 0 0.1 0.1-0.2 0-0.5 0 0 0 0 0zm-0.8-0.6q0 0 0 0 0.1 0 0.1 0 0 0-0.1 0 0 0 0 0 0 0 0 0 0 0 0 0zm1.2-0.9q0.1 0 0.1 0 0 0 0.1 0-0.1 0-0.1 0-0.1 0.1-0.2 0.1 0.1-0.1 0.1-0.1zm0.8-1.4q0-0.1 0-0.1 0.4 0 0.8 0.1 0 0 0.1 0.1-0.4-0.2-0.9-0.1zm-0.7-1.7q-0.3-0.1-0.6-0.2 0.2-0.1 0.5-0.2 0.1 0.2 0.2 0.4-0.1 0-0.1 0zm-4.3 0.4q-0.2-0.1-0.4-0.3 0.3 0.2 0.7 0.3-0.2 0-0.3 0zm-2.4-1.4q0-0.1 0-0.1 0 0-0.1-0.1 0.2 0 0.3-0.1 0 0.2 0.1 0.3-0.1 0-0.3 0zm-8-1.8q0.1 0 0.1-0.1 0.3 0 0.7 0 0.2 0 0.4-0.1 0.1 0 0.1 0 0 0 0 0 0.2 0.1 0.3 0.1 0 0 0 0 0 0 0 0-0.4 0-0.8 0c-0.1 0-0.4 0.2-0.3 0.2q0.1 0.1 0.2 0.1-0.2 0-0.3-0.1-0.2 0-0.4-0.1zm-3.3-1.4q0.1 0 0.2 0 0 0 0 0 0 0 0 0-0.1 0-0.2 0zm-0.1-8q-0.1 0-0.2 0.1-0.2 0-0.3 0 0 0 0-0.1 0.1-0.1 0.2-0.2 0.2 0.1 0.3 0.2zm5.4 0.2q0.1 0 0.2 0 0 0.1 0 0.1-0.1 0.1-0.2 0.1-0.2-0.1-0.3-0.2 0-0.1 0-0.1 0 0 0.1 0 0.1 0 0.1 0 0.1 0.1 0.1 0.1zm2.1 0q-0.2 0.2-0.3 0.4-0.2 0.1-0.4 0.3-0.1 0-0.2-0.1 0.2-0.1 0.4-0.2c0 0 0.1-0.1 0.1-0.2q0.2-0.1 0.4-0.2 0 0 0 0 0 0 0 0zm0.4 0.1q0 0 0 0 0 0 0 0 0.1 0.1 0.2 0.1 0.1 0 0.1 0-0.1 0.2-0.3 0.4-0.2 0-0.5 0.1 0 0 0 0 0.2-0.3 0.5-0.6zm-5.9 8.5q-0.2 0-0.4-0.1 0.1 0 0.2-0.1 0.1 0.1 0.2 0.2zm-12.3-8.3q0 0 0.1 0 0 0 0 0 0 0 0 0.1-0.1-0.1-0.2-0.1 0 0 0.1 0 0 0 0 0zm12.3-0.2q0 0 0 0 0.1 0 0.1 0 0 0 0 0-0.1 0-0.1 0zm-0.4 0.1q0 0 0 0.1-0.1 0-0.1 0 0.1 0 0.1-0.1 0 0 0 0zm-0.1 0.5q0.1 0 0.1 0-0.1 0.1-0.2 0.1 0.1 0 0.1-0.1zm5.6-0.7q0 0 0 0 0 0 0 0 0 0 0 0zm3.2 6.7q0 0 0.1 0 0.5-0.1 1.1-0.4-0.3 0.3-0.7 0.5 0 0 0 0-0.3 0-0.5 0 0 0 0-0.1zm1.2-0.9q0 0 0 0 0.1 0 0.2-0.1 0 0 0 0-0.1 0-0.1 0.1-0.1 0-0.1 0.1 0-0.1 0-0.1zm2.2 2.6q0 0 0 0 0 0 0 0zm0.3 0.7q0 0 0 0-0.1 0.1-0.2 0.1 0.1 0 0.1-0.1 0.1 0 0.1 0zm-1-0.1q0.1 0.1 0.1 0.1-0.2 0-0.5 0.1 0.2-0.1 0.4-0.2zm0.8 1.9q0.2 0 0.3 0 0.1 0 0.1 0.1 0 0 0 0-0.2-0.1-0.4-0.1zm0.1-1.1q-0.2 0-0.3 0 0.1-0.1 0.1-0.1 0.1 0 0.1-0.1 0.1 0 0.2 0 0.1 0 0.1 0-0.1 0.1-0.2 0.2zm0.4-0.7q0.1-0.1 0.1-0.1 0 0 0 0 0 0-0.1 0.1zm-0.1-0.4q-0.2 0-0.3 0-0.1-0.1-0.2-0.1 0-0.1 0-0.1 0 0 0 0 0.1 0 0-0.1 0 0 0 0 0 0 0 0 0 0 0 0 0.1 0 0.1 0 0.2 0.2 0.4 0.3zm-0.5-0.3q0 0-0.1 0 0 0 0.1 0 0 0 0 0zm-23.5-2.5q0.2 0 0.3 0 0 0-0.1 0.1-0.1-0.1-0.2-0.1zm2.3-5.8q0.1 0 0.2 0 0 0.1 0 0.1 0 0 0 0-0.1 0-0.2 0 0 0 0 0 0 0 0-0.1zm18.5 8.2q0 0-0.1 0.1-0.1 0-0.1 0 0.1-0.1 0.2-0.1zm0-0.9q0 0.1 0 0.1-0.1 0.1-0.1 0.2-0.3 0.1-0.6 0.1 0 0 0 0 0.2-0.1 0.4-0.2 0.1-0.1 0.3-0.2zm-6.5 0q0.2-0.1 0.3-0.2 0 0 0 0 0 0 0 0 0.2 0 0.3 0.1 0 0 0 0-0.1 0-0.2 0.1-0.2 0-0.4 0 0 0 0 0zm0.1 0.7q0 0 0.1-0.1 0 0 0 0 0.1 0 0.2 0 0.1 0.1 0.1 0.2-0.2 0-0.4-0.1 0 0 0 0zm1.4-0.4q0 0 0 0 0 0.1-0.1 0.1-0.1 0-0.2-0.1 0-0.1 0.1-0.1 0-0.1 0-0.1 0 0 0 0 0 0 0 0 0 0-0.1 0 0 0 0 0 0 0 0.1-0.1 0.2 0.2 0.4 0.2-0.1 0-0.2 0.1zm-0.3 0.4q-0.1 0-0.3 0.1-0.1-0.1-0.2-0.2 0 0-0.1 0 0.2-0.1 0.4-0.2 0.1 0.1 0.2 0.2 0 0 0 0 0 0 0 0.1 0 0 0 0zm-0.4 0.4q0 0 0.1 0 0 0 0 0 0 0-0.1 0 0 0 0 0zm0.6-0.1q-0.1 0-0.2-0.1 0.1 0 0.1-0.1 0 0 0 0 0.2 0.1 0.3 0.1-0.1 0.1-0.2 0.1zm-16.4-3.5q0 0-0.1 0 0 0 0 0 0.2-0.1 0.3-0.2 0 0 0 0 0.1-0.1 0.2-0.2 0.3 0.1 0.5 0.1 0 0 0 0 0 0 0 0 0 0 0 0 0 0 0 0 0 0.1 0 0.1 0 0 0 0 0.1 0 0.1 0.1 0 0 0 0 0 0-0.1 0c-0.1-0.1-0.3-0.1-0.4-0.1q-0.3 0.1-0.5 0.2zm3.8 1q0 0 0 0 0 0 0 0 0 0 0 0 0 0 0 0zm-1.2-1.4q0 0.1 0 0.1-0.2-0.1-0.4-0.2 0.2 0.1 0.4 0.1zm3.7 1.1q0 0 0 0-0.1 0-0.1 0 0 0 0.1 0zm-5.2-1q0 0 0 0 0 0 0.1 0-0.1 0-0.1 0zm3.9 1.2q0.1 0.1 0.1 0.1-0.1 0-0.2 0-0.2 0-0.3 0 0.2 0 0.4-0.1zm-1.5 0.1q0 0 0 0 0 0.1 0 0.1 0 0 0 0-0.1-0.1-0.1-0.1 0 0 0 0 0 0 0.1 0zm0.8 0.5q0.2 0 0.3 0 0 0.1-0.1 0.2-0.1-0.1-0.2-0.2zm0.6-4.5q0 0 0 0 0 0 0 0 0 0-0.1 0 0 0 0 0 0 0 0 0 0.1 0 0.1 0zm11.5-1.7q0 0.1-0.1 0.2 0-0.1 0-0.1 0.1 0 0.3-0.2 0 0 0 0-0.1 0.1-0.2 0.1zm-13.9 0q0 0 0 0-0.1 0-0.2 0c0 0-0.3 0.2-0.2 0.2q0.1 0.1 0.1 0.1 0 0 0 0 0 0 0 0 0 0 0 0-0.3-0.1-0.6-0.2 0-0.1 0.1-0.1 0.4 0 0.8 0zm-4.8 6.3q0.2 0.1 0.4 0.3-0.1 0-0.2 0.1-0.2 0-0.3 0 0 0 0 0-0.2-0.1-0.3-0.2 0.2-0.1 0.4-0.2zm1.3 0.2q0 0-0.1-0.1c0.1-0.2-0.1-0.2-0.2-0.1q-0.3-0.1-0.5-0.3 0.6 0 1.1 0 0.2 0.2 0.5 0.4-0.4 0-0.8 0.1zm23.3 2.1q0 0 0 0 0.1-0.2 0.3-0.3 0.2 0.2 0.4 0.3-0.2 0-0.3 0-0.2 0-0.4 0zm2.9 0.1q0 0 0 0 0 0 0 0 0 0 0 0zm-8-8.7q0 0 0 0-0.2 0.1-0.6 0.2 0 0 0 0 0-0.1 0-0.1 0.1-0.1 0.1-0.1 0 0 0 0 0-0.1 0-0.1 0.3 0 0.6 0 0 0 0 0 0 0-0.1 0.1zm-5-0.6q0 0.1 0.1 0.1-0.1 0.1-0.2 0 0 0 0.1-0.1zm-3.1-0.1q-0.1 0-0.2 0 0.1-0.1 0.3-0.1-0.1 0-0.1 0.1zm-10.1 9.8q0 0 0 0 0 0 0 0 0.1-0.1 0.2-0.1 0 0 0 0 0 0 0 0-0.1 0-0.2 0.1zm18 1.3q0.1 0.1 0.3 0.3c-0.3 0.1-0.7 0-1.1-0.1q0.4 0 0.8-0.2zm18.8 9.8q-0.2 0-0.4 0 0 0 0 0 0.2 0 0.3 0 0.1 0 0.1 0zm-3.2-3.1q0 0 0 0-0.1-0.1-0.2-0.1 0 0-0.1 0 0 0 0 0 0.1 0 0 0 0.1 0 0.2 0 0.1 0 0.1 0.1zm-4.6-6.3q0 0.1-0.1 0.1 0 0-0.1 0.1 0-0.1-0.1-0.1 0.1 0 0.1 0.1 0 0 0 0-0.1-0.1-0.3-0.1 0.3 0 0.5-0.1 0 0 0 0zm0.6-2q-0.2 0.1-0.4 0.1-0.2-0.1-0.3-0.3 0 0 0.1 0 0 0 0 0 0.3 0.1 0.6 0.2zm-17.4-8.9q0 0 0 0 0 0 0 0-0.1 0.1-0.2 0.1 0 0 0 0-0.1 0.1-0.2 0.1 0.2-0.1 0.4-0.2zm-0.6-0.2q0 0 0 0 0 0 0 0 0 0 0 0 0 0 0 0 0 0 0 0 0 0 0 0zm-1.4-1.4q0 0.1 0 0.1-0.1 0.1-0.2 0.1-0.2 0.1-0.5 0.2 0 0 0 0 0.2-0.1 0.3-0.2 0.2-0.1 0.4-0.2zm-9 1.2q-0.2 0-0.3-0.1-0.1 0-0.1 0 0 0 0 0 0 0 0 0 0.1-0.1 0.1-0.1 0.2 0.1 0.3 0.2zm-16.8 5.3q0 0 0 0 0.2 0.1 0.5 0.2 0 0 0 0-0.3 0-0.5 0-0.1 0-0.2 0 0 0-0.1-0.1 0.2 0 0.3-0.1zm-0.9 0.5q0 0 0 0c-0.2 0 0.1 0.2 0.1 0.3q0.2 0 0.4 0.1 0 0 0.1 0 0.1 0 0.2 0 0.2 0 0.4 0 0 0 0 0 0.1 0 0.1 0.1 0 0 0 0c-0.4 0.2-0.8 0.3-1.2 0.1 0 0-0.1-0.1-0.2-0.2q-0.1 0-0.1 0-0.1-0.1-0.1-0.1-0.1 0-0.1 0 0 0-0.1 0 0.2-0.2 0.4-0.3 0.1 0 0.1 0zm0.3 1q0 0 0 0 0.2 0 0.4 0.1 0 0 0 0-0.5 0.1-1-0.1 0.2-0.1 0.3-0.2 0.1 0.1 0.3 0.2zm17.3 3.3q0.2-0.1 0.4-0.2 0 0 0 0 0 0 0 0 0.2 0.1 0.4 0.1 0 0 0 0 0.2 0.1 0.4 0.1 0 0-0.1 0-0.5 0-1.1 0zm22.3 2.5q0.1 0 0.1 0 0.4 0.2 0.8 0.3 0 0 0 0-0.3 0-0.6-0.1-0.1-0.1-0.1-0.1-0.1 0-0.1 0 0-0.1-0.1-0.1zm11.8 9.1q0.3 0 0.5 0 0.2 0.1 0.5 0.2 0 0 0.1 0 0.2 0 0.4 0.1 0.2 0.1 0.4 0.1 0 0 0 0-0.8 0.1-1.5 0-0.2-0.2-0.4-0.4zm2 0.9q0.1 0 0.2-0.1c0.1 0.1 0.3 0.3 0.4 0.3q-0.6 0-1.1-0.2 0.2 0 0.5 0zm-4.7-9q0.3 0.1 0.6 0.1 0 0 0.1 0.1-0.3 0-0.7-0.2zm-1-1.9q0.1 0 0.1 0 0.1 0.1 0.3 0.2 0 0 0 0-0.1 0-0.2 0-0.1-0.1-0.2-0.2zm-20.6-14.6q0 0 0 0-0.1 0-0.1 0.1-0.1 0-0.2 0 0 0 0.1 0 0.1 0 0.2-0.1zm-0.3 0.6q-0.3 0.3-0.6 0.5 0 0 0 0-0.1 0-0.1 0-0.2 0-0.4 0-0.1 0-0.1 0 0.1-0.1 0.1-0.1 0 0 0 0 0.6-0.2 1.1-0.4zm-5.2 1.3q-0.1 0-0.2 0.1 0 0 0 0 0 0-0.1 0.1 0 0 0 0c-0.1 0.1-0.2 0.2-0.2 0.3q0 0 0 0c-0.4 0.2-0.7 0.1-1.1 0q0 0 0-0.1 0 0 0 0 0.2 0 0.4 0 0.1-0.1 0.2-0.1 0.1 0 0.1 0 0.2-0.1 0.3-0.2c0 0 0.3-0.3 0.1-0.2q0 0-0.1 0 0.1 0 0.2-0.1 0.2 0.1 0.4 0.2zm-17.7 8.1q0 0 0 0 0 0 0 0zm1.9-2q0 0 0-0.1 0.1 0.1 0.2 0-0.1 0.1-0.2 0.1zm8.8 10q0 0 0 0-0.1-0.3-0.1-0.6 0 0 0 0 0.1 0.3 0.1 0.6zm14.6-2.3q0 0 0.1 0 0.2 0.2 0.4 0.2c-0.3-0.1-0.6-0.2-0.9-0.4q0.2 0.1 0.4 0.2zm6.2 0.3q0 0 0 0.1-0.1-0.1-0.1-0.1 0 0 0.1 0zm2.4-0.7q0 0 0 0 0.1 0 0.1 0 0 0 0 0 0 0 0.1 0.1-0.1-0.1-0.2-0.1zm3.9 3.1q0.2 0.1 0.4 0.1 0.2 0.2 0.3 0.4 0 0 0 0 0 0 0 0 0 0-0.1 0 0 0 0 0-0.5-0.2-1-0.5 0.2 0 0.4 0zm14.1 6.8c-0.2-0.1-0.5-0.1-0.3 0q0 0 0 0.1 0 0-0.1 0-0.1-0.1-0.3-0.2 0 0-0.1 0 0 0 0.1 0 0.4-0.1 0.7-0.3 0.3 0.1 0.7 0.1 0 0 0 0-0.3 0.2-0.7 0.3zm2.3-0.1q0 0 0.1 0-0.1 0-0.1 0 0 0 0 0zm-1 0.3q0 0-0.1 0.1-0.1 0-0.2 0 0.2-0.1 0.3-0.1zm-5-8.9q-0.1 0-0.2-0.1 0 0-0.1-0.1 0 0 0 0 0.2 0.1 0.3 0.2zm-1.3-1.4q-0.1 0-0.2 0.1 0 0 0 0-0.1-0.1-0.1-0.1 0 0-0.1-0.1 0 0 0 0 0 0 0 0-0.1 0-0.1 0 0 0 0 0 0-0.1 0.1-0.1 0 0 0 0 0.1 0.1 0.2 0 0.1 0.1 0.2 0.2zm-1.3-4.2q0 0.1-0.1 0.1-0.1 0-0.2 0 0 0 0 0 0.2-0.2 0.3-0.3 0.1 0 0.1 0-0.1 0.1-0.1 0.2zm-12.9-8.9q0 0 0-0.1 0 0 0 0 0 0 0.1 0-0.1 0-0.1 0.1zm-1-0.7q0 0-0.1 0 0 0 0 0 0.1 0 0.2-0.1 0 0 0 0 0 0 0 0 0 0.1-0.1 0.1zm-45.9 4.7q0.2 0 0.3 0.1 0.1 0.1 0.3 0.1 0 0 0 0 0.2 0.1 0.4 0.1-0.2 0.1-0.4 0.1 0 0 0 0-0.1-0.1-0.2-0.1 0 0 0 0-0.1-0.1-0.2-0.1 0 0 0 0-0.1-0.1-0.1-0.1 0 0-0.1 0 0 0-0.1 0-0.1 0-0.2 0 0 0-0.1 0 0 0 0 0 0 0-0.1 0 0 0 0.1 0 0.2-0.1 0.4-0.1zm4 7.4q0 0 0 0 0 0 0.1 0-0.1 0-0.1 0zm0.4-2.7q-0.1 0-0.1-0.1 0.1 0.1 0.3 0.1-0.1 0-0.2 0zm5.3 2.4q0.1 0 0.1 0 0 0 0.1 0-0.1 0-0.2 0.1 0-0.1 0-0.1zm35.5 2.3q0.1-0.1 0.1-0.3 0.1 0 0.1 0.1 0.2 0.1 0.4 0.3 0 0 0 0-0.3 0-0.5 0 0-0.1-0.1-0.1zm7.3 4.1q0-0.1 0-0.1 0.2 0.1 0.5 0.2-0.2 0-0.4 0-0.1 0-0.1-0.1zm18 5.4q0.1-0.1 0.3-0.3 0 0.1 0 0.1-0.1 0.1-0.3 0.2zm-7.1-7.9q-0.1-0.1-0.2-0.2 0.4 0.1 0.8 0.2 0 0 0.1 0-0.4 0-0.7 0zm-1.2-2.3q0.1-0.1 0.2-0.2 0 0 0 0 0 0.1 0 0.2 0 0 0 0 0 0-0.1 0 0 0-0.1 0zm-3-3.8q0 0 0 0 0 0 0-0.1 0 0 0.1 0 0 0.1-0.1 0.1zm-1-0.6q0 0 0 0 0 0 0 0 0-0.1 0.1-0.2 0 0 0 0 0 0 0 0.1 0 0-0.1 0.1zm-0.8-1.3q0 0 0 0 0 0 0 0 0.1 0 0.1 0 0 0-0.1 0zm0-0.1q-0.1 0.1-0.2 0.1 0 0-0.1 0 0 0 0 0 0.1 0 0.2-0.1 0 0 0.1 0zm-4.3-2.2q0 0 0.1 0-0.1 0-0.1 0 0 0 0 0zm-8-6.6q0 0 0 0 0 0 0 0 0 0 0.1 0-0.1 0-0.1 0zm0-0.1q-0.1 0-0.2 0.1 0 0-0.1 0 0 0-0.1 0 0.1-0.1 0.2-0.1 0.1 0 0.2 0zm-42.9 3.7q0.1 0.1 0.2 0.1 0 0 0.1 0-0.1 0-0.1 0-0.1 0-0.3 0 0.1 0 0.1-0.1zm-3.2 2.4q0 0-0.1 0 0.1 0 0.1 0 0 0 0 0zm-6.1 5.8q0 0 0 0.1 0-0.1-0.1-0.1 0.1 0 0.1 0zm1.7 4q0.1 0 0.1-0.1 0 0 0.1 0-0.1 0.1-0.2 0.1zm10.5-1.8q0 0-0.1 0 0.1 0 0.2 0-0.1 0-0.1 0 0 0 0 0zm5.1-0.4q0 0 0 0-0.2 0.1-0.3 0.2-0.1 0.1-0.2 0.2 0-0.2-0.1-0.3 0.3-0.1 0.6-0.1zm7.3-1.9q0.5 0 1.1 0 0.3 0.1 0.6 0.1 0 0 0.1 0 0.3 0.1 0.7 0.1-0.3 0.1-0.5 0.2-0.3 0.1-0.5 0.1-0.1 0-0.3 0-0.1 0.1-0.2 0-0.2 0-0.3 0-0.1 0-0.1 0-0.2-0.1-0.4-0.1-0.1-0.1-0.1-0.1 0-0.2-0.1-0.3 0 0 0 0zm5.6 35.4q0-0.1-0.1-0.3 0 0 0-0.1 0 0.1 0.1 0.3 0 0 0 0 0 0.1 0 0.1zm22.3-27q0.4-0.1 0.7-0.2 0.1 0.1 0.2 0.1-0.3 0.2-0.7 0.3-0.1-0.1-0.2-0.2zm4.2-2.3q0 0 0 0 0.3 0.2 0.5 0.2-0.5 0.3-1 0.4 0.3-0.3 0.5-0.6zm3 2.3q0 0 0 0 0.1 0 0.2 0.1-0.1-0.1-0.2-0.1 0 0 0 0zm18.6 3.8c0 0-0.1-0.2-0.3-0.3q0 0 0 0 0.5 0.2 1 0.2 0 0 0 0 0 0 0.1 0.1-0.1 0.1-0.3 0.2-0.1-0.1-0.2-0.2-0.2 0-0.3 0zm-2.5-2.7q0 0-0.1 0 0-0.1 0.1-0.1 0.1 0 0.2 0-0.1 0.1-0.2 0.1zm-0.3 0q-0.2 0.1-0.4 0.3 0 0 0 0 0.2-0.1 0.4-0.3 0 0 0 0zm-2.6-0.8q0 0 0 0 0.1-0.1 0.3-0.2 0 0 0.1 0-0.2 0.1-0.4 0.2 0 0 0 0zm-0.9-0.5q-0.2 0.1-0.3 0.2-0.1-0.1-0.1 0-0.3 0.1-0.6 0.2-0.1 0-0.1 0 0 0-0.1 0-0.1 0-0.3-0.1 0.2 0 0.3 0 0.5-0.1 1.1-0.3 0 0 0.1 0zm0.5-2.3q-0.1 0-0.2 0 0.2 0 0.5 0-0.2 0-0.3 0zm-6.4-8.2q-0.1 0-0.1 0 0.1-0.1 0.1-0.2 0.1 0 0.1 0-0.1 0.1-0.1 0.2zm-0.8-0.8q-0.2-0.1-0.4-0.3 0 0 0 0 0.1 0 0.1 0 0 0 0 0 0 0 0 0 0.1 0.1 0.2 0.2 0 0 0 0 0.1 0 0.2 0.1 0.1 0 0.2 0 0 0-0.1 0.1-0.1-0.1-0.2-0.1zm0.1-0.8q0.1 0 0.1 0 0 0.1 0 0.1-0.1 0-0.1 0.1 0-0.1-0.1-0.1 0.1 0 0.1-0.1 0 0 0 0zm-4.6-1.3q0-0.1-0.1-0.1 0.1 0 0.3 0-0.1 0-0.2 0.1zm-7.8-6.9q-0.2-0.1-0.4-0.2 0 0 0.1 0 0.1 0.1 0.2 0.2 0 0 0 0 0.1 0 0.2 0.1 0.1 0 0.1 0 0 0 0 0-0.1 0-0.2-0.1zm0-0.6q0.1-0.1 0.1-0.1 0 0 0.1 0-0.1 0-0.1 0.1 0 0 0 0 0 0-0.1 0zm-6.7-1.4q0 0 0 0-0.4 0.2-0.8 0.2 0.1 0 0.2-0.1 0.2-0.1 0.3-0.2 0.2 0.1 0.3 0.1zm-3.2-1.4q-0.2 0-0.3 0-0.1 0-0.2 0 0.2 0 0.4 0 0 0 0.1 0zm-15.8 1q0 0-0.1 0 0 0 0-0.1 0.1 0.1 0.1 0.1zm-6.7 1.6q0-0.1 0-0.1 0 0 0 0 0.1 0.1 0.2 0.1 0 0 0 0-0.1 0-0.2 0zm-5.5 3.2q-0.1 0-0.2 0-0.2 0-0.4-0.1 0 0-0.1 0 0.1-0.1 0.2-0.2 0.2 0.2 0.5 0.3 0 0 0 0zm-0.7 0.3q0 0-0.1-0.1 0 0 0 0 0.1 0.1 0.2 0.1 0.1 0.1 0.3 0.2-0.2 0-0.4-0.1 0 0 0 0 0 0 0 0 0 0 0-0.1zm-8.9 3.7q0 0 0 0-0.2 0-0.3-0.1 0.2 0 0.3 0.1zm-1 0.1q0.2 0.2 0.4 0.3-0.2 0.2-0.5 0.3-0.1 0-0.2 0.1 0.1-0.2 0.2-0.3 0.1-0.2 0.1-0.4zm-4 2.3q0.1 0 0.1 0.1 0 0 0 0 0 0 0 0.1-0.1-0.1-0.1-0.1 0 0-0.1-0.1 0.1 0 0.1 0zm0.4 0.7q0 0 0 0 0.1-0.1 0.2-0.3 0 0 0 0 0 0.1 0 0.1 0 0 0 0-0.1 0.1-0.3 0.3-0.1 0.1-0.3 0.2 0 0 0-0.1 0.1 0 0.2 0 0.1-0.1 0.2-0.2zm-0.8 1.1q-0.1 0-0.2-0.1 0 0 0.1 0 0 0.1 0.1 0.1 0 0 0 0 0 0 0 0zm-1.6 6.8q0 0 0.1 0-0.1 0-0.1 0.1 0-0.1 0-0.1zm9.5-0.9q0 0 0-0.1 0.1-0.1 0.1-0.3 0.2 0 0.5-0.1 0.2 0 0.5-0.1-0.5 0.5-1.1 0.6 0 0 0 0zm13.2 10q0.1 0.3 0.1 0.7 0 0 0 0 0 0 0 0-0.1-0.4-0.1-0.7zm31.5-3.3q0 0 0 0-0.3-0.1-0.7-0.1-0.1 0-0.1-0.1 0.1 0 0.3-0.1 0.1 0.1 0.2 0.2 0.2 0 0.3 0.1zm5.3 1.9c0.5-0.8 0.8-1.4 0.8-2.3 0.1-0.9 0.2-1.6 0.5-2.3q0 0 0 0 0.1 0.1 0.3 0.1 0 0.1 0 0.1 0.2 0.1 0.5 0.2 0 0 0.1 0.1 0.1 0 0.2 0 0.1 0.1 0.2 0.1 0.1 0 0.2 0 0.1 0.1 0.3 0.1 0.1 0 0.2 0 0.1-0.1 0.2-0.1 0.1 0 0.1 0 0 0 0 0 0 0 0.1 0 0.1 0.1 0.3 0.1-0.2 0.1-0.4 0.2 0 0 0 0-0.4 0.1-0.8 0.1 0 0-0.1 0-0.2 0-0.4 0c-0.3-0.1 0.2 0.3 0.3 0.3 0.3 0.1 0.8 0.2 1.2 0.2q0 0 0 0c0.6 0.3 1.2 0.6 1.8 0.9q0 0 0 0-0.1 0.1 0 0.1 0 0 0 0 0 0.1 0.2 0.2 0 0 0 0.1 0 0 0.1 0.1-0.3 0.3-0.6 0.5 0 0 0 0-0.3 0.3-0.7 0.5-0.9 0.5-1.9 0.8-0.4 0.1-0.8 0.2c-0.7 0.1-1.3 0.4-2 0.6q-0.3 0.1-0.6 0.2 0.4-0.6 0.7-1.1zm21.1 0.7q-0.1 0-0.1 0 0-0.1-0.1-0.1-0.4 0.1-0.8 0.1 0.2-0.1 0.5-0.2 0.2-0.1 0.4-0.3 0.3 0 0.6 0 0.4 0 0.7 0-0.1 0-0.1 0.1-0.5 0.2-1 0.4-0.1 0-0.1 0zm-18.6-21.2q0 0 0 0 0 0-0.1 0 0.1 0 0.1 0zm-6.6-5.9q0.1 0 0.2-0.1 0 0 0 0 0.1 0.1 0.1 0.1-0.2 0-0.3 0 0 0 0 0zm-46.2 4.2q-0.1 0-0.2 0 0 0 0 0 0 0 0 0 0 0 0 0 0.3-0.1 0.5-0.2-0.1 0.1-0.3 0.2zm1.5 18.1q0 0 0 0 0.1 0 0.1 0 0 0-0.1 0zm-1.6-0.5q-0.1 0-0.1 0 0-0.1-0.1-0.1 0.4 0 0.8 0.1 0.1 0.1 0.1 0.1 0 0-0.1 0-0.3 0-0.5 0-0.1-0.1-0.1-0.1zm-1 0.7q0.1-0.1 0.1-0.2 0.1 0 0.3 0.1-0.2 0-0.4 0.1zm-3.3 2.5q0.1 0 0.1-0.1 0.1 0.1 0.2 0.1-0.1 0-0.3 0zm-0.8-3.4q0.1 0.1 0.2 0.1 0 0 0 0.1-0.1-0.1-0.1-0.1 0-0.1-0.1-0.1zm1 2.2q-0.1-0.1-0.2-0.1 0.2 0 0.4-0.1 0 0.1-0.1 0.1-0.1 0.1-0.1 0.1zm0.8-0.7q0 0 0 0 0 0 0 0 0 0 0 0 0 0 0 0zm-2-0.2q-0.1 0-0.1 0 0 0 0 0 0.1 0 0.2 0 0 0-0.1 0 0 0 0 0zm0.4 0.8q0.1 0.1 0.3 0.2-0.1 0.1-0.2 0.1-0.1-0.1-0.1-0.1-0.3 0-0.6 0 0.3-0.1 0.6-0.2zm0.5 1.9q0 0 0 0 0 0 0 0 0 0 0 0 0 0 0 0zm20.2 55.2q0 0 0 0 0 0.1-0.1 0.1 0 0.1 0 0.1 0-0.1 0.1-0.2zm37.8-53.1q0.2 0 0.3 0 0 0 0 0-0.1 0-0.3 0zm10.6-7.6q0-0.1 0-0.1 0.2 0 0.4 0.1-0.2 0-0.4 0zm2.2-3.1q0 0 0 0-0.2 0-0.3 0 0 0 0 0 0.1 0 0.3 0zm-2.2-1.8q0 0.1 0 0.1-0.2 0-0.3 0 0.1 0 0.3-0.1zm-23.4-16q0 0 0 0 0 0 0 0 0.1 0 0.2-0.1-0.1 0.1-0.2 0.1zm-0.4-2.7q0.1-0.1 0.1-0.1-0.1 0.2-0.4 0.4 0.2-0.2 0.3-0.3zm-0.5 1.2q0 0 0 0.1-0.2 0-0.4 0 0.2-0.1 0.4-0.1zm-1.1-0.7q0.3-0.1 0.7-0.2c-0.4 0.2-0.8 0.2-1.2 0.2q0.3 0 0.5 0zm-1.6 0.8q0 0 0 0 0 0.1 0 0.1-0.1 0-0.3-0.1 0.1 0 0.1 0 0.1 0 0.1-0.1 0.1 0.1 0.1 0.1zm-4.6-0.5q0 0 0.1 0 0 0 0 0-0.1 0.1-0.1 0.2-0.2 0-0.4 0.1 0.1-0.1 0.2-0.2 0.1 0 0.2-0.1zm-12.5 0.3q0 0 0.1 0-0.1 0.1-0.2 0.2 0 0-0.1 0-0.1 0-0.2 0-0.1 0-0.1 0 0 0-0.1 0 0 0 0 0 0.3-0.1 0.6-0.2zm-8.9 3.8c-0.3 0-0.5-0.2-0.6-0.3q0.3 0.2 0.6 0.3 0 0 0 0zm-16.9 4.2q0.1 0 0.1 0.1 0 0 0.1 0.1 0.1 0.1 0.3 0.2 0 0.1 0.1 0.1 0.1 0.1 0.2 0.1 0.1 0.1 0.2 0.1 0.1 0.1 0.2 0.1 0.1 0 0.1 0 0 0 0 0-0.2 0-0.3 0 0 0-0.1 0-0.1 0-0.3 0 0 0 0 0-0.2-0.1-0.3-0.1 0 0 0 0-0.2-0.1-0.4-0.2 0.1 0 0.2-0.1c0.1 0-0.3-0.3-0.4-0.3q-0.1 0-0.3 0 0 0-0.1 0 0.2 0 0.5 0 0.1-0.1 0.2-0.1zm-7.5 12.1q0 0 0 0 0.2 0 0.4 0-0.2 0-0.4 0zm11.1 4.4q-0.1 0-0.2 0.1 0 0 0 0 0-0.1-0.1-0.1 0 0 0 0 0-0.1 0-0.1-0.1 0-0.1 0 0-0.1-0.1-0.1 0 0 0 0 0 0 0 0 0.2 0.1 0.4 0.2 0 0 0.1 0zm-3-0.6q0 0 0 0 0 0-0.1 0 0 0 0.1 0 0 0 0 0zm-4.6 4.4q0.2-0.1 0.4-0.2 0 0 0.1 0 0.2 0.2 0.4 0.3c-0.3 0.1-0.6 0.1-0.9-0.1zm1.1-0.2q0 0 0 0 0.2 0.1 0.5 0.1-0.1 0.1-0.2 0.1-0.1-0.1-0.3-0.2zm12.8-2.1q0 0 0 0 0 0 0 0 0.1 0.1 0.3 0.3 0.1 0.1 0.2 0.2 0.3 0.3 0.5 0.5 0 0-0.1-0.1-0.5-0.5-0.9-0.9z"/>
		<path id="&lt;Path&gt;" class="s4" d="m-9.8 127c0 0 60.2 14.9 121.3 20.7 62 5.7 136.6 11 162.1 13 25.5 1.9 86.6 2.8 139.1-1.5 56.3-2.9 136.7-7.7 184.8-16.4 50-7.7 121.7-14.9 162.6-32.7 0 14 0 204.7 0 204.7h-769.9z"/>
	</g>
</svg>