<svg version="1.2" xmlns="http://www.w3.org/2000/svg" viewBox="0 0 751 286" fill="#0C6CB2">
	<g >
		<path d="m424.2 204.9c0 0 0.3-1.1 0.1-2.3q-0.1-0.6-0.5-1.3c0 0 1.2 2.3-0.9 5 0 0 0.2-0.7 0.2-1.5q0-0.2 0-0.3-0.1-0.1-0.1-0.1 0-0.5-0.4-1.1 0-0.1-0.1-0.1-0.2-0.3-0.4-0.5c-0.7-0.6-1-1.4-1.2-2.2-0.4-1-0.5-2-0.3-2.9 0 0-0.5 2-0.1 3.4 0 0-1.9-3.1-0.7-5.5 0.9-2 2.2-2.8 2.8-3.6 0.1-0.8 0.2-1.9 0.1-3.4-0.2-1.5-0.6-3.3-1.5-5.5-1.9-4.2-2.9-5.9-3.3-7.7-2 4.2-3.7 8.5-3.7 12.5 0 4.6 0.4 5.8 1.8 7.8 1.4 2-0.3 4.9-0.8 8.5-0.5 3.6-1 16-0.9 17.6 0.1 1.5-0.4 2.2-1.3 2.2-0.9 0-1 0.7-0.2 1.7 0.4 0.6 0.5 1.3 0.5 2q0 0 0 0v0.3c0 0.3-0.1 0.6-0.1 0.8 0 0.6-0.7 1-2.3 1.3q-0.9 0.2-1.6 0 0 0.1 0 0.1c0 0-1.2-0.2-1.9-0.7q0 0-0.1 0 0-0.1-0.1-0.1 0 0 0-0.1 0 0-0.1 0 0 0 0 0c-0.5-0.6 0-1.4 0.3-2q0-0.1 0.1-0.1 0-0.2 0.1-0.3c0.2-0.5 0.4-0.9 0.4-0.9q0 0.1 0 0.2 0 0 0-0.1 0 0 0-0.1c0.8-1.2 1.8-2.4 2.8-3.8 1.6-2.1 0.9-20.6 1-22.4 0-1.9-0.4-2.6-1.5-3.7-1.1-1-1.5-6.8-1.9-10.5-0.4-3.5-1.3-6.4-1.5-6.9q0 0 0 0-0.1 0-0.1-0.1 0 0 0 0-0.3 0-0.6 0c0 1 0 1.9 0 2.8-0.1 3.8-0.8 9.7 0.2 12.1 1 2.4 1.6 4.3 0.7 6.1-0.8 1.7-1.5 1.6-1.8 7.1-0.3 5.5-2.3 11.6-1.6 12.9 0.6 1.3 0.8 2.6-0.2 3-0.4 0.2-0.4 1.1-0.3 2q0 0 0 0 0 0.2 0 0.3 0 0 0 0 0 0 0 0.1c0.1 0.6 0.2 1.3 0.2 1.7q0 0.1 0 0.2c0 0-0.1 0.2-0.7 0.5q0 0 0 0c-0.5 0.3-1.4 0.7-2.6 0.6q-0.5 0-0.8-0.1 0 0 0 0c0 0-0.6 0-1-0.4q-0.1-0.1-0.1-0.2-0.1-0.1-0.1-0.1 0 0 0 0-0.1-0.2-0.1-0.4 0 0 0-0.1 0-0.1 0-0.3 0-0.3 0.1-0.6 0 0 0-0.1 0.1-0.2 0.2-0.6 0.2-0.4 0.4-0.6 0.1-0.1 0.1-0.1 0 0-0.1 0 0.3-0.3 0.6-0.7c1.2-1.4 2.2-2.9 2.2-4.6 0.1-1.7 1.2-13.8 1.3-17.2 0-3.4 0.5-3.4 0.8-4.3q0-0.1 0-0.3c0.1-1-0.4-2.6-1.8-5.2-1.3-2-4-7.8-5.4-12q-0.1 0.1-0.1 0.1c0 0-0.6-1.6-0.7-2.6q0-0.1-0.1-0.3c-1.1 3.2-0.9 12-0.7 13.6 0.2 1.6 0.9 3 0.2 5.9-0.8 2.9-0.1 7.3 0.1 11.1 0.2 3.8 0.6 13.4 1.1 14.5 0.6 1 0.4 1.6 0 1.9-0.4 0.4-0.5 0.6-0.3 1.7 0.1 0.8-0.1 2.2-0.2 3.2q-0.1 0.1-0.1 0.1 0 0 0 0 0 0 0.1-0.1 0 0.1 0 0.1 0 0 0 0 0 0 0 0c-0.1 0.4-0.2 0.8-0.2 1-0.2 1-1.6 1.7-3.1 1.8-0.4 0-0.8 0-1.3-0.1q0 0 0 0c0 0-1.3-0.2-1.9-0.8q-0.1 0-0.1-0.1 0 0-0.1 0 0-0.1 0-0.1 0 0 0 0 0-0.1 0-0.1c-0.3-0.7 0.8-2.4 0.8-2.4q0 0 0.1 0c0.7-1.2 2.5-4.2 2.5-4.3q0 0-0.1 0c-0.3-0.2 0.1-0.9 0.1-2.3 0.1-1.6-1-20.5-1.4-22.5-0.4-2-1.7-2.2-1.5-4.7 0.1-2.4 0-3.3-0.7-9.8-0.7-5.9-2.9-9.7-3.2-10.3q0 0 0 0 0 0-0.1 0 0 0-0.1 0 0 0 0-0.1c-0.6 0-1.6-0.3-2.2-0.5q-0.4-0.1-0.6-0.2-0.1-0.1-0.1-0.1c-0.6 0-0.9 0.1-1.1 0.4q0 0 0 0-0.2 0.2-0.2 0.5-0.1 0.2-0.2 0.7 0 0.3-0.1 0.6c-0.2 1.3-1.4 7-1.7 9-0.3 2.1-0.9 4-0.6 6.3 0.3 2.3-0.3 3.5-1.3 5.6-1 2.1-2.8 20.3-2.2 21 0.5 0.7 0.4 1.4 0 2.1-0.4 0.5-0.1 2.2-0.2 3.3q0 0 0 0 0 0 0 0 0 0 0 0c0 0 0.4 1.1-1.3 1.3-1.3 0.3-3.4 0.4-4.6 0 0 0-0.1-0.1-0.4-0.2q0 0-0.1 0-0.4-0.2-0.6-0.4 0-0.1-0.1-0.2c-0.2-0.6 0.7-2.7 1.4-3.5q0 0 0 0 0.1-0.1 0.2-0.2c0.7-0.9 1.5-1.7 2.2-2.3 1.3-1 1.7-16.3 1.9-19.3 0.3-2.9-0.3-3.4-0.2-5.1 0-1.8 1.8-4.2 1.3-7-0.5-2.8-0.1-10.7 0.2-14.8 0.2-4.1-1.2-4.3-2.6-8.2q-0.9-2.7-0.7-5.8c-0.3-0.3 0.1-1.3 0.2-1.7q0.5-2.9 2-6.3c1.6-3.6 1.1-7.2 0.3-11-0.2-0.8-0.3-1.3-0.3-1.3q-0.1-0.1 0-0.1 0 0 0 0c-0.2-1.4-0.5-2.7-0.7-4.2-0.6-5.1-2.7-12.1-4.8-17-0.2-0.5-2.2-4.6-3-6.7-0.9-2.2-1.9-4.6-2.7-6.7-0.8-1.8-1.6-3.5-2-4.3q-0.1-0.3-0.2-0.4-0.1 0-0.2 0-0.1 0-0.1-0.1 0 0 0.1 0-0.1-0.1-0.2-0.1 0 0 0 0c-0.4-0.2-0.3-0.5-0.2-0.6q-0.1-0.1-0.1-0.1 0 0 0 0 0-0.1-0.1-0.1c-0.3-0.1-0.2-0.4-0.2-0.5q0 0 0 0 0-0.1 0-0.1c-0.6 0-1.1 0.1-1.7 0.3q-0.3 0.1-0.7 0.2-0.2 0-0.4 0.1-0.1 0-0.2 0.1 0 0 0 0-0.2 0.1-0.4 0.2c-0.9 0.6-1.7 1.2-2.4 1.9q-0.1 0-0.1 0 0 0 0 0-0.7 0.7-1.6 1.3c-1.3 0.9-2.1 0.7-2.4 0.5q-0.2-0.1-0.2-0.1c-1 0.6-3.2 0.7-3.9 0.1-0.6-0.5-0.2-1.4 0-1.8q0 0 0 0c0.3-0.3-0.2-0.6 0.2-0.7q0.1 0 0.2-0.1c0.1-0.1 0.1-0.6 0.1-1q0-0.1 0-0.1c-0.3-0.4-0.2-0.9-0.2-0.9q0 0 0-0.1c0-0.4 0.2-0.7 0.4-0.9q0 0 0.1 0 0-0.1 0-0.1 0.2-0.1 0.3-0.1 0 0 0 0 0-0.1 0-0.1 0 0 0.1-0.1 0 0 0-0.1 0 0.1 0 0.1c0.1-1.6 1.9-4.6 3.4-6.1 1.5-1.6 1.3-1.9 1.7-3.4 0.2-0.5 0.5-1 0.9-1.5q-0.1 0-0.2-0.1c-0.4-0.2-1.4-0.7-1.4-1.7 0-1.4-0.5-3.5-0.5-3.5 0 0 2.6-0.3 4.8 3.2q0.1 0 0.2-0.1c1.1-0.4 1.5-2.4 1.3-3.7-0.1-1.3 0-2.8 1.8-2.8 0.5 0 0.9 0.2 1.1 0.6 0.2 0.4 0.1 1-0.2 1.3-0.2 0.1-0.3 0.2-0.4 0.4q-0.1 0.2-0.2 0.5 0 0.2 0.1 0.7 0 0.1 0 0.2c0 0.2 0.3 1.3 0.2 1.3 0 0 0.6 0 1.1-0.5 0.1-0.1 0.1-0.1 0.2-0.2 0.2-0.3 0.3-0.7 0.3-0.7q0-0.1 0.1-0.1 0 0.1 0 0.1 0.1-0.1 0.1-0.2c0.1-0.4 0.2-0.9 0.4-1.3 0.3-1 1.4-2.6 2.6-1.7 0.4 0.2 0.5 0.5 0.6 0.9q0-0.1 0 0 0 0.1 0 0.1 0 0.2 0 0.4-0.1 0.1-0.1 0.3 0 0 0 0c-0.3 0.8-0.9 0.8-1.3 0.9q-0.1 0-0.1 0.1c-0.3 0.2-0.5 0.5-0.7 0.8-0.1 0.4-0.2 0.7-0.1 0.9q0 0.1 0 0.1c0.1 0.5 0.5 0.3 1 1.2q0.1 0 0.1 0 0 0.1 0.1 0.1c0.6 1.1 0.7 2.2 0.7 2.2 0 0 1.3-2 3-3.5q0 0 0.1 0 0.2-0.2 0.4-0.4 0.1 0 0.1 0 0-0.1 0.1-0.1 0.1-0.1 0.3-0.2 0.1-0.1 0.3-0.1 0.1-0.1 0.1-0.1c0.6-0.3 1.1-0.4 1.5-0.4 0.7 0 1.2 0.1 1.2 0.1-0.7 0.8-1.1 3.5-1.8 5.3q0.1-0.1 0.1-0.2-0.2 0.5-0.4 0.9c-0.6 1.1-2.1 1.6-2.9 1.7q0 0.1 0 0.1 0.2 0.1 0.3 0.3 0.1 0.1 0.2 0.2 0.2 0.3 0.4 0.6 0.3 0.4 0.5 0.8l-0.9-0.8c0 0 1.1 1.3 1.1 1.5q0 0.1-0.1 0.1c-0.1 0-0.3-0.1-0.3-0.1 0 0 1 0.8 1.1 1q0 0.1 0 0.1c-0.1 0-0.7-0.4-0.7-0.4 0 0 1.5 1.2 1.5 1.5q0 0 0 0c-0.3 0-1.1-0.5-1.1-0.5 0 0 1.4 1.2 1.4 1.3q0 0 0 0c-0.2 0-0.7-0.2-0.7-0.2 0 0 1.8 0.8 1.8 1.1 0 0.1-0.1 0.2-0.3 0.2-0.2 0-0.6-0.2-0.6-0.2 0 0 1 0.8 1 1q0 0 0 0c-0.2 0-0.8-0.3-0.8-0.3 0 0 1.4 1.1 1.4 1.3q0 0.1-0.1 0.1c-0.2 0-0.9-0.5-0.9-0.5 0 0 1.7 1.6 1.8 1.8q0 0.1-0.1 0.1c-0.2 0-0.9-0.6-0.9-0.6 0 0 1.2 1.5 1.3 1.7q0 0.1 0 0.1c-0.2 0-0.8-0.6-0.8-0.6 0 0 1.3 1.4 1.4 1.7q0 0 0 0c-0.2 0-0.8-0.3-0.8-0.3 0 0 1.6 1.5 1.6 1.8q0 0 0 0c-0.3 0-1.1-0.7-1.1-0.7 0 0 1.5 1.5 1.5 1.7q0 0.1 0 0.1c-0.2 0-0.8-0.4-0.8-0.4 0 0 1.2 1.2 1.3 1.4q0 0.1-0.1 0.1c-0.1 0-0.4-0.1-0.4-0.1 0 0 0.8 0.8 0.9 1q0 0.1 0 0.1c-0.1 0-0.5-0.3-0.5-0.3 0 0 1.6 1.9 1.6 2.1q0 0-0.1 0c-0.2 0-0.8-0.2-0.8-0.2 0 0 1.5 1.6 1.5 1.8q0 0-0.1 0c-0.2 0-0.9-0.5-0.9-0.5 0 0 2 2.1 2 2.4q0 0.1-0.1 0.1c-0.3 0-0.8-0.3-0.8-0.3 0 0 1.6 1.6 1.6 1.9q0 0.1-0.1 0.1c-0.2 0-0.9-0.5-0.9-0.5 0 0 1.2 1.2 1.2 1.5q0 0 0 0c-0.2 0-1.2-0.9-1.2-0.9 0 0 1.6 1.7 1.6 2q0 0-0.1 0c-0.2 0-0.8-0.4-0.8-0.4 0 0 1.5 1.5 1.5 1.7q0 0.1 0 0.1c-0.2 0-0.6-0.3-0.6-0.3 0 0 1.5 1.8 1.5 2.1q0 0-0.1 0c-0.2 0-0.6-0.4-0.6-0.4 0 0 1 1.3 1.1 1.5q0 0.1-0.2 0.1c-0.1 0-0.4-0.1-0.4-0.1 0 0 1.2 1.1 1.3 1.3q0 0.1 0 0.1c-0.2 0-0.8-0.4-0.8-0.4 0 0 1.2 0.9 1.2 1.1 0 0.1-0.1 0.1-0.2 0.1-0.2 0-0.6-0.1-0.6-0.1 0 0 1.3 0.5 1.3 0.6q0 0.1-0.1 0.1c-0.1 0-0.4-0.1-0.4-0.1 0 0 0.8 0.5 0.8 0.6 0 0.2-0.5 0.3-0.5 0.3 0 0 0.9 0.4 1 0.6 0.1 0.1-0.2 0.4-0.2 0.4 0 0 1.2 0.3 1.1 0.5q0 0-0.1 0c-0.2 0-0.4 0-0.4 0 0 0 1.3 0.6 1.3 0.8 0 0.1-0.1 0.1-0.2 0.1-0.4 0-0.8-0.1-0.8-0.1 0 0 1.2 0.5 1.2 0.7 0 0.2-0.3 0.2-0.5 0.2-0.2 0-0.3 0-0.3 0 0 0 1.1 0.9 1.2 1.1q-0.1 0.1-0.2 0.1c-0.2 0-0.4-0.1-0.4-0.1 0 0 1 0.5 1 0.7 0 0.2-0.3 0.2-0.4 0.2q0 0 0 0c0 0 0.8 0.4 0.7 0.6 0 0.1-0.3 0.2-0.3 0.2 0 0 1 0.3 1 0.6 0 0.2-0.3 0.2-0.3 0.2 0 0 1.6 0.4 1.6 0.6-0.1 0.2-0.4 0.2-0.4 0.2 0 0 1.6 1 1.6 1.2q0 0.1-0.2 0.1c-0.2 0-0.5-0.1-0.5-0.1 1.7 1.3 3.7 3.3 4.8 6.9 2 5.8 7.5 7.4 12 9.1 4.5 1.6 10.1 4.2 12.1 9.7 1.1 2.9 1.8 6.6 2 10.2q0.1 0.2 0.1 0.4 0.1 0.9 0 2.1 0 0.2 0 0.3-0.1 0.8-0.2 1.6 0 0.4 0 0.8 0 0.2 0 0.3 0 0.5 0 1.1 0 0.4 0.1 0.8 0 0.3 0 0.7c0.3 3 1 6 2 7.9 1.2 2.4 1.8 6.1 1.5 9.2q0 0 0-0.2-0.1 0.8-0.2 1.5c1.5 2.5-0.3 3.6-0.4 5.3q0 0 0 0 0 0.3 0.1 0.5 0 0.1 0.1 0.2c0.4 1.2 2.3 1.4 2.3 1.4 0 0-0.9 0.7-1.7 0.2 0.8 0.6 3 2.6 0.6 5.5zm-33.1 24.5q0.1 0 0.1 0.1 0.1 0 0.2 0-0.1 0-0.3-0.1zm0 0q0 0 0 0 0 0 0 0zm-0.3-0.2q-0.2 0-0.3-0.1 0.1 0.1 0.3 0.1zm-17.6-6.2q0 0.1 0 0.1-0.2-0.1-0.4-0.1 0.1 0 0.3 0 0 0 0.1 0zm-0.7-0.1q0 0-0.1 0 0.2 0 0.4 0.1-0.1-0.1-0.3-0.1zm-0.5-0.2q0 0.1 0.1 0.1-0.4-0.2-0.7-0.3 0 0 0 0 0.1 0.1 0.2 0.1 0.2 0.1 0.4 0.1zm-1.1-0.4q0.1 0 0.1 0-0.2-0.1-0.4-0.3 0.1 0.1 0.3 0.2 0 0 0 0.1zm0.2 0q-0.1 0-0.1 0 0 0 0.1 0zm-1.1-0.7q-0.1-0.1-0.2-0.2 0.2 0.1 0.4 0.3-0.1-0.1-0.2-0.1zm-0.2-0.2q0-0.1 0-0.1 0 0 0 0 0 0 0 0.1zm0.4 0.3q0 0.1 0.1 0.1 0 0 0 0 0 0-0.1-0.1zm-0.7-0.9q0.1 0.2 0.3 0.4-0.2-0.2-0.3-0.4zm4.3 2.3q0.1 0 0.2 0-0.1 0-0.2 0zm0.2 0q0.2 0 0.4 0-0.2 0-0.4 0zm16.1 5.7q0.1 0.1 0.2 0.2-0.1-0.1-0.2-0.2zm10.1-3.4q-0.3-0.1-0.5-0.2 0 0 0 0 0.2 0.1 0.5 0.2zm-0.5-0.2q0 0 0 0 0 0 0 0zm-0.5-0.3q-0.1-0.1-0.1-0.1 0 0 0.1 0.1zm-29.8-4.3q-0.1-0.1-0.1-0.3 0 0.2 0.1 0.3z"/>
		<path id="&lt;Path&gt;" class="s6" d="m397.7 219.9c-64.8-1.2-71.9-5.7-120-3.2-48.1 2.6-122.5 13.5-181.6-3.8-43.4-12.8-82.4-19.3-99.9-21.8v133.7h769.9c0 0 0-83.9 0-144.5-54.9 10.4-135.4 31.7-174.7 39.6-53.9 11-128.9 1.3-193.7 0z"/>
	</g>
</svg>