<svg version="1.2" xmlns="http://www.w3.org/2000/svg" viewBox="0 0 2122 2122" width="100">
	<style>
		.s0 { fill: #fefefe } 
		.s1 { fill: #fec957 } 
		.s2 { fill: #ffdeaa } 
		.s3 { fill: #171716 } 
		.s4 { fill: #e6ab59 } 
		.s5 { fill: #fedc98 } 
		.s6 { fill: #53300e } 
		.s7 { fill: #f58d24 } 
		.s8 { fill: #faac3a } 
		.s9 { fill: #000000 } 
		.s10 { fill: #020201 } 
		.s11 { fill: #e39144 } 
	</style>
	<g id="lion">
		<g id="face_back">
			<path id="&lt;Path&gt;" class="s4" d="m2122 1514.4c-1.2-63.4-23.1-86.7-60.4-138.3 34.6 13 32.3 7.8 54.3 35.5-28.7-67.2-67.2-131.6-130.3-175.4 0 0 82 7.9 112 49.2-15.6-123.5-111-182.2-186.5-279.7 37.6 10.8 78.9 21.2 118.8 21.7-65-54.8-145-123.9-179.4-195.4 24.8 7.2 53.2 9.9 79.8 5.5-75.9-76.3-87.3-180-151.3-260.5 34.5 14.4 71.9 23 99.5 47.6-31.3-98.8-74.7-198.7-158.7-274 30.1 2 60.2 11.2 82.2 29.5-52.3-68.4-100-151.3-192-188.1 11.4-10.1 17.4-26.6 28.2-35.6-49.1 19.6-99.7 4.3-149.7 7.6 17.7-11.9 29.2-29 39.5-45.5-45.2 10.2-134.6-28.7-184-7.4 10.8-14.3 21-27.2 39.4-38.8-75 5.2-162.9 5.8-233 31.7 13.1-15.4 16.7-32.4 41.7-45-45.9 7.1-97.8 23.8-131.1 51.4-33.2-27.6-85.2-44.3-131.1-51.4 23.9 10.1 32.6 26.7 41.7 45-70.1-25.9-158-26.5-233-31.7 18.4 11.6 28.6 24.5 39.4 38.8-49.3-21.3-138.8 17.6-183.9 7.4 10.2 16.5 21.7 33.6 39.4 45.5-50-3.3-100.6 12-149.7-7.6 10.8 9 16.8 25.5 28.2 35.6-92 36.8-139.7 119.7-192 188.1 22-18.3 52.1-27.5 82.2-29.5-84 75.3-127.4 175.2-158.7 274 27.6-24.6 65-33.2 99.5-47.6-64 80.5-75.4 184.2-151.3 260.5 26.6 4.4 55 1.7 79.8-5.5-34.4 71.5-114.4 140.6-179.4 195.4 39.9-0.5 81.2-10.9 118.8-21.7-75.5 97.5-170.9 156.2-186.5 279.7 30-41.3 112-49.2 112-49.2-63.1 43.8-101.5 108.2-130.3 175.4 22-27.7 19.7-22.5 54.3-35.5-37.3 51.6-59.1 74.9-60.4 138.3 28.6-40.8 51.4-58.4 88.1-74.2-64.9 82-78.6 142.2-72.3 244 27.6-20.3 81.2-65 82.1-65.1-17.4 39.6-0.4 84.7 2.5 124.1 8-67.9 83.6-144.6 157.2-171.3-21.9 48.8-38.1 102.9-37.5 155.6 18.6-24.3 40.7-48.6 71.9-58-28.6 50.5-33.4 128-15.5 182.4 9-54.7 33.6-101.1 92.2-118-4.3 68.1 3.8 97.7 32.1 136.8 11-25.5 25.7-56.4 57.6-68.1-2.4 85.1-42.1 175-15.3 260 8.3-83.2 54.8-145.5 109.8-212.1-6.2 12.3-10.7 25.6-17.3 37.3 46.3-42.2 102.9-89.2 116.7-147.6 14.3 69.7 11.3 150.1-14.8 218.1 28.7-17 57.7-38 75.4-62.8 18.9 24.4 15.6 68 9.4 98.8 21.1-6.6 40.7-11.6 58.4-25.7-4.9 24.2-11.6 50.5-20.1 73.3 59.2-11.9 116.5-33.8 165.8-64.2-1.8 12 5.2 25.1 3.2 37.7 37.1-18.8 116.5-45.2 131.4-79.7 14.9 34.5 94.3 60.9 131.5 79.7-2.1-12.6 4.9-25.7 3.1-37.7 49.3 30.4 106.6 52.3 165.8 64.2-8.5-22.8-15.2-49.1-20.1-73.3 17.7 14.1 37.4 19.1 58.4 25.7-6.2-30.8-9.5-74.4 9.4-98.8 17.7 24.8 46.7 45.8 75.4 62.8-26.1-68-29.1-148.4-14.8-218.1 13.8 58.4 70.4 105.4 116.7 147.6-6.6-11.7-11.1-25-17.3-37.3 55.1 66.6 101.5 128.9 109.8 212.1 26.8-85-12.9-174.9-15.3-260 31.9 11.7 46.6 42.6 57.6 68.1 28.3-39.1 36.4-68.7 32.1-136.8 58.6 16.9 83.2 63.3 92.2 118 17.9-54.4 13.1-131.9-15.5-182.4 31.3 9.4 53.3 33.7 72 58 0.6-52.7-15.7-106.8-37.6-155.6 73.6 26.7 149.2 103.4 157.2 171.3 2.9-39.4 19.9-84.5 2.5-124.1 0.9 0.1 54.5 44.8 82.1 65.1 6.3-101.8-7.4-162-72.3-244 36.7 15.8 59.5 33.4 88.1 74.2z"/>
			<path id="&lt;Path&gt;" class="s4" d="m276.5 1852.1v-0.2l-0.1 0.2c-0.2 1.4 0.1 1.4 0.1 0z"/>
			<path id="&lt;Path&gt;" class="s4" d="m1845.6 1852.1l-0.1-0.2v0.2c0 1.4 0.3 1.4 0.1 0z"/>
			<path id="&lt;Path&gt;" class="s11" d="m512.6 367.4c9.7-4.9 19.5-10.5 29.6-16.6 5.4-4.1 10.9-8.1 16.6-11.8-14.9 8.9-31.1 18.9-46.2 28.4z"/>
			<path id="&lt;Path&gt;" class="s11" d="m400.9 527.8v-0.1z"/>
			<path id="&lt;Path&gt;" class="s11" d="m1897.5 1401.7c8.4 9.8 23.6 18.4 32.6 29.7 3.2-64.6-10.3-135-16.6-200.3 8.9 4.8 19.8 7.3 28.5 12.5-25.4-50.1-50.5-103.6-69.6-156.1 4.9 2.3 9.8 6.4 15.2 8-29.8-38.1-54-80.5-72.1-128.7 5 2.2 13.2 6.3 18.7 8.3-19.3-47.3-33.9-101.9-46.2-151.4 10 9 23.6 14.2 33.3 23.8-23.1-90.2-76.6-169.1-101.7-258 6.9 7.5 15 14.2 22.2 22.3-13.5-37.7-29.5-74.6-52.2-107.7 10.3 8.4 21.4 14.3 31.5 23.6-42.6-57.4-83.6-132.3-141.3-176.9-20.8-12.5-42.3-26.8-64.4-40.9l62.8 11.9c-34.5-38.8-99.9-85.3-155-82.9 7.7-16.5 9.1-16.5 19.6-31.3-38.5 2.1-63.7-18.2-96.9 1.8 10.8-21 11.3-15.7 29.2-32.8-62.8-14.8-116.2-15.9-175.3 1.6 2.5-16.6 2.4-9.1 13.4-21.9-31.7-4.7-70-16-93.6 6.4 5.7-13.2 11-31 21.7-41.4-26.5 3.1-55.8 20.5-80.3 42.1-24.5-21.6-53.8-39-80.3-42.1 10.7 10.4 16 28.2 21.7 41.4-23.6-22.4-61.9-11.1-93.6-6.4 11 12.8 10.9 5.3 13.4 21.9-59.1-17.5-112.5-16.4-175.2-1.6 17.8 17.1 18.3 11.8 29.1 32.8-33.2-20-58.4 0.3-96.9-1.8 10.5 14.8 11.9 14.8 19.6 31.3-55.1-2.4-120.5 44.1-155 82.9l62.8-11.9c-22.1 14.1-43.6 28.4-64.4 40.9-57.7 44.6-98.7 119.5-141.3 176.9 10.1-9.3 21.2-15.2 31.5-23.6-22.6 33.1-38.7 70-52.2 107.7 7.3-8.1 15.3-14.8 22.2-22.3-25.1 88.9-78.6 167.8-101.7 258 9.7-9.6 23.3-14.8 33.3-23.8-12.3 49.5-26.9 104.1-46.2 151.4 5.6-2 13.7-6.1 18.7-8.3-18.1 48.2-42.2 90.6-72 128.7 5.3-1.6 10.2-5.7 15.1-8-19.1 52.5-44.2 106-69.6 156.1 8.7-5.2 19.6-7.7 28.5-12.5-6.3 65.3-19.8 135.7-16.6 200.3 9-11.3 24.2-19.9 32.6-29.7-17.7 68.8-45.7 137.1-58.5 208 22.6-36.5 58.7-57.7 84.6-91.1 0.8 6.4 0.2 13.9 0.4 20.3 12.6-13.3 35.9-21.1 48.4-32.7-1.8 12.6 2.5 27.1 0.7 39.8 6.9-7.3 20.4-13.5 27.3-20.9 6.7 62.2 9.5 123.9 29.1 184.3 7.4-33.6 22.6-65.8 46.4-91 3.6 30.5 10.7 62.3 26.2 89 2.9-12.1 17.6-31.7 20.5-42.1 4.4 20.4 21.2 40.2 27.7 56.4 2.6-11.2 12.1-28.3 14-37.5 13.4 38.1 17.8 80.6 22 120.8 21.8-48.7 67.9-124 116.4-146.8 0.8 13.4 7.3 26.7 7.8 39.9 4.2-12.6 20.1-28.7 25.4-40 3.6 12.5 13.1 24.6 16.8 37.4 4.2-4.1 12.6-10.7 18.2-16.5 32.3 58.4 45.8 127.4 60.3 192 14.8-33.9 40.8-76.7 78.1-84.4 9.3 24.2 13.4 51.4 14.3 77.7 46.2-70.2 55.4-1.2 79.3 38.5 7.6-26.5 26.1-52.4 46.4-68.7 5.3 11.4 17.2 20.5 21.6 28.3 3.8-8.5 12.6-20 15.7-28.3 4.5 22 10.9 43.5 9.8 67.8 9.9-27.4 17-50.8 37.6-70.6 20.6 19.8 27.7 43.2 37.6 70.6-1.1-24.3 5.3-45.8 9.8-67.8 3.2 8.3 11.9 19.8 15.7 28.3 4.4-7.8 16.3-16.9 21.7-28.3 20.2 16.3 38.8 42.2 46.3 68.7 23.9-39.7 33.1-108.7 79.3-38.5 0.9-26.3 5-53.5 14.3-77.7 37.3 7.7 63.4 50.5 78.1 84.4 14.5-64.6 28-133.6 60.3-192 5.6 5.8 14 12.4 18.2 16.5 3.7-12.8 13.3-24.9 16.8-37.4 5.3 11.3 21.2 27.4 25.4 40 0.5-13.2 7-26.5 7.9-39.9 48.4 22.8 94.5 98.1 116.3 146.8 4.2-40.2 8.6-82.7 22-120.8 1.9 9.2 11.4 26.3 14 37.5 6.5-16.2 23.3-36 27.7-56.4 3 10.4 17.6 30 20.5 42.1 15.5-26.7 22.7-58.5 26.2-89 23.8 25.2 39 57.4 46.4 91 19.7-60.4 22.4-122.1 29.1-184.3 7 7.4 20.4 13.6 27.4 20.9-1.9-12.7 2.4-27.2 0.7-39.8 12.5 11.6 35.7 19.4 48.3 32.7 0.2-6.4-0.4-13.9 0.4-20.3 25.9 33.4 62 54.6 84.6 91.1-12.8-70.9-40.8-139.2-58.5-208z"/>
			<path id="&lt;Path&gt;" class="s4" d="m566.9 433.7c8.7-4.4 17.6-9.4 26.6-14.7 4.9-3.8 9.9-7.3 15-10.5-13.4 7.9-28 16.8-41.6 25.2z"/>
			<path id="&lt;Path&gt;" class="s4" d="m466.2 576.5l0.1-0.1h-0.1z"/>
			<path id="&lt;Path&gt;" class="s4" d="m1814.7 1354.4c7.5 8.8 21.3 16.4 29.4 26.4 2.8-57.5-9.3-120.1-15-178.2 8 4.3 17.8 6.5 25.7 11.1-22.9-44.6-45.5-92.3-62.7-139 4.4 2 8.8 5.8 13.6 7.2-26.8-34-48.6-71.7-64.9-114.6 4.5 1.9 11.9 5.6 16.9 7.4-17.5-42.1-30.6-90.7-41.6-134.8 8.9 8 21.2 12.6 29.9 21.2-20.8-80.3-69-150.5-91.6-229.7 6.2 6.7 13.5 12.7 20 19.8-12.1-33.5-26.6-66.4-47-95.8 9.3 7.5 19.2 12.8 28.3 21-38.3-51.1-75.3-117.8-127.2-157.4-10.5-6.3-21.2-13-32-19.9l46.3 9.4c-32.2-38.8-93.1-85.3-144.4-82.9 7.1-16.4 8.5-16.5 18.3-31.3-35.9 2.1-59.4-18.2-90.3 1.8 10-21 10.5-15.7 27.1-32.8-58.4-14.8-108.1-15.9-163.2 1.5 2.3-16.5 2.2-9 12.4-21.8-29.4-4.7-65.1-16-87.1 6.4 5.3-13.3 10.2-31 20.2-41.4-24.7 3.2-52 20.5-74.8 42.1-22.8-21.6-50.1-38.9-74.8-42.1 10 10.4 15 28.1 20.2 41.4-22-22.4-57.7-11.1-87.1-6.4 10.2 12.8 10.1 5.3 12.4 21.8-55.1-17.4-104.7-16.3-163.2-1.5 16.6 17.1 17.1 11.8 27.1 32.8-30.9-20-54.4 0.3-90.3-1.8 9.8 14.8 11.2 14.9 18.3 31.3-51.3-2.4-112.2 44.1-144.4 82.9l46.3-9.4c-10.8 6.9-21.5 13.6-32 19.9-51.9 39.6-88.8 106.3-127.2 157.4 9.1-8.2 19-13.5 28.3-21-20.4 29.4-34.9 62.3-47 95.8 6.5-7.1 13.8-13.1 20-19.8-22.6 79.2-70.8 149.4-91.6 229.7 8.7-8.6 21-13.2 30-21.2-11.1 44.1-24.2 92.7-41.7 134.8 5.1-1.8 12.4-5.5 16.9-7.4-16.3 42.9-38.1 80.6-64.9 114.6 4.8-1.4 9.2-5.2 13.6-7.2-17.1 46.7-39.8 94.4-62.7 139 7.9-4.6 17.7-6.8 25.7-11.1-5.7 58.1-17.8 120.7-15 178.2 8.1-10 21.9-17.6 29.4-26.4-16 61.3-41.1 72.8-52.7 135.9 20.4-32.4 52.9-2 76.3-31.8 0.7 5.7 0.2 12.4 0.3 18 11.4-11.7 32.3-18.7 43.6-29.1-1.6 11.3 2.3 24.2 0.6 35.5 6.2-6.5 18.4-12 24.7-18.6 6 55.4 8.5 110.3 26.2 164.1 6.6-30 20.3-58.6 41.8-81.1 3.2 27.2 9.6 55.5 23.6 79.3 2.6-10.7 15.8-28.3 18.5-37.5 3.9 18.2 19.1 35.8 24.9 50.3 2.3-10 10.9-25.3 12.6-33.4 12.1 33.8 16.1 23 19.9 58.8 19.5-43.3 61.1-61.7 104.8-82 0.7 11.9 6.6 23.8 7 35.5 3.8-11.2 18.2-25.6 22.9-35.6 3.2 11.1 11.8 21.9 15.1 33.3 3.8-3.7 11.4-9.5 16.5-14.7 29.1 52 41.3 113.4 54.3 170.9 13.3-30.2 36.8-68.3 70.4-75.2 8.3 21.7 12 45.8 12.8 69.2 41.6-62.4 49.9-1 71.4 34.3 6.9-23.6 23.6-46.6 41.8-61.1 4.8 10.2 15.6 18.2 19.6 25.2 3.3-7.6 11.2-17.9 14.1-25.2 4.1 19.6 9.8 38.7 8.9 60.3 8.9-24.3 15.2-45.1 33.8-62.8 18.6 17.7 25 38.5 33.8 62.8-0.9-21.6 4.8-40.7 8.9-60.3 2.9 7.3 10.8 17.6 14.1 25.2 4-7 14.8-15 19.6-25.2 18.2 14.5 34.9 37.5 41.8 61.1 21.5-35.3 29.8-96.7 71.4-34.3 0.8-23.4 4.5-47.5 12.8-69.2 33.6 6.9 57.1 45 70.4 75.2 13-57.5 25.2-118.9 54.3-170.9 5.1 5.2 12.7 11 16.5 14.7 3.3-11.4 11.9-22.2 15.1-33.3 4.7 10 19.1 24.4 22.9 35.6 0.4-11.7 6.3-23.6 7-35.5 43.7 20.3 85.3 32.2 104.8 75.6 3.9-35.9 7.8-18.6 19.9-52.4 1.7 8.1 10.3 23.4 12.6 33.4 5.8-14.5 21-32.1 25-50.3 2.6 9.2 15.9 26.8 18.4 37.5 14-23.8 20.5-52.1 23.7-79.3 21.4 22.5 35.1 51.1 41.7 81.1 17.7-53.8 20.2-108.7 26.3-164.1 6.2 6.6 18.4 12.1 24.6 18.6-1.7-11.3 2.2-24.2 0.7-35.5 11.2 10.4 32.2 17.4 43.5 29.1 0.2-5.6-0.3-12.3 0.3-18 23.4 29.8 55.9-0.6 76.3 31.8-11.6-63.1-36.7-74.6-52.7-135.9z"/>
			<path id="&lt;Path&gt;" class="s11" d="m1781.4 1245.1c-3.3-29.7-14.1-70.3-22.3-94.2 4.4 2.6 9.6 4.4 13.8 8 0-27.1-9.4-56.2-20.5-79.8 6.1 1.9 13.3 2.1 18.9 4.6-20-28-56.8-93.2-83.9-113.3 23.4 44.4 32.6 81.5 34.4 112.4-6.2-4.4-14.7-5.8-20.5-9.6 13.2 23.9 19.2 52 24.5 78.3-4.7-2.9-10.3-4.6-14.9-7.5 13.3 38.6 20.5 81.6 28.2 121.7 1.2-5 2.3-11.7 2.9-16.8 10.3 32.3 10.9 73.8 11.2 108.5 15.1-30.2 21.7-83.4 20.2-117.9 3.3 0.5 5.2 5 8 5.6z"/>
			<path id="&lt;Path&gt;" class="s11" d="m340.6 1245.1c3.3-29.7 14.1-70.3 22.3-94.2-4.4 2.6-9.6 4.4-13.7 8 0-27.1 9.3-56.2 20.4-79.8-6.1 1.9-13.3 2.1-18.9 4.6 20.1-28 56.9-93.2 83.9-113.3-23.3 44.4-32.6 81.5-34.4 112.4 6.2-4.4 14.7-5.8 20.5-9.6-13.2 23.9-19.2 52-24.5 78.3 4.7-2.9 10.3-4.6 14.9-7.5-13.3 38.6-20.5 81.6-28.2 121.7-1.2-5-2.3-11.7-2.8-16.8-10.4 32.3-11 73.8-11.3 108.5-15.1-30.2-21.7-83.4-20.2-117.9-3.3 0.5-5.2 5-8 5.6z"/>
		</g>
	</g>
</svg>