<svg version="1.2" xmlns="http://www.w3.org/2000/svg" viewBox="0 0 2122 2122" width="100">
	<style>
		.s0 { fill: #fefefe } 
		.s1 { fill: #fec957 } 
		.s2 { fill: #ffdeaa } 
		.s3 { fill: #171716 } 
		.s4 { fill: #e6ab59 } 
		.s5 { fill: #fedc98 } 
		.s6 { fill: #53300e } 
		.s7 { fill: #f58d24 } 
		.s8 { fill: #faac3a } 
		.s9 { fill: #000000 } 
		.s10 { fill: #020201 } 
		.s11 { fill: #e39144 } 
	</style>
	<g id="lion">
		<g id="mouth">
			<path id="&lt;Path&gt;" class="s5" d="m1316.3 1556.4c3.6 14.4 3.6 31.9-0.1 46.4-3.4-6.6-11.2-11.8-14.9-17.5-1.6 13.2-2.6 28.8-12.9 39.7 0.4-7.5-6.7-10.2-9.7-13.9-10.6 24.4-24 44.9-52.2 64.3 1.1-6.3-1.5-12.1-1.5-17.5-5.5 8.2-14.5 14.7-20.9 22.3 0.1-6.8-4-13.8-4.1-20.3-16 21.3-37.6 43.3-60.6 60.4 3.3-13.8-3.6-28.8-18.5-36.7-7.1 7.4-12.9 14.5-20.8 20.3-1.1-7.7-7.1-15-8.8-21.7-2.9 6.9-6.9 11-8.2 18.4l-9.6-6.9c0.1 8-4.1 14.6-12.4 28.8v0.1l-0.1-0.1-0.1 0.1v-0.1c-8.3-14.2-12.5-20.8-12.3-28.8l-9.6 6.9c-1.4-7.4-5.4-11.5-8.3-18.4-1.7 6.7-7.7 14-8.8 21.7-7.9-5.8-13.7-12.9-20.7-20.3-15 7.9-21.9 22.9-18.6 36.7-23-17.1-44.6-39.1-60.7-60.4 0 6.5-4.1 13.5-3.9 20.3-6.5-7.6-15.5-14.1-21-22.3 0 5.4-2.6 11.2-1.5 17.5-28.3-19.4-41.5-39.9-52.2-64.3-3 3.7-10.1 6.4-9.6 13.9-10.4-10.9-11.4-26.5-13-39.7-3.7 5.7-11.5 10.9-14.9 17.5-3.7-14.5-3.7-32-0.1-46.4-3.6 3-9.9 5.9-13.4 9.3 1.6-13.6 4.8-25.9 9.6-36.9 16.1-37.5 50.4-61.1 103.3-80.8 35.7-13.3 99.2-40.1 116.4-0.1 0.6-2.7 1.5-6.6 4.8-9.1 0.6 7.8 8.5 9.6 12.4 16.2 2.6-3.7 8.8-3 11.6-7.7-0.9 3.5 8.4 7.8 10.6 10 2.2-2.2 11.6-6.5 10.6-10 2.8 4.7 9 4 11.7 7.7 3.8-6.6 11.8-8.4 12.3-16.2 3.3 2.5 4.2 6.4 4.8 9.1 17.2-40 80.7-13.2 116.4 0.1 52.9 19.7 87.2 43.3 103.3 80.8 4.8 11 8 23.3 9.6 36.9-3.5-3.4-9.8-6.3-13.4-9.3z"/>
			<path id="&lt;Path&gt;" class="s3" d="m1216.8 1448c-10.9-4.1-24.4-9.4-38.4-13.7 0.2-2.4 0.3-5 0.3-7.5 0-65-52.7-117.7-117.7-117.7-65 0-117.7 52.7-117.7 117.7 0 2.5 0.1 5.1 0.3 7.5-14 4.3-27.5 9.6-38.4 13.7-52.9 19.7-87.2 43.3-103.3 80.8 6.9 6.6 14.7 12.7 22.2 18.1 0-2.8 0.5-10.3 0.5-10.5 11.3 9.2 24.9 15 38.5 20.2l-1-5.9c5 3 10.3 5.8 15 8 1-2.3 1.2-7.2 3.4-9.1 6.5 5.2 12.5 5.3 17.1 6.9 1.6-8.7 24-21.4 34.8-36.1 3.3 3.4 9.4 7.2 11.9 10.3 2.5-4.1 3.8-8.3 5.7-12.7 2.3 2 6.2 6 9.5 6.5 3.5-8.2 13.6-15.6 17.5-23.7 0.9 4.7 2.7 5.7 2.2 10.6 7.8-3 23.6-17.4 29.2-28 3.1 5.6 10.5 8.8 13.8 14.6 1.9-8.4 10-14.4 12.6-21.1 3.8 5.5 11 10 14.1 14.9l2.4-7c4.6 5.1 4.9 8.2 9.7 12.4 4.8-4.2 5.1-7.3 9.7-12.4l2.4 7c3.1-4.9 10.3-9.4 14.1-14.9 2.6 6.7 10.6 12.7 12.6 21.1 3.3-5.8 10.7-9 13.9-14.6 5.5 10.6 21.4 25 29.1 28-0.5-4.9 1.3-5.9 2.2-10.6 3.9 8.1 14 15.5 17.6 23.7 3.2-0.5 7.1-4.5 9.4-6.5 1.9 4.4 3.3 8.6 5.7 12.7 2.5-3.1 8.7-6.9 11.9-10.3 10.8 14.7 33.2 27.4 34.8 36.1 4.6-1.6 10.6-1.7 17.1-6.9 2.2 1.9 2.3 6.8 3.4 9.1 4.7-2.2 10-5 15-8l-1 5.9c13.6-5.2 27.3-11 38.5-20.2 0 0.2 0.6 7.7 0.5 10.5 7.5-5.4 15.3-11.5 22.2-18.1-16.1-37.5-50.4-61.1-103.3-80.8z"/>
		</g>
	</g>
</svg>