<svg version="1.2" xmlns="http://www.w3.org/2000/svg" viewBox="0 0 2122 2122" width="100">
	<style>
		.s0 { fill: #fefefe } 
		.s1 { fill: #fec957 } 
		.s2 { fill: #ffdeaa } 
		.s3 { fill: #171716 } 
		.s4 { fill: #e6ab59 } 
		.s5 { fill: #fedc98 } 
		.s6 { fill: #53300e } 
		.s7 { fill: #f58d24 } 
		.s8 { fill: #faac3a } 
		.s9 { fill: #000000 } 
		.s10 { fill: #020201 } 
		.s11 { fill: #e39144 } 
	</style>
	<g id="lion">
		<g id="face_front">
			<path id="&lt;Compound Path&gt;" fill-rule="evenodd" class="s1" d="m1590.2 977.7c2.1-1.3 7 7.2 9.4 4.4 6.9-61.1-1-122.6-4.3-183.6 4.1-2.3 6.7 4.5 11.9 1.8-5.6-33-17.2-68.2-32.2-97.6 11.7 3.5 27.3 1.2 39.2 4.9-34.7-81.6-104.2-150.6-174.9-202.2 7.4-0.9 17-2 26-2.2-36.2-32.8-90.5-53.2-134.3-73.4 2.2-1.5 10.7-3.4 11.8-5-21-4.1-45.1-7.6-62.7-7.2-5.9 0.2-11 0.7-15 1.9h-0.1c-1.2 0.3-2.3 0.7-3.3 1.1l-0.1-1.9-2.5-0.6c9.4 13.5 18 28.8 22.8 44.6-15.3-11.5-34.9-13.8-53.4-12.5 3.6 4.3 5.6 10.5 8.9 14.6-5-2-12.9-2.7-17.7-5l2.5 4.9c-0.4 0.4-18 0.2-25.8-1.9 6.7 9.7 10.9 21.2 12.7 32.8-17.2-11.7-37.7-12.4-57.5-11 5.5 2.5 8.2 8.1 11.9 11.3-15.7 0.6-30.1 9-44.3 16.5 4.3 0.2 10.3 2.8 15.9 2.8-13.8 7.7-24 20.3-33.8 33.1 2.3 0.6 4.4-1.3 6.4-0.7-13 11.8-16 37.3-27.9 53.2 2.4-1.6 7.1-3.4 9.9-5.1-7.4 17.6-9.6 42.1-8.8 62.9 4-3.7 10.1-6.3 14.1-10.2-7.5 14.3-15.9 33.8-18.2 49.1 3.6-2.5 9.7-4.9 12.9-6.5-20.4 33.6-28.7 80.3-28.7 80.3 0 0-8.3-46.7-28.7-80.3 3.2 1.6 9.3 4 12.9 6.5-2.3-15.3-10.7-34.8-18.2-49.1 4 3.9 10.1 6.5 14.1 10.2 0.8-20.8-1.4-45.3-8.8-62.9 2.8 1.7 7.4 3.5 9.9 5.1-11.9-15.9-14.9-41.4-27.9-53.2 2-0.6 4 1.3 6.4 0.7-9.8-12.8-19.9-25.4-33.7-33.1 5.5 0 11.5-2.6 15.8-2.8-14.2-7.5-28.6-15.9-44.3-16.5 3.7-3.2 6.4-8.8 11.9-11.3-19.8-1.4-40.3-0.7-57.4 11 1.7-11.6 5.9-23.1 12.6-32.8-7.8 2.1-25.4 2.3-25.8 1.9l2.5-4.9c-4.8 2.3-12.7 3-17.7 5 3.3-4.1 5.3-10.3 8.9-14.6-18.5-1.3-38.1 1-53.4 12.5 4.8-15.8 13.4-31.1 22.7-44.6l-2.4 0.6-0.1 1.9c-1-0.4-2.1-0.8-3.3-1.1-4.1-1.2-9.2-1.7-15.2-1.9-17.5-0.4-41.6 3.1-62.6 7.2 1.1 1.6 9.6 3.5 11.8 5-43.8 20.2-98.1 40.6-134.3 73.4 9 0.2 18.5 1.3 26.1 2.2-70.8 51.6-140.3 120.6-175 202.2 11.9-3.7 27.6-1.4 39.2-4.9-14.9 29.4-26.6 64.6-32.2 97.6 5.3 2.7 7.8-4.1 11.9-1.8-3.3 61-11.2 122.5-4.3 183.6 2.5 2.8 7.3-5.7 9.4-4.4-32.4 65.2-35.4 150.1-26.9 221.4 0-0.1 2.8-5.3 5.1-8.7-7.5 27.6-0.1 57.3 17.3 73 8.3 41.1 38.8 73.1 63.4 104.7 3.7-9.4 16.1-21.4 19.7-30.2 6.7 15.4 27.5 29 34.7 42.8 4.8-10.5 13.5-17.2 18.5-25.3 7.9 15.2 28.6 26.8 37.1 40.4 2.5-8.7 5.3-15.8 8.7-24.7 65.6 125.8 250.7 11.1 351.6-5.3 100.9 16.4 286 131.1 351.6 5.3 3.4 8.9 6.2 16 8.7 24.7 8.5-13.6 29.2-25.2 37.2-40.4 4.9 8.1 13.5 14.8 18.4 25.3 7.2-13.8 28-27.4 34.7-42.8 3.7 8.8 16 20.8 19.7 30.2 24.6-31.6 55.1-63.6 63.4-104.7 17.4-15.7 24.8-45.4 17.3-73 2.3 3.4 5.1 8.6 5.1 8.7 8.5-71.3 5.5-156.2-26.9-221.4zm-1078.9 210.9l0.9-0.9zm1098.5-0.8l0.9 0.8z"/>
			<path id="&lt;Path&gt;" class="s4" d="m696 1226.9c-22.2-8.4-45.3-21.6-66.8-32.9 7.7 7.2 18 26.2 25.4 34-4.9 0.3-16.8-9.5-21.5-8.2 9.5 9.3 15.4 24.4 24 33.1-4.8-1.9-10.8-4.9-16-6.9 13.9 15.4 30.8 29.4 46.1 43.3-39.3-9.9-95.1-50.3-120-79.7 4.2 2.5 9.4 4.6 14.5 6.8-13.5-15.9-24.7-33.3-35.5-50.4 6.3 4.9 15 8.5 20.5 12.3-4.2-11-4.6-25.4-9.9-36.2 3.4 3.8 8.9 8 13 11.9-11.9-27-19.1-61.1-15.3-86.7 17 29.7 39.1 58.2 61.8 83.6-4.6-11.3-6.5-24.9-10-36.2 27.4 39.6 55.5 76 89.7 112.2z"/>
			<path id="&lt;Path&gt;" class="s4" d="m1426 1226.9c22.2-8.4 45.4-21.6 66.8-32.9-7.7 7.2-18 26.2-25.4 34 4.9 0.3 16.8-9.5 21.5-8.2-9.5 9.3-15.4 24.4-24 33.1 4.9-1.9 10.8-4.9 16-6.9-13.9 15.4-30.8 29.4-46.1 43.3 39.3-9.9 95.1-50.3 120-79.7-4.2 2.5-9.4 4.6-14.5 6.8 13.5-15.9 24.7-33.3 35.5-50.4-6.3 4.9-15 8.5-20.5 12.3 4.2-11 4.6-25.4 9.9-36.2-3.4 3.8-8.9 8-13 11.9 11.9-27 19.1-61.1 15.3-86.7-17 29.7-39.1 58.2-61.8 83.6 4.6-11.3 6.5-24.9 10-36.2-27.4 39.6-55.5 76-89.7 112.2z"/>
			<path id="&lt;Path&gt;" class="s4" d="m1273.4 1041.5c1.9 7.8 10.1 20.5 11.7 28.4 5.6-12.4 9.3-22.6 10.7-33.7 5 16.5 6.7 34.6 6.4 52.2 10.8-18.3 27.2-31.9 36.8-53.3 0 3.9 1.4 10 1.3 14.7 8.3-10.5 19.5-14.9 27.4-31.2-0.8 5.9 0.4 12.3-0.4 18.1 16.7-11.1 43.7-30.1 58.3-47.5 0.1 11.3-4.2 11.4-2 22.3 12.4-21 20.6-28.9 35.1-48 1.4 4.8 4.6 9.2 5.8 13.9 11.1-15.5 22.2-35.2 32.5-51.7 1.2 3.8 5.1 9.4 6.2 13.6 8.7-16.8 14.8-37.1 25.8-52.5 0.2 4.5 1 9.3 1.3 13.6 2.5-17.4 9.5-33 10.5-56.6 11.2 21.6 24 55 19.7 79.3-2.2-12.6-3.4-11.6-11.3-21.4-0.1 17.6-6.2 22.9-9.5 40-0.7-4.4-3.8-10.8-4.9-14.9-2.3 26.5-14.7 68.3-30.5 90.3 0.7-7.6-0.9-15.7-0.2-23.1-6 14.9-15.8 28.7-24.4 41.7 0.2-7.8-2.4-16.2-2.4-23.2-10.5 29.7-35.7 60.2-57 82.6-0.3-12.2-0.6-24.4-1.5-36.5-16.4 18.2-28.4 47.9-53.6 56.6-0.4-3.8 5.6-16.2 5.3-19.8-13.1 14.9-32.4 39.5-48.2 51.4 0.9-9.1 0.5-16.5 1.4-25.3-9.8 14-14.3 32.2-21.4 47.9-9.9-19.3-36-40.4-40.8-60.9-5.1-22.2 17.1-45.8 11.9-67z"/>
			<path id="&lt;Path&gt;" class="s4" d="m848.6 1041.5c-1.9 7.8-10.1 20.5-11.7 28.4-5.6-12.4-9.3-22.6-10.7-33.7-5 16.5-6.7 34.6-6.4 52.2-10.8-18.3-27.2-31.9-36.8-53.3 0 3.9-1.4 10-1.3 14.7-8.3-10.5-19.5-14.9-27.4-31.2 0.8 5.9-0.4 12.3 0.4 18.1-16.7-11.1-43.7-30.1-58.3-47.5-0.1 11.3 4.2 11.4 2 22.3-12.4-21-20.6-28.9-35.1-48-1.4 4.8-4.6 9.2-5.8 13.9-11.1-15.5-22.2-35.2-32.5-51.7-1.2 3.8-5.1 9.4-6.2 13.6-8.7-16.8-14.8-37.1-25.8-52.5-0.1 4.5-1 9.3-1.3 13.6-2.5-17.4-9.5-33-10.5-56.6-11.2 21.6-23.9 55-19.7 79.3 2.2-12.6 3.4-11.6 11.3-21.4 0.1 17.6 6.2 22.9 9.5 40 0.7-4.4 3.8-10.8 4.9-14.9 2.3 26.5 14.7 68.3 30.5 90.3-0.6-7.6 0.9-15.7 0.2-23.1 6 14.9 15.8 28.7 24.4 41.7-0.2-7.8 2.4-16.2 2.4-23.2 10.5 29.7 35.7 60.2 57 82.6 0.3-12.2 0.6-24.4 1.5-36.5 16.4 18.2 28.5 47.9 53.6 56.6 0.4-3.8-5.6-16.2-5.3-19.8 13.1 14.9 32.4 39.5 48.2 51.4-0.9-9.1-0.5-16.5-1.4-25.3 9.8 14 14.4 32.2 21.4 47.9 9.9-19.3 36-40.4 40.8-60.9 5.1-22.2-17.1-45.8-11.9-67z"/>
			<path id="&lt;Path&gt;" class="s5" d="m1405.4 1347c-1.6-25.6-8.4-55.4-19.8-78.7 5.1 3.7 12.2 6 17.4 10-17.2-39.3-44.7-85.6-76.6-114.1 6.4 2.2 14.7 2.5 20.8 4.8-21.2-23.7-46.5-49-76.5-63.4l-209.7-41.3-209.7 41.3c-30 14.4-55.3 39.7-76.5 63.4 6.1-2.3 14.4-2.6 20.8-4.8-31.9 28.5-59.4 74.8-76.6 114.1 5.2-4 12.3-6.3 17.4-10-11.4 23.3-18.1 53.1-19.8 78.7 2.9-4.3 7.8-9.1 10.8-13.7-10.2 52.5 1.2 112.8 32.8 158.3-0.8-6.5 1.2-10.4 1.5-15.1 10.6 12 23.2 23.6 36.4 33-0.3-3.6-0.8-8.5-1.1-11.5 16.1 11.1 32.2 25.9 54 28 1.6-0.9 5.4-7.8 6.5-9.3 6.2 2 14.3 3.6 20.1 5.7l0.4-5.5c31 11.9 59.7-23.1 84.1-37.7 0.7 4.3 2.3 8.5 3 12.7 21.3-24.2 44.2-48.8 66.7-72.6 1.2 1.8-0.3 5 1.1 6.9 9.2-12.8 22.7-26.6 28.1-41.2 5.4 14.6 19 28.4 28.1 41.2 1.4-1.9-0.1-5.1 1.1-6.9 22.6 23.8 45.4 48.4 66.7 72.6 0.8-4.2 2.3-8.4 3-12.7 24.4 14.6 53.1 49.6 84.1 37.7l0.4 5.5c5.8-2.1 13.9-3.7 20.1-5.7 1.1 1.5 4.9 8.4 6.5 9.3 21.8-2.1 37.9-16.9 54-28-0.3 3-0.8 7.9-1.1 11.5 13.2-9.4 25.8-21 36.4-33 0.3 4.7 2.3 8.6 1.5 15.1 31.6-45.5 43-105.8 32.8-158.3 3 4.6 7.9 9.4 10.8 13.7z"/>
			<path id="&lt;Path&gt;" class="s3" d="m923.6 1130.8c-0.3 4.6 0.4 9.3 1.7 13.4-5.8-3-11-7.9-15.5-12.5l-0.4 0.9c0.9 2.5 0.8 5.5 2 8.2-9.7-4.3-16.1-13.5-23.9-19.2 0 1.5 0 3-0.1 4.5-7.1-3.4-10.5-10.9-16-15.9 0 2.1-0.9 4.7-0.8 7.1-5.9-4.3-7.1-13.5-12.9-17.6 0.1 2.2-0.4 4.5-0.2 6.7-4.3-6.6-6.8-15-9.3-22.6 0.1 2.3-0.4 6.3-0.2 7.9-3.8-8.1-4.5-17.3-4.8-26.1-3.6 17 1.4 32.4 6 46.3-0.4-2.4-0.4-4.8-0.9-7.2 3.3 11.1 12.2 23.9 21 32.4-0.9-2.9-1.5-6.4-2.8-9.3l-0.1-0.7c5.2 12.2 17.2 19.3 26.2 28.3-1-2.2-1.8-6.2-3-8.6 10.6 7.7 20.8 15.3 32.7 20.8-3.5-2.7-6.4-6.4-8.3-10.3 6.2 4.5 14.1 8.7 21.7 10.4-3.4-2.3-5.2-5-7.8-7.8 12.1 4.4 24.1 8.2 36.9 10.8z"/>
			<path id="&lt;Path&gt;" class="s3" d="m1198.4 1130.8c0.3 4.6-0.4 9.3-1.6 13.4 5.7-3 10.9-7.9 15.4-12.5l0.4 0.9c-0.9 2.5-0.8 5.5-2 8.2 9.7-4.3 16.1-13.5 23.9-19.2 0 1.5 0 3 0.1 4.5 7.1-3.4 10.5-10.9 16-15.9 0 2.1 1 4.7 0.8 7.1 5.9-4.3 7.1-13.5 12.9-17.6-0.1 2.2 0.4 4.5 0.2 6.7 4.3-6.6 6.8-15 9.3-22.6-0.1 2.3 0.4 6.3 0.3 7.9 3.7-8.1 4.4-17.3 4.7-26.1 3.6 17-1.4 32.4-6 46.3 0.4-2.4 0.4-4.8 0.9-7.2-3.3 11.1-12.2 23.9-21 32.4 0.9-2.9 1.5-6.4 2.8-9.3l0.1-0.7c-5.2 12.2-17.2 19.3-26.2 28.3 1-2.2 1.8-6.2 3-8.6-10.6 7.7-20.8 15.3-32.7 20.8 3.5-2.7 6.4-6.4 8.3-10.3-6.2 4.5-14.1 8.7-21.7 10.4 3.4-2.3 5.3-5 7.8-7.8-12.1 4.4-24.1 8.2-36.9 10.8z"/>
			<path id="&lt;Path&gt;" class="s3" d="m756.9 695.6l0.3 0.7c-18.7-4-34.8-29.7-34-48.1-4 16.4 2.7 37.1 16.3 47.2-10.2 0.8-24.2 1-33.5-3.9 1.4 4.7 5.5 8.3 9.9 9.8-24.4-0.2-64.3 7.3-73.4-21.9 0.4 12.4 4.6 23 16 29.2-3.2 0.8-10.4-0.7-13.6-1.2 2.8 4.7 11.2 6.5 16.3 7.8-9.1 2.8-18.1 3.8-26.6 2.6 9.9 4.7 18.2 4.9 28.7 2.6-5.4 6.1-12.8 11-17.1 18.1 9.2-9.3 33-17.9 46-19.6-7.6-2.4-14.4-2.3-18.4-3 10.4-4.7 26.9-1.3 38.4 0.5 11 1.6 15.8 0.1 28.1-0.6 7.1-0.4 11.8-1 18.8 1.6 3.4 1.3 22.1 10.4 29.5 12.5-12.3-9.2-23.5-21.2-31.7-34.3z"/>
			<path id="&lt;Path&gt;" class="s3" d="m832.9 767.6c-0.3 2.1-1 4-1.3 6.1 3.5-23.3-34.1-45.2-49.4-55.9 1.9 2.4 2.9 5.1 4.3 7.8-16.6-14.5-52.6-16.5-72.5-8.2 5.3 0.3 10.3 1.3 15.3 3-15.5-2-39 8.2-51.4 17.3 3.6-0.2 6.5 0.8 9.5 1.1-27.5 4.1-52.7 13.3-71.4 35.3 2.6-1.5 5.8-2.6 8.6-4.1-5.6 4.6-11 10.6-12.7 17.7 11.8-7.7 28.7-12.3 42.8-9.7-2.8 1-4.9 2.9-7.5 4.1 12.8-0.6 24.9 4.1 35.8 10.2-3.5-0.3-6.9 0.6-10.6 0.4 15 19.9 44.5 34.1 69.1 33.6-2.3 0.9-4.8 2.6-7 3.3 19.1 1.3 38.3 0.2 57-4.9-1.7 1.3-3.1 3.1-4.8 4.4 5.7-1.8 11.2-4 16.6-6.6 6.9 7.3 14.5 15.2 17.4 25.6l0.5-1.4c4.5 6.2 12.2 13.4 10.5 21.2 4.2-33.9 18.4-65.1 1.2-100.3z"/>
			<path id="&lt;Path&gt;" class="s6" d="m747.2 731.2c0 0-38.9-0.7-38.9 23.8 0 24.5 19.3 57.1 52.7 57.1 33.3 0 43.6-21.7 43.6-37.5 0-15.9-11.9-43.4-57.4-43.4z"/>
			<path id="&lt;Path&gt;" fill-rule="evenodd" class="s3" d="m763.3 771.3c-8.5 0-15.4-6.9-15.4-15.4 0-8.5 6.9-15.4 15.4-15.4 8.5 0 15.4 6.9 15.4 15.4 0 8.5-6.9 15.4-15.4 15.4z"/>
			<path id="&lt;Path&gt;" class="s0" d="m744.2 741.4c6.7-1.2 13.5-1.1 20.3-1.2 4 0 8.1 1.3 11.5 3.7 1.8 1.3 6 4.6 5.9 7.2 0.9 2.5-6.3-0.3-7-0.5-4.1-1.1-8-2.5-11.8-4.4-3.8-1.8-7.8-2.8-12-3.5-1.7-0.4-3.4-0.6-5.2-0.8z"/>
			<path id="&lt;Path&gt;" class="s7" d="m791.9 760c-1.7 13.1-12.8 23.2-26.3 23.2-14.7 0-26.6-11.9-26.6-26.6q0-2.7 0.5-5.3c-5.4-3-16.7-7.2-30.6-1.3-0.4 1.5-0.6 3.2-0.6 5 0 24.5 19.3 57.1 52.7 57.1 22.4 0 34.3-9.8 39.8-21.1 1.1-8.2 1-21.6-8.9-31z"/>
			<path id="&lt;Path&gt;" class="s8" d="m727.8 780.2c4.6 8.6 13.8 25.4 39.6 28 0 0-32.6 4.7-48.3-23.2 3-1.5 6-2.9 8.7-4.8z"/>
			<path id="&lt;Path&gt;" class="s8" d="m717.8 782.6c-1.3-2.9-2.6-6.2-3.6-9.8l10.4-1.1c0 0 0.4 2.4 2 6-2.6 2-5.7 3.4-8.8 4.9z"/>
			<path id="&lt;Path&gt;" class="s3" d="m934.4 648.2c-1.9 8.3-3.4 16.9-6.2 25.2l-0.1-2.7c-3.7 9.6-8.8 19-13.5 28.2 0.2-1.6-0.2-3.3 0-4.9-8 12.1-14.5 26.4-26.2 35.8 0.7-2.2 1.1-4.7 1.8-6.8-7.8 7.7-17.5 15.3-27.5 19.7 1.1-2 2.5-4.2 4-6.2-14.9 5-28.6 3.5-44 3.4 1.4-0.2 2.6-0.8 3.8-1.1-5.5 0.7-11.4-0.3-16.8-1.9-7-2.1-13-8.1-20-9.4 2.7 0.1 5.5-0.4 8-1.6-12.3-6.1-23.1-14.3-32.7-23.9 2.8 0.5 6 0.5 8.8 0.6-10.4-8.3-18.6-15.6-25.2-27.5 1.3 0.6 2.9 0.8 4 1.3-5.2-4.4-8-11.7-9.3-18.1v0.2c-2.5 14.1 6.9 34 15.7 44.5-2.8-2.5-5.1-4.2-7.5-7.1 11.5 20.6 27.6 34.4 48.2 44.9-2.2-0.1-6.2 0.2-7.7 0 13.4 9.8 25.6 14.3 42.6 12-1.1 1.5-2.1 3.2-3.4 4.5 10.6 0 19.8-0.7 28.4-6.3 0.4 6.7 0.1 6-1.3 12.3 9.8-3.2 32-23.2 37.2-31.9 1.2 2.2 0.7 4.5 0.5 6.6 4.2-4.4 15.5-16.2 16.5-27.9 0.7 4.1 1.1 2.6 1.5 6.8 6.8-9.3 12.8-18.8 11.3-29.9 0.7 3.4 1.6 2.1 2.4 7.2 5.9-15.6 9.8-29.6 6.7-46z"/>
			<path id="&lt;Path&gt;" class="s3" d="m1365.1 695.6l-0.3 0.7c18.7-4 34.8-29.7 34-48.1 4 16.4-2.7 37.1-16.3 47.2 10.2 0.8 24.2 1 33.5-3.9-1.4 4.7-5.5 8.3-9.9 9.8 24.4-0.2 64.3 7.3 73.4-21.9-0.4 12.4-4.6 23-16 29.2 3.2 0.8 10.4-0.7 13.6-1.2-2.8 4.7-11.2 6.5-16.3 7.8 9.1 2.8 18.1 3.8 26.6 2.6-9.9 4.7-18.2 4.9-28.7 2.6 5.4 6.1 12.8 11 17.1 18.1-9.2-9.3-33-17.9-45.9-19.6 7.5-2.4 14.3-2.3 18.3-3-10.4-4.7-26.9-1.3-38.4 0.5-11 1.6-15.8 0.1-28-0.6-7.2-0.4-11.9-1-18.9 1.6-3.4 1.3-22.1 10.4-29.5 12.5 12.3-9.2 23.5-21.2 31.7-34.3z"/>
			<path id="&lt;Path&gt;" class="s3" d="m1289.2 767.6c0.2 2.1 0.9 4 1.2 6.1-3.5-23.3 34.1-45.2 49.4-55.9-1.9 2.4-2.9 5.1-4.3 7.8 16.6-14.5 52.6-16.5 72.5-8.2-5.3 0.3-10.3 1.3-15.3 3 15.5-2 39 8.2 51.4 17.3-3.6-0.2-6.5 0.8-9.5 1.1 27.5 4.1 52.7 13.3 71.4 35.3-2.6-1.5-5.8-2.6-8.6-4.1 5.6 4.6 11 10.6 12.7 17.7-11.8-7.7-28.7-12.3-42.7-9.7 2.7 1 4.8 2.9 7.4 4.1-12.7-0.6-24.9 4.1-35.8 10.2 3.5-0.3 7 0.6 10.6 0.4-15 19.9-44.5 34.1-69.1 33.6 2.3 0.9 4.9 2.6 7 3.3-19.1 1.3-38.3 0.2-57-4.9 1.7 1.3 3.1 3.1 4.8 4.4-5.7-1.8-11.2-4-16.6-6.6-6.9 7.3-14.5 15.2-17.4 25.6l-0.5-1.4c-4.5 6.2-12.2 13.4-10.5 21.2-4.2-33.9-18.4-65.1-1.1-100.3z"/>
			<path id="&lt;Path&gt;" class="s6" d="m1374.8 731.2c0 0 38.9-0.7 38.9 23.8 0 24.5-19.3 57.1-52.7 57.1-33.3 0-43.5-21.7-43.5-37.5 0-15.9 11.9-43.4 57.3-43.4z"/>
			<path id="&lt;Path&gt;" fill-rule="evenodd" class="s3" d="m1358.7 771.3c-8.5 0-15.4-6.9-15.4-15.4 0-8.5 6.9-15.4 15.4-15.4 8.5 0 15.4 6.9 15.4 15.4 0 8.5-6.9 15.4-15.4 15.4z"/>
			<path id="&lt;Path&gt;" class="s0" d="m1377.8 741.4c-6.7-1.2-13.5-1.1-20.2-1.2-4.1 0-8.2 1.3-11.6 3.7-1.8 1.3-6 4.6-5.9 7.2-0.9 2.5 6.3-0.3 7-0.5 4.1-1.1 8-2.5 11.8-4.4 3.8-1.8 7.8-2.8 12-3.5 1.7-0.4 3.4-0.6 5.2-0.8z"/>
			<path id="&lt;Path&gt;" class="s7" d="m1330.1 760c1.7 13.1 12.8 23.2 26.4 23.2 14.6 0 26.5-11.9 26.5-26.6q0-2.7-0.5-5.3c5.4-3 16.7-7.2 30.6-1.3q0.6 2.3 0.6 5c0 24.5-19.3 57.1-52.7 57.1-22.4 0-34.3-9.8-39.8-21.1-1.1-8.2-1-21.6 8.9-31z"/>
			<path id="&lt;Path&gt;" class="s8" d="m1394.2 780.2c-4.6 8.6-13.8 25.4-39.6 28 0 0 32.6 4.7 48.3-23.2-3-1.5-6-2.9-8.7-4.8z"/>
			<path id="&lt;Path&gt;" class="s8" d="m1404.2 782.6c1.4-2.9 2.6-6.2 3.6-9.8l-10.4-1.1c0 0-0.4 2.4-2 6 2.6 2 5.7 3.4 8.8 4.9z"/>
			<path id="&lt;Path&gt;" class="s3" d="m1187.6 648.2c1.9 8.3 3.4 16.9 6.3 25.2v-2.7c3.7 9.6 8.8 19 13.5 28.2-0.2-1.6 0.2-3.3 0.1-4.9 7.9 12.1 14.4 26.4 26.1 35.8-0.7-2.2-1.1-4.7-1.8-6.8 7.8 7.7 17.5 15.3 27.5 19.7-1.1-2-2.5-4.2-4-6.2 14.9 5 28.6 3.5 44 3.4-1.4-0.2-2.6-0.8-3.8-1.1 5.5 0.7 11.4-0.3 16.8-1.9 7.1-2.1 13-8.1 20-9.4-2.7 0.1-5.5-0.4-8-1.6 12.3-6.1 23.1-14.3 32.7-23.9-2.8 0.5-6 0.5-8.8 0.6 10.4-8.3 18.6-15.6 25.2-27.5-1.3 0.6-2.8 0.8-4 1.3 5.2-4.4 8-11.7 9.3-18.1v0.2c2.5 14.1-6.9 34-15.7 44.5 2.8-2.5 5.1-4.2 7.5-7.1-11.5 20.6-27.5 34.4-48.2 44.9 2.2-0.1 6.2 0.2 7.7 0-13.4 9.8-25.6 14.3-42.6 12 1.1 1.5 2.1 3.2 3.5 4.5-10.7 0-19.9-0.7-28.5-6.3-0.4 6.7-0.1 6 1.3 12.3-9.8-3.2-32-23.2-37.2-31.9-1.2 2.2-0.7 4.5-0.5 6.6-4.2-4.4-15.5-16.2-16.4-27.9-0.8 4.1-1.2 2.6-1.6 6.8-6.8-9.3-12.8-18.8-11.3-29.9-0.6 3.4-1.6 2.1-2.4 7.2-5.9-15.6-9.8-29.6-6.7-46z"/>
			<path id="&lt;Path&gt;" class="s2" d="m498.6 627.4c-2.2-3.5-3.3-9.2-4.8-12.9 8.4 2 17.4 1 25.6-2-2.5-4.1-1.6-10.5-3.6-14.5 8.7 0 12.2-4.5 19.2-7.9-1.3-1.6-3.3-3.5-4.5-5.2 7.5-0.5 14.2-4.1 21.5-5.8-3.4-8.6-8.8-17.8-15.9-23.9 13 2.7 27.6 1.7 39.7-3.9-8.6-8.8-13.3-20.3-20.5-30.1 9-4 8.8-11.6 2.3-19.4l9.1-1.1c-0.8-1.2-3.8-6.7-4.2-8.4 18.9 2.3 38 7.3 56.8 3.2-7-6.1-12.5-14.1-18-21.8 9.3 4 20.1 4.2 28.1-2.3-3.7-2.6-6.1-6.3-10.4-8.6 17.3 3.5 33.3 0.1 50-5.3-5.8-7.8-11.1-16.3-15.9-24.8 17.3 7 37.9 0.3 55.6-2.6-5.1-2.8-9.1-8.2-13.8-11.3 9.3 2 19 2.4 27.8-0.3-11.1-6.8-25.7-14.9-35-24.7-10.4-11-14.9-27.9-25.6-38.7-17-17.3-45-27.6-65-43.5-35.6-28.4-89.1-58.1-133.4-38-47 21.3-73 56.3-79.4 106.3-5.7 44.7 10.9 82.9 26.4 124.3 12.3 32.6 14.7 72.2 39.8 98.4 6 6.3 13.5 11.8 21.7 14.7z"/>
			<path id="&lt;Path&gt;" class="s1" d="m497.6 641.5l-0.2-0.1 0.6 0.6z"/>
			<path id="&lt;Path&gt;" class="s3" d="m693.6 405.5c8.6 6.1 18.2 11 28.3 13.8-11.2-14.7-10.5-37.4-20-49.5-8.2-10.3-29.5-25.1-40.2-33.3 0.6 4.3-1.4 10.6 0.4 16.1-12.3-7.8-23.3-18.8-33-29.3 0.2 2.9 0.2 4.3 0.7 7.4-8.3-9.6-15.9-20-24-29.7-0.6 1.7 0.3 4-0.1 5.3-15.1-11.5-32.2-21-47.2-32.4-0.6 2.4-1.2 4.7-1.7 7.2-18.9-5.1-49.6-18.7-63.8-32.3-1.4 3.4-6.4 7.4-7.6 10.9-2.3-1.5-5.9-2.7-8.5-4-8.7 6.4-17.2 15-24.9 22.5-0.7-2.2-0.5-4.3-0.8-6-13.8 5.2-27.3 15.6-35.7 28.3 0.9-5 0.4-9.3 1.7-14.3-23.5 35-40 70.5-43.3 112.8-1.8-1.9-3.9-4-5.5-5.9-1.6 38 17.5 86.8 33.1 120.9-2.4-2.5-5.4-4.8-7.7-7.4 11.7 37.4 15.1 68.7 44.2 99.7-2.2-0.3-4.6-0.6-6.8-0.9 10.3 14.2 27.5 27.5 45.4 34.6 5.9 4 12.5 6.8 19.6 8.2-3.5-2.6-7-7.2-9.9-9.8 3.1 1.2 7.6 1.8 11.1 3-3.9-3.1-6.4-7.7-10.2-11 4.7 0.2 8-1.9 11.8-2.3-20.9-25.1-48.2-44.6-66.3-72.9 2.1 1.1 8.4 2.7 11.5 4.6-4.9-15.5-22.3-27.2-19.4-44.8 3.1 0.7 7 0.4 10.1 1.3-11.8-20.1-29.2-39.7-34.7-62.6 2.3 0.4 5 0.9 7.3 1.3-4.6-13.2-13-25.6-15.1-39.4 1.6 0.1 3.1 1.9 4.6 2-2.2-8.8-4.9-17.9-6.1-26.8 4.5 3.4 11.9 4.6 16.8 7.6-5.6-13.6-19.4-38.1-3.7-48-2.7-2.1-3.5-3.7-6.9-5.6 2.9-2.7 5.3-6.2 9-8.6-1.8-1.9-4.1-4-5.2-6.6 6.3-5.7 12.6-11.1 19-16.5-2.1-0.1-4.3 0.3-6.4 0.1 23.9-18.6 41.9-29.5 70.1-40.5-1.7 1.7-3.4 3.1-4.9 4.8 12-3.1 24.9-4.8 37.7-3.7-0.6 1.1-3.2 1.4-3.8 2.7 45.6 21.1 73.9 26.7 109.9 65.2-1.9 0.3-4-0.1-6 0.3 14.8 11.2 24.8 28.3 42.4 36.5-2.7 2.1-4.9 6.3-7.4 8.2 14.1 6.5 28.9 12.6 43.3 18.2z"/>
			<path id="&lt;Path&gt;" class="s11" d="m557.6 434.3c11.9 1.7 24.9 4.5 35.6-1.5-18.1-11.2-37.6-23.2-57.9-30.5 4 0.6 8.2 0.3 12.1 0.7-7.5-6.5-17.2-12.2-24.7-18.5 5.5-1.7 26.7-3.5 26.7-3.5 0 0-16.8-14-20.5-18.9 15.1 1.8 31.2 6.4 44.9 13.6-9.8-9.1-21.8-16.9-32.3-25.5 4.6-2.9 8.5-9.1 13.4-11.5-10.4 0.3-20.7 1.9-30.6 3.8 2.5-2.4 4.9-6 7.6-8.2-15 2.7-30.1 9.5-38.6 22.8-2.4-11.5-4.7-23.5-5.7-35.3-6 9.1-7.1 22.2-8.6 33.2-8.1-4.1-16.7-9.2-24.5-13 2.3 10.6 6.6 21.8 9.8 32.3-3.9 8.6-9.9 27.3-9.8 37.4 5.6-11.7 19.2-25.2 26.9-27.1-9.2 28.4-14.5 53-12.1 82.9 1.3-3.2 4.5-7.5 5.8-10.8 0.2 18.2-0.9 36.5 3.1 54.1 1.7-7.9 4.4-16 6.3-23.6-3.8 19.6-1.9 46.2 12.6 61.5-1.6-7.8-4.3-15.8-4.8-24.1 0.7 5.5 4.2 10.1 7.4 13.4-3.5-7.3-3.9-19.2-5-28.3 4.5 11.3 16.5 16.8 27.6 20.8-9-14.7-13.1-33.4-13.6-50.5 6.1 9.8 18 16.3 29.3 19.2-2-4.4-1.3-9.4-2.8-13.6 5.4 3.6 12.3 5.2 17.6 8.8-8.5-11.9-17.4-27.1-15.4-42.1 8.1 7.8 18.5 13.2 28.4 18.4-2.4-3-3.2-6.1-5.1-9.3 9.3-0.2 19.5-0.4 28-1.6-11.2-6.2-25.9-13.3-31.1-25.5z"/>
			<path id="&lt;Path&gt;" class="s2" d="m1623.4 627.4c2.2-3.5 3.3-9.2 4.8-12.9-8.4 2-17.3 1-25.6-2 2.5-4.1 1.6-10.5 3.6-14.5-8.7 0-12.2-4.5-19.2-7.9 1.4-1.6 3.3-3.5 4.5-5.2-7.5-0.5-14.2-4.1-21.5-5.8 3.4-8.6 8.8-17.8 16-23.9-13.1 2.7-27.7 1.7-39.8-3.9 8.6-8.8 13.4-20.3 20.5-30.1-9-4-8.8-11.6-2.3-19.4l-9.1-1.1c0.8-1.2 3.8-6.7 4.2-8.4-18.9 2.3-38 7.3-56.8 3.2 7-6.1 12.5-14.1 18-21.8-9.3 4-20.1 4.2-28.1-2.3 3.7-2.6 6.1-6.3 10.4-8.6-17.3 3.5-33.3 0.1-50-5.3 5.8-7.8 11.1-16.3 15.9-24.8-17.3 7-37.9 0.3-55.6-2.6 5.1-2.8 9.1-8.2 13.8-11.3-9.3 2-19 2.4-27.8-0.3 11.1-6.8 25.7-14.9 35-24.7 10.4-11 14.9-27.9 25.6-38.7 17-17.3 45-27.6 65-43.5 35.6-28.4 89.1-58.1 133.4-38 47 21.3 73 56.3 79.4 106.3 5.7 44.7-10.9 82.9-26.4 124.3-12.3 32.6-14.7 72.2-39.8 98.4-6 6.3-13.5 11.8-21.7 14.7z"/>
			<path id="&lt;Path&gt;" class="s1" d="m1624.4 641.5l0.3-0.1-0.7 0.6z"/>
			<path id="&lt;Path&gt;" class="s3" d="m1428.4 405.5c-8.6 6.1-18.2 11-28.3 13.8 11.2-14.7 10.5-37.4 20-49.5 8.2-10.3 29.5-25.1 40.2-33.3-0.6 4.3 1.4 10.6-0.4 16.1 12.3-7.8 23.3-18.8 33.1-29.3-0.2 2.9-0.2 4.3-0.8 7.4 8.3-9.6 15.9-20 24-29.7 0.6 1.7-0.3 4 0.1 5.3 15.1-11.5 32.2-21 47.2-32.4 0.6 2.4 1.2 4.7 1.7 7.2 18.9-5.1 49.7-18.7 63.8-32.3 1.4 3.4 6.4 7.4 7.6 10.9 2.3-1.5 5.9-2.7 8.6-4 8.6 6.4 17.1 15 24.8 22.5 0.7-2.2 0.5-4.3 0.8-6 13.9 5.2 27.3 15.6 35.7 28.3-0.8-5-0.4-9.3-1.7-14.3 23.5 35 40 70.5 43.3 112.8 1.8-1.9 3.9-4 5.5-5.9 1.6 38-17.5 86.8-33.1 120.9 2.4-2.5 5.4-4.8 7.7-7.4-11.7 37.4-15.1 68.7-44.2 99.7 2.2-0.3 4.6-0.6 6.8-0.9-10.3 14.2-27.5 27.5-45.3 34.6-6 4-12.6 6.8-19.7 8.2 3.5-2.6 7-7.2 10-9.8-3.2 1.2-7.7 1.8-11.1 3 3.8-3.1 6.3-7.7 10.1-11-4.6 0.2-8-1.9-11.8-2.3 20.9-25.1 48.2-44.6 66.3-72.9-2.1 1.1-8.4 2.7-11.4 4.6 4.8-15.5 22.2-27.2 19.3-44.8-3.1 0.7-7 0.4-10.1 1.3 11.8-20.1 29.2-39.7 34.7-62.6-2.3 0.4-5 0.9-7.3 1.3 4.6-13.2 13-25.6 15.1-39.4-1.6 0.1-3.1 1.9-4.6 2 2.2-8.8 4.9-17.9 6.1-26.8-4.5 3.4-11.9 4.6-16.8 7.6 5.6-13.6 19.4-38.1 3.7-48 2.7-2.1 3.5-3.7 6.9-5.6-2.9-2.7-5.3-6.2-9-8.6 1.8-1.9 4.1-4 5.2-6.6-6.3-5.7-12.6-11.1-19-16.5 2.1-0.1 4.3 0.3 6.4 0.1-23.9-18.6-41.9-29.5-70.1-40.5 1.7 1.7 3.4 3.1 4.9 4.8-12-3.1-24.9-4.8-37.7-3.7 0.6 1.1 3.2 1.4 3.8 2.7-45.6 21.1-73.9 26.7-109.8 65.2 1.9 0.3 3.9-0.1 5.9 0.3-14.8 11.2-24.8 28.3-42.4 36.5 2.7 2.1 4.9 6.3 7.4 8.2-14 6.5-28.9 12.6-43.3 18.2z"/>
			<path id="&lt;Path&gt;" class="s11" d="m1564.4 434.3c-11.9 1.7-24.9 4.5-35.6-1.5 18.1-11.2 37.6-23.2 57.9-30.5-4 0.6-8.1 0.3-12.1 0.7 7.5-6.5 17.2-12.2 24.7-18.5-5.5-1.7-26.7-3.5-26.7-3.5 0 0 16.8-14 20.5-18.9-15.1 1.8-31.2 6.4-44.9 13.6 9.8-9.1 21.8-16.9 32.3-25.5-4.6-2.9-8.5-9.1-13.4-11.5 10.4 0.3 20.8 1.9 30.7 3.8-2.6-2.4-5-6-7.6-8.2 14.9 2.7 30 9.5 38.5 22.8 2.5-11.5 4.7-23.5 5.7-35.3 6 9.1 7.1 22.2 8.6 33.2 8.1-4.1 16.7-9.2 24.5-13-2.3 10.6-6.6 21.8-9.8 32.3 3.9 8.6 9.9 27.3 9.8 37.4-5.6-11.7-19.2-25.2-26.9-27.1 9.2 28.4 14.5 53 12.1 82.9-1.3-3.2-4.5-7.5-5.8-10.8-0.2 18.2 0.9 36.5-3.1 54.1-1.7-7.9-4.4-16-6.2-23.6 3.7 19.6 1.8 46.2-12.6 61.5 1.5-7.8 4.3-15.8 4.7-24.1-0.7 5.5-4.2 10.1-7.4 13.4 3.5-7.3 3.9-19.2 5-28.3-4.5 11.3-16.5 16.8-27.6 20.8 9-14.7 13.1-33.4 13.7-50.5-6.2 9.8-18.1 16.3-29.4 19.2 2-4.4 1.3-9.4 2.8-13.6-5.4 3.6-12.3 5.2-17.6 8.8 8.5-11.9 17.4-27.1 15.4-42.1-8.1 7.8-18.5 13.2-28.4 18.4 2.4-3 3.2-6.1 5.1-9.3-9.3-0.2-19.5-0.4-28-1.6 11.2-6.2 25.9-13.3 31.1-25.5z"/>
			<path id="&lt;Path&gt;" class="s5" d="m1231.7 980.9c3.6 1.8 8.9 3.1 12.8 5.3-12-17.4-22.4-37.3-38.8-53.2 2.5 0.6 6.5 1 9 1.7-6.4-13.1-19.2-25.1-27.9-37.7 6.1 1.2 14.2 2.1 20 4-15-18.5-40.3-33.7-55.4-51.5 4.5 0.9 9.8 0.5 14.2 1.7l0.8-0.5c-9.5-10.9-28.7-18.9-40.2-28.9 4.3 1.2 10.6 1.7 14.8 3.1-17.1-13.3-54.3-22.1-79.1-26.6l-0.9 0.2-0.9-0.2c-24.8 4.5-62 13.3-79.1 26.6 4.2-1.4 10.5-1.9 14.8-3.1-11.5 10-30.7 18-40.2 28.9l0.8 0.5c4.5-1.2 9.8-0.8 14.2-1.7-15.1 17.8-40.4 33-55.4 51.5 5.8-1.9 13.9-2.8 20-4-8.7 12.6-21.5 24.6-27.9 37.7 2.6-0.7 6.5-1.1 9-1.7-16.4 15.9-26.8 35.8-38.8 53.2 3.9-2.2 9.2-3.5 12.8-5.3-32.6 38-55.8 72.6-44.8 113.2 1.5 0.4 2.8 1.3 3.4 3.3 1.2 4.2 3 8.1 5 11.9l206.2 13.2 0.9-0.1 0.9 0.1 206.2-13.2c2-3.8 3.8-7.7 5-11.9 0.6-2 1.9-2.9 3.4-3.3 11-40.6-12.2-75.2-44.8-113.2z"/>
			<path id="&lt;Path&gt;" class="s10" d="m971.2 1179.9c0 0 11.3 1.2 16.7 13.8 5.3 12.7 24.7 10.7 27.7 0 3-10.6 8.2-37.3-14-45.3-22.3-8-39.1-12.8-46.7 4.4-7.6 17.2 8.9 25.7 16.3 27.1z"/>
			<path id="&lt;Path&gt;" class="s10" d="m1150.8 1179.9c0 0-11.3 1.2-16.7 13.8-5.3 12.7-24.7 10.7-27.7 0-3-10.6-8.2-37.3 14-45.3 22.3-8 39.1-12.8 46.7 4.4 7.6 17.2-8.9 25.7-16.3 27.1z"/>
			<path id="&lt;Path&gt;" class="s3" d="m1195.3 1114.4c-23.3-63.5-88.6 8.2-134.3-9.2v-0.1 0.1c-45.7 17.4-111-54.3-134.3 9.2-12.5 34.1 9.6 64.4 44.5 65.5-31.9-15.5-10-47.7 20.7-30 8.4 4.9 21.6 18.4 21.3 28.4-0.8 25.9-25.1 15.6-25.3 15.4 8.9 45.7 59.6 48.5 73.1 87.8v0.2-0.1 0.1-0.2c13.5-39.3 64.2-42.1 73.1-87.8-0.2 0.2-24.5 10.5-25.3-15.4-0.3-10 12.9-23.5 21.3-28.4 30.8-17.7 52.6 14.5 20.7 30 34.9-1.1 57-31.4 44.5-65.5z"/>
			<path id="&lt;Path&gt;" class="s3" d="m766.7 1225.6c-3.7 7.1-3.7 16 0.9 22.4l1.5 1.9c5.9 6.3 14.3 3.7 17.3-4.4 3-7.9 5.7-21.1 0.2-28.6-6.2-8.6-17 3.2-19.9 8.7z"/>
			<path id="&lt;Path&gt;" class="s3" d="m810.7 1234.6c-2.8 6.2-2.3 13.7 1.9 19l1.4 1.5c5.4 5.1 12.4 2.4 14.5-4.6 2.1-6.9 3.8-18.3-1.3-24.3-5.8-6.9-14.4 3.6-16.5 8.4z"/>
			<path id="&lt;Path&gt;" class="s3" d="m852.1 1254.2l1.2 0.9c4.7 2.8 9.9 0.4 10.8-4.4 0.9-4.7 1-12.3-3.5-15.8-5.2-4-10.8 3.7-12 7.1-1.5 4.3-0.4 9.1 3.5 12.2z"/>
			<path id="&lt;Path&gt;" class="s3" d="m885.7 1251.4l1 0.7c3.7 2.2 7.7 0.3 8.5-3.5 0.7-3.6 0.8-9.6-2.8-12.4-4-3.1-8.5 2.9-9.4 5.6-1.2 3.3-0.3 7.2 2.7 9.6z"/>
			<path id="&lt;Path&gt;" class="s3" d="m908.6 1248.4l0.7 0.5c2.8 1.7 5.9 0.3 6.4-2.5 0.5-2.8 0.6-7.3-2.1-9.4-3-2.3-6.3 2.2-7 4.2-0.9 2.5-0.3 5.4 2 7.2z"/>
			<path id="&lt;Path&gt;" class="s3" d="m769.8 1289.5c-6.8-7.2-15.5 5-17.5 10.5-2.6 6.9-1.6 15.2 3.5 20.7l1.6 1.5c6.2 5.2 13.7 1.8 15.6-6.1 1.7-7.7 2.8-20.3-3.2-26.6z"/>
			<path id="&lt;Path&gt;" class="s3" d="m799.7 1321.8c5.6 4.1 11.8 0.8 12.9-6 1.1-6.6 1.3-17.4-4.1-22.4-6.1-5.7-12.9 5-14.3 9.8-1.8 6-0.6 13 4 17.4z"/>
			<path id="&lt;Path&gt;" class="s3" d="m836.2 1317.1c4.7 2.1 9.2-0.7 9.5-5.2 0.3-4.5-0.5-11.6-5.1-14.3-5.3-3.1-9.6 4.7-10.3 8-0.9 4.1 0.7 8.5 4.6 10.9z"/>
			<path id="&lt;Path&gt;" class="s3" d="m874.3 1306.3c0.2-3.5-0.4-9.1-4-11.2-4.2-2.5-7.6 3.7-8.1 6.3-0.7 3.2 0.5 6.7 3.6 8.6l1 0.5c3.7 1.6 7.3-0.6 7.5-4.2z"/>
			<path id="&lt;Path&gt;" class="s3" d="m784.4 1425.8c-8.8-4.4-12.9 10-13 15.8 0 7.4 3.7 14.9 10.3 18.3l2 0.9c7.7 2.8 13.6-2.9 12.6-11-0.9-7.8-4.2-20-11.9-24z"/>
			<path id="&lt;Path&gt;" class="s3" d="m823.4 1446.2c6.7 1.9 11.4-3.3 10.2-10-1.2-6.7-4.6-16.8-11.4-19.8-7.7-3.3-10.5 9.1-10.2 14.1 0.3 6.3 3.8 12.4 9.6 15z"/>
			<path id="&lt;Path&gt;" class="s3" d="m856.2 1429.5c5.1 0.4 8.4-3.8 7.1-8.2-1.2-4.3-4.3-10.7-9.6-11.7-5.9-1.1-7.4 7.7-7 11 0.6 4.2 3.6 7.8 8.1 8.7z"/>
			<path id="&lt;Path&gt;" class="s3" d="m888.4 1406.4c-1-3.4-3.4-8.4-7.6-9.2-4.7-0.9-5.8 6-5.5 8.6 0.5 3.4 2.8 6.2 6.4 6.9l1.1 0.2c4 0.3 6.6-3 5.6-6.5z"/>
			<path id="&lt;Path&gt;" class="s3" d="m769.6 1358.6c-6.4-6.5-14.2 5-15.9 10.1-2.3 6.5-1.1 14.2 3.7 19.1l1.5 1.4c5.9 4.7 12.8 1.3 14.3-6 1.4-7.2 2.1-18.9-3.6-24.6z"/>
			<path id="&lt;Path&gt;" class="s3" d="m805.6 1361.3c-5.8-5.1-11.8 5-13 9.4-1.6 5.7-0.3 12.1 4.1 16l1.4 1.1c5.2 3.7 10.9 0.5 11.8-5.8 0.9-6.1 0.8-16.1-4.3-20.7z"/>
			<path id="&lt;Path&gt;" class="s3" d="m835.4 1364.5c-5-2.7-8.8 4.6-9.4 7.6-0.7 3.9 0.9 7.9 4.6 10.1l1.2 0.5c4.3 1.8 8.5-0.9 8.6-5.1 0.2-4.1-0.7-10.6-5-13.1z"/>
			<path id="&lt;Path&gt;" class="s3" d="m862.8 1361.5c-3.8-2.1-6.9 3.6-7.3 6-0.6 3.1 0.7 6.3 3.6 7.9l0.9 0.5c3.4 1.4 6.7-0.7 6.8-4.1 0.2-3.2-0.5-8.4-4-10.3z"/>
			<path id="&lt;Path&gt;" class="s3" d="m884.1 1367.2c0.1-2.4-0.4-6.3-2.9-7.7-3-1.6-5.2 2.7-5.6 4.5-0.4 2.3 0.5 4.7 2.7 5.9l0.7 0.3c2.6 1.1 5-0.5 5.1-3z"/>
			<path id="&lt;Path&gt;" class="s3" d="m839 1371.7c0 0-3.3 1.4-9.1 3.7-2.9 1.2-6.4 2.5-10.3 4.4-3.9 1.9-8.4 3.7-13 6.2-4.7 2.5-10 4.8-15.1 8-5.3 3-10.7 6.4-16.2 10-5.6 3.5-10.9 7.8-16.5 11.8-5.3 4.4-11 8.6-15.9 13.5-5.3 4.6-10.1 9.7-14.8 14.7-4.4 5.3-9.2 10.2-12.8 15.7-4 5.2-7.4 10.5-10.6 15.6-3.1 5.2-5.8 10.2-8 15-1.9 4.9-4.2 9.2-5.5 13.3-1.3 4.1-2.8 7.6-3.3 10.6-1.6 6-2.5 9.5-2.5 9.5 0 0 0.5-3.6 1.2-9.7 0.3-3.2 1.4-6.8 2.3-11.1 0.8-4.3 2.7-8.9 4.5-14 1.9-5 4.3-10.4 7.1-15.9q2.3-4.1 4.7-8.3c1.5-2.9 3.6-5.5 5.4-8.4 1.9-2.8 3.9-5.6 6.1-8.3 2.2-2.7 4.3-5.5 6.7-8.1 4.8-5.3 9.7-10.6 15.1-15.4 5.2-5 11-9.2 16.5-13.7 5.8-4.1 11.4-8.2 17.3-11.6 2.9-1.7 5.6-3.5 8.5-5q4.3-2.2 8.5-4.3c5.4-3 10.9-5 15.7-7.2 4.9-2.3 9.7-3.6 13.8-5.1 4.1-1.6 7.7-2.5 10.7-3.3 6-1.7 9.5-2.6 9.5-2.6z"/>
			<path id="&lt;Path&gt;" class="s3" d="m801.2 1372.4c0 0-3.3 0-9 0.1-2.8-0.1-6.2 0.3-10 0.9-2 0.2-4 0.4-6.1 0.8-2.2 0.5-4.4 1-6.8 1.5-4.7 0.8-9.5 2.6-14.7 4.2-2.7 0.7-5.2 2-7.9 3.1-2.6 1.2-5.4 2.1-8 3.5-5.4 2.6-10.9 5.3-16.2 8.6-5.5 2.9-10.7 6.7-16.1 10.1-5.1 3.8-10.4 7.4-15.2 11.4-4.9 4-9.6 8-14.1 12-4.5 4-8.7 8-12.6 11.7-3.9 4-7.7 7.6-10.8 11.2-6.5 7.1-11.9 13.2-15.4 17.6-3.5 4.4-5.6 6.9-5.6 6.9 0 0 1.7-2.8 4.6-7.6 1.4-2.5 3.5-5.3 5.7-8.5 2.1-3.4 4.8-6.9 7.9-10.7 2.9-4 6.5-7.8 10.1-12.1 3.8-4.1 7.8-8.5 12.2-12.7 4.5-4.2 9-8.6 14.1-12.6 4.8-4.2 10.2-7.9 15.5-11.9 5.5-3.5 10.8-7.3 16.6-10.3 5.5-3.3 11.4-5.8 17-8.3 5.7-2.4 11.3-4.4 16.7-5.9 5.5-1.3 10.7-2.8 15.6-3.3q3.6-0.5 7-1c2.2-0.1 4.4-0.1 6.3-0.1 4.1-0.1 7.5-0.2 10.3 0.3 5.6 0.7 8.9 1.1 8.9 1.1z"/>
			<path id="&lt;Path&gt;" class="s3" d="m857.4 1241.5c0 0-4-3-11.1-8.3-3.4-2.7-7.8-5.7-12.9-9.1q-3.8-2.6-8-5.5-4.3-2.7-9.1-5.8c-6.2-4.1-13.3-8.1-20.8-12.4-7.4-4.3-15.5-8.4-23.8-12.8-8.4-4.2-17-8.6-26-12.5-8.9-4.3-18.2-7.9-27.4-11.8-9.3-3.7-18.5-7.5-27.8-10.8-9.2-3.5-18.5-6.5-27.4-9.5-8.9-2.8-17.6-5.6-25.8-8.2-8.2-2.5-16-4.9-23.3-6.8-14.5-4-26.6-7.3-35.1-9.4-8.5-2.2-13.4-3.5-13.4-3.5 0 0 5 0.8 13.7 2.2 4.3 0.7 9.6 1.8 15.6 2.9 6 1.1 12.8 2.5 20.1 4.3 14.8 3.4 31.9 7.6 49.9 13.1 9 2.9 18.4 5.8 27.7 9.2 9.4 3.2 18.8 6.9 28.2 10.5 9.3 4.1 18.6 7.9 27.5 12.3 9.1 4.1 17.7 8.7 26.1 13 8.3 4.6 16.3 9.1 23.6 13.7 7.4 4.7 14.3 9 20.4 13.5q4.7 3.3 8.9 6.3 4.1 3.2 7.7 6.1c4.8 3.8 9 7.1 12.2 10.1 6.6 5.9 10.3 9.2 10.3 9.2z"/>
			<path id="&lt;Path&gt;" class="s3" d="m772.2 1242.9c0 0-6.8-1.7-18.7-4.7-6-1.6-13.3-3.2-21.4-5.8-8.2-2.5-17.5-5.3-27.5-8.6-10-3.2-20.9-6.8-32.4-10.5-11.5-3.4-23.6-7.4-36.2-10.9q-9.5-2.5-19.3-5c-6.6-1.7-13.2-3.6-20-4.8q-10.1-2.1-20.3-4.2l-10.2-2.1-10.4-1.6c-13.8-2.2-27.5-4.9-41.3-6.2-13.6-1.6-27.1-3.5-40.2-4.1-13.1-0.8-25.7-2.2-37.8-2.3-12-0.1-23.4-1-33.9-0.6-10.5 0.2-20.1 0.4-28.6 0.6-8.6 0.1-16 1-22.1 1.4-12.3 0.8-19.3 1.2-19.3 1.2 0 0 6.9-0.9 19.1-2.5 6.2-0.7 13.6-1.9 22.1-2.6 8.6-0.5 18.2-1.1 28.7-1.7 10.6-0.7 22-0.3 34.1-0.5 12.2-0.3 24.9 0.7 38.1 1.4 13.2 0.5 26.8 2.2 40.6 3.7 13.8 1.1 27.7 3.7 41.6 5.8l10.4 1.7 10.4 2.3q10.3 2.2 20.5 4.4c6.8 1.4 13.4 3.3 20 5.1q9.8 2.6 19.3 5.2c12.8 3.6 24.7 8.1 36.2 11.8 11.4 4.1 22.1 8 32.1 11.6 9.8 3.6 18.9 6.8 27 9.7 8 3 15.2 5 21 6.9 11.7 3.8 18.4 5.9 18.4 5.9z"/>
			<path id="&lt;Path&gt;" class="s3" d="m818.4 1245.1c0 0-9.4-1.3-25.9-3.5-8.2-0.7-18.2-1.7-29.7-2.8-11.5-0.6-24.5-1.7-38.7-2.1-14.1-0.8-29.5-1.1-45.8-1.5-16.3-0.2-33.4-0.5-51.2-0.7-17.8-0.4-36-0.9-54.7-0.7q-14 0.1-28.1 0.1-14.1 0.7-28.3 1.5c-18.8 0.4-37.6 2.8-56.1 4.4-9.3 0.7-18.3 2.3-27.4 3.6-9 1.3-17.9 2.7-26.6 4-17.4 3.4-34.2 6.6-50.1 9.9-15.8 3.9-30.7 7.6-44.5 11-13.6 4-26.1 7.7-37.1 10.9-11.2 3.1-20.5 6.8-28.4 9.4-15.7 5.3-24.7 8.3-24.7 8.3 0 0 8.8-3.5 24.3-9.5 7.7-2.9 17-7 28-10.5 11-3.6 23.4-7.7 36.9-12.1 13.7-3.8 28.6-7.8 44.4-12.1 15.9-3.7 32.7-7.4 50.2-10.9q13.2-2 26.8-4.2c9-1.3 18.2-3 27.5-3.8 18.6-1.8 37.5-4.4 56.6-4.9q14.2-0.6 28.5-1.3c9.4 0.1 18.8 0.1 28.1 0.2 18.7-0.1 37.2 0.6 54.8 1 17.8 0.4 35 1.1 51.3 1.7 16.2 0.8 31.6 1.5 45.8 2.5 14.2 0.7 27.2 2.4 38.7 3.4 11.5 1.6 21.5 2.9 29.7 4 16.3 3 25.7 4.7 25.7 4.7z"/>
			<path id="&lt;Path&gt;" class="s3" d="m429.1 1499.1c0 0 4.5-4.8 12.4-13.3 2-2.1 4.1-4.5 6.6-7q3.9-3.6 8.3-7.7 4.5-4.2 9.5-8.8c3.3-3.1 7.2-6 11-9.1 3.9-3.2 7.9-6.5 12.1-9.8q6.6-4.7 13.5-9.8 3.5-2.5 7.1-5 3.7-2.4 7.5-4.9c5-3.3 10.2-6.6 15.5-9.8 10.9-6.2 22-12.8 33.7-18.6 11.6-6.2 23.7-11.6 35.7-17.3 12.3-5.1 24.5-10.4 36.8-15 12.2-4.8 24.3-9 36-13.3 23.5-8.1 45.7-14.9 64.8-20.6 19-5.8 35-10.1 46.2-13.3 11.1-3.1 17.5-4.9 17.5-4.9 0 0-6.2 2.2-17.2 6-10.9 3.8-26.6 9.2-45.4 15.6-9.4 3.3-19.6 6.8-30.3 10.5-10.7 3.8-22 7.9-33.7 12-11.6 4.4-23.7 8.7-35.7 13.7-12.2 4.6-24.2 10.1-36.3 15.2-12 5.6-24.1 10.8-35.6 16.8-11.8 5.6-22.8 12.1-33.6 18q-8 4.8-15.6 9.5-3.8 2.3-7.5 4.5-3.7 2.5-7.2 4.8-7.1 4.8-13.7 9.3c-4.4 3-8.4 6.2-12.4 9.2-3.9 3-7.7 5.8-11.2 8.6q-5.2 4.4-9.9 8.3-4.6 3.8-8.6 7.2c-2.6 2.3-4.9 4.6-7 6.6-8.5 7.9-13.3 12.4-13.3 12.4z"/>
			<path id="&lt;Path&gt;" class="s3" d="m868.1 1303.5c0 0-5.9 2.2-16.2 6-5.2 1.7-11.4 4.1-18.5 6.9-7.1 2.7-15.1 5.8-23.8 9.4-8.8 3.4-18.1 7.5-27.9 11.8-9.9 4.2-20 9.3-30.6 14.2-10.4 5.3-21.4 10.5-32 16.6-10.9 5.7-21.4 12.4-32.1 18.7-10.5 6.9-21.1 13.3-31 20.7-10.1 6.9-19.4 14.6-28.5 21.8-4.6 3.7-8.7 7.7-13 11.3-4.3 3.6-8.4 7.3-12.2 11.1q-5.8 5.6-11.2 10.8c-3.6 3.6-6.8 7.3-10 10.7-3.1 3.5-6.2 6.7-9 9.9q-4.1 5-7.7 9.4-3.7 4.4-6.8 8.2c-2 2.6-3.7 5.1-5.3 7.3-6.5 8.9-10.2 14-10.2 14 0 0 3.3-5.4 9.1-14.7 1.5-2.3 3.1-4.9 5-7.6q2.9-4 6.3-8.7 3.4-4.6 7.2-9.9c2.6-3.4 5.7-6.7 8.7-10.3 3.1-3.6 6.2-7.4 9.6-11.2q5.3-5.4 11-11.3c3.6-4 7.7-7.8 11.9-11.6 4.2-3.9 8.4-7.8 12.9-11.7 9.2-7.4 18.5-15.3 28.7-22.4 9.9-7.6 20.5-14.3 31-21.3 10.9-6.3 21.7-12.9 32.7-18.5 10.8-6 21.9-11.2 32.5-16.4 10.7-4.8 21.1-9.5 31.2-13.4 10-4 19.5-7.8 28.4-10.9 8.8-3.3 17-6 24.3-8.3 7.3-2.3 13.6-4.4 18.9-5.8 10.5-3.1 16.6-4.8 16.6-4.8z"/>
			<path id="&lt;Path&gt;" class="s3" d="m856.3 1419.5c0 0-5.9 2.2-16.2 6-5.2 1.7-11.4 4.1-18.5 6.9-7.1 2.7-15.1 5.9-23.8 9.4-8.7 3.4-18.1 7.5-27.9 11.8-9.9 4.2-19.9 9.4-30.6 14.2-10.4 5.3-21.4 10.5-32 16.6-10.9 5.7-21.4 12.4-32.1 18.7-10.5 6.9-21.1 13.3-30.9 20.7-10.2 6.9-19.5 14.6-28.6 21.8-4.5 3.7-8.7 7.7-13 11.3-4.3 3.6-8.4 7.3-12.2 11.1q-5.8 5.6-11.2 10.8c-3.6 3.6-6.8 7.3-10 10.7-3.1 3.5-6.2 6.7-9 9.9q-4.1 5-7.7 9.4-3.6 4.4-6.8 8.2c-2 2.6-3.7 5.2-5.3 7.3-6.5 8.9-10.2 14-10.2 14 0 0 3.3-5.4 9.1-14.7 1.5-2.3 3.1-4.9 5-7.6q2.9-4.1 6.3-8.7 3.4-4.6 7.2-9.8c2.6-3.4 5.7-6.8 8.7-10.4 3.1-3.6 6.2-7.4 9.7-11.1q5.2-5.5 10.9-11.4c3.7-4 7.7-7.8 11.9-11.6 4.2-3.9 8.5-7.8 12.9-11.7 9.2-7.4 18.6-15.3 28.7-22.4 9.9-7.6 20.6-14.3 31-21.3 10.9-6.3 21.7-12.9 32.7-18.5 10.8-6 21.9-11.2 32.5-16.4 10.7-4.8 21.1-9.5 31.2-13.4 10-4 19.5-7.8 28.4-10.9 8.8-3.3 17-6 24.3-8.3 7.3-2.3 13.6-4.4 18.9-5.8 10.6-3.1 16.6-4.8 16.6-4.8z"/>
			<path id="&lt;Path&gt;" class="s3" d="m762.6 1371.7c0 0-2.1 2.3-5.9 6.4-1.9 2-4.2 4.4-6.8 7.2-2.7 2.7-5.5 6.1-8.7 9.5-3.2 3.4-6.7 7.1-10.2 11.2-3.5 4.1-7.1 8.5-10.9 12.9-4 4.3-7.5 9.3-11.4 14.1-3.7 4.9-7.9 9.6-11.3 14.8-3.6 5.1-7.2 10.2-10.7 15.2-3.3 5.2-6.5 10.3-9.6 15.3q-2.3 3.7-4.5 7.3c-1.5 2.4-2.7 4.9-4 7.3-2.5 4.7-4.8 9.2-7 13.4-2.4 4-3.8 8.1-5.4 11.6-1.6 3.5-2.9 6.5-4 9.1-2.3 5-3.6 7.9-3.6 7.9 0 0 0.9-3.1 2.4-8.4 0.8-2.6 1.8-5.8 2.9-9.5 1.2-3.7 2.2-8 4.3-12.2 1.9-4.4 4-9.1 6.2-14.1 1.2-2.5 2.2-5.1 3.5-7.6q2.1-3.8 4.3-7.7c3-5.1 5.9-10.6 9.2-15.8 3.6-5.2 7.2-10.4 10.8-15.6 3.5-5.3 7.8-10 11.6-14.9 4-4.9 7.8-9.7 12-13.9 4-4.4 8-8.5 11.8-12.4 3.8-3.9 7.6-7.3 11-10.6 6.8-6.7 13.1-11.4 17.3-15 4.3-3.5 6.7-5.5 6.7-5.5z"/>
			<path id="&lt;Path&gt;" class="s3" d="m789.8 1444.4c0 0-2.2 2.3-5.9 6.4-1.9 1.9-4.2 4.4-6.9 7.2-2.7 2.7-5.4 6-8.7 9.5-3.1 3.4-6.6 7.1-10.2 11.2-3.4 4.1-7 8.5-10.9 12.9-4 4.3-7.5 9.3-11.4 14.1-3.7 4.8-7.8 9.5-11.2 14.8-3.6 5.1-7.2 10.2-10.8 15.2-3.2 5.2-6.4 10.3-9.5 15.3q-2.4 3.7-4.6 7.3c-1.5 2.4-2.6 4.9-3.9 7.2-2.5 4.8-4.9 9.3-7.1 13.4-2.4 4.1-3.8 8.2-5.4 11.7-1.5 3.5-2.9 6.5-4 9-2.2 5.1-3.5 8-3.5 8 0 0 0.8-3.1 2.4-8.4 0.8-2.6 1.7-5.8 2.9-9.5 1.2-3.7 2.1-8 4.3-12.3 1.9-4.3 3.9-9 6.2-14 1.1-2.5 2.1-5.1 3.4-7.6 1.4-2.5 2.9-5.1 4.3-7.7 3-5.1 5.9-10.6 9.3-15.8 3.5-5.2 7.1-10.4 10.7-15.6 3.6-5.3 7.8-10.1 11.7-14.9 3.9-4.9 7.8-9.7 11.9-14 4-4.3 8-8.4 11.8-12.4 3.8-3.8 7.7-7.3 11.1-10.5 6.8-6.7 13-11.5 17.2-15.1 4.3-3.4 6.8-5.4 6.8-5.4z"/>
			<path id="&lt;Path&gt;" class="s3" d="m757.6 1305.7c0 0-5.5-0.2-15.2-0.4-2.4-0.1-5.1-0.3-8-0.2-2.9 0-6.1 0.2-9.4 0.3q-5.1 0.2-10.7 0.4-5.6 0.5-11.8 1.1c-4.1 0.4-8.4 0.6-12.8 1.3-4.4 0.7-9 1.4-13.6 2.2-4.7 0.6-9.5 1.7-14.3 2.8-4.8 1.1-9.8 2-14.8 3.3-10 2.7-20.3 5.2-30.5 8.8-10.4 3.2-20.6 7.5-30.8 11.3-10.1 4.4-20.4 8.4-30.1 13.3-9.8 4.6-19.2 9.7-28.3 14.5-8.9 5.2-17.7 10-25.8 15-8.1 4.9-15.8 9.6-22.6 14.3-6.9 4.6-13.2 8.8-18.7 12.7-5.5 3.9-10.3 7.3-14.1 10.2-7.8 5.8-12.3 9.1-12.3 9.1 0 0 4.2-3.7 11.5-10.1 3.6-3.2 8.2-6.9 13.5-11.1q3.9-3.2 8.4-6.7 4.6-3.4 9.7-7.1c6.6-5 14.1-10 22.1-15.3 7.9-5.4 16.5-10.6 25.5-15.9 9.2-5 18.6-10.3 28.5-15 9.7-5.1 20-9.3 30.2-13.9 10.5-3.8 20.9-7.9 31.4-11 10.4-3.5 21-6 31.1-8.6 5.1-1.2 10.1-2.1 15.1-3 4.9-1 9.8-1.8 14.6-2.3q7.1-0.8 13.8-1.6c4.5-0.5 8.8-0.6 13-0.9 4.2-0.1 8.2-0.5 12-0.5q5.7 0.1 10.8 0.3c3.4 0.1 6.6 0.2 9.5 0.3 2.9 0.1 5.6 0.5 8 0.7 9.6 1.1 15.1 1.7 15.1 1.7z"/>
			<path id="&lt;Path&gt;" class="s3" d="m1355.3 1225.6c3.7 7.1 3.7 16-0.9 22.4l-1.5 1.9c-5.9 6.3-14.3 3.7-17.3-4.4-3-7.9-5.7-21.1-0.2-28.6 6.2-8.6 17 3.2 19.9 8.7z"/>
			<path id="&lt;Path&gt;" class="s3" d="m1311.3 1234.6c2.8 6.2 2.3 13.7-1.9 19l-1.4 1.5c-5.4 5.1-12.4 2.4-14.5-4.6-2.1-6.9-3.7-18.3 1.3-24.3 5.8-6.9 14.4 3.6 16.5 8.4z"/>
			<path id="&lt;Path&gt;" class="s3" d="m1269.9 1254.2l-1.2 0.9c-4.7 2.8-9.9 0.4-10.8-4.4-0.9-4.7-1-12.3 3.5-15.8 5.2-4 10.8 3.7 12 7.1 1.5 4.3 0.4 9.1-3.5 12.2z"/>
			<path id="&lt;Path&gt;" class="s3" d="m1236.3 1251.4l-1 0.7c-3.7 2.2-7.7 0.3-8.5-3.5-0.7-3.6-0.8-9.6 2.8-12.4 4.1-3.1 8.5 2.9 9.4 5.6 1.2 3.3 0.3 7.2-2.7 9.6z"/>
			<path id="&lt;Path&gt;" class="s3" d="m1213.4 1248.4l-0.7 0.5c-2.8 1.7-5.8 0.3-6.4-2.5-0.5-2.8-0.6-7.3 2.1-9.4 3-2.3 6.3 2.2 7.1 4.2 0.8 2.5 0.2 5.4-2.1 7.2z"/>
			<path id="&lt;Path&gt;" class="s3" d="m1352.2 1289.5c6.8-7.2 15.5 5 17.5 10.5 2.6 6.9 1.6 15.2-3.5 20.7l-1.6 1.5c-6.2 5.2-13.7 1.8-15.5-6.1-1.8-7.7-2.8-20.3 3.1-26.6z"/>
			<path id="&lt;Path&gt;" class="s3" d="m1322.3 1321.8c-5.6 4.1-11.8 0.8-12.9-6-1.1-6.6-1.3-17.4 4.1-22.4 6.1-5.7 12.9 5 14.3 9.8 1.9 6 0.6 13-4 17.4z"/>
			<path id="&lt;Path&gt;" class="s3" d="m1285.8 1317.1c-4.6 2.1-9.2-0.7-9.5-5.2-0.3-4.5 0.5-11.6 5.1-14.3 5.3-3.1 9.6 4.7 10.3 8 0.9 4.1-0.7 8.5-4.6 10.9z"/>
			<path id="&lt;Path&gt;" class="s3" d="m1247.7 1306.3c-0.2-3.5 0.4-9.1 4-11.2 4.2-2.5 7.6 3.7 8.1 6.3 0.8 3.2-0.5 6.7-3.6 8.6l-1 0.5c-3.7 1.6-7.2-0.6-7.5-4.2z"/>
			<path id="&lt;Path&gt;" class="s3" d="m1337.6 1425.8c8.8-4.4 12.9 10 13 15.8 0 7.4-3.7 14.9-10.3 18.3l-2 0.9c-7.7 2.8-13.6-2.9-12.6-11 0.9-7.8 4.2-20 11.9-24z"/>
			<path id="&lt;Path&gt;" class="s3" d="m1298.6 1446.2c-6.6 1.9-11.4-3.3-10.2-10 1.2-6.7 4.6-16.8 11.4-19.8 7.8-3.3 10.5 9.1 10.2 14.1-0.3 6.3-3.8 12.4-9.6 15z"/>
			<path id="&lt;Path&gt;" class="s3" d="m1265.8 1429.5c-5.1 0.4-8.4-3.8-7.1-8.2 1.2-4.3 4.3-10.7 9.6-11.7 6-1.1 7.4 7.7 7 11-0.6 4.2-3.6 7.8-8.1 8.7z"/>
			<path id="&lt;Path&gt;" class="s3" d="m1233.6 1406.4c1-3.4 3.4-8.4 7.6-9.2 4.7-0.9 5.8 6 5.5 8.6-0.5 3.4-2.8 6.2-6.4 6.9l-1.1 0.2c-4 0.3-6.6-3-5.6-6.5z"/>
			<path id="&lt;Path&gt;" class="s3" d="m1352.4 1358.6c6.4-6.5 14.2 5 15.9 10.1 2.3 6.5 1.1 14.2-3.6 19.1l-1.6 1.4c-5.9 4.7-12.7 1.3-14.3-6-1.4-7.2-2.1-18.9 3.6-24.6z"/>
			<path id="&lt;Path&gt;" class="s3" d="m1316.4 1361.3c5.8-5.1 11.8 5 13 9.4 1.6 5.7 0.3 12.1-4.1 16l-1.4 1.1c-5.2 3.7-10.9 0.5-11.8-5.8-0.9-6.1-0.8-16.1 4.3-20.7z"/>
			<path id="&lt;Path&gt;" class="s3" d="m1286.6 1364.5c5-2.7 8.8 4.6 9.4 7.6 0.7 3.9-0.9 7.9-4.6 10.1l-1.1 0.5c-4.4 1.8-8.5-0.9-8.7-5.1-0.2-4.1 0.7-10.6 5-13.1z"/>
			<path id="&lt;Path&gt;" class="s3" d="m1259.2 1361.5c3.9-2.1 6.9 3.6 7.3 6 0.6 3.1-0.6 6.3-3.5 7.9l-1 0.5c-3.4 1.4-6.7-0.7-6.8-4.1-0.2-3.2 0.5-8.4 4-10.3z"/>
			<path id="&lt;Path&gt;" class="s3" d="m1237.9 1367.2c-0.1-2.4 0.4-6.3 2.9-7.7 3-1.6 5.2 2.7 5.6 4.5 0.4 2.3-0.5 4.7-2.7 5.9l-0.7 0.3c-2.6 1.1-5-0.5-5.1-3z"/>
			<path id="&lt;Path&gt;" class="s3" d="m1283 1371.7c0 0 3.5 0.9 9.5 2.6 3 0.8 6.6 1.7 10.7 3.3 4.1 1.5 8.9 2.8 13.8 5.1 4.8 2.2 10.3 4.2 15.7 7.2q4.2 2.1 8.5 4.3c2.9 1.5 5.6 3.3 8.5 5 5.9 3.4 11.5 7.5 17.3 11.6 5.5 4.5 11.3 8.7 16.5 13.7 5.4 4.8 10.3 10.1 15.1 15.4 2.4 2.6 4.5 5.4 6.7 8.1 2.2 2.7 4.2 5.5 6.1 8.3 1.8 2.9 3.9 5.5 5.5 8.4q2.3 4.2 4.6 8.3c2.8 5.5 5.2 10.9 7.2 15.9 1.7 5.1 3.6 9.7 4.4 14 0.9 4.3 2 7.9 2.3 11.1 0.7 6.1 1.2 9.7 1.2 9.7 0 0-0.9-3.5-2.4-9.5-0.6-3-2.1-6.5-3.4-10.6-1.3-4.1-3.6-8.4-5.5-13.3-2.2-4.8-4.9-9.8-7.9-15-3.3-5.1-6.7-10.4-10.7-15.6-3.6-5.5-8.4-10.4-12.8-15.7-4.7-5-9.5-10.1-14.8-14.7-4.9-4.9-10.6-9.1-15.9-13.5-5.6-4-10.9-8.3-16.5-11.8-5.5-3.6-10.9-7-16.2-10-5.1-3.2-10.4-5.5-15.1-8-4.6-2.5-9.1-4.3-13-6.2-3.9-1.9-7.4-3.2-10.3-4.4-5.8-2.3-9.1-3.7-9.1-3.7z"/>
			<path id="&lt;Path&gt;" class="s3" d="m1320.9 1372.4c0 0 3.2-0.4 8.8-1.1 2.8-0.5 6.3-0.4 10.3-0.3 2 0 4.1 0 6.4 0.1q3.3 0.5 6.9 1c5 0.5 10.1 2 15.6 3.3 5.4 1.5 11 3.5 16.7 5.9 5.6 2.5 11.5 5 17 8.3 5.8 3 11.1 6.8 16.7 10.3 5.2 4 10.6 7.7 15.4 11.9 5.1 4 9.6 8.4 14.1 12.6 4.4 4.2 8.4 8.6 12.2 12.7 3.6 4.3 7.2 8.1 10.1 12.1 3.1 3.8 5.8 7.3 7.9 10.7 2.3 3.2 4.3 6 5.7 8.5 2.9 4.8 4.6 7.6 4.6 7.6 0 0-2.1-2.5-5.6-6.9-3.5-4.4-8.9-10.5-15.3-17.6-3.2-3.6-7-7.2-10.8-11.2-4-3.7-8.2-7.7-12.7-11.7-4.5-4-9.2-8-14.1-12-4.8-4-10.1-7.6-15.2-11.4-5.4-3.4-10.6-7.2-16.1-10.1-5.3-3.3-10.8-6-16.2-8.6-2.6-1.4-5.4-2.3-8-3.5-2.7-1.1-5.2-2.4-7.9-3.1-5.2-1.6-10-3.4-14.7-4.2q-3.5-0.8-6.7-1.5c-2.2-0.4-4.2-0.6-6.1-0.8-3.9-0.6-7.3-1-10.1-0.9-5.7-0.1-8.9-0.1-8.9-0.1z"/>
			<path id="&lt;Path&gt;" class="s3" d="m1264.6 1241.5c0 0 3.7-3.3 10.3-9.2 3.2-3 7.4-6.3 12.2-10.1 2.5-2 5-4 7.7-6.1q4.2-3 8.9-6.3c6.1-4.5 13-8.8 20.4-13.5 7.3-4.6 15.3-9.1 23.6-13.7 8.4-4.3 17-8.9 26.1-13 8.9-4.4 18.2-8.2 27.5-12.3 9.4-3.6 18.8-7.3 28.2-10.5 9.3-3.4 18.7-6.3 27.7-9.2 18-5.5 35.2-9.7 49.9-13.1 7.3-1.8 14.1-3.2 20.1-4.3 6.1-1.1 11.3-2.2 15.6-2.9 8.7-1.4 13.7-2.2 13.7-2.2 0 0-4.9 1.3-13.4 3.5-8.5 2.1-20.6 5.4-35.1 9.4-7.3 1.9-15.1 4.3-23.3 6.8-8.2 2.6-16.9 5.4-25.8 8.2-8.9 3-18.1 6-27.4 9.5-9.3 3.3-18.5 7.1-27.8 10.8-9.2 3.9-18.5 7.5-27.4 11.8-9 3.9-17.6 8.3-26 12.5-8.2 4.4-16.4 8.5-23.8 12.8-7.5 4.3-14.5 8.3-20.8 12.4-3.2 2-6.2 4-9.1 5.8q-4.2 2.9-8 5.5c-5.1 3.4-9.5 6.4-12.9 9.1-7.1 5.3-11.1 8.3-11.1 8.3z"/>
			<path id="&lt;Path&gt;" class="s3" d="m1349.8 1242.9c0 0 6.7-2.1 18.4-5.9 5.8-1.9 13.1-3.9 21-6.9 8.1-2.9 17.2-6.1 27.1-9.7 9.9-3.6 20.6-7.5 32-11.6 11.5-3.7 23.4-8.2 36.2-11.8q9.5-2.6 19.4-5.2c6.5-1.8 13.1-3.7 19.9-5.1q10.2-2.2 20.5-4.4l10.4-2.3 10.4-1.7c13.9-2.1 27.8-4.7 41.7-5.8 13.8-1.5 27.3-3.2 40.5-3.7 13.2-0.7 25.9-1.7 38.1-1.4 12.1 0.2 23.5-0.2 34.1 0.5 10.5 0.6 20.2 1.2 28.7 1.7 8.5 0.7 15.9 1.9 22.1 2.6 12.2 1.6 19.1 2.5 19.1 2.5 0 0-7-0.4-19.3-1.2-6.1-0.4-13.5-1.3-22-1.4-8.6-0.2-18.2-0.4-28.7-0.6-10.5-0.4-21.9 0.5-33.9 0.6-12.1 0.1-24.7 1.5-37.8 2.3-13.1 0.6-26.5 2.5-40.2 4.1-13.7 1.3-27.5 4-41.3 6.2l-10.4 1.6-10.2 2.1q-10.2 2.1-20.3 4.2c-6.8 1.2-13.4 3.1-19.9 4.8q-9.9 2.5-19.4 5c-12.6 3.5-24.7 7.5-36.2 10.9-11.5 3.7-22.3 7.3-32.4 10.5-10 3.3-19.3 6.1-27.5 8.6-8.1 2.6-15.4 4.2-21.4 5.8-11.9 3-18.7 4.7-18.7 4.7z"/>
			<path id="&lt;Path&gt;" class="s3" d="m1303.7 1245.1c0 0 9.3-1.7 25.6-4.7 8.2-1.1 18.2-2.4 29.7-4 11.5-1 24.5-2.7 38.7-3.4 14.2-1 29.6-1.7 45.8-2.5 16.3-0.6 33.5-1.3 51.3-1.7 17.7-0.4 36.1-1.1 54.8-1q14-0.1 28.1-0.2 14.3 0.7 28.5 1.3c19.1 0.5 38 3.1 56.6 4.9 9.3 0.8 18.5 2.5 27.5 3.8q13.6 2.2 26.8 4.2c17.5 3.5 34.3 7.2 50.2 10.9 15.8 4.3 30.7 8.3 44.4 12.1 13.5 4.4 25.9 8.5 36.9 12.1 11 3.5 20.3 7.6 28.1 10.5 15.4 6 24.2 9.5 24.2 9.5 0 0-9-3-24.7-8.3-7.9-2.6-17.2-6.3-28.3-9.4-11.1-3.2-23.6-6.9-37.2-10.9-13.8-3.4-28.7-7.1-44.4-11-16-3.3-32.8-6.5-50.1-9.9-8.8-1.3-17.7-2.7-26.7-4-9-1.3-18.1-2.9-27.4-3.6-18.5-1.6-37.3-4-56.1-4.4q-14.2-0.8-28.2-1.5-14.2 0-28.2-0.1c-18.7-0.2-36.9 0.3-54.7 0.7-17.8 0.2-34.9 0.5-51.2 0.7-16.3 0.4-31.7 0.7-45.8 1.5-14.2 0.4-27.2 1.5-38.7 2.1-11.5 1.1-21.5 2.1-29.7 2.8-16.5 2.2-25.8 3.5-25.8 3.5z"/>
			<path id="&lt;Path&gt;" class="s3" d="m1693 1499.1c0 0-4.9-4.5-13.4-12.4-2.1-2-4.4-4.3-7-6.6q-4-3.4-8.6-7.2-4.7-3.9-9.9-8.3c-3.5-2.8-7.3-5.6-11.2-8.6-4-3-8-6.2-12.4-9.2q-6.6-4.5-13.7-9.3-3.5-2.3-7.1-4.8-3.8-2.2-7.6-4.5c-5.1-3.1-10.3-6.3-15.6-9.5-10.8-5.9-21.8-12.4-33.6-18-11.5-6-23.6-11.2-35.6-16.8-12.1-5.1-24.1-10.6-36.3-15.2-12-5-24.1-9.3-35.7-13.7-11.7-4.1-23-8.2-33.7-12-10.7-3.7-20.9-7.2-30.3-10.5-18.8-6.4-34.5-11.8-45.4-15.6-11-3.8-17.2-6-17.2-6 0 0 6.4 1.8 17.5 4.9 11.2 3.2 27.2 7.5 46.2 13.3 19.1 5.7 41.3 12.5 64.8 20.6 11.7 4.3 23.9 8.5 36 13.3 12.3 4.6 24.5 9.9 36.8 15 12 5.7 24.1 11.1 35.7 17.3 11.7 5.8 22.8 12.4 33.7 18.6 5.3 3.2 10.5 6.5 15.5 9.8q3.8 2.5 7.5 4.9 3.6 2.5 7.1 5 6.9 5.1 13.5 9.8c4.3 3.3 8.2 6.6 12.1 9.8 3.9 3.1 7.7 6 11 9.1q5 4.6 9.5 8.8 4.4 4.1 8.3 7.7c2.5 2.5 4.6 4.9 6.6 7 7.9 8.5 12.5 13.3 12.5 13.3z"/>
			<path id="&lt;Path&gt;" class="s3" d="m1253.9 1303.5c0 0 6.1 1.7 16.6 4.8 5.3 1.4 11.6 3.5 18.9 5.8 7.3 2.3 15.5 5 24.3 8.3 8.9 3.1 18.4 6.9 28.4 10.9 10.1 3.9 20.5 8.6 31.2 13.4 10.6 5.2 21.7 10.4 32.5 16.4 11 5.6 21.8 12.2 32.7 18.5 10.5 7 21.1 13.7 31 21.3 10.2 7.1 19.5 15 28.7 22.4 4.5 3.9 8.7 7.8 12.9 11.7 4.2 3.8 8.3 7.6 11.9 11.6q5.7 5.9 11 11.3c3.4 3.8 6.5 7.6 9.6 11.2 3 3.6 6.1 6.9 8.7 10.3q3.8 5.3 7.2 9.9 3.4 4.7 6.4 8.7c1.8 2.7 3.4 5.3 4.9 7.6 5.8 9.3 9.1 14.7 9.1 14.7 0 0-3.7-5.1-10.2-14-1.6-2.2-3.3-4.7-5.3-7.3q-3.1-3.8-6.8-8.2-3.6-4.4-7.7-9.4c-2.8-3.2-5.9-6.4-9-9.9-3.2-3.4-6.4-7.1-10-10.7q-5.4-5.2-11.2-10.8c-3.8-3.8-7.9-7.5-12.2-11.1-4.3-3.6-8.4-7.6-12.9-11.3-9.2-7.2-18.5-14.9-28.6-21.8-9.9-7.4-20.5-13.8-31-20.7-10.6-6.3-21.2-13-32.1-18.7-10.6-6.1-21.5-11.3-32-16.6-10.6-4.9-20.7-10-30.6-14.2-9.8-4.3-19.1-8.4-27.9-11.8-8.7-3.6-16.7-6.7-23.8-9.4-7.1-2.8-13.3-5.2-18.5-6.9-10.3-3.8-16.2-6-16.2-6z"/>
			<path id="&lt;Path&gt;" class="s3" d="m1265.7 1419.5c0 0 6 1.7 16.6 4.8 5.3 1.4 11.6 3.5 18.9 5.8 7.3 2.3 15.5 5 24.3 8.3 8.9 3.1 18.4 6.9 28.4 10.9 10.1 3.9 20.5 8.6 31.2 13.4 10.6 5.2 21.7 10.4 32.5 16.4 11 5.6 21.8 12.2 32.7 18.5 10.5 7 21.1 13.7 31 21.3 10.2 7.1 19.5 15 28.7 22.4 4.4 3.9 8.7 7.8 12.9 11.7 4.2 3.8 8.2 7.6 11.9 11.6q5.7 5.9 11 11.4c3.4 3.7 6.5 7.5 9.6 11.1 3 3.6 6.1 7 8.7 10.4q3.8 5.2 7.2 9.8 3.4 4.6 6.3 8.7c1.9 2.7 3.5 5.3 5 7.6 5.8 9.3 9.1 14.7 9.1 14.7 0 0-3.7-5.1-10.2-14-1.6-2.1-3.3-4.7-5.3-7.3q-3.1-3.8-6.8-8.2-3.6-4.4-7.7-9.4c-2.8-3.2-5.9-6.4-9-9.9-3.2-3.4-6.4-7.1-10-10.7q-5.4-5.2-11.2-10.8c-3.8-3.8-7.9-7.5-12.2-11.1-4.3-3.6-8.5-7.6-13-11.3-9.1-7.2-18.4-14.9-28.5-21.8-9.9-7.4-20.5-13.8-31-20.7-10.7-6.3-21.2-13-32.1-18.7-10.6-6.1-21.6-11.3-32-16.6-10.6-4.8-20.7-10-30.6-14.2-9.8-4.3-19.1-8.4-27.9-11.8-8.7-3.5-16.7-6.7-23.8-9.4-7.1-2.8-13.3-5.2-18.5-6.9-10.3-3.8-16.2-6-16.2-6z"/>
			<path id="&lt;Path&gt;" class="s3" d="m1359.4 1371.7c0 0 2.4 2 6.7 5.5 4.2 3.6 10.5 8.3 17.3 15 3.4 3.3 7.2 6.7 11.1 10.6 3.7 3.9 7.7 8 11.7 12.4 4.2 4.2 8 9 12 13.9 3.8 4.9 8.1 9.6 11.6 14.9 3.6 5.2 7.2 10.4 10.8 15.6 3.4 5.2 6.2 10.7 9.2 15.8q2.2 3.9 4.3 7.7c1.3 2.5 2.4 5.1 3.5 7.6 2.2 5 4.3 9.7 6.2 14.1 2.1 4.2 3.1 8.5 4.3 12.2 1.1 3.7 2.1 6.9 2.9 9.5 1.5 5.3 2.4 8.4 2.4 8.4 0 0-1.3-2.9-3.6-7.9-1.1-2.6-2.4-5.6-4-9.1-1.6-3.5-3-7.6-5.4-11.6-2.1-4.2-4.5-8.7-7-13.4-1.3-2.4-2.5-4.9-4-7.3q-2.2-3.6-4.5-7.3c-3.1-5-6.3-10.1-9.6-15.3q-5.3-7.5-10.7-15.2c-3.4-5.2-7.6-9.9-11.3-14.8-3.9-4.8-7.4-9.8-11.3-14.1-3.9-4.4-7.5-8.8-11-12.9-3.5-4.1-7-7.8-10.2-11.2-3.2-3.4-6-6.8-8.7-9.5-2.6-2.8-4.9-5.2-6.8-7.2-3.8-4.1-5.9-6.4-5.9-6.4z"/>
			<path id="&lt;Path&gt;" class="s3" d="m1332.2 1444.4c0 0 2.5 2 6.8 5.4 4.2 3.6 10.4 8.4 17.2 15.1 3.4 3.2 7.3 6.7 11.1 10.5 3.8 4 7.8 8.1 11.8 12.4 4.1 4.3 8 9.1 11.9 14 3.9 4.8 8.2 9.6 11.7 14.9 3.6 5.2 7.2 10.4 10.7 15.6 3.4 5.2 6.3 10.7 9.3 15.8 1.4 2.6 2.9 5.2 4.3 7.7 1.3 2.5 2.3 5.1 3.4 7.6 2.3 5 4.3 9.7 6.2 14 2.2 4.3 3.2 8.6 4.4 12.3 1.1 3.7 2 6.9 2.9 9.5 1.5 5.3 2.4 8.4 2.4 8.4 0 0-1.4-2.9-3.6-8-1.1-2.5-2.5-5.5-4-9-1.6-3.5-3-7.6-5.4-11.7-2.2-4.1-4.6-8.6-7.1-13.4-1.2-2.3-2.4-4.8-3.9-7.2q-2.2-3.6-4.6-7.3c-3.1-5-6.3-10.1-9.5-15.3-3.5-5-7.2-10.1-10.8-15.2-3.4-5.3-7.5-10-11.2-14.8-3.9-4.8-7.4-9.8-11.4-14.1-3.8-4.4-7.4-8.8-10.9-12.9-3.6-4.1-7.1-7.8-10.2-11.2-3.3-3.5-6-6.8-8.7-9.5-2.7-2.8-5-5.3-6.9-7.2-3.7-4.1-5.9-6.4-5.9-6.4z"/>
			<path id="&lt;Path&gt;" class="s3" d="m1364.4 1305.7c0 0 5.5-0.6 15.1-1.7 2.4-0.2 5.1-0.6 8-0.7q4.4-0.2 9.5-0.3 5.1-0.2 10.8-0.3c3.8 0 7.8 0.4 12 0.5 4.2 0.3 8.5 0.4 13 0.9q6.7 0.8 13.8 1.6c4.8 0.5 9.7 1.3 14.6 2.3 5 0.9 10 1.8 15.1 3 10.1 2.6 20.7 5.1 31.1 8.6 10.6 3.1 20.9 7.2 31.4 11 10.2 4.6 20.5 8.8 30.2 13.9 9.9 4.7 19.3 10 28.5 15 9 5.3 17.6 10.5 25.5 15.9 8 5.3 15.5 10.3 22.2 15.3q5 3.7 9.6 7.1 4.5 3.5 8.4 6.7c5.3 4.2 9.9 7.9 13.5 11.1 7.3 6.4 11.5 10.1 11.5 10.1 0 0-4.5-3.3-12.3-9.1-3.8-2.9-8.6-6.3-14.1-10.2-5.5-3.9-11.8-8.1-18.7-12.7-6.8-4.7-14.5-9.4-22.6-14.3-8-5-16.8-9.8-25.8-15-9.1-4.8-18.5-9.9-28.3-14.5-9.7-4.9-20-8.9-30-13.3-10.3-3.8-20.5-8.1-30.9-11.3-10.2-3.6-20.5-6.1-30.5-8.8-5-1.3-10-2.2-14.8-3.3-4.8-1.1-9.6-2.2-14.3-2.8q-7-1.1-13.6-2.2c-4.4-0.7-8.7-0.9-12.8-1.3q-6.2-0.6-11.8-1.1-5.6-0.2-10.7-0.4c-3.3-0.1-6.5-0.3-9.4-0.3-2.9-0.1-5.6 0.1-8 0.2-9.7 0.2-15.2 0.4-15.2 0.4z"/>
			<path id="&lt;Path&gt;" class="s2" d="m936.4 801.3c-1.6-23.6-3.7-32 0.1-60.1 5-37.7 23.2-80 23.2-80-51.7 75.3-29.2 125.6-23.3 140.1z"/>
			<path id="&lt;Path&gt;" class="s2" d="m1162.3 661.2c0 0 18.2 42.3 23.2 80 3.8 28.1 1.7 36.5 0.1 60.1 5.9-14.5 28.4-64.8-23.3-140.1z"/>
			<path id="&lt;Path&gt;" class="s2" d="m912 674.5c4.6-18.9 19-45.9 10.5-64-1.8 1.8-4.5 4-6.4 5.7-0.8-16.3-0.2-33.6-4.8-49.1-2.8 4.4-8.7 7.6-11.4 11.8-3.7-19.8-9.4-39.8-18.2-58-10.8 7.3-18.9 17.9-28.9 26.1 0.9-4-0.1-8.9 0.6-13.1-16.7 11.2-31.7 28.3-38.8 47.3 0.8-5.2-1.9-8.7-1.2-13.8-15.6 17.9-30.6 42.7-29 67.4-1.3-4-7.4-6.3-7.7-16-3.2 16.5-2.2 34.6 1.3 50.9-1.8-0.2-2.5-2.5-4-2.9 2.7 11.1 9.3 20.6 17.1 28.9l-1.7-6.7c4.3 14.3 24.3 22.8 39 23.5-3.5-3.9-3.6-2.4-5.9-7.2 15.4 3.6 26.4 7.2 43.7 2.3-3-2-1.3-1.7-3.7-3.6 19.8-2.4 36.2-5.9 53.3-30.1-2 0.3-2.6 1.6-3.8 0.6z"/>
			<path id="&lt;Path&gt;" class="s2" d="m1210 674.5c-4.6-18.9-19-45.9-10.5-64 1.8 1.8 4.5 4 6.4 5.7 0.8-16.3 0.2-33.6 4.8-49.1 2.8 4.4 8.7 7.6 11.4 11.8 3.7-19.8 9.4-39.8 18.2-58 10.8 7.3 18.9 17.9 28.9 26.1-0.9-4 0.1-8.9-0.6-13.1 16.7 11.2 31.8 28.3 38.8 47.3-0.8-5.2 1.9-8.7 1.2-13.8 15.6 17.9 30.7 42.7 29 67.4 1.3-4 7.4-6.3 7.7-16 3.2 16.5 2.2 34.6-1.3 50.9 1.8-0.2 2.5-2.5 4-2.9-2.7 11.1-9.3 20.6-17.1 28.9l1.7-6.7c-4.3 14.3-24.3 22.8-39 23.5 3.5-3.9 3.6-2.4 5.9-7.2-15.4 3.6-26.3 7.2-43.7 2.3 3-2 1.3-1.7 3.7-3.6-19.8-2.4-36.2-5.9-53.3-30.1 2 0.3 2.6 1.6 3.8 0.6z"/>
		</g>
	</g>
</svg>