<svg version="1.2" xmlns="http://www.w3.org/2000/svg" viewBox="0 0 2122 2122" width="100">
	<style>
		.s0 { fill: #fefefe } 
		.s1 { fill: #fec957 } 
		.s2 { fill: #ffdeaa } 
		.s3 { fill: #171716 } 
		.s4 { fill: #e6ab59 } 
		.s5 { fill: #fedc98 } 
		.s6 { fill: #53300e } 
		.s7 { fill: #f58d24 } 
		.s8 { fill: #faac3a } 
		.s9 { fill: #000000 } 
		.s10 { fill: #020201 } 
		.s11 { fill: #e39144 } 
	</style>
	<g id="tiger">
		<g id="face_back">
			<path id="&lt;Path&gt;" class="s1" d="m1877 1261.1c-10.8-58.8-12.5-120.6-34.2-177.6 2.8 4.3 4.4 8 6.9 12.5-13.9-36.5-26.2-73.9-46-107.9 4.4 3.3 8.1 7.9 12.3 11.3-17.6-40.8-34.5-82.1-54.6-121.7-17.4-34.5-54.3-70.8-67.1-105.1-12-32.1-1.7-72.4-14.9-107.2-12.2-32.4-33.5-60.6-56.8-85.9-51.9-56.3-109.3-40.7-172.9-66.5-46.3-18.8-122.5-112.9-176.3-103.4 1.9-0.4 3.9-0.8 5.6-1.1-43.7-18.7-92.6-35.2-138.2-39.1 1.3 0 4.5-0.7 6.5-0.7-28.3-5.4-57.1-10.1-86.2-11.4-29.1 1.3-57.9 6-86.2 11.4 2 0 5.2 0.7 6.5 0.7-45.6 3.9-94.5 20.4-138.2 39.1 1.7 0.3 3.8 0.7 5.6 1.1-30.1-5.3-96.5 50-121 65.8-45.9 29.6-76.7 30.8-129 44.4-39.7 10.3-64 35.1-92.6 63.2-62.8 61.7-52.2 122.1-81.3 192-31.3 75.3-85.4 147.3-118.7 224.4 4.2-3.4 7.9-8 12.3-11.3-19.8 34-32.1 71.4-46 107.9 2.5-4.5 4.2-8.2 6.9-12.5-21.7 57-23.4 118.8-34.2 177.6 3.3-8.5 8.3-17.9 11.4-26.4-4.1 58.4-3.3 119 9.7 175.8 0.6-4.1 2.6-13.1 4.3-18.8-0.7 45.1 16.7 101.3 27.8 149.4 0.4-1 0.4-6.1 0.3-8.7 15 47 37.2 90.8 60.2 133.3 0.6-1.2 0.7-7.2 0.4-10 20.8 41.9 44.9 82.7 69.4 122.5q0 1.6 1.2 2.5c-0.3 0.1-5.1-12.7-5.6-14 6.1 16.3 19.8 25 31.7 36.7 9.6-10.3 24.4-14.8 32.6-22.8 1.7 0 0.3 6.2-1 6.9 14.9-6.5 33.1-10.3 48.2-17.8 0.9 0.2-2.3 5.6-2.3 5.6 34.4-8.1 70.9-20.4 106.5-24.7-3.1 6.9-6.4 13.5-8.7 20.1 44-10.8 91.2-18.8 136-30-6.9 7-13.7 16.9-19.9 23.1 16.1-4.3 36.3-3.8 52.4-9.1-0.5 2.1-9 9.6-8.2 11.4 37.1-6.8 74.3-21.3 110.6-29.5-5.8 7.9-10.6 17.8-15.2 24.8 58.3-2.7 119.6-40.3 174.1-64.7 54.5 24.4 115.8 62 174.1 64.7-4.6-7-9.4-16.9-15.2-24.8 36.3 8.2 73.5 22.7 110.6 29.5 0.8-1.8-7.7-9.3-8.2-11.4 16.1 5.3 36.3 4.8 52.4 9.1-6.2-6.2-13-16.1-19.9-23.1 44.8 11.2 92 19.2 136.1 30-2.4-6.6-5.7-13.2-8.8-20.1 35.6 4.3 72.1 16.6 106.5 24.7 0 0-3.2-5.4-2.3-5.6 15.1 7.5 33.4 11.3 48.2 17.8-1.3-0.7-2.7-6.9-1-6.9 8.2 8 23 12.5 32.6 22.8 11.9-11.7 25.6-20.4 31.7-36.7-0.4 1.3-5.3 14.1-5.6 14q1.2-0.9 1.2-2.5c24.4-39.8 48.7-80.6 69.4-122.5-0.3 2.8-0.2 8.8 0.4 10 23-42.5 45.2-86.3 60.2-133.3-0.1 2.6-0.1 7.7 0.3 8.7 11.1-48.1 28.5-104.3 27.8-149.4 1.7 5.7 3.7 14.7 4.3 18.8 13-56.8 13.8-117.4 9.7-175.8 3.1 8.5 8.1 17.9 11.4 26.4z"/>
			<path id="&lt;Path&gt;" class="s2" d="m424.7 798.2c-3-4.7-4.6-12.5-6.5-17.6 11.5 2.7 23.7 1.4 35-2.8-3.4-5.5-2.2-14.3-5-19.8 11.9 0.1 16.7-6.1 26.3-10.8-1.8-2.2-4.5-4.8-6.2-7.2 10.4-0.5 19.5-5.6 29.5-7.8-4.6-11.8-12-24.4-21.8-32.8 17.8 3.7 37.8 2.4 54.5-5.3-11.9-12-18.4-27.8-28.2-41.2 12.4-5.4 12.1-15.9 3.2-26.6l12.4-1.4c-1-1.8-5.1-9.3-5.7-11.6 25.9 3.2 52 10.1 77.7 4.4-9.5-8.3-17.1-19.2-24.6-29.8 12.7 5.4 27.5 5.7 38.4-3.2-5-3.5-8.3-8.7-14.1-11.7 23.6 4.8 45.6 0.1 68.4-7.4-7.9-10.6-15.2-22.2-21.8-33.9 23.7 9.6 51.9 0.5 76.2-3.5-7-3.8-12.5-11.2-18.9-15.5 12.8 2.7 25.9 3.3 38-0.4-15.1-9.3-35.2-20.4-47.9-33.8-14.3-15.1-20.4-38.2-35.1-53.1-23.2-23.5-61.6-37.6-88.9-59.4-48.7-38.9-121.9-79.6-182.6-52.1-64.3 29.2-100 77.1-108.7 145.5-7.8 61.3 14.8 113.6 36.1 170.2 16.8 44.6 20.2 98.9 54.5 134.7 8.2 8.6 18.5 16.2 29.7 20.1z"/>
			<path id="&lt;Path&gt;" class="s1" d="m423.4 817.6l-0.4-0.2 1 0.8z"/>
			<path id="&lt;Path&gt;" class="s3" d="m691.6 494.4c11.8 8.5 24.9 15.2 38.8 19-15.2-20.1-14.3-51.3-27.4-67.8-11.2-14-40.3-34.4-55-45.5 0.8 5.8-1.9 14.5 0.6 22-16.9-10.7-32-25.8-45.3-40.1 0.3 4 0.3 5.9 1 10.1-11.4-13.2-21.7-27.4-32.8-40.7-0.8 2.3 0.3 5.6-0.1 7.3-20.7-15.8-44.2-28.7-64.7-44.4-0.8 3.3-1.6 6.4-2.3 9.8-25.9-6.9-68-25.5-87.4-44.1-1.9 4.7-8.7 10.1-10.4 14.9-3.1-2-8.1-3.7-11.7-5.5-11.8 8.8-23.4 20.5-34 30.8-0.9-3-0.6-5.9-1.1-8.2-18.9 7.1-37.3 21.4-48.8 38.7 1.1-6.8 0.5-12.7 2.3-19.5-32.2 47.8-54.8 96.4-59.3 154.4-2.4-2.6-5.3-5.5-7.5-8-2.2 51.9 24 118.8 45.2 165.4-3.2-3.5-7.3-6.5-10.5-10.1 16 51.2 20.7 94 60.5 136.5-3-0.4-6.2-0.8-9.3-1.2 14.2 19.4 37.8 37.7 62.1 47.4 8.1 5.5 17.2 9.2 26.9 11.1-4.8-3.5-9.5-9.9-13.6-13.4 4.4 1.7 10.4 2.6 15.2 4.1-5.3-4.2-8.7-10.5-13.9-15 6.4 0.3 10.9-2.7 16.2-3.1-28.6-34.4-66-61.1-90.8-99.9 2.9 1.6 11.5 3.7 15.7 6.3-6.6-21.2-30.5-37.2-26.5-61.3 4.3 1 9.6 0.6 13.8 1.8-16.2-27.6-40-54.4-47.5-85.7 3.2 0.6 6.8 1.2 10 1.8-6.3-18.1-17.8-35.1-20.7-53.9 2.2 0 4.3 2.6 6.3 2.7-2.9-12.2-6.7-24.6-8.4-36.7 6.3 4.6 16.3 6.3 23.1 10.4-7.6-18.6-26.5-52.2-5.1-65.7-3.6-3-4.8-5.1-9.5-7.7 4-3.7 7.3-8.5 12.4-11.7-2.5-2.6-5.7-5.5-7.1-9.1 8.6-7.8 17.2-15.2 26-22.6-2.8-0.2-5.9 0.4-8.8 0.1 32.7-25.5 57.4-40.3 95.9-55.4-2.2 2.3-4.5 4.3-6.6 6.6 16.4-4.3 34-6.6 51.5-5.1-0.8 1.5-4.2 1.9-5.1 3.7 62.4 28.9 101.2 36.5 150.4 89.3-2.6 0.3-5.5-0.2-8.1 0.4 20.2 15.2 33.9 38.8 58 49.9-3.8 3-6.7 8.7-10.2 11.3 19.3 8.9 39.6 17.3 59.3 24.9z"/>
			<path id="&lt;Path&gt;" class="s4" d="m505.5 533.9c16.3 2.3 34 6.2 48.7-2-24.7-15.4-51.4-31.8-79.3-41.7 5.5 0.8 11.2 0.3 16.6 0.9-10.3-8.9-23.5-16.8-33.8-25.3 7.5-2.4 36.6-4.8 36.6-4.8 0 0-23-19.1-28.1-25.9 20.7 2.4 42.7 8.8 61.5 18.6-13.5-12.5-29.8-23.1-44.2-34.8 6.3-4 11.6-12.6 18.3-15.9-14.2 0.5-28.4 2.6-42 5.2 3.5-3.2 6.8-8.1 10.4-11.2-20.4 3.6-41.1 13.1-52.8 31.3-3.3-15.8-6.4-32.3-7.8-48.4-8.2 12.4-9.7 30.4-11.7 45.4-11.1-5.5-22.8-12.5-33.6-17.8 3.2 14.6 9.1 29.9 13.5 44.3-5.3 11.7-13.6 37.4-13.5 51.2 7.7-16 26.4-34.6 36.9-37.1-12.7 38.9-19.9 72.5-16.6 113.4 1.9-4.3 6.2-10.2 8-14.7 0.2 24.9-1.3 49.9 4.2 74 2.4-10.8 6-21.9 8.5-32.3-5 26.9-2.4 63.3 17.3 84.3-2.1-10.8-5.9-21.7-6.5-33.1 0.9 7.5 5.7 13.9 10.1 18.4-4.7-9.9-5.3-26.2-6.9-38.7 6.2 15.4 22.6 22.9 37.9 28.4-12.4-20.1-18-45.8-18.7-69.2 8.4 13.5 24.7 22.5 40.2 26.3-2.7-5.9-1.9-12.8-3.9-18.5 7.5 4.9 16.8 7 24.1 12-11.6-16.3-23.7-37.2-21.1-57.6 11.1 10.7 25.3 18 38.9 25.2-3.2-4.1-4.3-8.4-6.9-12.7 12.6-0.3 26.6-0.6 38.2-2.3-15.2-8.5-35.4-18.2-42.5-34.9z"/>
			<path id="&lt;Path&gt;" class="s2" d="m1697.5 798.2c3-4.7 4.6-12.5 6.5-17.6-11.5 2.7-23.7 1.4-35-2.8 3.4-5.5 2.2-14.3 5-19.8-12 0.1-16.7-6.1-26.3-10.8 1.8-2.2 4.5-4.8 6.2-7.2-10.4-0.5-19.5-5.6-29.5-7.8 4.6-11.8 12-24.4 21.8-32.8-17.8 3.7-37.8 2.4-54.5-5.3 11.9-12 18.4-27.8 28.2-41.2-12.4-5.4-12.1-15.9-3.2-26.6l-12.4-1.4c1-1.8 5.1-9.3 5.8-11.6-26 3.2-52.1 10.1-77.8 4.4 9.5-8.3 17.1-19.2 24.7-29.8-12.8 5.4-27.6 5.7-38.5-3.2 5-3.5 8.3-8.7 14.1-11.7-23.6 4.8-45.6 0.1-68.4-7.4 7.9-10.6 15.2-22.2 21.8-33.9-23.7 9.6-51.9 0.5-76.2-3.5 7-3.8 12.5-11.2 18.9-15.5-12.7 2.7-25.9 3.3-38-0.4 15.1-9.3 35.2-20.4 47.9-33.8 14.3-15.1 20.4-38.2 35.1-53.1 23.2-23.5 61.6-37.6 88.9-59.4 48.7-38.9 122-79.6 182.7-52.1 64.2 29.2 99.9 77.1 108.6 145.5 7.8 61.3-14.8 113.6-36.1 170.2-16.8 44.6-20.2 98.9-54.5 134.7-8.2 8.6-18.5 16.2-29.7 20.1z"/>
			<path id="&lt;Path&gt;" class="s1" d="m1698.8 817.6l0.4-0.2-1 0.8z"/>
			<path id="&lt;Path&gt;" class="s3" d="m1430.6 494.4c-11.8 8.5-24.9 15.2-38.8 19 15.3-20.1 14.3-51.3 27.4-67.8 11.2-14 40.3-34.4 55-45.5-0.8 5.8 1.9 14.5-0.6 22 16.9-10.7 32-25.8 45.3-40.1-0.3 4-0.3 5.9-1 10.1 11.4-13.2 21.7-27.4 32.9-40.7 0.8 2.3-0.4 5.6 0 7.3 20.7-15.8 44.2-28.7 64.7-44.4 0.9 3.3 1.7 6.4 2.3 9.8 25.9-6.9 68-25.5 87.4-44.1 1.9 4.7 8.7 10.1 10.4 14.9 3.1-2 8.1-3.7 11.7-5.5 11.8 8.8 23.4 20.5 34 30.8 0.9-3 0.6-5.9 1.1-8.2 18.9 7.1 37.3 21.4 48.8 38.7-1.1-6.8-0.5-12.7-2.3-19.5 32.2 47.8 54.8 96.4 59.3 154.4 2.5-2.6 5.3-5.5 7.5-8 2.2 51.9-24 118.8-45.2 165.4 3.2-3.5 7.3-6.5 10.5-10.1-16 51.2-20.7 94-60.5 136.5 3-0.4 6.2-0.8 9.3-1.2-14.2 19.4-37.7 37.7-62.1 47.4-8.1 5.5-17.2 9.2-26.9 11.1 4.8-3.5 9.5-9.9 13.6-13.4-4.4 1.7-10.4 2.6-15.2 4.1 5.3-4.2 8.7-10.5 13.9-15-6.4 0.3-10.9-2.7-16.2-3.1 28.7-34.4 66-61.1 90.8-99.9-2.9 1.6-11.5 3.7-15.7 6.3 6.7-21.2 30.5-37.2 26.5-61.3-4.3 1-9.6 0.6-13.8 1.8 16.2-27.6 40-54.4 47.5-85.7-3.2 0.6-6.8 1.2-10 1.8 6.3-18.1 17.8-35.1 20.7-53.9-2.2 0-4.3 2.6-6.3 2.7 2.9-12.2 6.7-24.6 8.4-36.7-6.3 4.6-16.3 6.3-23.1 10.4 7.6-18.6 26.6-52.2 5.1-65.7 3.6-3 4.8-5.1 9.5-7.7-4-3.7-7.3-8.5-12.4-11.7 2.5-2.6 5.7-5.5 7.1-9.1-8.6-7.8-17.2-15.2-26-22.6 2.9-0.2 5.9 0.4 8.8 0.1-32.7-25.5-57.4-40.3-95.9-55.4 2.2 2.3 4.5 4.3 6.7 6.6-16.5-4.3-34.1-6.6-51.6-5.1 0.8 1.5 4.2 1.9 5.1 3.7-62.4 28.9-101.2 36.5-150.4 89.3 2.6 0.3 5.5-0.2 8.1 0.4-20.2 15.2-33.9 38.8-58 49.9 3.8 3 6.7 8.7 10.2 11.3-19.3 8.9-39.6 17.3-59.3 24.9z"/>
			<path id="&lt;Path&gt;" class="s4" d="m1616.7 533.9c-16.3 2.3-34 6.2-48.7-2 24.7-15.4 51.5-31.8 79.3-41.7-5.5 0.8-11.2 0.3-16.6 0.9 10.3-8.9 23.5-16.8 33.8-25.3-7.5-2.4-36.5-4.8-36.5-4.8 0 0 22.9-19.1 28-25.9-20.7 2.4-42.7 8.8-61.4 18.6 13.4-12.5 29.7-23.1 44.1-34.8-6.2-4-11.6-12.6-18.3-15.9 14.2 0.5 28.4 2.6 42 5.2-3.5-3.2-6.8-8.1-10.5-11.2 20.5 3.6 41.2 13.1 52.8 31.3 3.4-15.8 6.5-32.3 7.9-48.4 8.2 12.4 9.7 30.4 11.7 45.4 11.1-5.5 22.8-12.5 33.6-17.8-3.2 14.6-9.1 29.9-13.5 44.3 5.3 11.7 13.6 37.4 13.5 51.2-7.7-16-26.4-34.6-36.9-37.1 12.7 38.9 19.9 72.5 16.6 113.4-1.8-4.3-6.2-10.2-8-14.7-0.2 24.9 1.3 49.9-4.2 74-2.3-10.8-6-21.9-8.5-32.3 5 26.9 2.4 63.3-17.3 84.3 2.1-10.8 5.9-21.7 6.5-33.1-0.9 7.5-5.7 13.9-10.1 18.4 4.7-9.9 5.3-26.2 6.9-38.7-6.2 15.4-22.6 22.9-37.9 28.4 12.4-20.1 18-45.8 18.7-69.2-8.4 13.5-24.6 22.5-40.2 26.3 2.8-5.9 1.9-12.8 3.9-18.5-7.5 4.9-16.8 7-24.1 12 11.6-16.3 23.8-37.2 21.1-57.6-11.1 10.7-25.3 18-38.9 25.2 3.3-4.1 4.3-8.4 6.9-12.7-12.6-0.3-26.6-0.6-38.2-2.3 15.2-8.5 35.4-18.2 42.5-34.9z"/>
			<path id="&lt;Path&gt;" class="s3" d="m913.8 1163.6l-0.6 0.5c1.9-1.3 4-2.8 5.8-4.2-10.3 19.3-21.6 38.6-31.1 58.5 1 0.2 1.5-2.2 2.7-2.1-4.1 11.4-8.9 23.1-13 34.7 0.9-1.2 1.6-2.8 2.5-3.9-5.5 12.2-9 25.9-11.1 39.3l-0.7 7.3c4.2-20.4 17.5-39.1 25-58.1-1.9 3.1-4.8 6.5-6.5 9.1 6.1-14 11.7-28.9 17.9-42.9-1.9 1.7-3.6 3.3-5.6 5.1 6.1-13.3 14.7-25.7 22.4-38.2-1.6 0.5-3.2 1.9-4.7 2.4 9.2-12.8 19.1-25.5 26-39.9-10.5 9.9-19.7 21.5-29 32.4z"/>
			<path id="&lt;Path&gt;" class="s3" d="m1254 1293.7l-0.8-7.3c-2.1-13.4-5.6-27.1-11.1-39.3 0.9 1.1 1.7 2.7 2.5 3.9-4.1-11.6-8.9-23.3-13-34.7 1.2-0.1 1.7 2.3 2.7 2.1-9.5-19.9-20.8-39.2-31.1-58.5 1.8 1.4 3.9 2.9 5.8 4.2l-0.6-0.5c-9.3-10.9-18.4-22.5-29-32.4 6.9 14.4 16.8 27.1 26 39.9-1.5-0.5-3.1-1.9-4.7-2.4 7.7 12.5 16.4 24.9 22.4 38.2-2-1.8-3.7-3.4-5.6-5.1 6.2 14 11.8 28.9 17.9 42.9-1.7-2.6-4.6-6-6.5-9.1 7.5 19 20.8 37.7 25.1 58.1z"/>
			<path id="&lt;Compound Path&gt;" fill-rule="evenodd" class="s3" d="m764.7 1623.2l79.1 66.7c-30.4 12-69.1 25.4-98.3 13.9-28.2 0.2-58.1-3.1-84.5-12.7-0.3-3.3 3-5.4 2.7-8.7-15.8-7.7-33.1-12.4-50.8-13 1.8-3.3 5.8-4.6 7.8-7.4-18.8-11.8-43.1-14.9-65.2-20.5 3-1.8 7.2-2.9 10.6-4.7-12.6-7.9-28.3-17.8-41.5-24.2 2.1-0.1 6.3 2.2 8.6 2.7-13.6-11.5-28.1-23.4-42.8-34.9 0.9 4.3 2.2 9.9 2.6 13.1-7.8-12.4-17.9-26.6-24.1-41.1 0.7 6.3 0.4 12.9 1.4 19.1-19.8-38.6-33-75.1-42.4-118.7-2.6 0.7-2.3 5.4-5.5 6-1-25.2-3.9-51-6.8-75.7-0.2-0.3-5.5 1.1-7.2-0.1-1.7-8.7-3.1-17.5-5.2-26.2-11.9-8.1-7.9-6.2-15.6-20.1-2.8-4.5-8.9-4-12.2-20.2-4 1.9-12.4 5-17 6.1-5.1-10.9-10.3-19.4-7.8-33.7l-5.4 2.4c6.2-43.3 27.3-83.9 37.9-126.8-3.3-0.6-6 3-8.8 2.3 8.4-36.3 23.7-73.9 36.8-109.2-4 2.2-11.2 5.1-15.1 7.3 3-16.1 8.8-33.9 13.4-49.2-3.4 2.4-7.9 6.9-10.3 8.9 3.5-15.3 7.1-32.3 10.3-47.7 0-0.4-5.9 2-7.3 1.2 2.8-8.2 5-16 9-24.4-2.2-2.9-9 3.8-12.1 1.1 1-6.4 6.4-12.3 7.3-18.1-4.4 1.5-8.5 4.9-13.5 5.8 7.6-16.9 25.1-38.1 35.7-48.4-3.3 0.7-9 2.6-12.1 3.7 19.9-19.1 42.7-33.6 65.7-48.3-0.5-0.4-3.6-0.1-5.5 0.5 21.2-14.9 42.4-30.2 64.4-43.9-3.1 0.7-5.6 2.5-8.6 3.7 16.9-18.8 38.9-42.1 58.1-61.1-3.9 1.4-7.4 3.6-11.3 5 13.8-15.4 26.1-32.4 40.8-46.8 8.2-11.8 28.3-32.6 45.5-45.3 8-6.2 16.3-11.6 24.3-16.7-16.8 14.7-31.3 34.1-41.5 53.9 3.7-4.3 7-8.8 10.7-13-13.6 20.9-29.2 41.5-44.5 61.6-12.8 21.3-28.8 40.3-41.4 61.7 1.8 0.2 3.4-5.1 5.4-4.2-13.3 15.3-30.8 31.4-49 41.7l3.7-0.2c-18 17.8-40.6 33.7-64.4 43.3-13.4 12.4-27.8 25.9-38.8 40.4 3.5-2.2 9.8-5.5 13.5-7.4-5 18.4-14.8 42.8-18.4 58.8 2-4 4.1-9 6-12.4 0.5 27.3-1.3 56.8-7.5 83.1-0.2-3.2 0.5-6.7 0-9.9l0.1 2.5c-3.6 32.4-10.8 65.4-13.7 97.7 2.5-3.6 6.1-8.7 8.7-12.1-6.3 31.6-12.5 70.1-16.8 99.2 2.3-3.6 5.4-7.7 7.5-10.9 0.3 16.7-0.4 34.3-1 50.8l5.3 0.4c1.6-4.3 4.2-9.7 6.5-13.9 2.5 17.9 6.1 36.3 11.6 53.9 2.2-1.4 2.6-5.8 5.8-7.7 12 20.9 12.5 50.9 15.5 75.7 1.3-1.8 1.3-6.6 2.8-8.8 3.8 25.6 5.2 51 24.6 69.7-2 1.3-8.6 1.7-10.2 3.3 12.1 23.6 31.3 44.7 43 67.7-4.3 0.4-8.8-0.2-13.2 0.2 16 10.5 31.1 22.1 45.8 34.5-3.1 3.2-6.9 6.7-10 10.1 16.3 4.4 34.7 10.2 49.9 19-3.4 3.9-6.6 9.7-10.1 13.6 27.8 11.3 58.8 13 86.5 25.5-0.4 3.7-3.8 5-4.3 8.7 18.7 0.2 37.4 3.5 55.5 6.8-1.5 2.7-5.7 4.9-7.1 7.5 19.2-4.2 39.4-8.1 58.4-12.5zm-106.1-956q0.2-0.2 0.5-0.4l2.1-1.7-2 1.7c-0.1 0-0.3 0.2-0.6 0.4z"/>
			<path id="&lt;Compound Path&gt;" fill-rule="evenodd" class="s3" d="m1771.7 1288.9c2.4 14.3-2.8 22.8-7.9 33.7-4.6-1.1-12.9-4.2-17-6.1-3.3 16.2-9.4 15.7-12.2 20.2-7.7 13.9-3.7 12-15.6 20.1-2.1 8.7-3.5 17.5-5.1 26.2-1.8 1.2-7.1-0.2-7.3 0.1-2.9 24.7-5.8 50.5-6.8 75.7-3.2-0.6-2.9-5.3-5.5-6-9.4 43.6-22.6 80.1-42.4 118.7 1-6.2 0.7-12.8 1.4-19.1-6.2 14.5-16.3 28.7-24.1 41.1 0.4-3.2 1.7-8.8 2.6-13.1-14.7 11.5-29.2 23.4-42.8 34.9 2.3-0.5 6.5-2.8 8.6-2.7-13.2 6.4-28.9 16.3-41.5 24.2 3.4 1.8 7.6 2.9 10.6 4.7-22.1 5.6-46.4 8.7-65.2 20.5 2 2.8 6 4.1 7.8 7.4-17.7 0.6-35 5.3-50.8 13-0.3 3.3 3 5.4 2.7 8.7-26.4 9.6-56.3 12.9-84.5 12.7-29.2 11.5-67.9-1.9-98.2-13.9l79-66.7c19 4.4 39.2 8.3 58.4 12.5-1.4-2.6-5.6-4.8-7.1-7.5 18.1-3.3 36.9-6.6 55.5-6.8-0.5-3.7-3.9-5-4.3-8.7 27.7-12.5 58.7-14.2 86.5-25.5-3.4-3.9-6.7-9.7-10.1-13.6 15.3-8.8 33.6-14.6 49.9-19-3.1-3.4-6.9-6.9-10-10.1 14.7-12.4 29.8-24 45.8-34.5-4.4-0.4-8.9 0.2-13.2-0.2 11.7-23 30.9-44.1 43-67.7-1.6-1.6-8.2-2-10.2-3.3 19.4-18.7 20.8-44.1 24.6-69.7 1.5 2.2 1.5 7 2.8 8.8 3-24.8 3.5-54.8 15.5-75.7 3.2 1.9 3.6 6.3 5.8 7.7 5.5-17.6 9.1-36 11.6-53.9 2.3 4.2 4.9 9.6 6.5 13.9l5.3-0.4c-0.6-16.5-1.3-34.1-1-50.8 2.1 3.2 5.2 7.3 7.5 10.9-4.3-29.1-10.5-67.6-16.8-99.2 2.6 3.4 6.2 8.5 8.7 12.1-2.9-32.3-10-65.3-13.7-97.7l0.1-2.5c-0.5 3.2 0.2 6.7 0 9.9-6.2-26.3-8-55.8-7.5-83.1 1.9 3.4 4 8.4 6 12.4-3.6-16-13.4-40.4-18.4-58.8 3.7 1.9 9.9 5.2 13.5 7.4-11-14.5-25.4-28-38.8-40.4-23.8-9.6-46.4-25.5-64.4-43.3l3.7 0.2c-18.2-10.3-35.7-26.4-49-41.7 2-0.9 3.6 4.4 5.4 4.2-12.6-21.4-28.6-40.4-41.4-61.7-15.3-20.1-30.9-40.7-44.5-61.6 3.7 4.2 7.1 8.7 10.7 13-10.2-19.8-24.7-39.2-41.5-53.9 8 5.1 16.3 10.5 24.3 16.7 17.2 12.7 37.3 33.5 45.5 45.3 14.7 14.4 27 31.4 40.8 46.8-3.9-1.4-7.5-3.6-11.3-5 19.2 19 41.2 42.3 58.1 61.1-3-1.2-5.5-3-8.6-3.7 22 13.7 43.2 29 64.4 43.9-1.9-0.6-5-0.9-5.5-0.5 23 14.7 45.8 29.2 65.7 48.3-3.1-1.1-8.8-3-12.1-3.7 10.6 10.3 28.1 31.5 35.7 48.4-5-0.9-9.1-4.3-13.5-5.8 0.9 5.8 6.3 11.7 7.3 18.1-3.1 2.7-9.9-4-12.1-1.1 4 8.4 6.2 16.2 8.9 24.4-1.3 0.8-7.2-1.6-7.2-1.2 3.2 15.4 6.8 32.4 10.3 47.7-2.4-2-6.9-6.5-10.3-8.9 4.6 15.3 10.4 33.1 13.4 49.2-3.9-2.2-11.1-5.1-15.1-7.3 13.1 35.3 28.3 72.9 36.8 109.2-2.8 0.7-5.5-2.9-8.8-2.3 10.6 42.9 31.7 83.5 37.9 126.8zm-308.7-622.2l-2-1.7 2.1 1.7c2.6 2.3 0.3 0.3-0.1 0z"/>
			<path id="&lt;Path&gt;" class="s5" d="m631.3 1770.8c2.3-6.7 5.6-13.2 8.7-20.2-35.6 4.3-72.1 16.5-106.5 24.7 0 0 3.2-5.4 2.3-5.6-15.1 7.5-33.4 11.3-48.2 17.9 1.3-0.8 2.8-7 1-7-8.2 8-23 12.4-32.6 22.8-11.8-11.6-25.4-20.3-31.5-36.3 0.8 2.4 5.1 13.6 5.3 13.6q-1.1-0.9-1.1-2.5c-24.4-39.8-48.7-80.6-69.5-122.5 0.4 2.8 0.3 8.8-0.3 10-23-42.5-45.1-86.3-60.3-133.3 0.2 2.6 0.2 7.7-0.2 8.7-11-48.1-28.5-104.3-27.8-149.4-1.7 5.7-3.7 14.7-4.3 18.8-13-56.7-13.8-117.4-9.6-175.7-3.2 8.5-8.2 17.8-11.5 26.3 10.8-58.8 12.5-120.6 34.2-177.6-2.7 4.3-4.4 8-6.8 12.5 13.8-36.5 26.1-73.9 45.9-107.9-4.4 3.2-8.1 7.9-12.3 11.3 16.2-37.5 37.3-73.8 58.4-109.9 3.5-0.1 8.7-4.8 10.6-2.1-4.2 9.7-6.5 18.8-9.4 28.2 1.4 0.9 7.6-1.8 7.6-1.3-3.3 17.8-7.2 37.5-10.8 55.3 2.5-2.4 7.2-7.5 10.8-10.4-4.8 17.7-11 38.5-14.2 57.1 4.2-2.6 11.8-6 16-8.5-13.8 40.9-29.9 84.5-38.9 126.5 3 0.8 5.8-3.4 9.4-2.7-11.2 49.7-33.5 96.6-39.9 146.7 0.6-0.9 5.3-2.7 5.5-2.5-2.5 16.5 2.9 26.4 8.3 38.9 4.9-1.2 13.7-4.8 17.9-7 3.6 18.7 10 18.3 12.9 23.4 8.1 16.1 4 13.9 16.5 23.3 2.2 10.1 3.6 20.3 5.4 30.4 1.8 1.3 7.5-0.3 7.6 0.1 3.1 28.6 6.1 58.5 7.2 87.7 3.4-0.7 3.1-6.1 5.9-7 9.8 50.6 23.8 92.8 44.7 137.6-1-7.2-0.7-14.9-1.5-22.2 6.5 16.8 17.2 33.3 25.4 47.6-0.4-3.7-1.8-10.1-2.6-15.2 15.4 13.3 30.7 27.1 45.1 40.4-2.5-0.6-6.9-3.2-9.1-3 13.9 7.4 30.5 18.9 43.8 28-3.6 2.1-8.1 3.3-11.2 5.5 23.3 6.4 48.9 10 68.8 23.7-2.1 3.3-6.3 4.8-8.2 8.6 18.6 0.6 36.9 6.1 53.6 15 0.3 3.8-3.2 6.3-2.9 10.1 19.5 7.8 40.9 12 62.2 13.7-23.6 4.9-47.1 9.8-69.8 15.4z"/>
			<path id="&lt;Path&gt;" class="s5" d="m1865.6 1234.8c4.1 58.3 3.3 119-9.7 175.7-0.6-4.1-2.6-13.1-4.3-18.8 0.7 45.1-16.7 101.3-27.8 149.4-0.4-1-0.4-6.1-0.2-8.7-15.2 47-37.3 90.8-60.3 133.3-0.6-1.2-0.7-7.2-0.3-10-20.8 41.9-45.1 82.7-69.5 122.5 1.4-3.4 3.6-9.4 4.2-11.1-6.1 16-19.7 24.7-31.5 36.3-9.6-10.4-24.4-14.8-32.6-22.8-1.8 0-0.3 6.2 1 7-14.8-6.6-33.1-10.4-48.2-17.9-0.9 0.2 2.3 5.6 2.3 5.6-34.4-8.2-70.8-20.4-106.5-24.7 3.1 7 6.4 13.5 8.7 20.2-22.7-5.6-46.2-10.5-69.8-15.4 21.3-1.7 42.7-5.9 62.2-13.7 0.3-3.8-3.2-6.3-2.9-10.1 16.7-8.9 35-14.4 53.6-15-1.9-3.8-6.1-5.3-8.2-8.6 19.9-13.7 45.5-17.3 68.8-23.7-3.1-2.2-7.6-3.4-11.2-5.5 13.3-9.1 29.9-20.6 43.8-28-2.2-0.2-6.6 2.4-9.1 3 14.4-13.3 29.7-27.1 45.1-40.4-0.8 5.1-2.2 11.5-2.6 15.2 8.2-14.3 18.9-30.8 25.4-47.6-0.8 7.3-0.5 15-1.5 22.2 20.9-44.8 34.9-87 44.7-137.6 2.8 0.9 2.6 6.3 5.9 7 1.1-29.2 4.1-59.1 7.2-87.7 0.1-0.4 5.8 1.2 7.6-0.1 1.8-10.1 3.2-20.3 5.4-30.4 12.5-9.4 8.4-7.2 16.5-23.3 2.9-5.1 9.3-4.7 12.9-23.4 4.3 2.2 13 5.8 17.8 7 5.4-12.5 10.9-22.4 8.4-38.9 0.1-0.2 4.9 1.6 5.6 2.5-6.5-50.1-28.8-97-40-146.7 3.6-0.7 6.4 3.5 9.4 2.7-9-42-25.1-85.6-38.9-126.5 4.2 2.5 11.8 5.9 16 8.5-3.2-18.6-9.3-39.4-14.2-57.1 3.6 2.9 8.3 8 10.9 10.4-3.7-17.8-7.6-37.5-10.9-55.3 0-0.5 6.3 2.2 7.7 1.3-3-9.4-5.3-18.5-9.5-28.2 2.3-3.3 9.5 4.4 12.8 1.3-1.1-7.5-6.8-14.3-7.8-21 1.9 0.7 3.7 1.7 5.6 2.8q2 3.6 3.8 7.2c20.1 39.6 37 80.9 54.6 121.7-4.2-3.4-7.9-8.1-12.3-11.3 19.8 34 32.1 71.4 45.9 107.9-2.4-4.5-4-8.2-6.8-12.5 21.7 57 23.4 118.8 34.2 177.6-3.3-8.5-8.3-17.8-11.4-26.3z"/>
			<path id="&lt;Path&gt;" class="s3" d="m614.3 1272.4v0.2l0.2 1.6-0.3-1.6 0.1-0.3-0.3-0.5c-3.1 18.5-15.5 33.4-33.8 39.6-6.5-10.8-20.4-20.8-24.8-32.6-1 5.8-5.4 15-6.3 21.4-9.5-38.1-20.6-78.8-35.6-115.2-1.7 0.6-1.3 6.1-3.5 6.8-4.3-28.7-7.7-58.6-7.3-88v-2.6c-0.6 3.4-0.9 6.6-1.5 9.9 2-29.8 9.9-59 14.7-88.3 6.4-21.2 11.6-47.1 11.6-66-7.8 38.1-30.3 74.3-43.2 111.2 2.9 0.9 5.4-4.1 6.1-3.9-2.4 22.1-10 44.9-13.8 65.9 0.9 2 3.8-1.8 4.1-1.2-10.3 55.6 33 111 39.1 165.8 8.8 80.4 19.2 85.7 80.7 151.3-1.6-3.7-2.7-7.6-4.1-11.5-7.6-32.4-16.2-63.3-30.3-94.3 3.1-3.2 1.8-1.2 5-8.2 10.8 11 23.4 24.3 33.7 35.4 1.3-10.2 6.3-21.9 6.5-32 0.6 3.8 0.4 9.4 0.3 13 7.4-23.1 7.9-49.7 3.1-73.4-0.1-1.1-0.2-2-0.4-2.5z"/>
			<path id="&lt;Path&gt;" class="s3" d="m1631.8 1064.1c0.7-0.2 3.2 4.8 6.1 3.9-12.9-36.9-35.4-73.1-43.2-111.2 0 18.9 5.2 44.8 11.7 66 4.7 29.3 12.6 58.5 14.6 88.3-0.6-3.3-0.9-6.5-1.5-9.9v2.6c0.4 29.4-3 59.3-7.3 88-2.1-0.7-1.8-6.2-3.5-6.8-15 36.4-26.1 77.1-35.6 115.2-0.9-6.4-5.3-15.6-6.3-21.4-4.4 11.8-18.3 21.8-24.8 32.6-18.3-6.2-30.7-21.1-33.8-39.6l-0.2 0.5v0.3l-0.3 1.6 0.2-1.6v-0.2c-0.2 0.5-0.3 1.4-0.4 2.5-4.8 23.7-4.3 50.3 3.1 73.4-0.1-3.6-0.3-9.2 0.3-13 0.2 10.1 5.2 21.8 6.5 32 10.3-11.1 22.9-24.4 33.7-35.4 3.2 7 1.9 5 5 8.2-14.1 31-22.7 61.9-30.3 94.3-1.4 3.9-2.5 7.8-4.1 11.5 61.5-65.6 71.9-70.9 80.8-151.3 6-54.8 49.3-110.2 39-165.8 0.3-0.6 3.2 3.2 4.1 1.2-3.8-21-11.4-43.8-13.8-65.9z"/>
			<path id="&lt;Path&gt;" class="s3" d="m692.5 1199.3c-3.3 1.3-8.6 3.9-11 5.2l1.6-0.7c-13.8 8.2-26.4 18.5-37.4 30.1-20.8 4.4-38.5-4.4-41.8-24.5-5-9.2-6.1-19.6-7.3-29.9l-0.1 1.7c-4.4-16.5-6.1-33.8-11.7-50 0.9 1.3 1.4 3.1 2 4.4-3-14.3-6.7-28.5-12-42.2l0.8 2.5c-7.4-22-15.6-39.8-20.4-63.3-0.7 1-0.4 2.9-1.4 4.4 0-13.9 2.1-28 4.8-41.4-1.3 4-3.2 8-4.5 12 3.6-16.8 8-34.5 11.4-51.8-5.4 9.1-11.1 18.4-16.1 27.6-2 16.5-10.5 32-14.2 48.1 1.5-2.4 3.2-4.8 4.7-7.2 0 16.4 0.1 32.7 0 49.1 1-2.1 2.2-4.3 3.2-6.5 1.5 9.6 3.2 19.6 5.5 29.2 0.8 0.4 0.3-2.5 2-1.4 3.7 11.7 3.1 25 1.7 37.1 1.1-1.7 3-4.1 3.8-5.4-1.6 12.1-0.6 25.4 3.4 37.1 0.4-1.4 1.4-4.9 1.9-6.1 0.1 13.3 3.8 26.2 8.8 38.5 0.7-1-0.5-3 0.5-4.2 4.7 12.6 12 24.6 18.9 35.9 0-1.9-0.6-2.8-0.3-4.9 4.4 9.2 11.1 17.3 18.2 24.5l2.8-2.8c1.6 4.8 3.8 10.6 4 15.8l3.1-2c-0.9 2.6-1.6 5.7-2.2 8.3 6.1-3.2 13.3-5.6 19.2-9.6-0.1 1.3-2.7 2-2.9 3.2 19.5-11.7 36.8-35.7 54.2-51.1 0.2-0.3-2.4 1.3-3.7 1.1 4.2-3.4 7.1-7 10.5-10.8z"/>
			<path id="&lt;Path&gt;" class="s3" d="m1587 1031.5c-3.7-16.1-12.2-31.6-14.2-48.1-5-9.2-10.7-18.5-16.1-27.6 3.5 17.3 7.8 35 11.4 51.8-1.3-4-3.2-8-4.5-12 2.7 13.4 4.8 27.5 4.8 41.4-1-1.5-0.7-3.4-1.4-4.4-4.8 23.5-13 41.3-20.4 63.3l0.8-2.5c-5.3 13.7-9 27.9-12 42.2 0.6-1.3 1.1-3.1 2-4.4-5.6 16.2-7.3 33.5-11.7 50l-0.1-1.7c-1.2 10.3-2.3 20.7-7.3 29.9-3.3 20.1-20.9 28.9-41.8 24.5-11-11.6-23.6-21.9-37.4-30.1l1.6 0.7c-2.4-1.3-7.7-3.9-11-5.2 3.4 3.8 6.3 7.4 10.5 10.8-1.3 0.2-3.9-1.4-3.7-1.1 17.4 15.4 34.7 39.4 54.3 51.1-0.3-1.2-2.9-1.9-3-3.2 5.9 4 13.1 6.4 19.2 9.6-0.6-2.6-1.3-5.7-2.2-8.3l3.1 2c0.2-5.2 2.4-11 4-15.8l2.8 2.8c7.2-7.2 13.8-15.3 18.2-24.5 0.3 2.1-0.2 3-0.3 4.9 6.9-11.3 14.2-23.3 18.9-35.9 1 1.2-0.2 3.2 0.5 4.2 5-12.3 8.7-25.2 8.8-38.5 0.5 1.2 1.5 4.7 1.9 6.1 4-11.7 5-25 3.4-37.1 0.8 1.3 2.7 3.7 3.8 5.4-1.4-12.1-2-25.4 1.7-37.1 1.7-1.1 1.2 1.8 2 1.4 2.3-9.6 4-19.6 5.5-29.2 1 2.2 2.2 4.4 3.2 6.5-0.1-16.4 0.1-32.7 0-49.1 1.6 2.4 3.2 4.8 4.7 7.2z"/>
			<path id="&lt;Path&gt;" class="s3" d="m663.1 1192.6c18.1-12.6 34.1-38.3 50.3-54.7 0.1-0.4-2.2 1.3-3.5 1.2 4-3.7 6.6-7.5 9.8-11.6-3.1 1.4-8 4.1-10.2 5.5l1.4-0.7c-12.7 8.7-24.4 19.8-34.6 32.2-19.3 4.7-35.6-4.7-38.7-26.2-4.6-9.8-5.7-20.9-6.8-32v1.8c-4.2-17.6-5.7-36.1-10.9-53.4 0.8 1.3 1.3 3.3 1.9 4.7-2.8-15.3-6.3-30.6-11.1-45.2l0.6 2.7c-6.8-23.6-14.4-42.6-18.8-67.7-0.7 1.1-0.4 3.1-1.3 4.6 0-14.8 1.9-29.9 4.4-44.2-1.2 4.3-2.9 8.5-4.2 12.9 3.4-18.1 7.4-36.9 10.6-55.5-5 9.8-10.3 19.7-14.9 29.5-1.8 17.7-9.7 34.3-13.1 51.5 1.3-2.6 2.9-5.2 4.4-7.7-0.1 17.5 0 35-0.1 52.5 0.9-2.2 2-4.6 2.9-6.9 1.4 10.3 3 20.9 5.2 31.2 0.7 0.4 0.3-2.6 1.8-1.5 3.4 12.5 2.9 26.7 1.6 39.7 1-1.8 2.7-4.4 3.5-5.8-1.5 12.9-0.5 27.2 3.2 39.7 0.4-1.5 1.3-5.2 1.8-6.5 0 14.2 3.5 28 8.1 41.1 0.6-1-0.5-3.1 0.5-4.5 4.3 13.5 11 26.3 17.4 38.5 0-2.1-0.5-3.1-0.2-5.3 4 9.9 10.2 18.5 16.9 26.2l2.5-2.9c1.5 5.1 3.6 11.3 3.7 16.8l2.9-2.1c-0.8 2.8-1.5 6.1-2.1 8.9 5.7-3.5 12.4-5.9 17.8-10.3-0.1 1.3-2.5 2.1-2.7 3.5z"/>
			<path id="&lt;Path&gt;" class="s3" d="m1491.4 1106.3c-1.1 11.1-2.2 22.2-6.8 32-3.1 21.5-19.4 30.9-38.7 26.2-10.2-12.4-21.9-23.5-34.6-32.2l1.4 0.7c-2.2-1.4-7.1-4.1-10.2-5.5 3.2 4.1 5.8 7.9 9.8 11.6-1.3 0.1-3.6-1.6-3.5-1.2 16.2 16.4 32.2 42.1 50.3 54.7-0.2-1.4-2.6-2.2-2.7-3.5 5.4 4.4 12.1 6.8 17.8 10.3-0.6-2.8-1.3-6.1-2.1-8.9l2.9 2.1c0.1-5.5 2.2-11.7 3.7-16.8l2.5 2.9c6.7-7.7 12.9-16.3 16.9-26.2 0.3 2.2-0.2 3.2-0.2 5.3 6.4-12.2 13.1-25 17.5-38.5 0.9 1.4-0.2 3.5 0.4 4.5 4.6-13.1 8.1-26.9 8.1-41.1 0.5 1.3 1.4 5 1.8 6.5 3.7-12.5 4.7-26.8 3.2-39.7 0.8 1.4 2.5 4 3.5 5.8-1.3-13-1.8-27.2 1.6-39.7 1.5-1.1 1.1 1.9 1.8 1.5 2.2-10.3 3.8-20.9 5.2-31.2 0.9 2.3 2 4.7 2.9 6.9-0.1-17.5 0-35 0-52.5 1.4 2.5 3 5.1 4.4 7.7-3.5-17.2-11.4-33.8-13.2-51.5-4.6-9.8-9.9-19.7-14.9-29.5 3.2 18.6 7.2 37.4 10.6 55.5-1.3-4.4-3-8.6-4.2-12.9 2.5 14.3 4.5 29.4 4.4 44.2-0.9-1.5-0.6-3.5-1.3-4.6-4.4 25.1-12 44.1-18.8 67.7l0.6-2.7c-4.8 14.6-8.2 29.9-11.1 45.2 0.6-1.4 1.1-3.4 1.9-4.7-5.2 17.3-6.7 35.8-10.9 53.4z"/>
			<path id="&lt;Path&gt;" class="s3" d="m676.6 707.1c2.4-1.9 5.1-3.7 7.4-5.4-7.1 15.3-18.3 29.4-26.2 44.5 2.6-3.8 6.2-7.5 8.9-11.3-1.5 4.2-3.1 8.7-4.4 13.2-2.3 11.9-1.3 24.4 0.9 36.3 0-3 0-6.1 0.1-9 3.1 11.2 4.9 23.3 8.4 34.4-0.3-1.6-0.8-2.6-0.8-4.3 2.1 6.6 3.9 13.3 5.6 19.9v-0.3c3 9.3 3.3 19.7-0.2 28.9 0.6-1.5 1.8-4.2 2.2-5.7-1.7 8.5-4.6 19.6-6.4 27.3l0.4-1.3c-0.9 7.4 0.6 19 3.9 27l-0.9-1.3c0.3 0.8 3.9 8.9 5.2 11.7-5.6-22 7.8-46.5 11.1-69.1-0.4-8.2-2.1-16.4-5.1-23.9l0.1 0.1c-4.9-8.3-7.8-18.1-8.9-27.9l1.6 2.6c-1.6-11.8-1.2-24.8-0.2-36.7-0.6 1.2-2.3 4.7-2.2 4.6 5.1-14.7 9-29.7 14.4-44.3-1.6 1.9-3.2 3.8-4.8 5.9 7.6-12.5 16.6-27.2 26.3-36.8-1.8 1.4-4 3-5.5 4.4 6.7-6.9 13.6-15 20.8-21.6l20.9-13.9c-12.4 3.3-32.7 16.2-47.6 27.2-8.9 7.6-17.4 15.7-25 24.8z"/>
			<path id="&lt;Path&gt;" class="s3" d="m1455.5 734.9c2.7 3.8 6.3 7.5 8.9 11.3-7.9-15.1-19.1-29.2-26.2-44.5 2.3 1.7 5 3.5 7.4 5.4-7.6-9.1-16.1-17.2-25-24.8-14.9-11-35.2-23.9-47.6-27.2l20.9 13.9c7.2 6.6 14.1 14.7 20.8 21.6-1.6-1.4-3.7-3-5.5-4.4 9.7 9.6 18.7 24.3 26.3 36.8-1.6-2.1-3.2-4-4.8-5.9 5.4 14.6 9.3 29.6 14.4 44.3 0.1 0.1-1.6-3.4-2.1-4.6 0.9 11.9 1.3 24.9-0.3 36.7l1.7-2.6c-1.2 9.8-4.1 19.6-9 27.9l0.1-0.1c-3 7.5-4.7 15.7-5.1 23.9 3.3 22.6 16.7 47.1 11.1 69.1 1.3-2.8 4.9-10.9 5.2-11.7l-0.9 1.3c3.3-8 4.7-19.6 3.9-27l0.4 1.3c-1.7-7.7-4.7-18.8-6.4-27.3 0.4 1.5 1.6 4.2 2.2 5.7-3.5-9.2-3.2-19.6-0.2-28.9v0.3c1.7-6.6 3.5-13.3 5.6-19.9 0 1.7-0.5 2.7-0.8 4.3 3.5-11.1 5.3-23.2 8.4-34.4 0.1 2.9 0.2 6 0.2 9 2.1-11.9 3.1-24.4 0.8-36.3-1.3-4.5-2.9-9-4.4-13.2z"/>
			<path id="&lt;Path&gt;" class="s3" d="m971 1057.9c-1.8-25.7-4.1-34.8 0.1-65.5 5.5-41.3 25.3-87.5 25.3-87.5-56.5 82.4-31.9 137.2-25.4 153z"/>
			<path id="&lt;Path&gt;" class="s3" d="m1125.8 904.9c0 0 19.8 46.2 25.4 87.5 4.1 30.7 1.7 39.8 0 65.5 6.5-15.8 31.1-70.6-25.4-153z"/>
			<path id="&lt;Path&gt;" class="s5" d="m959.7 837.6c-1.9 2-4.8 4.4-6.9 6.2-0.9-17.8-0.2-36.6-5.3-53.6-3.1 4.8-9.4 8.3-12.4 12.9-4.1-21.7-10.3-43.5-19.9-63.4-11.8 8-20.7 19.6-31.6 28.6 1-4.5 0-9.7 0.7-14.4-18.2 12.3-34.7 30.9-42.4 51.7 0.9-5.7-2.1-9.5-1.3-15.1-17.1 19.6-33.5 46.6-31.6 73.7-1.5-4.4-8.2-7-8.5-17.6-3.5 18.1-2.4 37.8 1.5 55.7-2-0.2-2.8-2.8-4.4-3.2 3 12.1 10.1 22.5 18.6 31.6l-1.8-7.3c4.7 15.6 26.5 24.8 42.6 25.6-3.8-4.3-3.9-2.6-6.5-7.9 16.9 3.9 28.8 7.9 47.8 2.5-3.3-2.2-1.4-1.7-4.1-3.9 21.7-2.6 39.6-6.4 58.3-32.8-2.3 0.2-2.9 1.6-4.2 0.6 5.1-20.6 20.7-50.1 11.4-69.9z"/>
			<path id="&lt;Path&gt;" class="s5" d="m1324.6 899.1c-1.6 0.4-2.4 3-4.4 3.2 3.9-17.9 5-37.6 1.5-55.7-0.3 10.6-7 13.2-8.5 17.6 1.9-27.1-14.5-54.1-31.6-73.7 0.8 5.6-2.2 9.4-1.3 15.1-7.7-20.8-24.2-39.4-42.4-51.7 0.7 4.7-0.3 9.9 0.7 14.4-10.9-9-19.8-20.6-31.6-28.6-9.6 19.9-15.8 41.7-19.9 63.4-2.9-4.6-9.3-8.1-12.4-12.9-5.1 17-4.4 35.8-5.3 53.6-2.1-1.8-5-4.2-6.9-6.2-9.3 19.8 6.4 49.3 11.4 69.9-1.3 1-1.9-0.4-4.2-0.6 18.7 26.4 36.7 30.2 58.3 32.8-2.7 2.2-0.8 1.7-4 3.9 18.9 5.4 30.8 1.4 47.7-2.5-2.6 5.3-2.7 3.6-6.5 7.9 16.1-0.8 37.9-10 42.6-25.6l-1.8 7.3c8.5-9.1 15.6-19.5 18.6-31.6z"/>
			<path id="&lt;Path&gt;" class="s3" d="m696.5 1260.1c9-12.4 17.5-25.4 27.6-37 8-9.1 17-16.2 26.6-23.5-27.5 5.6-46.6 26.4-62.6 48.2-9.1 12.5-17.6 25.5-27.2 37.7-5.1 5.3-9.7 10.8-15.3 15.6-4 3.3-8.2 6-12.3 8.9 28.5-5.2 46.9-27.7 63.2-49.9z"/>
			<path id="&lt;Path&gt;" class="s3" d="m735.7 1255.3c5.9-6.2 12-11.9 19-16.9 5-3.7 10.5-6.5 15.8-9.7-15 2.8-28.6 8.4-40.5 18.1-14.4 11.9-25.5 26.5-35.5 42.1-10.3 16-18.7 33.2-29.3 49-5.1 7.6-10.1 15.2-16 22.3-3.9 4.8-8.3 9.2-12.4 13.8 31.3-15.9 49.6-46 67.6-74.8 9.6-15.1 18.9-30.8 31.3-43.9z"/>
			<path id="&lt;Path&gt;" class="s3" d="m802 1225.8c-17.2 11.4-34.9 23.8-47.4 40.5-28.9 38.9-46.2 85.9-59.7 132.1 24.7-40.9 42.7-85.2 71-123.9 12.5-17.3 30.8-29.8 47.2-43.1 19.2-15.4 36.7-31.7 45.8-55.1l-0.1 0.2c-14.8 21.3-35.6 35.1-56.8 49.3z"/>
			<path id="&lt;Path&gt;" class="s3" d="m792.4 1300.2c-4.6 12.2-8.5 24.6-13.1 36.8-3.5 9.2-8.1 17.7-12.3 26.5 19.3-12.8 29.4-34.2 37.3-55.3 4.5-12.2 8.2-24.7 13-36.9 3.5-9.2 8.1-17.6 12.5-26.4-19.6 12.6-29.6 34.2-37.4 55.3z"/>
			<path id="&lt;Path&gt;" class="s3" d="m1398.1 1223.1c10.1 11.6 18.6 24.6 27.7 37 16.2 22.2 34.6 44.7 63.1 49.9-4.1-2.9-8.3-5.6-12.2-8.9-5.7-4.8-10.3-10.3-15.4-15.6-9.6-12.2-18.1-25.2-27.2-37.7-16-21.8-35.1-42.6-62.6-48.2 9.6 7.3 18.6 14.4 26.6 23.5z"/>
			<path id="&lt;Path&gt;" class="s3" d="m1457 1337.9c-10.6-15.8-19-33-29.2-49-10.1-15.6-21.1-30.2-35.6-42.1-11.9-9.7-25.5-15.3-40.5-18.1 5.3 3.2 10.8 6 15.8 9.7 7 5 13.1 10.7 19 16.9 12.4 13.1 21.7 28.8 31.3 43.9 18.1 28.8 36.3 58.9 67.6 74.8-4.1-4.6-8.5-9-12.4-13.8-5.9-7.1-10.9-14.7-16-22.3z"/>
			<path id="&lt;Path&gt;" class="s3" d="m1320.3 1225.8c-21.3-14.2-42.1-28-56.9-49.3l-0.1-0.2c9.1 23.4 26.6 39.7 45.8 55.1 16.4 13.3 34.7 25.8 47.2 43.1 28.3 38.7 46.3 83 71 123.9-13.4-46.2-30.8-93.2-59.7-132.1-12.5-16.7-30.1-29.1-47.3-40.5z"/>
			<path id="&lt;Path&gt;" class="s3" d="m1329.9 1300.2c-7.9-21.1-17.9-42.7-37.5-55.3 4.4 8.8 9 17.2 12.6 26.4 4.7 12.2 8.4 24.7 13 36.9 7.8 21.1 17.9 42.5 37.2 55.3-4.2-8.8-8.8-17.3-12.3-26.5-4.6-12.2-8.5-24.6-13-36.8z"/>
			<path id="&lt;Path&gt;" class="s3" d="m785.1 920.7l0.3 0.8c-20-4.3-37.3-32-36.5-51.7-4.3 17.6 2.9 39.8 17.5 50.7-11 0.8-26 1.1-36-4.1 1.5 4.9 5.9 8.8 10.7 10.4-26.3-0.2-69.2 7.8-78.9-23.5 0.4 13.3 4.9 24.7 17.1 31.4-3.4 0.8-11.1-0.8-14.6-1.4 3.1 5.2 12.1 7.1 17.6 8.5-9.8 3-19.5 4.1-28.6 2.7 10.6 5.1 19.6 5.3 30.8 2.8-5.8 6.7-13.7 11.9-18.4 19.6 10-10 35.5-19.3 49.4-21.2-8.1-2.5-15.4-2.4-19.7-3.2 11.2-5 29-1.3 41.3 0.5 11.8 1.8 17 0.2 30.1-0.6 7.7-0.4 12.8-1.1 20.3 1.8 3.6 1.4 23.7 11.1 31.7 13.4-13.3-9.9-25.2-22.8-34.1-36.9z"/>
			<path id="&lt;Path&gt;" class="s3" d="m866.7 998.1c-0.3 2.2-1 4.3-1.3 6.5 3.7-25-36.7-48.6-53.2-60 2.1 2.5 3.2 5.4 4.7 8.4-17.8-15.6-56.5-17.8-77.9-8.9 5.7 0.3 11.1 1.5 16.5 3.3-16.7-2.2-42 8.7-55.3 18.5 3.9-0.2 7 0.9 10.2 1.2-29.5 4.4-56.6 14.3-76.7 38 2.8-1.7 6.3-2.8 9.2-4.5-6 5-11.7 11.4-13.6 19.1 12.7-8.4 30.8-13.3 45.9-10.5-2.9 1.1-5.2 3.2-8 4.5 13.7-0.7 26.8 4.4 38.6 10.9-3.9-0.4-7.6 0.7-11.5 0.4 16.2 21.4 47.8 36.6 74.2 36.2-2.4 0.9-5.2 2.8-7.5 3.5 20.6 1.3 41.2 0.2 61.3-5.3-1.8 1.4-3.4 3.3-5.2 4.8 6.2-2 12.1-4.4 17.8-7.1 7.5 7.8 15.6 16.2 18.8 27.4l1.2-8.2c4.8 6.7 12.3 21.1 10.6 29.6 4.5-36.5 19.7-70.1 1.2-107.8z"/>
			<path id="&lt;Path&gt;" class="s6" d="m774.7 959c0 0-41.8-0.8-41.8 25.5 0 26.3 20.7 61.4 56.5 61.4 35.9 0 46.9-23.3 46.9-40.3 0-17.1-12.8-46.6-61.6-46.6z"/>
			<path id="&lt;Path&gt;" fill-rule="evenodd" class="s3" d="m792 1002.1c-9.2 0-16.6-7.4-16.6-16.6 0-9.1 7.4-16.5 16.6-16.5 9.1 0 16.5 7.4 16.5 16.5 0 9.2-7.4 16.6-16.5 16.6z"/>
			<path id="&lt;Path&gt;" class="s0" d="m771.5 969.9c7.2-1.3 14.4-1.2 21.7-1.2 4.4 0 8.8 1.4 12.4 3.9 1.9 1.3 6.5 4.9 6.3 7.7 1 2.7-6.7-0.3-7.5-0.5-4.4-1.2-8.6-2.7-12.6-4.7-4.1-1.9-8.5-3-12.9-3.8q-2.8-0.5-5.6-0.9z"/>
			<path id="&lt;Path&gt;" class="s7" d="m822.7 989.9c-1.8 14.1-13.8 24.9-28.3 24.9-15.8 0-28.6-12.8-28.6-28.5q0-3 0.6-5.7c-5.8-3.2-17.9-7.8-32.9-1.5q-0.6 2.5-0.6 5.4c0 26.3 20.7 61.4 56.5 61.4 24.2 0 37-10.6 42.8-22.7 1.2-8.7 1.1-23.2-9.5-33.3z"/>
			<path id="&lt;Path&gt;" class="s8" d="m753.8 1011.6c5 9.2 14.9 27.3 42.5 30.1 0 0-34.9 5.1-51.8-24.9 3.2-1.6 6.5-3.1 9.3-5.2z"/>
			<path id="&lt;Path&gt;" class="s8" d="m743.1 1014.2c-1.5-3.2-2.8-6.6-3.8-10.6l11.1-1.2c0 0 0.4 2.7 2.1 6.5-2.8 2.1-6.1 3.7-9.4 5.3z"/>
			<path id="&lt;Path&gt;" class="s3" d="m975.8 869.8c-2 8.9-3.6 18.2-6.7 27 0-0.9 0-1.9-0.1-2.8-3.9 10.2-9.4 20.4-14.4 30.3 0.1-1.7-0.3-3.6-0.1-5.4-8.5 13.1-15.5 28.4-28.1 38.5 0.7-2.3 1.2-5 1.9-7.3-8.4 8.3-18.8 16.5-29.6 21.2 1.2-2.2 2.8-4.5 4.3-6.6-16 5.3-30.6 3.7-47.2 3.6 1.5-0.2 2.8-0.8 4.1-1.2-5.9 0.7-12.3-0.3-18-2-7.7-2.2-14-8.7-21.6-10.1 3 0.1 6-0.5 8.6-1.7-13.1-6.6-24.8-15.4-35.1-25.7 3 0.5 6.5 0.5 9.5 0.7-11.2-8.9-20-16.8-27.1-29.6 1.4 0.7 3 0.8 4.3 1.4-5.6-4.8-8.6-12.6-10-19.5v0.3c-2.7 15.1 7.4 36.5 16.8 47.7-3-2.7-5.4-4.4-8-7.5 12.4 22 29.6 36.9 51.7 48.2-2.3-0.2-6.6 0.2-8.2 0 14.4 10.5 27.5 15.4 45.8 12.8-1.2 1.6-2.3 3.5-3.7 4.9 11.4 0 21.3-0.7 30.6-6.8 0.4 7.2 0 6.5-1.5 13.2 10.6-3.4 34.4-24.9 40-34.3 1.3 2.4 0.8 4.9 0.6 7.1 4.4-4.7 16.6-17.3 17.6-29.9 0.8 4.3 1.2 2.8 1.7 7.3 7.3-10 13.8-20.2 12.1-32.1 0.7 3.7 1.7 2.2 2.6 7.7 6.4-16.7 10.6-31.8 7.2-49.4z"/>
			<path id="&lt;Path&gt;" class="s3" d="m1337.1 920.7l-0.3 0.8c20-4.3 37.4-32 36.5-51.7 4.3 17.6-2.9 39.8-17.5 50.7 11 0.8 26 1.1 36-4.1-1.5 4.9-5.9 8.8-10.7 10.4 26.3-0.2 69.2 7.8 79-23.5-0.5 13.3-5 24.7-17.2 31.4 3.4 0.8 11.1-0.8 14.6-1.4-3 5.2-12.1 7.1-17.6 8.5 9.8 3 19.5 4.1 28.6 2.7-10.6 5.1-19.6 5.3-30.8 2.8 5.8 6.7 13.7 11.9 18.4 19.6-10-10-35.5-19.3-49.4-21.2 8.1-2.5 15.4-2.4 19.7-3.2-11.2-5-29-1.3-41.2 0.5-11.9 1.8-17 0.2-30.2-0.6-7.7-0.4-12.8-1.1-20.3 1.8-3.5 1.4-23.6 11.1-31.7 13.4 13.3-9.9 25.3-22.8 34.1-36.9z"/>
			<path id="&lt;Path&gt;" class="s3" d="m1255.5 998.1c0.3 2.2 1 4.3 1.3 6.5-3.7-25 36.7-48.6 53.2-60-2.1 2.5-3.2 5.4-4.7 8.4 17.8-15.6 56.5-17.8 77.9-8.9-5.7 0.3-11 1.5-16.5 3.3 16.7-2.2 42 8.7 55.3 18.5-3.9-0.2-7 0.9-10.2 1.2 29.5 4.4 56.6 14.3 76.7 38-2.8-1.7-6.3-2.8-9.2-4.5 6 5 11.7 11.4 13.5 19.1-12.6-8.4-30.7-13.3-45.8-10.5 2.9 1.1 5.2 3.2 8 4.5-13.7-0.7-26.7 4.4-38.5 10.9 3.8-0.4 7.5 0.7 11.4 0.4-16.1 21.4-47.8 36.6-74.2 36.2 2.4 0.9 5.2 2.8 7.4 3.5-20.5 1.3-41 0.2-61.2-5.3 1.8 1.4 3.4 3.3 5.2 4.8-6.1-2-12-4.4-17.8-7.1-7.5 7.8-15.6 16.2-18.7 27.4l-0.6-1.5c-4.8 6.7-13 14.4-11.3 22.9-4.5-36.5-19.7-70.1-1.2-107.8z"/>
			<path id="&lt;Path&gt;" class="s6" d="m1347.5 959c0 0 41.9-0.8 41.9 25.5 0 26.3-20.8 61.4-56.6 61.4-35.9 0-46.9-23.3-46.9-40.3 0-17.1 12.8-46.6 61.6-46.6z"/>
			<path id="&lt;Path&gt;" fill-rule="evenodd" class="s3" d="m1330.3 1002.1c-9.2 0-16.6-7.4-16.6-16.6 0-9.1 7.4-16.5 16.6-16.5 9.1 0 16.5 7.4 16.5 16.5 0 9.2-7.4 16.6-16.5 16.6z"/>
			<path id="&lt;Path&gt;" class="s0" d="m1350.7 969.9c-7.1-1.3-14.4-1.2-21.7-1.2-4.4 0-8.8 1.4-12.4 3.9-1.9 1.3-6.5 4.9-6.3 7.7-1 2.7 6.7-0.3 7.5-0.5 4.4-1.2 8.6-2.7 12.6-4.7 4.2-1.9 8.5-3 12.9-3.8q2.8-0.5 5.6-0.9z"/>
			<path id="&lt;Path&gt;" class="s7" d="m1299.5 989.9c1.8 14.1 13.8 24.9 28.3 24.9 15.8 0 28.6-12.8 28.6-28.5q0-3-0.6-5.7c5.8-3.2 17.9-7.8 32.9-1.5 0.4 1.7 0.7 3.5 0.7 5.4 0 26.3-20.8 61.4-56.6 61.4-24.2 0-37-10.6-42.8-22.7-1.2-8.7-1.1-23.2 9.5-33.3z"/>
			<path id="&lt;Path&gt;" class="s8" d="m1368.4 1011.6c-5 9.2-14.8 27.3-42.5 30.1 0 0 35 5.1 51.8-24.9-3.2-1.6-6.5-3.1-9.3-5.2z"/>
			<path id="&lt;Path&gt;" class="s8" d="m1379.1 1014.2c1.5-3.2 2.8-6.6 3.9-10.6l-11.2-1.2c0 0-0.4 2.7-2.1 6.5 2.8 2.1 6.1 3.7 9.4 5.3z"/>
			<path id="&lt;Path&gt;" class="s3" d="m1146.4 869.8c2 8.9 3.6 18.2 6.7 27 0-0.9 0-1.9 0.1-2.8 3.9 10.2 9.5 20.4 14.4 30.3-0.1-1.7 0.3-3.6 0.1-5.4 8.6 13.1 15.5 28.4 28.1 38.5-0.7-2.3-1.2-5-1.9-7.3 8.4 8.3 18.8 16.5 29.6 21.2-1.2-2.2-2.8-4.5-4.3-6.6 16 5.3 30.6 3.7 47.3 3.6-1.6-0.2-2.9-0.8-4.2-1.2 5.9 0.7 12.3-0.3 18-2 7.7-2.2 14.1-8.7 21.6-10.1-3 0.1-5.9-0.5-8.6-1.7 13.1-6.6 24.8-15.4 35.1-25.7-3 0.5-6.5 0.5-9.5 0.7 11.3-8.9 20-16.8 27.1-29.6-1.4 0.7-3 0.8-4.3 1.4 5.6-4.8 8.6-12.6 10.1-19.5v0.3c2.6 15.1-7.5 36.5-16.9 47.7 3-2.7 5.4-4.4 8-7.5-12.4 22-29.6 36.9-51.7 48.2 2.3-0.2 6.6 0.2 8.2 0-14.4 10.5-27.5 15.4-45.8 12.8 1.2 1.6 2.3 3.5 3.7 4.9-11.4 0-21.3-0.7-30.6-6.8-0.4 7.2 0 6.5 1.5 13.2-10.6-3.4-34.4-24.9-40-34.3-1.3 2.4-0.8 4.9-0.6 7.1-4.4-4.7-16.6-17.3-17.6-29.9-0.8 4.3-1.2 2.8-1.6 7.3-7.4-10-13.9-20.2-12.2-32.1-0.7 3.7-1.7 2.2-2.6 7.7-6.4-16.7-10.6-31.8-7.2-49.4z"/>
			<path id="&lt;Path&gt;" class="s3" d="m875.1 1026.8c0.6 88.4-18.1 98.8-55.4 144.4 9.3-11.4 15.1-25.6 20.3-38.6-2.7 3.9-5.7 7.1-8.6 10.6 5.7-8.3 10-18.1 13-27.8-1.9 2.6-4.4 4.5-6.4 6.9 7.5-11.3 7.3-27.5 7-39.4-0.5 2.3-1.7 5.2-2.3 7.2 0.8-6.1 0.7-12.8-0.1-18.9-1.3 3.6-3.6 7.4-4.8 11.2 2.5-8.6 5.1-17.7-2.9-25.3 5.6-3.5 11.6-9.8 16.7-14.1z"/>
			<path id="&lt;Path&gt;" class="s3" d="m1247.2 1026.8c-7.6 84.4 18 98.8 55.3 144.4-9.3-11.4-15.1-25.6-20.2-38.6 2.6 3.9 5.7 7.1 8.6 10.6-5.7-8.3-10-18.1-13.1-27.8 2 2.6 4.4 4.5 6.4 6.9-7.5-11.3-7.3-27.5-7-39.4 0.6 2.3 1.8 5.2 2.3 7.2-0.8-6.1-0.7-12.8 0.2-18.9 1.3 3.6 3.5 7.4 4.8 11.2-2.5-8.6-5.1-17.7 2.8-25.3-5.5-3.5-11.6-9.8-16.6-14.1z"/>
			<path id="&lt;Path&gt;" class="s5" d="m1372.5 1425.7c5.2-3.6 8.7-10.2 14.4-13.1-34.5-3.6-67-5.4-101.6-6.8 0.3-2.1 2.2-4 2.5-6.1-27 0.2-43 11.6-66.1 23.5-19.1-25.6-142.6 15.7-171.9 24.6-29.4-8.9-152.9-50.2-172-24.6-23.1-11.9-39.1-23.3-66.1-23.5 0.3 2.1 2.3 4 2.5 6.1-34.6 1.4-67.1 3.2-101.6 6.8 5.7 2.9 9.2 9.5 14.4 13.1-35.5 17.1-89 40.8-84.3 90.2 1.6-0.9 3.8-3.4 5.9-4.3 1.8 8.5 5 18.2 6.6 26.8 1.7-1.1 1.9-3.8 3.7-4.8 18.5 36.8 46.2 76.8 73.8 107.6 17.5 19.6 60 36.7 48.1 70.1 12.4-1.7 16.6 10 20.1 21.9l2.3-1.6c8.1 16.3 14.7 33.7 27.6 46.7v-1.2c26 1.1 54.9 19.3 80.6 26.2 27.9 7.4 52.1 13.8 78.1 26.4-1.4-2.1-3.2-3.9-4.3-6.1 19 2.2 45.8-2.8 64.5-0.3h0.1c18.7-2.5 45.6 2.5 64.6 0.3-1.2 2.2-3 4-4.4 6.1 26-12.6 50.3-19 78.1-26.4 25.7-6.9 54.6-25.1 80.6-26.2l0.1 1.2c12.9-13 19.4-30.4 27.5-46.7l2.3 1.6c3.6-11.9 7.7-23.6 20.1-21.9-11.9-33.4 30.6-50.5 48.1-70.1 27.6-30.8 55.4-70.8 73.9-107.6 1.7 1 2 3.7 3.6 4.8 1.6-8.6 4.9-18.3 6.6-26.8 6.7-0.6 7.1 2.4 7.1 6.4 4.6-49.4-50-75.2-85.5-92.3z"/>
			<path id="&lt;Path&gt;" class="s1" d="m907.6 1690.4l0.8-0.4z"/>
			<path id="&lt;Path&gt;" class="s9" d="m1263.2 1702.5c0.8 1.1-0.7 1.7-0.3 2.9-8.7-5.1-14.5-8.5-23.5-12.4 1.2 2.2 1.2 2.2 0.5 3.2-19.8-4-37.6-19.8-56.2-26.8l1.5 3.1c-15.5-3.5-29.8-13.7-44.6-19.7 1.2 1.2 4 4.8 5.1 6.1-12.1-6-24-15.7-37.3-18.4 1 1.2 2.7 2.2 3.3 3.8-8.7-5.3-19.2-11.2-28.5-14.5 1 2.5 1.6 3.3 1.8 3.2-10.1-4.7-31.8-15.1-43.4-15.1-11.6 0-33.4 10.4-43.4 15.1 0.2 0.1 0.7-0.7 1.8-3.2-9.4 3.3-19.8 9.2-28.6 14.5 0.7-1.6 2.3-2.6 3.3-3.8-13.3 2.7-25.2 12.4-37.2 18.4 1-1.3 3.9-4.9 5-6.1-14.8 6-29.1 16.2-44.6 19.7l1.5-3.1c-18.5 7-36.4 22.8-56.2 26.8-0.7-1-0.7-1 0.5-3.2-9 3.9-14.7 7.3-23.5 12.4 0.4-1.2-1.1-1.8-0.3-2.9-14.1 11-0.4 35.3 8.1 46.2 1-1.3 1.9-3.9 2.8-5.4 2.1 4 7 6.7 9.5 10.2 0.2-2.7 1-4.8 1.7-7.4 5.1 6.1 12.7 10.7 20.1 12.9l0.2-3.3c11.1 9.5 27.9 14.5 43.3 14.3-1-1.9-1.5-2.3-1.8-4.6 9.2 12.5 28.4 15.7 42.9 18.1 0.1-1.6-0.9-2.9-0.5-4.6 10.7 10 28.8 7 42.4 10.8-2.1-2.2-2.6-4.3-2.4-6.3 5.4 9.7 21.1 5.1 42.6 3.1-6.3 3.4 5.3 5.9 12.8 5.9 7.5 0 19.1-2.5 12.8-5.9 21.4 2 37.1 6.6 42.6-3.1 0.2 2-0.4 4.1-2.4 6.3 13.5-3.8 31.6-0.8 42.3-10.8 0.5 1.7-0.6 3-0.5 4.6 14.5-2.4 33.8-5.6 42.9-18.1-0.3 2.3-0.7 2.7-1.8 4.6 15.5 0.2 32.2-4.8 43.3-14.3l0.2 3.3c7.4-2.2 15-6.8 20.2-12.9 0.6 2.6 1.4 4.7 1.7 7.4 2.5-3.5 7.3-6.2 9.4-10.2 0.9 1.5 1.9 4.1 2.8 5.4 8.5-10.9 22.2-35.2 8.1-46.2z"/>
		</g>
	</g>
</svg>