<svg version="1.2" xmlns="http://www.w3.org/2000/svg" viewBox="0 0 2122 2122" width="100">
	<style>
		.s0 { fill: #fefefe } 
		.s1 { fill: #fec957 } 
		.s2 { fill: #ffdeaa } 
		.s3 { fill: #171716 } 
		.s4 { fill: #e6ab59 } 
		.s5 { fill: #fedc98 } 
		.s6 { fill: #53300e } 
		.s7 { fill: #f58d24 } 
		.s8 { fill: #faac3a } 
		.s9 { fill: #000000 } 
		.s10 { fill: #020201 } 
		.s11 { fill: #e39144 } 
	</style>
	<g id="tiger">
		<g id="face_front">
			<path id="&lt;Path&gt;" class="s3" d="m1034.6 1517.8h0.1z"/>
			<path id="&lt;Path&gt;" class="s3" d="m1308.2 1680.8c-1.7-0.1-2.9-1.6-2.6-3.2-5.6 1.5-11.3 2.8-17.2 3.2-1.5 0.1-2.7-1.3-2.7-2.7-14 4.7-28.1 11-43 8-1.7-0.3-2.6-2.6-1.6-4l1.3-2.4c-8.3-0.7-21.1-7.8-11.3-9.2-10.5-2.7-24.9-4.4-34.1-11.2-1.6-1.3 2.7-0.8 4.5-2.1-16.5-4-37.3-9-52.9-16.4-1.4-0.6 4.2-2.1 5.1-3.3-14-0.3-34-0.9-47.4-5.9-2-0.8 4.2-3 5.2-4.4-19.7-6.3-47.3-11.6-60-28.9-1.6-2.2 1-4.3 3.1-4 1.2 0.1 2.3 0.3 3.5 0.5-0.7-1.5-10-27.6-6-28.5l3.3 3.4c-1-3.2-1.6-6.9-2.8-10 0.7 1.6 1.7 3.3 2.4 5.1-1.4-8.6-2.9-21.4-1.7-31.3l-1.2 1.3c1.7-11.8 4.9-24 7.4-35.7-1.6 2.8-4.4 5.1-6.2 7.4 0.4-3.3-0.4-6.9 0-10.2-1.6 3.7-5.9 7.6-7.6 10.8-0.6-4.1-3.2-8.5-3.6-12.7-4.4 7.5-4.2 18.1-5.7 27.1-0.6-1.8-1.2-3.8-1.7-5.7-0.1 9.4 1.6 19.8 1.6 28.4-0.9-0.8-1.9-2.3-2.9-3.1 1.1 4.2 9.1 31.5 0.5 33.2 1.6 11.1 2.1 21.9-1.3 32.9-0.6 1.8-3.1 2.7-4.5 1.2-3.8-4-6.5-11.4-11.2-5.5-0.7 0.9-2.3 1.1-3.2 0.5-4 5.8-17.6 15.1-17.8 13.3-0.3-2.9-0.5-4.3-0.6-5.7-12.9 7.4-40.2 23.6-40.3 22q-0.1-1.5-0.3-3.1c-13.7 8-42.7 25.3-42.7 23.6l0.1-1.2c-19 8.1-33.2 25.2-53.9 29.7-1.9 0.5-0.3-5.6-0.4-7.4-11.2 10.9-35.3 16.2-49.8 20.8-2 0.7 0-2.5 0.5-4.5l0.2-0.7c-9.8 2.7-17.6 3.5-27.5 0.1 2.1 6 2.3 12.6-0.1 20 9.5-2.9 18.7-6.7 28.6-8.3 1.2-0.2 2.2 0.3 2.9 1.1 19.8-3.8 43.1-14.9 62.6-20.3 1.6-0.4-1.8 3.4-1.5 4.8 11.1-4.3 25.4-15.4 37.3-17.7 1.4-0.3-2.1 3.2-1.8 4.7l0.1 0.6c20-6.1 42.7-22 61-31.6 2.5-1.3-1.5 3.4-2.7 5.8l-1.1 2.6c13.8-5.2 25.4-15.1 39.6-19.5 0.9-0.3 1.8 0 2.5 0.6 4.2-3.1 8.1-6.3 13.2-8.1 3-1.2 6.9 2 10.4 0.9 4.5-1.5 15.6-7.6 19.5-1.6 3.7 5.5 11.8 4.6 17.9 6 8 1.9 15.9 3.8 23.9 5.6 13 2.8 34.2 8.8 45.9 15.2 1.3 0.7-6-0.9-6.8 0.4-4.8 7.7 33.3 12.7 38.5 14.3 2.4 0.6 4.1 1 2.1 2.3-3.8 2.5-7.8 4.3-11.8 6.3 13.3 1.1 30.4 0.7 43.5 4.7 2.1 0.6-1.3 2.2-2.7 3.6 14 5.1 32 9.2 46.3 14.1 1.3 0.4-2.4 2.1-2.5 3.3 8.9 1.8 20 3.2 29.1 2.7 2.5-0.2 1.2 1.5-0.4 3.1l-1.2 1.1c12.6-2.3 25.1-4.6 36.7-10.2 1.4-0.6 2.6-0.2 3.4 0.6 1.1-0.5 2.3-1 3.4-1.5 0.9-6.3 3.7-11.9 7.7-17-5.3 1.4-10.7 2.2-16.5 1.9z"/>
			<path id="&lt;Path&gt;" class="s3" d="m699.2 1494.3c-3.1 9.7-1.3 21 6 28.1l2.3 2.1c8.8 6.7 18.9 1.6 20.9-9.3 2-10.6 2.6-27.9-5.9-36.2-9.7-9.4-20.9 7.7-23.3 15.3z"/>
			<path id="&lt;Path&gt;" class="s3" d="m756.6 1496.2c-2.1 8.4 0.1 17.8 6.6 23.5l2.1 1.6c7.8 5.3 16.1 0.4 17.3-8.9 1.1-9.1 0.7-23.8-7-30.4-8.7-7.5-17.3 7.7-19 14.2z"/>
			<path id="&lt;Path&gt;" class="s3" d="m813.1 1512l1.7 0.8c6.6 2.6 12.6-1.6 12.7-7.8 0.1-6.1-1.3-15.7-7.8-19.1-7.4-3.9-12.8 6.9-13.6 11.4-1 5.8 1.5 11.7 7 14.7z"/>
			<path id="&lt;Path&gt;" class="s3" d="m854.9 1501.2l1.4 0.7c5.1 2 9.9-1.3 10-6.2 0.1-4.8-1.1-12.3-6.2-15.1-5.8-3-10.1 5.5-10.7 9.1-0.8 4.5 1.2 9.2 5.5 11.5z"/>
			<path id="&lt;Path&gt;" class="s3" d="m883.2 1492.5l1 0.5c3.9 1.5 7.4-0.9 7.5-4.6 0.1-3.6-0.8-9.3-4.6-11.3-4.4-2.3-7.6 4.1-8.1 6.8-0.5 3.3 0.9 6.9 4.2 8.6z"/>
			<path id="&lt;Path&gt;" class="s3" d="m758.4 1553.8c-10.4-7.1-17.9 10.5-18.9 17.9-1.3 9.4 2.2 19.5 10 24.9l2.5 1.5c9.2 4.8 17.6-1.5 17.7-11.8 0.1-10.2-2.1-26.2-11.3-32.5z"/>
			<path id="&lt;Path&gt;" class="s3" d="m804.7 1586c8.1 3.6 15-2.3 14.5-11-0.4-8.6-3.1-22.1-11.2-26.9-9.3-5.5-14.8 9.8-15.3 16.1-0.6 8.1 2.9 16.4 9.8 20.7z"/>
			<path id="&lt;Path&gt;" class="s3" d="m849 1570.2c6.5 1.3 11.3-3.5 10.5-9.3-0.9-5.6-3.8-14.2-10.3-16.4-7.4-2.4-10.7 8.5-10.7 12.8 0 5.4 3.2 10.5 8.8 12.4z"/>
			<path id="&lt;Path&gt;" class="s3" d="m893.7 1546.2c-0.7-4.5-2.9-11.3-8.1-13-5.8-1.9-8.4 6.7-8.4 10.1 0 4.3 2.6 8.3 6.9 9.8l1.4 0.3c5.1 1.1 8.9-2.7 8.2-7.2z"/>
			<path id="&lt;Path&gt;" class="s3" d="m813.1 1625.2c-10.7-4.7-14.6 12.6-14.3 19.5 0.3 8.8 5.2 17.4 13.2 21.1l2.5 0.9c9.2 2.9 15.9-4.3 14.3-13.7-1.6-9.3-6.3-23.6-15.7-27.8z"/>
			<path id="&lt;Path&gt;" class="s3" d="m857.3 1611.8c-9.3-3.5-11.8 11.4-11.2 17.3 0.7 7.4 5.3 14.4 12.3 17.1l2.2 0.7c8 1.9 13.3-4.6 11.4-12.4-1.8-7.8-6.5-19.7-14.7-22.7z"/>
			<path id="&lt;Path&gt;" class="s3" d="m894.3 1601.7c-7.2-1-8.4 9.5-7.7 13.4 1 5 4.8 9.1 10.1 9.9l1.7 0.1c6.1 0.1 9.7-5 8-10.1-1.8-5.1-5.8-12.4-12.1-13.3z"/>
			<path id="&lt;Path&gt;" class="s3" d="m925.6 1585.4c-5.6-0.8-6.6 7.5-6 10.5 0.7 3.9 3.7 7.1 8 7.8l1.3 0.1c4.7 0.1 7.6-4 6.2-8-1.3-4-4.5-9.8-9.5-10.4z"/>
			<path id="&lt;Path&gt;" class="s3" d="m953.6 1582.2c-1-2.9-3.4-7.3-7.1-7.8-4.3-0.6-4.9 5.6-4.5 7.9 0.5 2.9 2.8 5.4 5.9 5.8l1 0.1c3.6 0.1 5.8-3 4.7-6z"/>
			<path id="&lt;Path&gt;" class="s3" d="m1400.3 1494.3c3.2 9.7 1.3 21-5.9 28.1l-2.4 2.1c-8.8 6.7-18.8 1.6-20.8-9.3-2-10.6-2.7-27.9 5.9-36.2 9.6-9.4 20.8 7.7 23.2 15.3z"/>
			<path id="&lt;Path&gt;" class="s3" d="m1342.9 1496.2c2.1 8.4 0 17.8-6.5 23.5l-2.1 1.6c-7.9 5.3-16.2 0.4-17.3-8.9-1.2-9.1-0.8-23.8 6.9-30.4 8.7-7.5 17.3 7.7 19 14.2z"/>
			<path id="&lt;Path&gt;" class="s3" d="m1286.4 1512l-1.7 0.8c-6.5 2.6-12.5-1.6-12.7-7.8-0.1-6.1 1.4-15.7 7.9-19.1 7.3-3.9 12.8 6.9 13.5 11.4 1 5.8-1.5 11.7-7 14.7z"/>
			<path id="&lt;Path&gt;" class="s3" d="m1244.6 1501.2l-1.4 0.7c-5.1 2-9.8-1.3-10-6.2-0.1-4.8 1.1-12.3 6.2-15.1 5.8-3 10.1 5.5 10.7 9.1 0.8 4.5-1.2 9.2-5.5 11.5z"/>
			<path id="&lt;Path&gt;" class="s3" d="m1216.3 1492.5l-1 0.5c-3.8 1.5-7.4-0.9-7.5-4.6-0.1-3.6 0.8-9.3 4.7-11.3 4.3-2.3 7.5 4.1 8 6.8 0.6 3.3-0.9 6.9-4.2 8.6z"/>
			<path id="&lt;Path&gt;" class="s3" d="m1341.1 1553.8c10.4-7.1 17.9 10.5 19 17.9 1.3 9.4-2.3 19.5-10.1 24.9l-2.4 1.5c-9.3 4.8-17.7-1.5-17.8-11.8-0.1-10.2 2.1-26.2 11.3-32.5z"/>
			<path id="&lt;Path&gt;" class="s3" d="m1294.8 1586c-8.1 3.6-14.9-2.3-14.5-11 0.4-8.6 3.1-22.1 11.3-26.9 9.2-5.5 14.7 9.8 15.2 16.1 0.6 8.1-2.9 16.4-9.8 20.7z"/>
			<path id="&lt;Path&gt;" class="s3" d="m1250.5 1570.2c-6.4 1.3-11.3-3.5-10.5-9.3 0.9-5.6 3.8-14.2 10.3-16.4 7.5-2.4 10.7 8.5 10.7 12.8 0 5.4-3.2 10.5-8.8 12.4z"/>
			<path id="&lt;Path&gt;" class="s3" d="m1205.8 1546.2c0.7-4.5 3-11.3 8.1-13 5.9-1.9 8.4 6.7 8.4 10.1 0 4.3-2.5 8.3-6.9 9.8l-1.4 0.3c-5 1.1-8.9-2.7-8.2-7.2z"/>
			<path id="&lt;Path&gt;" class="s3" d="m1286.4 1625.2c10.7-4.7 14.7 12.6 14.4 19.5-0.4 8.8-5.3 17.4-13.3 21.1l-2.5 0.9c-9.2 2.9-15.8-4.3-14.2-13.7 1.5-9.3 6.2-23.6 15.6-27.8z"/>
			<path id="&lt;Path&gt;" class="s3" d="m1242.2 1611.8c9.4-3.5 11.8 11.4 11.3 17.3-0.8 7.4-5.4 14.4-12.4 17.1l-2.2 0.7c-8 1.9-13.2-4.6-11.4-12.4 1.8-7.8 6.5-19.7 14.7-22.7z"/>
			<path id="&lt;Path&gt;" class="s3" d="m1205.3 1601.7c7.1-1 8.3 9.5 7.6 13.4-1 5-4.7 9.1-10.1 9.9l-1.7 0.1c-6 0.1-9.7-5-7.9-10.1 1.7-5.1 5.7-12.4 12.1-13.3z"/>
			<path id="&lt;Path&gt;" class="s3" d="m1173.9 1585.4c5.7-0.8 6.6 7.5 6 10.5-0.7 3.9-3.7 7.1-7.9 7.8l-1.3 0.1c-4.8 0.1-7.7-4-6.3-8 1.3-4 4.5-9.8 9.5-10.4z"/>
			<path id="&lt;Path&gt;" class="s3" d="m1145.9 1582.2c1-2.9 3.4-7.3 7.2-7.8 4.2-0.6 4.9 5.6 4.4 7.9-0.5 2.9-2.7 5.4-5.9 5.8l-1 0.1c-3.6 0.1-5.7-3-4.7-6z"/>
			<path id="&lt;Path&gt;" class="s3" d="m953.6 1582.2c0 0-3.2 2.6-9 7-2.8 2.3-5.8 5.5-9.5 8.7-3.6 3.4-7.2 7.8-11.5 12.2q-2.9 3.6-6 7.4c-2.1 2.6-4.3 5.2-6.3 8.1q-3.1 4.2-6.3 8.7-3.1 4.6-6.3 9.3c-4.4 6.3-8.1 13.3-12.4 20.1-3.8 7.1-8 14.1-11.5 21.5-1.8 3.6-3.8 7.2-5.5 10.9q-2.6 5.5-5.1 11c-3.3 7.4-6.3 14.7-9.2 21.8-2.5 7.2-5.5 14-7.5 20.8-2.3 6.6-4.3 13-5.9 18.9q-1.3 4.5-2.5 8.5-0.9 4.1-1.8 7.8c-1.2 4.8-2.3 9.1-2.8 12.6-1.4 7.2-2.2 11.2-2.2 11.2 0 0 0.1-4.1 0.3-11.4 0.1-3.6 0.5-8 1.1-13.1q0.5-3.8 1-8 0.7-4.2 1.6-8.8c0.6-3.1 1.1-6.3 1.9-9.6q1.2-4.9 2.5-10.1c1.7-7 4.1-14.2 6.5-21.7 1.2-3.7 2.7-7.4 4.1-11.2 1.4-3.7 2.8-7.6 4.6-11.3q2.5-5.7 5-11.4c1.7-3.8 3.7-7.5 5.5-11.2 3.7-7.5 8-14.7 12.1-21.8 2.1-3.5 4.4-7 6.6-10.3q3.2-5.1 6.8-9.9c2.3-3.1 4.5-6.3 6.8-9.3q3.7-4.3 7.2-8.4c4.5-5.7 9.6-10.3 13.8-14.8 4.8-4.2 9-8.1 13.1-11.2 4.2-3 7.7-5.7 10.8-7.5 6.4-3.5 10-5.5 10-5.5z"/>
			<path id="&lt;Path&gt;" class="s3" d="m861.4 1625.1c0 0-0.9 0.4-2.6 1.1q-1.2 0.5-3.1 1.2-1.7 0.9-3.9 2c-2.9 1.6-6.4 3.7-10 6.5-3.7 2.7-7.5 6.3-11.5 10.3-3.9 4.1-7.9 8.7-11.7 13.9-3.9 5.2-7.6 10.9-11.3 17-3.7 6-7 12.6-10.5 19.2-3.4 6.6-6.5 13.6-9.6 20.5-3 7-6 14-8.7 21-2.7 7.1-5.4 13.9-7.8 20.7-4.8 13.5-9.1 26.2-12.7 37.2-7 22-11.7 36.7-11.7 36.7 0 0 0.4-3.9 1.4-10.6 1-6.7 2.6-16.2 5.1-27.5 2.5-11.4 5.8-24.5 10.1-38.4 2.1-7 4.4-14.1 7.1-21.3 2.6-7.2 5.6-14.4 8.6-21.6 6.4-14.1 13.5-28.1 21.7-40.3 4-6.2 8.4-11.8 12.8-17 4.4-5.2 9-9.6 13.5-13.5 4.5-3.8 9-6.9 13.2-9.3 4.1-2.4 8-4 11.2-5.2q2.5-0.8 4.4-1.4 1.9-0.4 3.3-0.6c1.8-0.4 2.7-0.6 2.7-0.6z"/>
			<path id="&lt;Path&gt;" class="s3" d="m859.2 1493.5c0 0-4.1-2.1-11.3-5.6q-2.7-1.3-6-3-3.3-1.4-7.1-3.1c-5.1-2.3-10.7-4.9-17.1-7.3q-4.7-1.9-9.9-3.9c-3.4-1.3-7-2.4-10.7-3.7-7.3-2.7-15.3-4.7-23.4-7.2-4.1-1.2-8.3-2-12.5-3.1q-6.4-1.6-13-2.8c-4.3-0.9-8.7-1.9-13.1-2.5q-6.7-1.1-13.4-2.1c-9-1.1-18-2.4-26.9-3-8.9-0.7-17.6-1.3-26.2-1.7-8.5-0.1-16.7-0.6-24.5-0.5-7.9 0-15.3-0.1-22.1 0-13.7 0.2-25.1 0.5-33.2 0.8-8 0.2-12.6 0.3-12.6 0.3 0 0 4.6-0.8 12.5-2.2 3.9-0.7 8.8-1.4 14.3-2.1 5.6-0.8 11.8-1.6 18.7-2.2 6.9-0.7 14.3-1.3 22.2-1.7 7.9-0.5 16.3-0.6 24.9-0.6 8.7 0.1 17.6 0.1 26.7 0.9 4.5 0.2 9.1 0.6 13.7 1.1 4.6 0.6 9.2 0.9 13.8 1.6q6.8 1.1 13.7 2.2c4.5 0.8 9 1.9 13.4 2.8q3.4 0.7 6.7 1.4 3.3 0.9 6.5 1.8c4.3 1.3 8.6 2.3 12.7 3.7 8.3 2.7 16.2 5.3 23.5 8.5 3.7 1.6 7.3 2.9 10.7 4.5q5 2.5 9.7 4.8c6.3 2.9 11.7 6.2 16.6 9 2.4 1.4 4.7 2.7 6.8 4q3 2 5.5 3.7c6.6 4.6 10.4 7.2 10.4 7.2z"/>
			<path id="&lt;Path&gt;" class="s3" d="m769.4 1502.5c0 0-1.5-0.5-4.4-1.4-2.9-0.9-7.1-2.4-12.5-4.4-5.2-2.1-11.6-4.7-18.9-8-7.2-3.2-15.3-7-24-11.2-17.5-8.5-37.7-19-59.4-29.7-10.9-5.3-22.3-10.6-33.8-15.1-6-2.2-12-4.5-18.1-6.5-6.1-1.9-12.1-4.1-18.3-5.8-12.2-3.8-24.7-6.7-37-9.2-6.1-1.3-12.3-2.1-18.4-3.1-6.1-0.6-12.2-1.5-18.1-1.8-12-1.2-23.6-1.1-34.6-1.1-5.5 0.1-10.9 0.4-16.1 0.5q-7.8 0.5-15 1c-9.7 0.7-18.5 1.6-26.4 2.4-7.8 0.7-14.7 1.6-20.3 2.1-5.6 0.8-10.1 1.2-13.1 1.6-3 0.3-4.6 0.5-4.6 0.5 0 0 1.6-0.4 4.5-1.1 3-0.7 7.3-1.8 12.9-3 5.5-1.1 12.3-2.6 20-4.1 7.8-1.6 16.7-3 26.3-4.4q7.3-0.9 15.2-1.9c5.2-0.4 10.7-0.9 16.3-1.3 11.2-0.5 23.1-0.8 35.4 0 12.4 0.5 25 2.2 37.7 4.5 6.4 1.3 12.8 2.5 19.1 4.3 6.4 1.5 12.6 3.4 18.9 5.3 6.3 1.8 12.5 4.2 18.7 6.3 6 2.3 12 4.7 17.9 7.1 12.2 5 23.3 10.7 34.1 16.4 21.6 11.4 41.2 22.8 58.2 32.2 8.5 4.7 16.3 9 23.3 12.7 6.9 3.6 13.1 6.6 18.2 9 5.2 2.4 9.2 4.3 12 5.4 2.8 1.2 4.3 1.8 4.3 1.8z"/>
			<path id="&lt;Path&gt;" class="s3" d="m816.7 1500.5c0 0-2.2-0.4-6.2-1.1-4.1-0.8-10-1.7-17.6-3-7.6-1.1-16.8-2.3-27.4-3.3-10.6-1-22.6-1.7-35.8-2.2-26.2-1.1-56.8-0.5-89.9-1.1q-12.3-0.2-25-0.4-6.4-0.1-12.8-0.3-6.3 0.1-12.8 0.2c-17.1 0.2-34.5 1.5-51.9 2.9-8.7 0.8-17.3 1.9-25.9 2.9-8.6 1.3-17.2 2.4-25.7 3.9-16.9 3-33.5 6.2-49.4 10.2-7.9 2-15.7 3.9-23.3 6.1q-5.7 1.6-11.3 3.2-5.5 1.7-10.8 3.4c-7.2 2.1-14.2 4.4-20.9 6.8-6.6 2.3-13.1 4.4-19.2 6.8-12.4 4.5-23.6 9-33.5 13-9.8 4.1-18.3 8-25.4 11-13.9 6.4-21.9 10.1-21.9 10.1 0 0 7.7-4.2 21.2-11.7 6.8-3.4 15.1-7.8 24.8-12.5q7.3-3.4 15.4-7.3c5.5-2.5 11.4-4.9 17.4-7.5 6.1-2.7 12.5-5.1 19.2-7.7 6.6-2.7 13.5-5.1 20.7-7.6q5.4-1.8 10.9-3.7 5.6-1.8 11.3-3.5c3.8-1.2 7.6-2.5 11.5-3.6q5.9-1.6 11.9-3.2c16-4.3 32.8-8 49.9-11.2 8.5-1.6 17.2-2.7 25.9-4.1 8.8-1.1 17.5-2.3 26.3-3.1 17.7-1.6 35.3-2.6 52.8-2.7q6.5-0.1 13-0.1 6.4 0.1 12.8 0.3c8.4 0.2 16.9 0.6 25.1 0.9 32.8 1.1 63.6 1.6 90 3.9 13.2 1.1 25.2 2.5 35.8 4.2 10.7 1.7 19.8 3.5 27.4 5.1 7.5 1.7 13.4 3.2 17.3 4.4 4 1.1 6.1 1.6 6.1 1.6z"/>
			<path id="&lt;Path&gt;" class="s3" d="m455.6 1820.5c0 0 3.8-5.7 10.5-15.6q2.6-3.7 5.6-8.1c2.1-3 4.6-6 7.1-9.3 5.3-6.5 10.7-14.4 17.8-21.9 6.9-7.6 14.2-16.1 22.9-24.2 4.3-4.1 8.5-8.4 13.2-12.6q7-6.1 14.4-12.4c4.8-4.4 10.1-8.2 15.3-12.3 5.3-4 10.5-8.4 16.1-12.1 5.6-3.8 11.3-7.7 16.9-11.6q8.7-5.5 17.5-11c5.8-3.7 11.8-7 17.8-10.4 5.9-3.3 11.8-6.8 17.9-9.8q9-4.7 17.8-9.3 9-4.3 17.7-8.4c11.6-5.6 23.1-10.4 33.9-15.1 10.8-4.6 21.1-8.9 30.6-12.6 19.1-7.7 35.2-13.4 46.4-17.7 11.2-4.2 17.7-6.5 17.7-6.5 0 0-6.2 3.1-17 8.2-10.8 5-26.3 12.2-44.9 20.9-9.3 4.4-19.3 9.1-30 14.1-10.5 5.1-21.7 10.4-33.1 16.1q-8.5 4.4-17.3 8.8-8.7 4.7-17.5 9.5c-6 3-11.8 6.5-17.7 9.8-5.8 3.4-11.7 6.7-17.4 10.4q-8.7 5.4-17.3 10.7-8.4 5.7-16.7 11.3c-5.6 3.7-10.8 7.8-16.1 11.6-5.3 4-10.6 7.7-15.4 11.8q-7.4 6-14.5 11.8c-4.8 3.9-9.1 8.1-13.4 11.9-8.9 7.7-16.5 15.6-23.8 22.8q-2.7 2.7-5.3 5.3-2.5 2.7-4.8 5.3-4.7 5.1-8.9 9.7c-2.8 3.1-5.5 5.9-7.8 8.7q-3.4 4.2-6.2 7.7c-7.5 9.3-12 14.5-12 14.5z"/>
			<path id="&lt;Path&gt;" class="s3" d="m885.5 1546.9c0 0-5.9 3.1-16.3 8.3-5.3 2.5-11.4 6.1-18.4 10-7.2 3.8-14.9 8.6-23.4 13.8q-3.2 1.9-6.5 3.9-3.2 2.2-6.5 4.4-6.7 4.5-13.8 9.2c-9.1 6.8-19 13.5-28.6 21.4-4.8 3.9-9.9 7.6-14.6 11.8q-7.2 6.3-14.6 12.7c-9.4 8.9-19.3 17.7-28.3 27.4-9.4 9.2-18 19.2-26.7 28.9q-6.2 7.5-12.3 14.9-3 3.7-6 7.3-2.8 3.8-5.6 7.5-5.6 7.4-11 14.5-5.2 7.4-10 14.4c-6.7 9.2-12.2 18.4-17.7 26.7-2.8 4.2-5.2 8.3-7.5 12.2q-3.5 5.8-6.6 11c-4.3 6.9-7.6 13.1-10.4 18.3-5.6 10.2-8.9 16-8.9 16 0 0 2.6-6.2 7.3-16.8 2.3-5.4 5.2-11.9 8.9-19.1 3.7-7.2 7.4-15.7 12.5-24.3 5-8.7 10.1-18.3 16.5-27.9q4.6-7.3 9.5-14.9 5.3-7.4 10.7-15.1 2.7-3.8 5.5-7.7 3-3.8 6-7.6c4-5.1 8-10.3 12.2-15.3 8.7-9.9 17.4-20.1 26.9-29.6 9.2-9.8 19.3-18.6 29-27.6 10-8.6 20-16.9 30.2-24.3 9.8-7.8 20.2-14.1 29.7-20.7 9.9-5.8 19-11.8 28-16.3 8.9-4.7 17-9 24.5-12.2 7.4-3.4 13.8-6.5 19.2-8.5 10.9-4.4 17.1-6.7 17.1-6.7z"/>
			<path id="&lt;Path&gt;" class="s3" d="m849.3 1553.6c0 0-6.3 13.7-16.8 33.5-2.7 4.9-5.5 10.3-8.6 15.9-3.1 5.6-6.4 11.6-9.7 17.7-3.5 6.1-6.9 12.5-10.3 18.9-3.4 6.5-7.1 12.9-10.3 19.6-3.4 6.6-6.7 13.2-10 19.8-3.1 6.5-6 13.1-8.8 19.4q-2.2 4.8-4.3 9.4c-1.3 3-2.4 6.1-3.6 9.1-2.3 5.9-4.6 11.5-6.7 16.7-1.1 2.5-2 5.1-2.8 7.5q-1.2 3.6-2.3 6.8c-1.5 4.3-2.8 8.1-3.9 11.1-2.3 6.2-3.6 9.7-3.6 9.7 0 0 0.7-3.7 1.8-10.1 0.6-3.3 1.4-7.2 2.2-11.7 1.1-4.4 1.7-9.6 3.5-15 1.5-5.4 3.2-11.3 5.2-17.4 1-3.1 1.9-6.3 3-9.6q1.8-4.7 3.8-9.6c2.7-6.6 5.1-13.5 8.3-20.2 3.2-6.7 6.5-13.4 9.8-20.2 3.4-6.7 7.2-13.2 10.8-19.7 3.5-6.5 7.4-12.7 11-18.6 7.4-12 14.6-23 20.9-32.3 12.4-18.6 21.4-30.7 21.4-30.7z"/>
			<path id="&lt;Path&gt;" class="s3" d="m806 1567c0 0-5.3-0.1-14.5-0.5-2.3-0.1-4.9-0.3-7.6-0.2q-4.2 0.2-8.9 0.4-4.8 0.3-10.1 0.5-5.3 0.8-11.1 1.5c-7.8 0.7-16 2.9-24.7 4.7-4.3 0.9-8.6 2.6-13.1 3.9q-3.3 1-6.8 2c-2.2 0.7-4.4 1.8-6.7 2.6-4.5 1.8-9.1 3.5-13.7 5.5q-6.7 3.2-13.7 6.5c-4.6 2.1-8.9 4.9-13.5 7.3l-6.8 3.8-6.5 4.2c-4.4 2.8-8.9 5.4-13.1 8.4q-6.3 4.5-12.6 8.9c-4.2 3-8.1 6.3-12.1 9.3-4 3-7.9 6.1-11.6 9.3q-5.7 4.7-11.1 9.2-5.4 4.7-10.4 9.1c-6.8 5.9-13 11.8-18.8 17.1-5.8 5.3-10.9 10.4-15.6 14.8-4.7 4.4-8.6 8.3-11.9 11.5-6.6 6.5-10.4 10.1-10.4 10.1 0 0 3.2-4.1 9.1-11.3 2.9-3.6 6.4-7.9 10.7-12.7 4.2-4.9 8.8-10.5 14.3-16.2 5.4-5.8 11.2-12.1 17.8-18.4q4.9-4.8 10-9.8 5.3-4.8 10.9-9.8c3.6-3.3 7.5-6.5 11.5-9.8 4-3.2 7.9-6.6 12.2-9.6q6.3-4.6 12.8-9.3c4.2-3.2 8.9-5.8 13.3-8.8l6.8-4.2 7-3.8c4.7-2.5 9.2-5.3 14-7.4q7.2-3.3 14.3-6.5c4.8-1.9 9.6-3.5 14.3-5.2 4.7-1.8 9.5-3.1 14.2-4.2 4.7-1.1 9.1-2.6 13.7-3.3 9.1-1.5 17.6-3.1 25.6-3.2q6-0.4 11.5-0.7 5.4 0.3 10.3 0.5 4.9 0.3 9.1 0.5c2.8 0.2 5.3 0.7 7.5 1 9.2 1.4 14.4 2.3 14.4 2.3z"/>
			<path id="&lt;Path&gt;" class="s3" d="m1172.1 1594.5c0 0 3.3 1.8 9.1 5 3 1.5 6.1 4.2 10 6.9 3.9 2.8 7.4 6.6 11.7 10.6 2.1 2 4 4.3 6.1 6.7 2.1 2.3 4.2 4.7 6.1 7.5q2.9 4 6 8.2c1.9 2.9 3.7 6 5.6 9 2 3.1 3.7 6.3 5.4 9.6 1.7 3.3 3.6 6.5 5.2 10 3 6.9 6.3 13.9 8.9 21.1 2.8 7.1 4.9 14.5 7.3 21.7 1.1 3.6 2 7.2 2.9 10.8 1 3.5 1.9 7.1 2.6 10.6 1.6 7 2.9 13.7 3.9 20.2 1.2 6.5 1.9 12.7 2.5 18.3 0.8 5.7 1 11 1.3 15.6 0.4 4.6 0.5 8.6 0.5 12 0 6.6 0 10.4 0 10.4 0 0-0.7-3.7-1.9-10.2-0.5-3.3-1.3-7.3-2.2-11.8-0.9-4.5-1.8-9.6-3-15.1-1.2-5.5-2.5-11.5-4.1-17.8-1.4-6.3-3.2-12.8-5-19.6-1.7-6.8-4.2-13.7-6.2-20.8-2.4-6.9-4.6-14.1-7.4-21-2.5-7-5.5-13.9-8.4-20.6-1.5-3.4-3.2-6.6-4.7-9.8-1.5-3.3-3-6.5-4.8-9.5q-2.5-4.6-4.9-9-2.7-4.2-5.3-8.3c-1.6-2.8-3.5-5.2-5.2-7.7-1.8-2.4-3.5-4.8-5.2-7q-2.7-3.1-5.2-6c-1.6-2-3.2-3.9-4.9-5.3-3.3-3.1-5.9-6.2-8.6-8.2-5.2-4.1-8.1-6.5-8.1-6.5z"/>
			<path id="&lt;Path&gt;" class="s3" d="m1239.9 1629.2c0 0 1 0.2 2.7 0.6q1.3 0.2 3.2 0.6 1.9 0.6 4.3 1.4c3.2 1.1 7.1 2.6 11.1 4.9 4.2 2.3 8.6 5.3 13.1 9 4.4 3.8 9.1 8.1 13.4 13.2 4.4 5 8.7 10.5 12.7 16.5 8.2 12 15.2 25.7 21.4 39.7 3 7 5.9 14.1 8.5 21.2 2.6 7 4.8 14.1 6.9 20.9 2.2 6.8 3.9 13.5 5.5 19.8 1.7 6.3 3 12.4 4.2 17.9 2.4 11.2 4 20.5 5 27.1 0.9 6.6 1.3 10.4 1.3 10.4 0 0-4.6-14.4-11.5-36.1-3.5-10.7-7.6-23.2-12.4-36.5-2.3-6.7-4.9-13.4-7.6-20.3-2.6-6.9-5.5-13.8-8.5-20.6-3-6.9-6-13.7-9.4-20.2-3.4-6.5-6.7-12.9-10.4-18.8-3.6-5.9-7.3-11.5-11.1-16.6-3.8-5.1-7.8-9.6-11.6-13.6-4-3.9-7.7-7.3-11.4-9.9-3.6-2.7-7-4.8-9.9-6.3q-2.2-1.1-3.9-2-1.8-0.7-3-1.2c-1.7-0.7-2.6-1.1-2.6-1.1z"/>
			<path id="&lt;Path&gt;" class="s3" d="m1241.8 1493.5c0 0 3.7-2.6 10.3-7.2q2.5-1.6 5.5-3.7c2-1.3 4.3-2.5 6.7-3.9 4.9-2.8 10.3-6.2 16.5-9.1q4.7-2.3 9.7-4.7c3.3-1.6 6.9-3 10.6-4.5 7.2-3.2 15.2-5.8 23.4-8.6 4.1-1.3 8.3-2.4 12.6-3.6q3.2-0.9 6.5-1.8 3.3-0.8 6.6-1.5c4.5-0.9 8.9-2 13.4-2.7q6.8-1.2 13.7-2.3c4.5-0.7 9.1-1 13.7-1.6 4.5-0.5 9.1-0.9 13.6-1.1 9-0.8 17.9-0.8 26.5-0.9 8.7 0 17 0.1 24.8 0.6 7.9 0.4 15.3 1 22.1 1.7 6.9 0.6 13.1 1.4 18.6 2.2 5.6 0.7 10.4 1.4 14.3 2.1 7.9 1.4 12.4 2.2 12.4 2.2 0 0-4.6-0.1-12.6-0.3-7.9-0.3-19.3-0.6-33-0.8-6.8-0.1-14.1 0-21.9 0-7.8-0.1-16 0.4-24.5 0.5-8.4 0.4-17.2 1-26 1.7-8.9 0.6-17.8 1.9-26.7 3q-6.7 1-13.4 2.1c-4.4 0.7-8.7 1.7-13.1 2.5q-6.5 1.2-12.8 2.8c-4.2 1.1-8.5 2-12.5 3.1-8.1 2.5-16 4.5-23.3 7.2-3.6 1.3-7.2 2.5-10.6 3.8q-5.1 2-9.9 3.8c-6.3 2.4-11.9 5.1-17 7.3q-3.8 1.7-7.1 3.2-3.2 1.6-5.9 2.9c-7.1 3.6-11.2 5.6-11.2 5.6z"/>
			<path id="&lt;Path&gt;" class="s3" d="m1280.3 1499.3c0 0 6.6-2.6 18.3-7.1 11.7-4.4 28.4-10.7 48.5-18.3 10-3.8 20.8-8 32.3-12.3 11.5-4.2 23.5-9.1 35.9-14q9.4-3.7 19.1-7.5 4.8-1.9 9.6-3.8 5-1.7 10.1-3.5c13.4-4.8 27.2-8.7 41.2-12.4 6.9-1.9 14-3.4 21-5q10.5-2.1 21-4.1c7-1.1 13.9-2.4 20.8-3.3 6.9-0.7 13.7-1.8 20.4-2.3 13.4-1.3 26.5-2.1 38.8-2.4 12.4-0.3 24.1-0.1 34.8 0.4q8.1 0.5 15.5 1c4.9 0.4 9.5 1 13.8 1.5 8.7 0.8 16.2 2.3 22.4 3.2 6.2 1 11 2.2 14.3 2.8 3.3 0.7 5.1 1.1 5.1 1.1 0 0-7.2-0.8-19.6-2-6.2-0.4-13.8-1.3-22.5-1.5-8.6-0.4-18.4-0.5-29.1-0.5-10.7 0.2-22.2 0.5-34.4 1.3-12.2 0.8-25 1.9-38.2 3.5-13.2 1.6-26.8 3.8-40.5 6.2q-10.3 2.1-20.7 4.2c-6.8 1.7-13.8 3.2-20.6 4.9-13.8 3.5-27.5 7.4-40.6 11.8q-5 1.6-9.9 3.2-4.9 1.8-9.8 3.6-9.7 3.5-19.1 7c-12.7 4.5-24.9 9-36.5 12.8-11.7 3.9-22.7 7.6-33 10.8-20.5 6.4-37.6 11.6-49.6 15.2-12 3.5-18.8 5.5-18.8 5.5z"/>
			<path id="&lt;Path&gt;" class="s3" d="m1326.3 1502.5c0 0 2-0.6 5.9-1.7 3.8-1.1 9.4-2.6 16.6-4.2 7.3-1.6 16.1-3.4 26.4-4.9 10.2-1.6 21.9-2.6 34.7-3.2 25.5-1.2 55-0.4 86.5-2q12-0.3 24.2-0.6c8.3 0.1 16.6 0.1 25 0.3 16.8 0.6 33.8 1.7 50.7 3.7 8.4 1 16.9 2 25.2 3.4q6.3 1 12.6 1.9 6.2 1.2 12.4 2.4c8.2 1.5 16.3 3.4 24.3 5.3 8 1.7 15.8 4 23.5 6 15.4 4.3 30.1 9 43.8 13.9 6.9 2.3 13.5 5 19.9 7.4 6.4 2.4 12.6 5 18.4 7.5 11.8 4.8 22.2 10.1 31.6 14.4 9.2 4.7 17.2 8.7 23.8 12.1 13 7.2 20.4 11.3 20.4 11.3 0 0-7.7-3.6-21.1-9.8-6.8-2.9-15-6.5-24.5-10.6-9.5-3.9-20.2-8.3-32.1-12.6-5.9-2.3-12.1-4.6-18.5-6.7-6.5-2.2-13.1-4.6-20-6.6-13.8-4.5-28.5-8.7-43.7-12.5-7.7-1.9-15.4-4-23.4-5.5-7.9-1.7-15.9-3.5-24.1-4.8q-6.1-1.1-12.2-2.2-6.2-1-12.4-1.9c-8.3-1.3-16.6-2.2-25-3.2-16.7-1.8-33.4-2.9-49.9-3.6-8.3-0.3-16.4-0.3-24.5-0.5-8.1 0.1-16.2 0.2-24 0.4-16 0.4-31.4 0.3-45.9-0.1-14.6-0.4-28.3-0.7-40.9-0.8-12.6-0.1-24.1 0.4-34.4 1.2-10.2 0.7-19.1 1.8-26.4 2.9-7.3 1.2-13 2.1-16.9 2.8-3.9 0.7-6 1.1-6 1.1z"/>
			<path id="&lt;Path&gt;" class="s3" d="m1643.9 1820.5c0 0-4.4-5.2-11.9-14.5-3.7-4.7-8.2-10.4-13.8-16.5q-4.2-4.6-8.8-9.9-2.3-2.6-4.7-5.3-2.6-2.6-5.2-5.4c-7.2-7.3-14.7-15.4-23.3-23.3-4.2-3.9-8.5-8.2-13.1-12.2q-6.9-6-14.1-12.3c-4.7-4.3-9.8-8.2-15-12.3-5.2-3.9-10.1-8.3-15.6-12.2q-8.1-5.9-16.2-11.9c-5.5-3.9-11.2-7.6-16.8-11.4-5.6-3.9-11.3-7.5-17.1-11.1-5.7-3.5-11.3-7.3-17.1-10.5q-8.7-5.1-17.2-10.1-8.6-4.8-16.9-9.4c-5.6-3.2-11.2-6-16.6-8.9-5.4-2.8-10.7-5.7-15.9-8.4-10.5-5.1-20.3-10.3-29.5-14.7-18.4-9-33.7-16.5-44.6-21.6-10.8-5.1-16.9-8.2-16.9-8.2 0 0 6.5 2.3 17.7 6.5 5.5 2.2 12.3 4.8 20.1 7.8 7.8 3 16.5 6.5 25.9 10.6 9.5 3.9 19.6 8.5 30.4 13.3 10.6 5.1 21.9 10.2 33.3 16.2q8.5 4.5 17.3 9.1 8.7 4.9 17.5 9.9c5.9 3.3 11.6 7 17.4 10.6 5.9 3.6 11.7 7.2 17.4 11.1 5.6 3.9 11.4 7.7 16.9 11.7q8.3 6.1 16.4 12.2c5.5 3.9 10.5 8.5 15.7 12.6 5.1 4.3 10.2 8.4 14.8 12.9q7.2 6.5 14 12.8c4.5 4.3 8.6 8.8 12.8 13 8.4 8.2 15.5 16.9 22.3 24.6 6.9 7.6 12.3 15.5 17.4 22.1 5.2 6.5 9.2 12.5 12.6 17.5 6.7 9.9 10.4 15.6 10.4 15.6z"/>
			<path id="&lt;Path&gt;" class="s3" d="m1213.1 1546.9c0 0 6.2 2.3 17 6.7 5.5 2 11.9 5.1 19.3 8.5 7.6 3.2 15.7 7.5 24.5 12.2 9 4.5 18.2 10.5 28.1 16.3 9.5 6.6 20 12.9 29.8 20.7 10.2 7.4 20.2 15.7 30.3 24.3 5 4.3 9.8 8.9 14.7 13.4 5 4.5 9.7 9.3 14.4 14.1 9.6 9.5 18.3 19.7 27 29.6 4.3 5 8.3 10.3 12.3 15.3q3 3.8 6 7.6 2.8 3.9 5.5 7.7 5.5 7.7 10.8 15.1 4.9 7.6 9.6 14.9c6.4 9.6 11.5 19.3 16.5 27.9 5.1 8.7 8.9 17.1 12.6 24.3 3.7 7.3 6.6 13.8 8.9 19.1 4.7 10.7 7.3 16.9 7.3 16.9 0 0-3.3-5.8-8.9-16.1-2.8-5.1-6.1-11.3-10.4-18.2-2.1-3.5-4.3-7.2-6.6-11.1q-1.8-2.9-3.6-6-1.9-3-4-6.1c-5.5-8.3-11-17.6-17.7-26.8q-4.9-7-10-14.3-5.5-7.2-11.1-14.6-2.8-3.7-5.6-7.5-3.1-3.6-6.1-7.3-6.1-7.4-12.4-14.9c-8.7-9.7-17.3-19.6-26.8-28.9-4.6-4.8-9.1-9.5-14-13.9-4.9-4.5-9.5-9.1-14.4-13.4q-7.4-6.4-14.6-12.7c-4.8-4.2-9.9-7.9-14.7-11.8-9.6-7.9-19.5-14.6-28.7-21.4q-7.1-4.7-13.8-9.2-3.3-2.2-6.5-4.4-3.4-2-6.5-3.9c-8.6-5.1-16.3-10-23.4-13.8-7.1-3.9-13.2-7.5-18.5-10-10.4-5.2-16.3-8.3-16.3-8.3z"/>
			<path id="&lt;Path&gt;" class="s3" d="m1253.5 1553.6c0 0 8.9 12 21.2 30.7 6.1 9.3 13.2 20.2 20.2 32.3 3.6 6 7.4 12.2 10.7 18.7 3.4 6.5 7.2 13 10.4 19.8 3.1 6.8 6.3 13.6 9.3 20.3 3.1 6.7 5.4 13.6 8 20.1q1.8 5 3.6 9.7c1 3.2 1.9 6.4 2.8 9.5 1.9 6.2 3.5 12 5 17.4 1.7 5.3 2.3 10.5 3.3 14.9 0.8 4.5 1.6 8.4 2.2 11.6 1.1 6.5 1.7 10.1 1.7 10.1 0 0-1.3-3.5-3.5-9.6-1.1-3.1-2.4-6.8-3.9-11.1q-1.1-3.2-2.3-6.8c-0.7-2.4-1.6-4.9-2.7-7.5-2-5.2-4.2-10.7-6.4-16.7-1.1-2.9-2.2-6-3.5-9.1q-2-4.6-4.1-9.3c-2.7-6.4-5.5-12.9-8.5-19.5-3.1-6.6-6.3-13.2-9.4-19.9-3.1-6.7-6.7-13.1-10-19.6q-2.5-4.9-4.9-9.7-2.5-4.7-5-9.3c-6.5-12.3-12.5-23.8-17.7-33.6-10.3-19.8-16.5-33.4-16.5-33.4z"/>
			<path id="&lt;Path&gt;" class="s3" d="m1293.6 1564.7c0 0 5.2-0.9 14.4-2.2 2.3-0.3 4.8-0.8 7.6-1q4.2-0.2 9.1-0.4 4.9-0.2 10.4-0.5 5.4 0.3 11.4 0.7c8.1 0.2 16.6 1.9 25.7 3.4 4.6 0.8 9.1 2.3 13.8 3.4q3.5 1 7 2c2.4 0.6 4.7 1.6 7.1 2.4 4.7 1.8 9.6 3.4 14.3 5.4q7.1 3.3 14.3 6.6c4.8 2.2 9.3 5.1 14 7.6l7 3.9 6.7 4.3c4.4 3 9.1 5.7 13.3 8.9q6.4 4.7 12.8 9.4c4.2 3.1 8.1 6.5 12.1 9.8 4 3.2 7.8 6.5 11.5 9.9q5.5 5 10.8 9.9 5.2 5 10 9.8c6.6 6.3 12.4 12.7 17.8 18.5 5.5 5.8 10.1 11.4 14.3 16.3 4.3 4.8 7.8 9.2 10.8 12.8 5.8 7.1 9 11.3 9 11.3 0 0-3.8-3.6-10.4-10.1-3.3-3.3-7.2-7.2-11.9-11.6-4.7-4.4-9.8-9.5-15.7-14.9-5.7-5.3-11.9-11.2-18.7-17.2q-5.1-4.5-10.4-9.2-5.4-4.6-11-9.3c-3.7-3.3-7.6-6.3-11.6-9.4-4.1-3-8-6.3-12.1-9.4q-6.3-4.5-12.6-9c-4.2-3.1-8.7-5.7-13-8.6l-6.6-4.3-6.7-3.8c-4.6-2.5-8.9-5.3-13.5-7.5q-6.9-3.4-13.7-6.7c-4.5-2-9.2-3.7-13.7-5.6-2.2-0.9-4.4-1.9-6.7-2.6q-3.4-1.1-6.8-2.2c-4.4-1.3-8.7-3-13.1-3.9-8.7-1.9-16.9-4.2-24.7-4.9q-5.8-0.8-11.1-1.6-5.3-0.3-10.1-0.6-4.8-0.2-8.9-0.4c-2.8-0.2-5.3 0.1-7.6 0.2-9.3 0.4-14.6 0.4-14.6 0.4z"/>
			<path id="&lt;Path&gt;" class="s5" d="m1187.3 1235.7c2.7 2 6.6 3.5 9.5 6-8.9-19.7-16.6-42.2-28.8-60.2 1.8 0.7 4.8 1.1 6.7 1.9-4.8-14.7-14.3-28.3-20.8-42.5 4.6 1.3 10.5 2.3 14.9 4.5-11.2-20.9-29.9-38-41.1-58.2 3.2 1 7.2 0.6 10.5 2l0.6-0.6c-7.1-12.3-21.4-21.4-29.9-32.6 3.2 1.3 7.9 1.9 11 3.5-12.7-15-40.3-25-58.8-30.1-18.5 5.1-46.1 15.1-58.8 30.1 3.1-1.6 7.8-2.2 11-3.5-8.5 11.2-22.8 20.3-29.9 32.6l0.6 0.6c3.3-1.4 7.3-1 10.5-2-11.2 20.2-29.9 37.3-41.1 58.2 4.4-2.2 10.3-3.2 14.9-4.5-6.5 14.2-16 27.8-20.8 42.5 1.9-0.8 4.9-1.2 6.7-1.9-12.2 18-19.9 40.5-28.8 60.2 2.9-2.5 6.8-4 9.5-6-27.2 48.1-45.6 91.2-29.3 144.7l155.5 15.1 155.5-15.1c16.3-53.5-2.1-96.6-29.3-144.7z"/>
			<path id="&lt;Path&gt;" class="s10" d="m950.8 1444.5c0 0 9.1 11.6 11.4 15.2 2.2 3.5 4.2 7 5 7.4 0.8 0.3 12.5 11.6 24.7 4 12.3-7.7 14.3-16.7 2.9-33.7-11.5-17-27.8-37.5-45.3-28.7-17.5 8.9 1.3 35.8 1.3 35.8z"/>
			<path id="&lt;Path&gt;" class="s10" d="m1171.4 1444.5c0 0-9.1 11.6-11.3 15.2-2.3 3.5-4.3 7-5.1 7.4-0.8 0.3-12.5 11.6-24.8 4-12.2-7.7-14.2-16.7-2.8-33.7 11.5-17 27.8-37.5 45.3-28.7 17.5 8.9-1.3 35.8-1.3 35.8z"/>
			<path id="&lt;Path&gt;" class="s3" d="m1222.6 1329.1c-37.3 25.3-61.1 15-161.5 15-100.4 0-124.2 10.3-161.5-15-4.8 28-25.4 53.3-6.4 83 9.3 14.5 40 45 60.7 30.6-23.5-19.9 2.1-50.5 27.6-19.4 5.8 7.1 21.6 31.6 16.1 40.3-9.6 15.1-23.2-1.7-32 0.5l-3.4-4.4c0.8 24.3 76 49 98.9 55.3 22.9-6.3 98.1-31 99-55.3l-3.5 4.4c-8.8-2.2-22.4 14.6-32-0.5-5.5-8.7 10.3-33.2 16.1-40.3 25.5-31.1 51.1-0.5 27.6 19.4 20.7 14.4 51.4-16.1 60.7-30.6 19-29.7-1.6-55-6.4-83z"/>
			<path id="&lt;Path&gt;" class="s3" d="m857.9 444.1c-2.1 1.1-4.3 2.1-6.5 3.3 12.9-5 25.4-11.5 38.1-17-1.2 0.3-4.8 0.8-4.7 0.8 15.2-3.9 30.5-9.4 44.6-15.1-1.8-0.1-3.9 0-5.8-0.2 16.3-1.4 32.3-2.3 48.5-1.8l-1.7-1c14.8 3 30.2 6 44.5 10.4-1.7 0.1-3.5-0.4-5.2-0.5 9 3.8 19.1 4.7 29.1 4.6l-3.3-1.2c5.1 0.7 20.5 0.3 25.6 0.3 5.1 0 20.6 0.4 25.6-0.3l-3.3 1.2c10.1 0.1 20.1-0.8 29.1-4.6-1.7 0.1-3.5 0.6-5.2 0.5 14.3-4.4 29.7-7.4 44.5-10.4l-1.7 1c16.2-0.5 32.3 0.4 48.5 1.8-1.9 0.2-4 0.1-5.8 0.2 14.1 5.7 29.4 11.2 44.6 15.1 0.1 0-3.5-0.5-4.7-0.8 12.7 5.5 25.2 12 38.1 17-2.2-1.2-4.4-2.2-6.5-3.3 8.4 3.8 16.1 8.5 24.4 12.6-17.5-14.6-37.1-26.7-56-40.2 2.2 0.6 4.4 1.2 6.4 1.8-17.5-9-31.8-18.4-52.8-18.7h-0.5l3.1 0.1c-27.5-6.2-56.4-2.9-84.5-3.5-1.7 0 6.3-0.5 8.1-0.6-12.7 0.4-38.7 1.1-51.4 1.1-12.7 0-38.7-0.7-51.4-1.1 1.8 0.1 9.8 0.6 8.1 0.6-28.1 0.6-57-2.7-84.5 3.5l3.1-0.1h-0.5c-21 0.3-35.3 9.7-52.8 18.7 2-0.6 4.2-1.2 6.4-1.8-18.9 13.5-38.5 25.6-56 40.2 8.3-4.1 16-8.8 24.4-12.6z"/>
			<path id="&lt;Path&gt;" class="s3" d="m807.2 516.3c-2.7 1.5-5.5 2.7-8.2 4.1 16.2-6.1 31.7-14.1 47.6-20.8-1.5 0.3-6 1-5.9 0.9 19-4.8 38.2-11.5 55.8-18.6-2.3-0.1-4.9 0-7.2-0.2 20.3-1.7 40.3-2.8 60.6-2.2l-2.1-1.2c18.5 3.6 37.7 7.4 55.6 12.7-2.2 0.1-4.4-0.5-6.6-0.5 11.4 4.6 23.9 5.7 36.5 5.6l-4.2-1.5c6.3 0.9 25.6 0.4 32 0.4 6.4 0 25.7 0.5 32-0.4l-4.2 1.5c12.6 0.1 25.2-1 36.5-5.6-2.2 0-4.4 0.6-6.6 0.5 17.9-5.3 37.1-9.1 55.6-12.7l-2.1 1.2c20.3-0.6 40.3 0.5 60.6 2.2-2.3 0.2-4.9 0.1-7.2 0.2 17.6 7.1 36.8 13.8 55.8 18.6 0.1 0.1-4.4-0.6-5.9-0.9 15.9 6.7 31.4 14.7 47.6 20.8-2.7-1.4-5.5-2.6-8.1-4.1 10.5 4.7 20.1 10.5 30.5 15.6-22-17.9-46.4-32.8-70-49.5 2.7 0.8 5.4 1.6 8 2.2-21.9-11.1-39.7-22.5-66-22.9h-0.7l4 0.1c-34.5-7.7-70.5-3.6-105.7-4.4-2.1 0.1 7.8-0.6 10.2-0.7-16 0.5-48.7 1.4-64.3 1.4-15.6 0-48.3-0.9-64.3-1.4 2.4 0.1 12.3 0.8 10.2 0.7-35.2 0.8-71.2-3.3-105.7 4.4l4-0.1h-0.7c-26.3 0.4-44.1 11.8-66 22.9 2.6-0.6 5.2-1.4 8-2.2-23.6 16.7-48 31.6-70 49.5 10.4-5.1 20-10.9 30.6-15.6z"/>
			<path id="&lt;Path&gt;" class="s3" d="m1124.2 688.2c2 0.8 4 1.5 6 2.2-16.5-11.1-29.9-22.6-49.7-22.9h-0.5 3c-7.2-2.1-14.5-4-21.9-4-7.4 0-14.6 1.9-21.8 4h2.9-0.5c-19.8 0.3-33.2 11.8-49.7 22.9 2-0.7 4-1.4 6.1-2.2-17.8 16.7-36.2 31.5-52.7 49.4 7.8-5 15-10.8 23-15.5-2 1.5-4.1 2.7-6.2 4.1 12.2-6.1 23.9-14.1 35.9-20.8-1.1 0.2-4.6 0.9-4.5 0.9 14.3-4.8 28.7-11.5 42-18.6-1.7-0.1-3.6 0-5.4-0.2 10.3-1.2 20.6-2.3 30.9-2.3 10.3 0 20.6 1.1 30.9 2.3-1.8 0.2-3.7 0.1-5.4 0.2 13.3 7.1 27.7 13.8 42 18.6 0.1 0-3.4-0.7-4.5-0.9 12 6.7 23.7 14.7 35.9 20.8-2.1-1.4-4.2-2.6-6.2-4.1 8 4.7 15.2 10.5 23 15.5-16.5-17.9-34.9-32.7-52.6-49.4z"/>
			<path id="&lt;Path&gt;" class="s3" d="m1107.1 728.4c1.5 0.7 2.9 1.3 4.4 1.9-12.1-9.4-21.8-19.1-36.3-19.4h-0.3l2.1 0.1c-5.2-1.9-10.5-3.4-15.9-3.4-5.4 0-10.7 1.5-15.9 3.4l2.1-0.1h-0.3c-14.5 0.3-24.2 10-36.2 19.4 1.4-0.6 2.8-1.2 4.3-1.9-12.9 14.1-26.3 26.7-38.3 41.9 5.6-4.3 10.9-9.2 16.7-13.1-1.5 1.2-3 2.2-4.5 3.4 8.9-5.2 17.4-12 26.2-17.6l-3.3 0.8c10.4-4.1 20.9-9.8 30.6-15.8-1.2-0.1-2.6 0-3.9-0.1 7.5-1 15-2 22.5-2 7.5 0 15 1 22.5 2-1.3 0.1-2.7 0-3.9 0.1 9.7 6 20.2 11.7 30.6 15.8l-3.2-0.8c8.7 5.6 17.2 12.4 26.1 17.6-1.5-1.2-3-2.2-4.5-3.4 5.8 3.9 11.1 8.8 16.7 13.1-12-15.2-25.4-27.8-38.3-41.9z"/>
			<path id="&lt;Path&gt;" class="s3" d="m1387.9 598.1c-25.2-18.1-53.2-33.2-80.3-50.1 3.1 0.8 6.2 1.6 9.2 2.3-25.2-11.2-45.7-22.9-75.9-23.3h-0.8l4.6 0.1c-39.6-7.7-81-3.6-121.4-4.4-2.5 0.1 9-0.6 11.6-0.7-18.3 0.5-56.6 1.4-73.8 1.4-17.2 0-55.5-0.9-73.8-1.4 2.6 0.1 14.1 0.8 11.6 0.7-40.4 0.8-81.8-3.3-121.4 4.4l4.6-0.1h-0.8c-30.2 0.4-50.7 12.1-75.9 23.3 3-0.7 6.1-1.5 9.2-2.3-27.1 16.9-55.1 32-80.3 50.1 11.8-5.1 22.9-11 35-15.7-3.1 1.5-6.2 2.7-9.4 4.1 18.6-6.1 36.5-14.3 54.8-21.1-1.7 0.3-7 1-6.8 1 21.8-4.9 43.8-11.7 64.1-18.9-2.6 0-5.6 0-8.3-0.1 23.3-1.8 46.3-2.9 69.6-2.3l-2.4-1.2c21.2 3.7 43.4 7.4 63.9 12.9-2.5 0.1-5.1-0.5-7.5-0.6 13 4.7 27.4 5.8 41.8 5.7l-4.7-1.5c7.2 0.9 29.4 0.4 36.7 0.4 7.3 0 29.5 0.5 36.7-0.4l-4.7 1.5c14.5 0.1 28.8-1 41.8-5.7-2.4 0.1-5 0.7-7.5 0.6 20.5-5.5 42.7-9.2 63.9-12.9l-2.4 1.2c23.3-0.6 46.3 0.5 69.6 2.3-2.7 0.1-5.7 0.1-8.3 0.1 20.3 7.2 42.3 14 64.1 18.9 0.2 0-5.1-0.7-6.8-1 18.3 6.8 36.2 15 54.8 21.1-3.2-1.4-6.3-2.6-9.4-4.1 12.1 4.7 23.2 10.6 35 15.7z"/>
			<path id="&lt;Path&gt;" class="s3" d="m1371.9 710c-22.1-13-41-14.4-70.8-17.9l1 0.5c-16.4-1.7-33.8-2.9-49.9-5l1.8 0.5c-20-2.6-48.1-6.8-62.9-15.7 1.6 0.4 3 1.2 4.9 1.3-10.4-4-20.3-8.5-30-13.1 3.5 0.7 7.7 1.1 11.1 1.7-14.6-6.5-29.4-13.8-44-20.7 1.1-0.1 2.5 0.8 4.1 0.4-14.7-5.3-31.9-11.3-48.6-14.1-9.2-1.3-18.1-0.4-27.5-0.4-9.4 0-18.3-0.9-27.5 0.4-16.7 2.8-33.9 8.8-48.6 14.1 1.6 0.4 3-0.5 4.1-0.4-14.6 6.9-29.4 14.2-44 20.7 3.4-0.6 7.6-1 11.1-1.7-9.7 4.6-19.6 9.1-30 13.1 1.9-0.1 3.3-0.9 4.9-1.3-14.8 8.9-42.9 13.1-62.9 15.7l1.8-0.5c-16.1 2.1-33.5 3.3-49.9 5l1-0.5c-29.8 3.5-48.7 4.9-70.8 17.9l0.8-0.6c-4 2.2-7.5 4.5-10.9 7 9-3.6 20-7.2 31.2-9.4h-0.9q1.6-0.2 3.1-0.5l1.2-0.2c12.5-2.1 25.3-4.3 38.2-5.2 1 0.1-4.1-0.3-4.5-0.3 12.4-0.2 30.7-1.1 39.1-2.8 31 0.1 57.6-6.2 82.9-15.6-1.9 0.9-4.4 1.7-6.6 2.6 14.6-2.5 26.6-10.3 40-14.5-2.5 0.9-5.3 1.4-7.9 2.3 14-4.5 23.7-13.5 34.6-20.3l-1.1 0.5c7.6-3.7 14.9-7.9 22.6-11.3-1.3 0.4-3.3 1-5.3 1.6 8.9-2.7 17.7-5.7 27.1-7.9 9.3-0.9 18.3-2.2 27.2-2.2 8.9 0 17.9 1.3 27.2 2.2 9.4 2.2 18.2 5.2 27.1 7.9-2-0.6-4-1.2-5.3-1.6 7.7 3.4 15 7.6 22.6 11.3l-1.1-0.5c10.9 6.8 20.6 15.8 34.6 20.3-2.6-0.9-5.4-1.4-7.9-2.3 13.4 4.2 25.4 12 40 14.5-2.2-0.9-4.7-1.7-6.6-2.6 25.3 9.4 51.9 15.7 82.9 15.6 8.4 1.7 26.7 2.6 39.1 2.8-0.4 0-5.5 0.4-4.5 0.3 13 0.9 25.7 3.1 38.2 5.2l1.2 0.2c1 0.2 2.1 0.4 3.1 0.5h-0.9c11.2 2.2 22.3 5.8 31.2 9.4-3.4-2.5-6.8-4.8-10.9-7z"/>
			<path id="&lt;Path&gt;" class="s3" d="m1343.1 665.3c-20-12.2-37-13.5-63.8-16.7 3.9 0.2 7.8 0.3 11.1 0.3-0.3 0-5 0.4-4 0.3 11.7 0.8 23.2 2.9 34.5 4.9l1.1 0.2q1.4 0.2 2.8 0.4h-0.8c10.2 2 20.2 5.4 28.2 8.8-3.1-2.3-6.2-4.5-9.8-6.5l0.7 0.5c-20-12.2-37.1-13.5-64.1-16.7l0.9 0.4c-14.9-1.5-30.6-2.7-45.1-4.6l1.6 0.4c-18.2-2.4-43.6-6.3-56.9-14.7 1.4 0.4 2.7 1.1 4.4 1.2-9.4-3.7-18.4-8-27.2-12.3 3.2 0.8 7 1.1 10 1.7-13.1-6.1-26.6-13-39.8-19.4 1-0.1 2.3 0.7 3.8 0.4-13.4-5-28.9-10.6-44-13.2-8.4-1.2-16.4-0.4-25-0.4-8.5 0-16.5-0.8-24.9 0.4-15.1 2.6-30.6 8.2-44 13.2 1.5 0.3 2.8-0.5 3.7-0.4-13.1 6.4-26.6 13.3-39.7 19.4 3-0.6 6.8-0.9 10-1.7-8.8 4.3-17.8 8.6-27.2 12.3 1.7-0.1 3-0.8 4.4-1.2-13.3 8.4-38.8 12.3-56.9 14.7l1.6-0.4c-14.5 1.9-30.3 3.1-45.1 4.6l0.9-0.4c-27 3.2-44.1 4.5-64.1 16.7l0.7-0.5c-3.6 2-6.7 4.2-9.9 6.5 8.1-3.4 18.1-6.8 28.3-8.8h-0.8q1.4-0.2 2.8-0.4l1.1-0.2c11.3-2 22.8-4.1 34.5-4.9 1 0.1-3.7-0.3-4-0.3 3.3 0 7.2-0.1 11.1-0.3-26.8 3.2-43.8 4.5-63.8 16.7l0.7-0.5c-3.6 2-6.7 4.2-9.9 6.5 8.1-3.4 18.1-6.8 28.3-8.9l-0.8 0.1q1.4-0.2 2.8-0.5l1.1-0.2c11.3-1.9 22.8-4 34.5-4.8 1 0.1-3.7-0.3-4-0.3 11.2-0.2 27.8-1.1 35.4-2.6 28.1 0 52.1-5.8 75-14.6-1.7 0.8-4 1.6-5.9 2.4 13.2-2.3 24-9.6 36.2-13.6-2.3 0.9-4.9 1.4-7.2 2.2 12.7-4.2 21.4-12.6 31.4-19l-1.1 0.5c6.9-3.5 13.5-7.5 20.5-10.6-1.2 0.4-3 0.9-4.9 1.5 8.2-2.6 16.1-5.4 24.6-7.4 8.4-0.9 16.6-2.1 24.6-2.1 8.1 0 16.3 1.2 24.7 2.1 8.5 2 16.4 4.8 24.5 7.4-1.8-0.6-3.6-1.1-4.8-1.5 7 3.1 13.6 7.1 20.4 10.6l-1-0.5c10 6.4 18.7 14.8 31.4 19-2.3-0.8-4.9-1.3-7.2-2.2 12.2 4 23 11.3 36.2 13.6-1.9-0.8-4.2-1.6-5.9-2.4 22.9 8.8 46.9 14.6 75 14.6 7.6 1.5 24.2 2.4 35.4 2.6-0.3 0-5 0.4-4 0.3 11.7 0.8 23.2 2.9 34.5 4.8l1.1 0.2q1.4 0.3 2.8 0.5l-0.8-0.1c10.2 2.1 20.2 5.5 28.2 8.9-3.1-2.3-6.2-4.5-9.8-6.5z"/>
			<path id="&lt;Path&gt;" class="s3" d="m783.5 799.9l-0.6 0.3-0.6 0.4 0.6-0.4z"/>
			<path id="&lt;Path&gt;" class="s3" d="m840.9 726.5c-6.5 2.7-13 6-19.1 9.3-9.9 3.1-19.4 8.5-29.1 12.7l2.9-2.3c-10.8 6.1-20.2 15.4-30.5 22.7 1.4-0.8 2.8-1.6 4.2-2.3-9.2 9.7-17.3 20.6-25.2 31.3l0.9-0.5c-9.3 18.1-22.1 33.5-26.1 52.9 4.6-7.4 9.3-15.4 16.1-21l-1.1 1.5c7.2-5.9 13.5-13.2 21.5-18.1 9.4-3.7 18.9-6 26.9-12.1h-0.6c6.2-5.7 11.5-12.6 15.6-19.9-1.4 1.1-2.9 2.4-4.4 3.6 4-3.6 7.8-7.8 11.5-11.8-2.1 1.4-4.7 2.6-6.9 4 5.8-5.1 11.4-10.3 17.7-14.7l-1.5-0.1c7.5-6.4 15.7-13 23.6-19.1-1.9 0.4-3.7 0.7-5.4 1.1 5.1-4.6 10.3-9.3 15.3-13.9l-1.5 0.4c5.2-4 10.8-7.7 16.6-10.8-7.5 1-14.7 3.7-21.4 7.1z"/>
			<path id="&lt;Path&gt;" class="s3" d="m764.9 769l0.2-0.1-0.2 0.1z"/>
			<path id="&lt;Path&gt;" class="s3" d="m1338.7 799.9l0.6 0.3 0.6 0.4-0.6-0.4z"/>
			<path id="&lt;Path&gt;" class="s3" d="m1403.3 850.3c-4-19.4-16.8-34.8-26.1-52.9l0.9 0.5c-7.9-10.7-16-21.6-25.2-31.3 1.4 0.7 2.8 1.5 4.2 2.3-10.3-7.3-19.7-16.6-30.5-22.7l2.9 2.3c-9.6-4.2-19.2-9.6-29.1-12.7-6.1-3.3-12.6-6.6-19.1-9.3-6.7-3.4-13.9-6.1-21.4-7.1 5.8 3.1 11.4 6.8 16.6 10.8l-1.5-0.4c5 4.6 10.2 9.3 15.3 13.9-1.7-0.4-3.5-0.7-5.4-1.1 8 6.1 16.1 12.7 23.6 19.1l-1.5 0.1c6.3 4.4 11.9 9.6 17.7 14.7-2.2-1.4-4.8-2.6-6.9-4 3.7 4 7.5 8.2 11.5 11.8-1.5-1.2-3-2.5-4.4-3.6 4.1 7.3 9.4 14.2 15.6 19.9h-0.6c8 6.1 17.5 8.4 26.9 12.1 8 4.9 14.3 12.2 21.5 18.1l-1.1-1.5c6.8 5.6 11.5 13.6 16.1 21z"/>
			<path id="&lt;Path&gt;" class="s3" d="m1357.3 769l-0.2-0.1 0.2 0.1z"/>
		</g>
	</g>
</svg>