<svg version="1.2" xmlns="http://www.w3.org/2000/svg" viewBox="0 0 2122 2122" width="100">
	<style>
		.s0 { fill: #fefefe } 
		.s1 { fill: #fec957 } 
		.s2 { fill: #ffdeaa } 
		.s3 { fill: #171716 } 
		.s4 { fill: #e6ab59 } 
		.s5 { fill: #fedc98 } 
		.s6 { fill: #53300e } 
		.s7 { fill: #f58d24 } 
		.s8 { fill: #faac3a } 
		.s9 { fill: #000000 } 
		.s10 { fill: #020201 } 
		.s11 { fill: #e39144 } 
	</style>
	<g id="tiger">
		<g id="mouth">
			<path id="&lt;Path&gt;" class="s1" d="m1263.2 1702.5c0.8 1.1-0.7 1.7-0.3 2.9-8.7-5.1-14.5-8.5-23.5-12.4 1.2 2.2 1.2 2.2 0.5 3.2-19.8-4-37.6-19.8-56.2-26.8l1.5 3.1c-15.5-3.5-29.8-13.7-44.6-19.7 1.2 1.2 4 4.8 5.1 6.1-12.1-6-24-15.7-37.3-18.4 1 1.2 2.7 2.2 3.3 3.8-8.7-5.3-19.2-11.2-28.5-14.5 1 2.5 1.6 3.3 1.8 3.2-10.1-4.7-31.8-15.1-43.4-15.1-11.6 0-33.4 10.4-43.4 15.1 0.2 0.1 0.7-0.7 1.8-3.2-9.4 3.3-19.8 9.2-28.6 14.5 0.7-1.6 2.3-2.6 3.3-3.8-13.3 2.7-25.2 12.4-37.2 18.4 1-1.3 3.9-4.9 5-6.1-14.8 6-29.1 16.2-44.6 19.7l1.5-3.1c-18.5 7-36.4 22.8-56.2 26.8-0.7-1-0.7-1 0.5-3.2-9 3.9-14.7 7.3-23.5 12.4 0.4-1.2-1.1-1.8-0.3-2.9-14.1 11-0.4 35.3 8.1 46.2 1-1.3 1.9-3.9 2.8-5.4 2.1 4 7 6.7 9.5 10.2 0.2-2.7 1-4.8 1.7-7.4 5.1 6.1 12.7 10.7 20.1 12.9l0.2-3.3c11.1 9.5 27.9 14.5 43.3 14.3-1-1.9-1.5-2.3-1.8-4.6 9.2 12.5 28.4 15.7 42.9 18.1 0.1-1.6-0.9-2.9-0.5-4.6 10.7 10 28.8 7 42.4 10.8-2.1-2.2-2.6-4.3-2.4-6.3 5.4 9.7 21.1 5.1 42.6 3.1-6.3 3.4 5.3 5.9 12.8 5.9 7.5 0 19.1-2.5 12.8-5.9 21.4 2 37.1 6.6 42.6-3.1 0.2 2-0.4 4.1-2.4 6.3 13.5-3.8 31.6-0.8 42.3-10.8 0.5 1.7-0.6 3-0.5 4.6 14.5-2.4 33.8-5.6 42.9-18.1-0.3 2.3-0.7 2.7-1.8 4.6 15.5 0.2 32.2-4.8 43.3-14.3l0.2 3.3c7.4-2.2 15-6.8 20.2-12.9 0.6 2.6 1.4 4.7 1.7 7.4 2.5-3.5 7.3-6.2 9.4-10.2 0.9 1.5 1.9 4.1 2.8 5.4 8.5-10.9 22.2-35.2 8.1-46.2z"/>
		</g>
	</g>
</svg>